<svg width="60" height="60" viewBox="0 0 60 60" fill="none" xmlns="http://www.w3.org/2000/svg">
<path d="M28 2H26V6H28V2Z" fill="#5F3F28"/>
<path d="M32 2H28V4H32V2Z" fill="#5F3F28"/>
<path d="M34 4H32V6H34V4Z" fill="#5F3F28"/>
<path d="M30 0H28V2H30V0Z" fill="#5F3F28"/>
<path d="M26 6H24V8H26V6Z" fill="#5F3F28"/>
<path d="M30 6H28V10H30V6Z" fill="#74904D"/>
<path d="M30 4H28V6H30V4Z" fill="#74904D"/>
<path d="M36 6H34V10H36V6Z" fill="#5F3F28"/>
<path d="M24 8H22V16H24V8Z" fill="#5F3F28"/>
<path d="M30 10H28V12H30V10Z" fill="#74904D"/>
<path d="M36 10H34V12H36V10Z" fill="#5F3F28"/>
<path d="M30 12H28V14H30V12Z" fill="#74904D"/>
<path d="M36 12H34V14H36V12Z" fill="#5F3F28"/>
<path d="M26 16H24V20H26V16Z" fill="#5F3F28"/>
<path d="M28 6H26V20H28V6Z" fill="#A9BF7E"/>
<path d="M26 8H24V16H26V8Z" fill="#A9BF7E"/>
<path d="M32 4H30V6H32V4Z" fill="#A9BF7E"/>
<path d="M30 14H28V16H30V14Z" fill="#74904D"/>
<path d="M30 16H28V18H30V16Z" fill="#74904D"/>
<path d="M34 6H32V20H34V6Z" fill="#A9BF7E"/>
<path d="M32 6H30V20H32V6Z" fill="#A9BF7E"/>
<path d="M36 14H34V16H36V14Z" fill="#5F3F28"/>
<path d="M36 16H34V20H36V16Z" fill="#5F3F28"/>
<path d="M28 20H26V22H28V20Z" fill="#5F3F28"/>
<path d="M34 20H30V22H34V20Z" fill="#5F3F28"/>
<path d="M24 32H18V34H24V32Z" fill="#5F3F28"/>
<path d="M26 34H24V36H26V34Z" fill="#5F3F28"/>
<path d="M12 32H10V34H12V32Z" fill="#5F3F28"/>
<path d="M12 30H10V32H12V30Z" fill="#5F3F28"/>
<path d="M10 30H8V32H10V30Z" fill="#5F3F28"/>
<path d="M18 30H12V32H18V30Z" fill="#5F3F28"/>
<path d="M24 34H16V36H24V34Z" fill="#A9BF7E"/>
<path d="M28 38H26V42H28V38Z" fill="#5F3F28"/>
<path d="M26 36H24V38H26V36Z" fill="#5F3F28"/>
<path d="M12 34H10V38H12V34Z" fill="#5F3F28"/>
<path d="M22 36H16V38H22V36Z" fill="#74904D"/>
<path d="M14 32H12V34H14V32Z" fill="#74904D"/>
<path d="M16 34H14V36H16V34Z" fill="#74904D"/>
<path d="M24 38H22V40H24V38Z" fill="#74904D"/>
<path d="M26 40H24V42H26V40Z" fill="#74904D"/>
<path d="M28 42H26V44H28V42Z" fill="#74904D"/>
<path d="M14 38H12V40H14V38Z" fill="#5F3F28"/>
<path d="M22 38H14V40H22V38Z" fill="#A9BF7E"/>
<path d="M24 40H18V42H24V40Z" fill="#A9BF7E"/>
<path d="M16 36H12V38H16V36Z" fill="#A9BF7E"/>
<path d="M24 36H22V38H24V36Z" fill="#A9BF7E"/>
<path d="M26 38H24V40H26V38Z" fill="#A9BF7E"/>
<path d="M18 32H14V34H18V32Z" fill="#A9BF7E"/>
<path d="M14 34H12V36H14V34Z" fill="#A9BF7E"/>
<path d="M18 40H14V42H18V40Z" fill="#5F3F28"/>
<path d="M26 42H18V44H26V42Z" fill="#5F3F28"/>
<path d="M22 18H18V20H22V18Z" fill="#5F3F28"/>
<path d="M24 20H22V22H24V20Z" fill="#5F3F28"/>
<path d="M12 18H10V20H12V18Z" fill="#5F3F28"/>
<path d="M12 16H10V18H12V16Z" fill="#5F3F28"/>
<path d="M10 16H8V18H10V16Z" fill="#5F3F28"/>
<path d="M18 16H12V18H18V16Z" fill="#5F3F28"/>
<path d="M22 20H16V22H22V20Z" fill="#A9BF7E"/>
<path d="M28 24H26V38H28V24Z" fill="#5F3F28"/>
<path d="M26 22H24V24H26V22Z" fill="#5F3F28"/>
<path d="M12 20H10V24H12V20Z" fill="#5F3F28"/>
<path d="M22 22H16V24H22V22Z" fill="#74904D"/>
<path d="M14 18H12V20H14V18Z" fill="#74904D"/>
<path d="M16 20H14V22H16V20Z" fill="#74904D"/>
<path d="M24 24H22V26H24V24Z" fill="#74904D"/>
<path d="M26 26H24V28H26V26Z" fill="#74904D"/>
<path d="M26 28H24V34H26V28Z" fill="#74904D"/>
<path d="M14 24H12V26H14V24Z" fill="#5F3F28"/>
<path d="M22 24H14V26H22V24Z" fill="#A9BF7E"/>
<path d="M24 26H18V28H24V26Z" fill="#A9BF7E"/>
<path d="M24 28H20V30H24V28Z" fill="#A9BF7E"/>
<path d="M24 30H22V32H24V30Z" fill="#A9BF7E"/>
<path d="M16 22H12V24H16V22Z" fill="#A9BF7E"/>
<path d="M24 22H22V24H24V22Z" fill="#A9BF7E"/>
<path d="M26 24H24V26H26V24Z" fill="#A9BF7E"/>
<path d="M18 18H14V20H18V18Z" fill="#A9BF7E"/>
<path d="M14 20H12V22H14V20Z" fill="#A9BF7E"/>
<path d="M18 26H14V28H18V26Z" fill="#5F3F28"/>
<path d="M20 28H18V30H20V28Z" fill="#5F3F28"/>
<path d="M22 30H20V32H22V30Z" fill="#5F3F28"/>
<path d="M36 20H42V22H36V20Z" fill="#5F3F28"/>
<path d="M34 22H36V24H34V22Z" fill="#5F3F28"/>
<path d="M48 20H50V22H48V20Z" fill="#5F3F28"/>
<path d="M48 18H50V20H48V18Z" fill="#5F3F28"/>
<path d="M50 18H52V20H50V18Z" fill="#5F3F28"/>
<path d="M42 18H48V20H42V18Z" fill="#5F3F28"/>
<path d="M36 22H44V24H36V22Z" fill="#A9BF7E"/>
<path d="M32 24H34V28H32V24Z" fill="#5F3F28"/>
<path d="M30 28H32V30H30V28Z" fill="#5F3F28"/>
<path d="M48 22H50V26H48V22Z" fill="#5F3F28"/>
<path d="M38 24H44V26H38V24Z" fill="#74904D"/>
<path d="M46 20H48V22H46V20Z" fill="#74904D"/>
<path d="M44 22H46V24H44V22Z" fill="#74904D"/>
<path d="M36 26H38V28H36V26Z" fill="#74904D"/>
<path d="M34 28H36V30H34V28Z" fill="#74904D"/>
<path d="M32 30H34V32H32V30Z" fill="#74904D"/>
<path d="M30 32H32V38H30V32Z" fill="#74904D"/>
<path d="M46 26H48V28H46V26Z" fill="#5F3F28"/>
<path d="M38 26H46V28H38V26Z" fill="#A9BF7E"/>
<path d="M36 28H42V30H36V28Z" fill="#A9BF7E"/>
<path d="M34 30H38V32H34V30Z" fill="#A9BF7E"/>
<path d="M34 32H36V34H34V32Z" fill="#A9BF7E"/>
<path d="M32 32H34V36H32V32Z" fill="#A9BF7E"/>
<path d="M30 30H32V32H30V30Z" fill="#A9BF7E"/>
<path d="M44 24H48V26H44V24Z" fill="#A9BF7E"/>
<path d="M34 24H38V26H34V24Z" fill="#A9BF7E"/>
<path d="M34 26H36V28H34V26Z" fill="#A9BF7E"/>
<path d="M32 28H34V30H32V28Z" fill="#A9BF7E"/>
<path d="M42 20H46V22H42V20Z" fill="#A9BF7E"/>
<path d="M46 22H48V24H46V22Z" fill="#A9BF7E"/>
<path d="M42 28H46V30H42V28Z" fill="#5F3F28"/>
<path d="M38 30H42V32H38V30Z" fill="#5F3F28"/>
<path d="M36 32H38V34H36V32Z" fill="#5F3F28"/>
<path d="M34 34H36V36H34V34Z" fill="#5F3F28"/>
<path d="M32 36H34V38H32V36Z" fill="#5F3F28"/>
<path d="M30 38H32V40H30V38Z" fill="#5F3F28"/>
<path d="M36 34H42V36H36V34Z" fill="#5F3F28"/>
<path d="M34 36H36V38H34V36Z" fill="#5F3F28"/>
<path d="M48 34H50V36H48V34Z" fill="#5F3F28"/>
<path d="M48 32H50V34H48V32Z" fill="#5F3F28"/>
<path d="M50 32H52V34H50V32Z" fill="#5F3F28"/>
<path d="M42 32H48V34H42V32Z" fill="#5F3F28"/>
<path d="M36 36H44V38H36V36Z" fill="#A9BF7E"/>
<path d="M32 40H34V44H32V40Z" fill="#5F3F28"/>
<path d="M34 38H36V40H34V38Z" fill="#5F3F28"/>
<path d="M48 36H50V40H48V36Z" fill="#5F3F28"/>
<path d="M38 38H44V40H38V38Z" fill="#74904D"/>
<path d="M46 34H48V36H46V34Z" fill="#74904D"/>
<path d="M44 36H46V38H44V36Z" fill="#74904D"/>
<path d="M36 40H38V42H36V40Z" fill="#74904D"/>
<path d="M34 42H36V44H34V42Z" fill="#74904D"/>
<path d="M32 44H34V46H32V44Z" fill="#74904D"/>
<path d="M46 40H48V42H46V40Z" fill="#5F3F28"/>
<path d="M38 40H46V42H38V40Z" fill="#A9BF7E"/>
<path d="M36 42H42V44H36V42Z" fill="#A9BF7E"/>
<path d="M44 38H48V40H44V38Z" fill="#A9BF7E"/>
<path d="M36 38H38V40H36V38Z" fill="#A9BF7E"/>
<path d="M34 40H36V42H34V40Z" fill="#A9BF7E"/>
<path d="M42 34H46V36H42V34Z" fill="#A9BF7E"/>
<path d="M46 36H48V38H46V36Z" fill="#A9BF7E"/>
<path d="M42 42H46V44H42V42Z" fill="#5F3F28"/>
<path d="M34 44H42V46H34V44Z" fill="#5F3F28"/>
<path d="M32 42H28V44H32V42Z" fill="#74904D"/>
<path d="M30 18H28V42H30V18Z" fill="#74904D"/>
<path d="M32 44H28V46H32V44Z" fill="#74904D"/>
<path d="M32 46H28V50H32V46Z" fill="#74904D"/>
<path d="M42 50H18V52H42V50Z" fill="#5F3F28"/>
<path d="M38 52H22V54H38V52Z" fill="#D96B7A"/>
<path d="M38 54H22V58H38V54Z" fill="#F2A7B4"/>
<path d="M22 52H20V54H22V52Z" fill="#5F3F28"/>
<path d="M40 52H38V54H40V52Z" fill="#5F3F28"/>
<path d="M22 54H20V58H22V54Z" fill="#5F3F28"/>
<path d="M40 54H38V58H40V54Z" fill="#5F3F28"/>
<path d="M28 58H20V60H28V58Z" fill="#5F3F28"/>
<path d="M40 58H28V60H40V58Z" fill="#5F3F28"/>
</svg>
