<svg width="60" height="60" viewBox="0 0 60 60" fill="none" xmlns="http://www.w3.org/2000/svg">
<path d="M32 8H28V10H32V8Z" fill="#74904D"/>
<path d="M34 10H26V12H34V10Z" fill="#A9BF7E"/>
<path d="M34 12H26V14H34V12Z" fill="#A9BF7E"/>
<path d="M32 14H28V16H32V14Z" fill="#74904D"/>
<path d="M26 16H20V18H26V16Z" fill="#A9BF7E"/>
<path d="M32 16H28V18H32V16Z" fill="#74904D"/>
<path d="M40 16H34V18H40V16Z" fill="#A9BF7E"/>
<path d="M20 18H14V20H20V18Z" fill="#A9BF7E"/>
<path d="M24 18H22V20H24V18Z" fill="#74904D"/>
<path d="M34 18H26V20H34V18Z" fill="#74904D"/>
<path d="M38 18H36V20H38V18Z" fill="#74904D"/>
<path d="M46 18H40V20H46V18Z" fill="#A9BF7E"/>
<path d="M14 20H10V22H14V20Z" fill="#A9BF7E"/>
<path d="M20 20H18V22H20V20Z" fill="#74904D"/>
<path d="M32 20H28V22H32V20Z" fill="#74904D"/>
<path d="M42 20H40V22H42V20Z" fill="#74904D"/>
<path d="M50 20H46V22H50V20Z" fill="#A9BF7E"/>
<path d="M14 22H10V24H14V22Z" fill="#A9BF7E"/>
<path d="M16 22H14V24H16V22Z" fill="#74904D"/>
<path d="M26 22H24V24H26V22Z" fill="#92602E"/>
<path d="M36 22H34V24H36V22Z" fill="#92602E"/>
<path d="M46 22H44V24H46V22Z" fill="#74904D"/>
<path d="M50 22H46V24H50V22Z" fill="#A9BF7E"/>
<path d="M24 24H18V26H24V24Z" fill="#A9BF7E"/>
<path d="M26 24H24V26H26V24Z" fill="#74904D"/>
<path d="M32 24H28V26H32V24Z" fill="#B97B3F"/>
<path d="M36 24H34V26H36V24Z" fill="#74904D"/>
<path d="M42 24H36V26H42V24Z" fill="#A9BF7E"/>
<path d="M22 26H20V28H22V26Z" fill="#74904D"/>
<path d="M32 26H28V28H32V26Z" fill="#B97B3F"/>
<path d="M40 26H38V28H40V26Z" fill="#74904D"/>
<path d="M18 28H14V30H18V28Z" fill="#A9BF7E"/>
<path d="M30 28H28V30H30V28Z" fill="#92602E"/>
<path d="M32 28H30V30H32V28Z" fill="#B97B3F"/>
<path d="M46 28H42V30H46V28Z" fill="#A9BF7E"/>
<path d="M16 30H14V32H16V30Z" fill="#A9BF7E"/>
<path d="M18 30H16V32H18V30Z" fill="#74904D"/>
<path d="M32 30H28V32H32V30Z" fill="#B97B3F"/>
<path d="M44 30H42V32H44V30Z" fill="#74904D"/>
<path d="M46 30H44V32H46V30Z" fill="#A9BF7E"/>
<path d="M30 32H28V34H30V32Z" fill="#B97B3F"/>
<path d="M32 32H30V34H32V32Z" fill="#92602E"/>
<path d="M32 34H28V36H32V34Z" fill="#B97B3F"/>
<path d="M30 36H28V38H30V36Z" fill="#92602E"/>
<path d="M32 36H30V38H32V36Z" fill="#B97B3F"/>
<path d="M32 38H28V40H32V38Z" fill="#B97B3F"/>
<path d="M32 40H28V42H32V40Z" fill="#B97B3F"/>
<path d="M42 42H18V44H42V42Z" fill="#5F3F28"/>
<path d="M20 44H18V46H20V44Z" fill="#5F3F28"/>
<path d="M40 44H20V46H40V44Z" fill="#EEDDC2"/>
<path d="M42 44H40V46H42V44Z" fill="#5F3F28"/>
<path d="M42 46H18V48H42V46Z" fill="#5F3F28"/>
<path d="M22 48H20V50H22V48Z" fill="#5F3F28"/>
<path d="M26 48H22V50H26V48Z" fill="#FBF2DF"/>
<path d="M28 48H26V50H28V48Z" fill="#F2A7B4"/>
<path d="M30 48H28V50H30V48Z" fill="#FBF2DF"/>
<path d="M32 48H30V50H32V48Z" fill="#F2A7B4"/>
<path d="M38 48H32V50H38V48Z" fill="#FBF2DF"/>
<path d="M40 48H38V50H40V48Z" fill="#5F3F28"/>
<path d="M22 50H20V52H22V50Z" fill="#5F3F28"/>
<path d="M26 50H22V52H26V50Z" fill="#FBF2DF"/>
<path d="M32 50H26V52H32V50Z" fill="#F2A7B4"/>
<path d="M38 50H32V52H38V50Z" fill="#FBF2DF"/>
<path d="M40 50H38V52H40V50Z" fill="#5F3F28"/>
<path d="M28 52H20V54H28V52Z" fill="#5F3F28"/>
<path d="M30 52H28V54H30V52Z" fill="#F2A7B4"/>
<path d="M40 52H30V54H40V52Z" fill="#5F3F28"/>
<path d="M46 54H14V56H46V54Z" fill="#E3D3B4"/>
</svg>
