<svg width="60" height="60" viewBox="0 0 60 60" fill="none" xmlns="http://www.w3.org/2000/svg">
<path d="M54 12H8V22H54V12Z" fill="#E9BD7F"/>
<path d="M12 14H10V22H12V14Z" fill="#B97B3F"/>
<path d="M52 14H50V22H52V14Z" fill="#B97B3F"/>
<path d="M24 18H22V20H24V18Z" fill="#EEDDC2"/>
<path d="M50 26H12V28H50V26Z" fill="#EEDDC2"/>
<path d="M50 24H12V26H50V24Z" fill="#FBF2DF"/>
<path d="M40 18H38V20H40V18Z" fill="#EEDDC2"/>
<path d="M16 18H22V20H24V18H28V22H16V18Z" fill="#FBF2DF"/>
<path d="M34 18H38V20H40V18H46V22H34V18Z" fill="#FBF2DF"/>
<path d="M22 38H20V36H18V34H20V32H22V34H24V32H26V34H28V36H26V38H24V40H22V38Z" fill="#FBF2DF"/>
<path d="M38 34H40V32H42V34H44V36H42V38H40V40H38V38H36V36H34V34H36V32H38V34Z" fill="#FBF2DF"/>
<path d="M20 38H22V40H12V36H20V38Z" fill="#F2A7B4"/>
<path d="M36 38H38V40H24V38H26V36H36V38Z" fill="#F2A7B4"/>
<path d="M50 40H40V38H42V36H50V40Z" fill="#F2A7B4"/>
<path d="M50 34H42V32H40V34H38V32H36V34H26V32H24V34H22V32H20V34H12V30H50V34Z" fill="#F2A7B4"/>
<path d="M10 24H8V42H10V24Z" fill="#D9A15E"/>
<path d="M50 40V42H12V40H50Z" fill="#D96B7A"/>
<path d="M18 36H12V34H18V36Z" fill="#D96B7A"/>
<path d="M34 36H28V34H34V36Z" fill="#D96B7A"/>
<path d="M50 36H44V34H50V36Z" fill="#D96B7A"/>
<path d="M50 30H12V28H50V30Z" fill="#D96B7A"/>
<path d="M54 24H52V42H54V24Z" fill="#D9A15E"/>
<path d="M54 44H8V48H54V44Z" fill="#D9A15E"/>
<path d="M10 14H8V12H10V14Z" fill="#5F3F28"/>
<path d="M54 14H52V12H54V14Z" fill="#5F3F28"/>
<path d="M52 12H10V10H52V12Z" fill="#5F3F28"/>
<path fill-rule="evenodd" clip-rule="evenodd" d="M56 50H6L6 14H8V22H14V16H30V22H32V16H48V22H54V14H56V50ZM54 48V44H8V48H54ZM8 42H10V24H8V42ZM12 42H50V24H12V42ZM52 42H54V24H52V42ZM16 22H28V18H16V22ZM34 22H46V18H34V22Z" fill="#5F3F28"/>
<path d="M16 52H10V50H16V52Z" fill="#92602E"/>
<path d="M46 50H52V52H46V50Z" fill="#92602E"/>
</svg>
