<svg width="47" height="32" viewBox="0 0 47 32" fill="none" xmlns="http://www.w3.org/2000/svg">
<path d="M2.09732 19.6872V6.86384C2.09732 5.89213 2.74158 4.96022 3.88838 4.27312C5.03517 3.58602 6.59056 3.20001 8.21237 3.20001H38.7876C40.4094 3.20001 41.9648 3.58602 43.1116 4.27312C44.2584 4.96022 44.9027 5.89213 44.9027 6.86384V19.6872" fill="#DDCFA8" stroke="#2A241D" stroke-linejoin="round"/>
<path d="M42.6498 19.0766H4.35023C3.10598 19.0766 2.09732 19.5323 2.09732 20.0943V24.1652C2.09732 24.7273 3.10598 25.183 4.35023 25.183H42.6498C43.894 25.183 44.9027 24.7273 44.9027 24.1652V20.0943C44.9027 19.5323 43.894 19.0766 42.6498 19.0766Z" fill="#DDCFA8" stroke="#2A241D" stroke-linejoin="round"/>
<path d="M39.3991 11.7489L7.60087 11.7489C6.98936 11.7489 6.0721 11.7489 5.63761 12.7537L2.09732 18.6823C2.09732 19.2373 3.10598 19.6872 4.35023 19.6872H42.6498C43.894 19.6872 44.9027 19.2373 44.9027 18.6823L41.3624 12.7538C40.6222 11.7489 40.0106 11.7489 39.3991 11.7489Z" fill="#DDCFA8" stroke="#2A241D" stroke-linejoin="round"/>
<path d="M8.21237 11.7489V9.30638C8.21237 8.65858 8.48296 8.0373 8.96462 7.57924C9.44627 7.12117 10.0995 6.86383 10.7807 6.86383H18.4857C19.1668 6.86383 19.8201 7.12117 20.3017 7.57924C20.7834 8.0373 21.054 8.65858 21.054 9.30638V11.7489" fill="#F4EDE0" stroke="#2A241D" stroke-linejoin="round"/>
<path d="M25.946 11.7489V9.30638C25.946 8.65858 26.2166 8.0373 26.6983 7.57924C27.1799 7.12117 27.8332 6.86383 28.5143 6.86383H36.2193C36.9005 6.86383 37.5537 7.12117 38.0354 7.57924C38.517 8.0373 38.7876 8.65858 38.7876 9.30638V11.7489" fill="#F4EDE0" stroke="#2A241D" stroke-linejoin="round"/>
<path d="M39.3991 11.7489L7.60087 11.7489C6.98936 11.7489 6.07211 11.7489 5.63762 12.7537L4.77908 14.1915H42.2209L41.3624 12.7538C40.6222 11.7489 40.0106 11.7489 39.3991 11.7489Z" fill="#F4EDE0" stroke="#2A241D" stroke-linejoin="round"/>
<path d="M4.54333 22.9814V28.4772" stroke="#2A241D" stroke-linecap="round" stroke-linejoin="round"/>
<path d="M42.4567 22.9814V28.4772" stroke="#2A241D" stroke-linecap="round" stroke-linejoin="round"/>
</svg>
