<svg width="88" height="60" viewBox="0 0 88 60" fill="none" xmlns="http://www.w3.org/2000/svg">
<path d="M3.92688 36.9135V12.8697C3.92688 11.0477 5.13316 9.3004 7.28035 8.01208C9.42754 6.72377 12.3398 6 15.3763 6H72.6236C75.6602 6 78.5724 6.72377 80.7196 8.01208C82.8668 9.3004 84.0731 11.0477 84.0731 12.8697V36.9135" fill="#DDCFA8" stroke="#2A241D" stroke-width="2.3" stroke-linejoin="round"/>
<path d="M79.8549 35.7686H8.1451C5.81544 35.7686 3.92688 36.6229 3.92688 37.6768V45.3098C3.92688 46.3637 5.81544 47.218 8.1451 47.218H79.8549C82.1845 47.218 84.0731 46.3637 84.0731 45.3098V37.6768C84.0731 36.6229 82.1845 35.7686 79.8549 35.7686Z" fill="#DDCFA8" stroke="#2A241D" stroke-width="2.3" stroke-linejoin="round"/>
<path d="M73.7686 22.0292L14.2314 22.0292C13.0864 22.0292 11.369 22.0292 10.5555 23.9133L3.92688 35.0294C3.92688 36.07 5.81544 36.9135 8.1451 36.9135H79.8549C82.1845 36.9135 84.0731 36.07 84.0731 35.0294L77.4445 23.9133C76.0585 22.0292 74.9135 22.0292 73.7686 22.0292Z" fill="#DDCFA8" stroke="#2A241D" stroke-width="2.3" stroke-linejoin="round"/>
<path d="M73.7686 22.0292L14.2314 22.0292C13.0865 22.0292 11.369 22.0292 10.5555 23.9133L8.94806 26.609H79.0519L77.4445 23.9133C76.0585 22.0292 74.9135 22.0292 73.7686 22.0292Z" fill="#F4EDE0" stroke="#2A241D" stroke-width="2.3" stroke-linejoin="round"/>
<path d="M15.3763 22.0293V17.4495C15.3763 16.2348 15.883 15.07 16.7848 14.2111C17.6866 13.3522 18.9097 12.8697 20.1851 12.8697H34.6114C35.8868 12.8697 37.1099 13.3522 38.0118 14.2111C38.9136 15.07 39.4202 16.2348 39.4202 17.4495V22.0293" fill="#F4EDE0" stroke="#2A241D" stroke-width="2.3" stroke-linejoin="round"/>
<path d="M48.5798 22.0293V17.4495C48.5798 16.2348 49.0864 15.07 49.9882 14.2111C50.8901 13.3522 52.1132 12.8697 53.3885 12.8697H67.8149C69.0902 12.8697 70.3134 13.3522 71.2152 14.2111C72.117 15.07 72.6236 16.2348 72.6236 17.4495V22.0293" fill="#F4EDE0" stroke="#2A241D" stroke-width="2.3" stroke-linejoin="round"/>
<path d="M8.50665 43.0902V53.3948" stroke="#2A241D" fill="none" stroke-width="2.3" stroke-linecap="round" stroke-linejoin="round"/>
<path d="M79.4933 43.0902V53.3948" stroke="#2A241D" fill="none" stroke-width="2.3" stroke-linecap="round" stroke-linejoin="round"/>
</svg>
