<svg width="32" height="32" viewBox="0 0 32 32" fill="none" xmlns="http://www.w3.org/2000/svg">
<path d="M2.66666 18.2396V10.2396C2.66666 9.63336 3.06802 9.05198 3.78244 8.62333C4.49687 8.19467 5.46583 7.95386 6.47618 7.95386H25.5238C26.5342 7.95386 27.5031 8.19467 28.2175 8.62333C28.932 9.05198 29.3333 9.63336 29.3333 10.2396V18.2396" fill="#DDCFA8" stroke="#2A241D" stroke-linejoin="round"/>
<path d="M27.9298 17.8586H4.07017C3.29503 17.8586 2.66666 18.1429 2.66666 18.4936V21.0332C2.66666 21.3839 3.29503 21.6682 4.07017 21.6682H27.9298C28.705 21.6682 29.3333 21.3839 29.3333 21.0332V18.4936C29.3333 18.1429 28.705 17.8586 27.9298 17.8586Z" fill="#DDCFA8" stroke="#2A241D" stroke-linejoin="round"/>
<path d="M25.9048 13.2872H6.09523C5.71428 13.2872 5.14285 13.2872 4.87217 13.9141L2.66666 17.6127C2.66666 17.9589 3.29503 18.2396 4.07017 18.2396H27.9298C28.705 18.2396 29.3333 17.9589 29.3333 17.6127L27.1278 13.9141C26.6667 13.2872 26.2857 13.2872 25.9048 13.2872Z" fill="#DDCFA8" stroke="#2A241D" stroke-linejoin="round"/>
<path d="M25.9048 13.2872H6.09524C5.71429 13.2872 5.14286 13.2872 4.87219 13.9141L4.33734 14.811H27.6627L27.1278 13.9141C26.6667 13.2872 26.2857 13.2872 25.9048 13.2872Z" fill="#F4EDE0" stroke="#2A241D" stroke-linejoin="round"/>
<path d="M6.4762 13.2872V11.7634C6.4762 11.3592 6.64477 10.9716 6.94483 10.6859C7.24488 10.4001 7.65185 10.2396 8.0762 10.2396H12.8762C13.3005 10.2396 13.7075 10.4001 14.0076 10.6859C14.3076 10.9716 14.4762 11.3592 14.4762 11.7634V13.2872" fill="#F4EDE0" stroke="#2A241D" stroke-linejoin="round"/>
<path d="M17.5238 13.2872V11.7634C17.5238 11.3592 17.6924 10.9716 17.9924 10.6859C18.2925 10.4001 18.6995 10.2396 19.1238 10.2396H23.9238C24.3482 10.2396 24.7551 10.4001 25.0552 10.6859C25.3552 10.9716 25.5238 11.3592 25.5238 11.7634V13.2872" fill="#F4EDE0" stroke="#2A241D" stroke-linejoin="round"/>
<path d="M4.19046 20.2947V23.7233" stroke="#2A241D" stroke-linecap="round" stroke-linejoin="round"/>
<path d="M27.8095 20.2947V23.7233" stroke="#2A241D" stroke-linecap="round" stroke-linejoin="round"/>
</svg>
