<svg width="60" height="60" viewBox="0 0 60 60" fill="none" xmlns="http://www.w3.org/2000/svg">
<path d="M54 4H6V6H54V4Z" fill="#5F3F28"/>
<path d="M8 6H6V8H8V6Z" fill="#5F3F28"/>
<path d="M52 6H8V8H52V6Z" fill="#B97B3F"/>
<path d="M54 6H52V8H54V6Z" fill="#5F3F28"/>
<path d="M54 8H6V10H54V8Z" fill="#5F3F28"/>
<path d="M6 10H4V12H6V10Z" fill="#B97B3F"/>
<path d="M18 10H16V12H18V10Z" fill="#EEDDC2"/>
<path d="M44 10H42V12H44V10Z" fill="#EEDDC2"/>
<path d="M56 10H54V12H56V10Z" fill="#5F3F28"/>
<path d="M6 12H4V14H6V12Z" fill="#B97B3F"/>
<path d="M16 12H8V14H16V12Z" fill="#FBF2DF"/>
<path d="M18 12H16V14H18V12Z" fill="#EEDDC2"/>
<path d="M42 12H18V14H42V12Z" fill="#FBF2DF"/>
<path d="M44 12H42V14H44V12Z" fill="#EEDDC2"/>
<path d="M52 12H44V14H52V12Z" fill="#FBF2DF"/>
<path d="M56 12H54V14H56V12Z" fill="#5F3F28"/>
<path d="M6 14H4V16H6V14Z" fill="#B97B3F"/>
<path d="M16 14H8V16H16V14Z" fill="#E0C9A3"/>
<path d="M18 14H16V16H18V14Z" fill="#EEDDC2"/>
<path d="M42 14H18V16H42V14Z" fill="#E0C9A3"/>
<path d="M44 14H42V16H44V14Z" fill="#EEDDC2"/>
<path d="M52 14H44V16H52V14Z" fill="#E0C9A3"/>
<path d="M56 14H54V16H56V14Z" fill="#5F3F28"/>
<path d="M6 16H4V18H6V16Z" fill="#B97B3F"/>
<path d="M18 16H16V18H18V16Z" fill="#EEDDC2"/>
<path d="M44 16H42V18H44V16Z" fill="#EEDDC2"/>
<path d="M56 16H54V18H56V16Z" fill="#5F3F28"/>
<path d="M6 18H4V20H6V18Z" fill="#B97B3F"/>
<path d="M16 18H8V20H16V18Z" fill="#FBF2DF"/>
<path d="M18 18H16V20H18V18Z" fill="#EEDDC2"/>
<path d="M42 18H18V20H42V18Z" fill="#FBF2DF"/>
<path d="M44 18H42V20H44V18Z" fill="#EEDDC2"/>
<path d="M52 18H44V20H52V18Z" fill="#FBF2DF"/>
<path d="M56 18H54V20H56V18Z" fill="#5F3F28"/>
<path d="M6 20H4V22H6V20Z" fill="#B97B3F"/>
<path d="M16 20H8V22H16V20Z" fill="#E0C9A3"/>
<path d="M18 20H16V22H18V20Z" fill="#EEDDC2"/>
<path d="M42 20H18V22H42V20Z" fill="#E0C9A3"/>
<path d="M44 20H42V22H44V20Z" fill="#EEDDC2"/>
<path d="M52 20H44V22H52V20Z" fill="#E0C9A3"/>
<path d="M56 20H54V22H56V20Z" fill="#5F3F28"/>
<path d="M6 22H4V24H6V22Z" fill="#B97B3F"/>
<path d="M18 22H16V24H18V22Z" fill="#EEDDC2"/>
<path d="M44 22H42V24H44V22Z" fill="#EEDDC2"/>
<path d="M56 22H54V24H56V22Z" fill="#5F3F28"/>
<path d="M6 24H4V26H6V24Z" fill="#B97B3F"/>
<path d="M16 24H8V26H16V24Z" fill="#FBF2DF"/>
<path d="M18 24H16V26H18V24Z" fill="#EEDDC2"/>
<path d="M42 24H18V26H42V24Z" fill="#FBF2DF"/>
<path d="M44 24H42V26H44V24Z" fill="#EEDDC2"/>
<path d="M52 24H44V26H52V24Z" fill="#FBF2DF"/>
<path d="M56 24H54V26H56V24Z" fill="#5F3F28"/>
<path d="M6 26H4V28H6V26Z" fill="#B97B3F"/>
<path d="M16 26H8V28H16V26Z" fill="#E0C9A3"/>
<path d="M18 26H16V28H18V26Z" fill="#EEDDC2"/>
<path d="M42 26H18V28H42V26Z" fill="#E0C9A3"/>
<path d="M44 26H42V28H44V26Z" fill="#EEDDC2"/>
<path d="M52 26H44V28H52V26Z" fill="#E0C9A3"/>
<path d="M56 26H54V28H56V26Z" fill="#5F3F28"/>
<path d="M6 28H4V30H6V28Z" fill="#B97B3F"/>
<path d="M18 28H16V30H18V28Z" fill="#EEDDC2"/>
<path d="M44 28H42V30H44V28Z" fill="#EEDDC2"/>
<path d="M56 28H54V30H56V28Z" fill="#D9A94F"/>
<path d="M16 30H8V32H16V30Z" fill="#FBF2DF"/>
<path d="M18 30H16V32H18V30Z" fill="#EEDDC2"/>
<path d="M42 30H18V32H42V30Z" fill="#FBF2DF"/>
<path d="M44 30H42V32H44V30Z" fill="#EEDDC2"/>
<path d="M52 30H44V32H52V30Z" fill="#FBF2DF"/>
<path d="M56 30H54V32H56V30Z" fill="#D9A94F"/>
<path d="M16 32H8V34H16V32Z" fill="#E0C9A3"/>
<path d="M18 32H16V34H18V32Z" fill="#EEDDC2"/>
<path d="M42 32H18V34H42V32Z" fill="#E0C9A3"/>
<path d="M44 32H42V34H44V32Z" fill="#EEDDC2"/>
<path d="M52 32H44V34H52V32Z" fill="#E0C9A3"/>
<path d="M18 34H16V36H18V34Z" fill="#EEDDC2"/>
<path d="M44 34H42V36H44V34Z" fill="#EEDDC2"/>
<path d="M16 36H8V38H16V36Z" fill="#FBF2DF"/>
<path d="M18 36H16V38H18V36Z" fill="#EEDDC2"/>
<path d="M42 36H18V38H42V36Z" fill="#FBF2DF"/>
<path d="M44 36H42V38H44V36Z" fill="#EEDDC2"/>
<path d="M52 36H44V38H52V36Z" fill="#FBF2DF"/>
<path d="M16 38H8V40H16V38Z" fill="#E0C9A3"/>
<path d="M18 38H16V40H18V38Z" fill="#EEDDC2"/>
<path d="M42 38H18V40H42V38Z" fill="#E0C9A3"/>
<path d="M44 38H42V40H44V38Z" fill="#EEDDC2"/>
<path d="M52 38H44V40H52V38Z" fill="#E0C9A3"/>
<path d="M18 40H16V42H18V40Z" fill="#EEDDC2"/>
<path d="M44 40H42V42H44V40Z" fill="#EEDDC2"/>
<path d="M16 42H8V44H16V42Z" fill="#FBF2DF"/>
<path d="M18 42H16V44H18V42Z" fill="#EEDDC2"/>
<path d="M42 42H18V44H42V42Z" fill="#FBF2DF"/>
<path d="M44 42H42V44H44V42Z" fill="#EEDDC2"/>
<path d="M52 42H44V44H52V42Z" fill="#FBF2DF"/>
<path d="M16 44H8V46H16V44Z" fill="#E0C9A3"/>
<path d="M18 44H16V46H18V44Z" fill="#EEDDC2"/>
<path d="M42 44H18V46H42V44Z" fill="#E0C9A3"/>
<path d="M44 44H42V46H44V44Z" fill="#EEDDC2"/>
<path d="M52 44H44V46H52V44Z" fill="#E0C9A3"/>
<path d="M18 46H16V48H18V46Z" fill="#EEDDC2"/>
<path d="M44 46H42V48H44V46Z" fill="#EEDDC2"/>
<path d="M54 48H6V50H54V48Z" fill="#5F3F28"/>
<path d="M8 50H6V52H8V50Z" fill="#5F3F28"/>
<path d="M52 50H8V52H52V50Z" fill="#B97B3F"/>
<path d="M54 50H52V52H54V50Z" fill="#5F3F28"/>
<path d="M54 52H6V54H54V52Z" fill="#5F3F28"/>
</svg>
