<svg width="60" height="60" viewBox="0 0 60 60" fill="none" xmlns="http://www.w3.org/2000/svg">
<path d="M20 36H12V34H20V36Z" fill="#E0C9A3"/>
<path d="M48 34V36H40V34H48Z" fill="#E0C9A3"/>
<path d="M36 32H24V30H36V32Z" fill="#E0C9A3"/>
<path d="M40 38H38V34H40V36H48V34H40V32H36V30H24V32H20V34H12V36H20V34H22V38H20V40H12V38H10V30H14V28H10V22H12V20H20V22H22V26H20V28H40V26H38V22H40V20H48V22H50V30H46V32H50V38H48V40H40V38Z" fill="#FBF2DF"/>
<path d="M20 42H12V40H20V42Z" fill="#5F3F28"/>
<path d="M48 40V42H40V40H48Z" fill="#5F3F28"/>
<path d="M12 40H10V38H12V40Z" fill="#5F3F28"/>
<path d="M22 40H20V38H22V40Z" fill="#5F3F28"/>
<path d="M40 40H38V38H40V40Z" fill="#5F3F28"/>
<path d="M50 40H48V38H50V40Z" fill="#5F3F28"/>
<path d="M10 38H8V30H10V38Z" fill="#5F3F28"/>
<path d="M40 34H38V38H36V34H24V38H22V34H20V32H40V34Z" fill="#5F3F28"/>
<path d="M52 38H50V32H52V38Z" fill="#5F3F28"/>
<path d="M50 32H46V30H50V32Z" fill="#5F3F28"/>
<path d="M14 30H10V28H14V30Z" fill="#5F3F28"/>
<path d="M52 30H50V22H52V30Z" fill="#5F3F28"/>
<path d="M10 28H8V22H10V28Z" fill="#5F3F28"/>
<path d="M24 26H36V22H38V26H40V28H20V26H22V22H24V26Z" fill="#5F3F28"/>
<path d="M12 22H10V20H12V22Z" fill="#5F3F28"/>
<path d="M22 22H20V20H22V22Z" fill="#5F3F28"/>
<path d="M40 22H38V20H40V22Z" fill="#5F3F28"/>
<path d="M50 22H48V20H50V22Z" fill="#5F3F28"/>
<path d="M20 20H12V18H20V20Z" fill="#5F3F28"/>
<path d="M48 20H40V18H48V20Z" fill="#5F3F28"/>
</svg>
