<svg width="60" height="60" viewBox="0 0 60 60" fill="none" xmlns="http://www.w3.org/2000/svg">
<path d="M39.5783 24.5798H18.3475C18.3475 24.5798 15.3686 20.9355 12.787 21.0009C10.0009 21.0715 7.52252 22.7033 7.2266 25.4746C6.9442 28.1193 11.2706 30.9548 11.2706 30.9548C11.2706 30.9548 7.97139 31.4587 7.2266 33.0798C6.07643 35.5833 9.54188 37.7102 12.2815 38.0009C15.1089 38.3009 18.3475 33.9746 18.3475 33.9746H39.5783C39.5783 33.9746 43.1469 37.7975 46.1497 38.0009C49.165 38.2051 52.5073 37.8047 53.2266 34.8693C53.9586 31.882 48.1717 28.8298 48.1717 28.8298C48.1717 28.8298 52.2886 28.7233 53.2266 26.8167C54.559 24.1083 50.6009 22.1539 47.6662 21.4482C44.373 20.6564 39.5783 24.5798 39.5783 24.5798Z" fill="#F4EDE0" stroke="#2A241D" stroke-width="2" stroke-linecap="round" stroke-linejoin="round"/>
<path d="M43.5 30.5C45.5 28.5 46.1497 28.8298 48.1717 28.8298M15.3145 28.8298C14.1005 29.909 13.1845 30.3534 11.2706 30.9548" fill="none" stroke="#2A241D" stroke-width="2" stroke-linecap="round"/>
</svg>
