<svg width="32" height="32" viewBox="0 0 32 32" fill="none" xmlns="http://www.w3.org/2000/svg">
<path d="M21.8664 12.333H9.08026C9.08026 12.333 7.28625 9.98123 5.7315 10.0234C4.05355 10.069 2.56096 11.122 2.38275 12.9104C2.21267 14.6171 4.81821 16.4469 4.81821 16.4469C4.81821 16.4469 2.8313 16.7721 2.38275 17.8182C1.69006 19.4338 3.77712 20.8063 5.42707 20.9939C7.12985 21.1875 9.08026 18.3956 9.08026 18.3956H21.8664C21.8664 18.3956 24.0156 20.8626 25.824 20.9939C27.64 21.1257 29.6529 20.8673 30.0861 18.973C30.5269 17.0452 27.0418 15.0756 27.0418 15.0756C27.0418 15.0756 29.5212 15.0069 30.0861 13.7765C30.8886 12.0287 28.5048 10.7675 26.7373 10.3121C24.754 9.80116 21.8664 12.333 21.8664 12.333Z" fill="#F4EDE0" stroke="#2A241D" stroke-linecap="round" stroke-linejoin="round"/>
<path d="M25.2079 15.8109C26.5087 14.8786 26.9312 15.0323 28.2463 15.0323M6.87641 15.0323C6.08686 15.5354 5.49109 15.7425 4.24628 16.0229" stroke="#2A241D" stroke-linecap="round"/>
</svg>
