<svg width="32" height="32" viewBox="0 0 32 32" fill="none" xmlns="http://www.w3.org/2000/svg">
<path d="M23.7333 17.0667H8.26667C7.82484 17.0667 7.46667 17.4248 7.46667 17.8667V21.6C7.46667 22.0418 7.82484 22.4 8.26667 22.4H23.7333C24.1752 22.4 24.5333 22.0418 24.5333 21.6V17.8667C24.5333 17.4248 24.1752 17.0667 23.7333 17.0667Z" fill="#DDCFA8" stroke="#2A241D" stroke-linejoin="round"/>
<path d="M10.6667 17.0667V22.4" stroke="#2A241D" stroke-linecap="round"/>
<path d="M23.2 11.2H9.86667C9.42484 11.2 9.06667 11.5582 9.06667 12V15.7333C9.06667 16.1752 9.42484 16.5333 9.86667 16.5333H23.2C23.6418 16.5333 24 16.1752 24 15.7333V12C24 11.5582 23.6418 11.2 23.2 11.2Z" fill="#F4EDE0" stroke="#2A241D" stroke-linejoin="round"/>
<path d="M12.2667 11.2V16.5333" stroke="#2A241D" stroke-linecap="round"/>
</svg>
