<svg width="60" height="60" viewBox="0 0 60 60" fill="none" xmlns="http://www.w3.org/2000/svg">
<path d="M30 4H26V6H30V4Z" fill="#A9C8E6"/>
<path d="M28 2H26V4H28V2Z" fill="#A9C8E6"/>
<path d="M24 6H20V8H24V6Z" fill="#D96B7A"/>
<path d="M24 4H22V6H24V4Z" fill="#D96B7A"/>
<path d="M30 6H26V8H30V6Z" fill="#A9C8E6"/>
<path d="M24 8H20V10H24V8Z" fill="#D96B7A"/>
<path d="M30 8H26V10H30V8Z" fill="#EEDDC2"/>
<path d="M24 10H20V12H24V10Z" fill="#EEDDC2"/>
<path d="M30 10H26V12H30V10Z" fill="#D9A15E"/>
<path d="M36 10H32V12H36V10Z" fill="#A9BF7E"/>
<path d="M34 8H32V10H34V8Z" fill="#A9BF7E"/>
<path d="M24 12H20V14H24V12Z" fill="#B97B3F"/>
<path d="M30 12H26V14H30V12Z" fill="#D9A15E"/>
<path d="M36 12H32V14H36V12Z" fill="#A9BF7E"/>
<path d="M24 14H20V16H24V14Z" fill="#B97B3F"/>
<path d="M30 14H26V16H30V14Z" fill="#D9A15E"/>
<path d="M36 14H32V16H36V14Z" fill="#EEDDC2"/>
<path d="M40 14H38V16H40V14Z" fill="#ECCA7F"/>
<path d="M24 16H20V18H24V16Z" fill="#B97B3F"/>
<path d="M30 16H26V18H30V16Z" fill="#D9A15E"/>
<path d="M36 16H32V18H36V16Z" fill="#B97B3F"/>
<path d="M40 16H38V18H40V16Z" fill="#92602E"/>
<path d="M24 18H20V20H24V18Z" fill="#B97B3F"/>
<path d="M30 18H26V20H30V18Z" fill="#D9A15E"/>
<path d="M36 18H32V20H36V18Z" fill="#B97B3F"/>
<path d="M40 18H38V20H40V18Z" fill="#92602E"/>
<path d="M24 20H20V22H24V20Z" fill="#B97B3F"/>
<path d="M30 20H26V22H30V20Z" fill="#D9A15E"/>
<path d="M36 20H32V22H36V20Z" fill="#B97B3F"/>
<path d="M40 20H38V22H40V20Z" fill="#92602E"/>
<path d="M24 22H20V24H24V22Z" fill="#B97B3F"/>
<path d="M30 22H26V24H30V22Z" fill="#D9A15E"/>
<path d="M36 22H32V24H36V22Z" fill="#B97B3F"/>
<path d="M40 22H38V24H40V22Z" fill="#92602E"/>
<path d="M24 24H20V26H24V24Z" fill="#B97B3F"/>
<path d="M30 24H26V26H30V24Z" fill="#D9A15E"/>
<path d="M36 24H32V26H36V24Z" fill="#B97B3F"/>
<path d="M40 24H38V26H40V24Z" fill="#92602E"/>
<path d="M24 26H20V28H24V26Z" fill="#B97B3F"/>
<path d="M30 26H26V28H30V26Z" fill="#D9A15E"/>
<path d="M36 26H32V28H36V26Z" fill="#B97B3F"/>
<path d="M40 26H38V28H40V26Z" fill="#92602E"/>
<path d="M44 28H16V30H44V28Z" fill="#5F3F28"/>
<path d="M18 30H16V32H18V30Z" fill="#5F3F28"/>
<path d="M42 30H18V32H42V30Z" fill="#EEDDC2"/>
<path d="M44 30H42V32H44V30Z" fill="#5F3F28"/>
<path d="M44 32H16V34H44V32Z" fill="#5F3F28"/>
<path d="M20 34H18V36H20V34Z" fill="#5F3F28"/>
<path d="M40 34H20V36H40V34Z" fill="#FBF2DF"/>
<path d="M42 34H40V36H42V34Z" fill="#5F3F28"/>
<path d="M20 36H18V38H20V36Z" fill="#5F3F28"/>
<path d="M40 36H20V38H40V36Z" fill="#FBF2DF"/>
<path d="M42 36H40V38H42V36Z" fill="#5F3F28"/>
<path d="M20 38H18V40H20V38Z" fill="#5F3F28"/>
<path d="M40 38H20V40H40V38Z" fill="#FBF2DF"/>
<path d="M42 38H40V40H42V38Z" fill="#5F3F28"/>
<path d="M20 40H18V42H20V40Z" fill="#5F3F28"/>
<path d="M26 40H20V42H26V40Z" fill="#FBF2DF"/>
<path d="M28 40H26V42H28V40Z" fill="#CF5B5B"/>
<path d="M30 40H28V42H30V40Z" fill="#FBF2DF"/>
<path d="M32 40H30V42H32V40Z" fill="#CF5B5B"/>
<path d="M40 40H32V42H40V40Z" fill="#FBF2DF"/>
<path d="M42 40H40V42H42V40Z" fill="#5F3F28"/>
<path d="M20 42H18V44H20V42Z" fill="#5F3F28"/>
<path d="M26 42H20V44H26V42Z" fill="#FBF2DF"/>
<path d="M32 42H26V44H32V42Z" fill="#CF5B5B"/>
<path d="M40 42H32V44H40V42Z" fill="#FBF2DF"/>
<path d="M42 42H40V44H42V42Z" fill="#5F3F28"/>
<path d="M20 44H18V46H20V44Z" fill="#5F3F28"/>
<path d="M28 44H20V46H28V44Z" fill="#FBF2DF"/>
<path d="M30 44H28V46H30V44Z" fill="#CF5B5B"/>
<path d="M40 44H30V46H40V44Z" fill="#FBF2DF"/>
<path d="M42 44H40V46H42V44Z" fill="#5F3F28"/>
<path d="M20 46H18V48H20V46Z" fill="#5F3F28"/>
<path d="M40 46H20V48H40V46Z" fill="#FBF2DF"/>
<path d="M42 46H40V48H42V46Z" fill="#5F3F28"/>
<path d="M20 48H18V50H20V48Z" fill="#5F3F28"/>
<path d="M40 48H20V50H40V48Z" fill="#FBF2DF"/>
<path d="M42 48H40V50H42V48Z" fill="#5F3F28"/>
<path d="M20 50H18V52H20V50Z" fill="#5F3F28"/>
<path d="M40 50H20V52H40V50Z" fill="#FBF2DF"/>
<path d="M42 50H40V52H42V50Z" fill="#5F3F28"/>
<path d="M20 52H18V54H20V52Z" fill="#5F3F28"/>
<path d="M40 52H20V54H40V52Z" fill="#FBF2DF"/>
<path d="M42 52H40V54H42V52Z" fill="#5F3F28"/>
<path d="M42 54H18V56H42V54Z" fill="#5F3F28"/>
</svg>
