<svg width="60" height="60" viewBox="0 0 60 60" fill="none" xmlns="http://www.w3.org/2000/svg">
<path d="M38.5714 39H21.4286C19.535 39 18 39.9643 18 41.1538V49.7692C18 50.9588 22.9636 53 24.8571 53H34.2857C36.1793 53 42 50.9588 42 49.7692V41.1538C42 39.9643 40.465 39 38.5714 39Z" fill="#DDCFA8" stroke="#2A241D" stroke-width="2.3" stroke-linejoin="round"/>
<path d="M22.5 39V14.1429C22.5 13.0441 23.2902 11.9904 24.6967 11.2134C26.1032 10.4365 28.0109 10 30 10C31.9891 10 33.8968 10.4365 35.3033 11.2134C36.7098 11.9904 37.5 13.0441 37.5 14.1429V39" fill="#DDCFA8" stroke="#2A241D" stroke-width="2.3" stroke-linejoin="round"/>
<path d="M27 39V14.1429C27 13.0441 27.3161 11.9904 27.8787 11.2134C28.4413 10.4365 29.2044 10 30 10C30.7956 10 31.5587 10.4365 32.1213 11.2134C32.6839 11.9904 33 13.0441 33 14.1429V39" fill="#DDCFA8" stroke="#2A241D" stroke-width="2.3" stroke-linejoin="round"/>
</svg>
