<svg width="60" height="60" viewBox="0 0 60 60" fill="none" xmlns="http://www.w3.org/2000/svg">
<path d="M22.5 39V14.1429C22.5 13.0441 23.2902 11.9904 24.6967 11.2134C26.1032 10.4365 28.0109 10 30 10C31.9891 10 33.8968 10.4365 35.3033 11.2134C36.7098 11.9904 37.5 13.0441 37.5 14.1429V39" fill="#6E9C4F" stroke="#2A241D" stroke-width="2.3" stroke-linejoin="round"/>
<path d="M27 39V14.1429C27 13.0441 27.3161 11.9904 27.8787 11.2134C28.4413 10.4365 29.2044 10 30 10C30.7956 10 31.5587 10.4365 32.1213 11.2134C32.6839 11.9904 33 13.0441 33 14.1429V39" fill="#6E9C4F" stroke="#2A241D" stroke-width="2.3" stroke-linejoin="round"/>
<path d="M27 6.49999L28.8573 9.67461M30 9.67461L30 5.99999M31 9.67461L33 6.5" stroke="#2A241D" fill="none" stroke-width="2.3" stroke-linecap="round" stroke-linejoin="round"/>
<path d="M41.1809 16.2381L38.0052 18.0935M38.0046 19.2362L41.6792 19.2384M38.004 20.2362L41.1774 22.2381" stroke="#2A241D" fill="none" stroke-width="2.3" stroke-linecap="round" stroke-linejoin="round"/>
<path d="M18.8044 29.8329L21.9833 27.9829M21.9859 26.8402L18.3113 26.8317M21.9882 25.8402L18.8183 23.8329" stroke="#2A241D" fill="none" stroke-width="2.3" stroke-linecap="round" stroke-linejoin="round"/>
<path d="M38.5714 39H21.4286C19.535 39 18 39.9643 18 41.1538V49.7692C18 50.9588 22.9636 53 24.8571 53H34.2857C36.1793 53 42 50.9588 42 49.7692V41.1538C42 39.9643 40.465 39 38.5714 39Z" fill="#DDCFA8" stroke="#2A241D" stroke-width="2.3" stroke-linejoin="round"/>
</svg>
