<svg width="60" height="60" viewBox="0 0 60 60" fill="none" xmlns="http://www.w3.org/2000/svg">
<path d="M46 6H30V8H46V6Z" fill="#5F3F28"/>
<path d="M32 8H30V10H32V8Z" fill="#5F3F28"/>
<path d="M36 8H32V10H36V8Z" fill="#A9BF7E"/>
<path d="M38 8H36V10H38V8Z" fill="#74904D"/>
<path d="M44 8H38V10H44V8Z" fill="#A9BF7E"/>
<path d="M46 8H44V10H46V8Z" fill="#5F3F28"/>
<path d="M32 10H16V12H32V10Z" fill="#5F3F28"/>
<path d="M36 10H32V12H36V10Z" fill="#A9BF7E"/>
<path d="M38 10H36V12H38V10Z" fill="#74904D"/>
<path d="M40 10H38V12H40V10Z" fill="#A9BF7E"/>
<path d="M42 10H40V12H42V10Z" fill="#74904D"/>
<path d="M44 10H42V12H44V10Z" fill="#A9BF7E"/>
<path d="M46 10H44V12H46V10Z" fill="#5F3F28"/>
<path d="M18 12H16V14H18V12Z" fill="#5F3F28"/>
<path d="M22 12H18V14H22V12Z" fill="#A9BF7E"/>
<path d="M24 12H22V14H24V12Z" fill="#74904D"/>
<path d="M28 12H24V14H28V12Z" fill="#A9BF7E"/>
<path d="M32 12H28V14H32V12Z" fill="#5F3F28"/>
<path d="M34 12H32V14H34V12Z" fill="#74904D"/>
<path d="M36 12H34V14H36V12Z" fill="#A9BF7E"/>
<path d="M38 12H36V14H38V12Z" fill="#74904D"/>
<path d="M44 12H38V14H44V12Z" fill="#A9BF7E"/>
<path d="M46 12H44V14H46V12Z" fill="#5F3F28"/>
<path d="M18 14H16V16H18V14Z" fill="#5F3F28"/>
<path d="M22 14H18V16H22V14Z" fill="#A9BF7E"/>
<path d="M24 14H22V16H24V14Z" fill="#74904D"/>
<path d="M28 14H24V16H28V14Z" fill="#A9BF7E"/>
<path d="M32 14H28V16H32V14Z" fill="#5F3F28"/>
<path d="M36 14H32V16H36V14Z" fill="#A9BF7E"/>
<path d="M38 14H36V16H38V14Z" fill="#74904D"/>
<path d="M44 14H38V16H44V14Z" fill="#A9BF7E"/>
<path d="M46 14H44V16H46V14Z" fill="#5F3F28"/>
<path d="M18 16H16V18H18V16Z" fill="#5F3F28"/>
<path d="M22 16H18V18H22V16Z" fill="#A9BF7E"/>
<path d="M24 16H22V18H24V16Z" fill="#74904D"/>
<path d="M28 16H24V18H28V16Z" fill="#A9BF7E"/>
<path d="M32 16H28V18H32V16Z" fill="#5F3F28"/>
<path d="M36 16H32V18H36V16Z" fill="#A9BF7E"/>
<path d="M38 16H36V18H38V16Z" fill="#74904D"/>
<path d="M44 16H38V18H44V16Z" fill="#A9BF7E"/>
<path d="M46 16H44V18H46V16Z" fill="#5F3F28"/>
<path d="M18 18H16V20H18V18Z" fill="#5F3F28"/>
<path d="M22 18H18V20H22V18Z" fill="#A9BF7E"/>
<path d="M46 18H22V20H46V18Z" fill="#5F3F28"/>
<path d="M24 20H16V22H24V20Z" fill="#5F3F28"/>
<path d="M28 20H24V22H28V20Z" fill="#A9BF7E"/>
<path d="M30 20H28V22H30V20Z" fill="#74904D"/>
<path d="M36 20H30V22H36V20Z" fill="#A9BF7E"/>
<path d="M38 20H36V22H38V20Z" fill="#5F3F28"/>
<path d="M24 22H22V24H24V22Z" fill="#5F3F28"/>
<path d="M26 22H24V24H26V22Z" fill="#74904D"/>
<path d="M28 22H26V24H28V22Z" fill="#A9BF7E"/>
<path d="M30 22H28V24H30V22Z" fill="#74904D"/>
<path d="M36 22H30V24H36V22Z" fill="#A9BF7E"/>
<path d="M38 22H36V24H38V22Z" fill="#5F3F28"/>
<path d="M24 24H22V26H24V24Z" fill="#5F3F28"/>
<path d="M28 24H24V26H28V24Z" fill="#A9BF7E"/>
<path d="M30 24H28V26H30V24Z" fill="#74904D"/>
<path d="M32 24H30V26H32V24Z" fill="#A9BF7E"/>
<path d="M34 24H32V26H34V24Z" fill="#74904D"/>
<path d="M36 24H34V26H36V24Z" fill="#A9BF7E"/>
<path d="M38 24H36V26H38V24Z" fill="#5F3F28"/>
<path d="M24 26H22V28H24V26Z" fill="#5F3F28"/>
<path d="M28 26H24V28H28V26Z" fill="#A9BF7E"/>
<path d="M30 26H28V28H30V26Z" fill="#74904D"/>
<path d="M36 26H30V28H36V26Z" fill="#A9BF7E"/>
<path d="M38 26H36V28H38V26Z" fill="#5F3F28"/>
<path d="M38 28H22V30H38V28Z" fill="#5F3F28"/>
<path d="M24 30H22V32H24V30Z" fill="#74904D"/>
<path d="M30 30H28V32H30V30Z" fill="#74904D"/>
<path d="M38 30H36V32H38V30Z" fill="#74904D"/>
<path d="M44 32H16V34H44V32Z" fill="#5F3F28"/>
<path d="M18 34H16V36H18V34Z" fill="#5F3F28"/>
<path d="M42 34H18V36H42V34Z" fill="#EEDDC2"/>
<path d="M44 34H42V36H44V34Z" fill="#5F3F28"/>
<path d="M44 36H16V38H44V36Z" fill="#5F3F28"/>
<path d="M20 38H18V40H20V38Z" fill="#5F3F28"/>
<path d="M40 38H20V52H40V38Z" fill="#FBF2DF"/>
<path d="M42 38H40V40H42V38Z" fill="#5F3F28"/>
<path d="M20 40H18V42H20V40Z" fill="#5F3F28"/>
<path d="M28 40H26V42H28V40Z" fill="#F2A7B4"/>
<path d="M32 40H30V42H32V40Z" fill="#F2A7B4"/>
<path d="M42 40H40V42H42V40Z" fill="#5F3F28"/>
<path d="M20 42H18V44H20V42Z" fill="#5F3F28"/>
<path d="M34 42H24V44H34V42Z" fill="#F2A7B4"/>
<path d="M42 42H40V44H42V42Z" fill="#5F3F28"/>
<path d="M20 44H18V46H20V44Z" fill="#5F3F28"/>
<path d="M34 44H24V46H34V44Z" fill="#F2A7B4"/>
<path d="M42 44H40V46H42V44Z" fill="#5F3F28"/>
<path d="M20 46H18V48H20V46Z" fill="#5F3F28"/>
<path d="M32 46H26V48H32V46Z" fill="#F2A7B4"/>
<path d="M42 46H40V48H42V46Z" fill="#5F3F28"/>
<path d="M20 48H18V50H20V48Z" fill="#5F3F28"/>
<path d="M30 48H28V50H30V48Z" fill="#F2A7B4"/>
<path d="M42 48H40V50H42V48Z" fill="#5F3F28"/>
<path d="M20 50H18V52H20V50Z" fill="#5F3F28"/>
<path d="M42 50H40V52H42V50Z" fill="#5F3F28"/>
<path d="M42 52H18V54H42V52Z" fill="#5F3F28"/>
</svg>
