<svg width="32" height="32" viewBox="0 0 32 32" fill="none" xmlns="http://www.w3.org/2000/svg">
<path d="M12 20.8V7.54284C12 6.95683 12.4214 6.39483 13.1716 5.98047C13.9217 5.5661 14.9391 5.33331 16 5.33331C17.0609 5.33331 18.0783 5.5661 18.8284 5.98047C19.5786 6.39483 20 6.95683 20 7.54284V20.8" fill="#6E9C4F" stroke="#2A241D" stroke-linejoin="round"/>
<path d="M14.4 20.8V7.54284C14.4 6.95683 14.5686 6.39483 14.8686 5.98047C15.1687 5.5661 15.5757 5.33331 16 5.33331C16.4243 5.33331 16.8313 5.5661 17.1314 5.98047C17.4314 6.39483 17.6 6.95683 17.6 7.54284V20.8" fill="#6E9C4F" stroke="#2A241D" stroke-linejoin="round"/>
<path d="M14.4 3.4666L15.3906 5.15973M16 5.15973L16 3.19994M16.5333 5.15973L17.6 3.46661" stroke="#2A241D" stroke-linecap="round" stroke-linejoin="round"/>
<path d="M21.9632 8.66029L20.2695 9.64986M20.2691 10.2593L22.2289 10.2604M20.2688 10.7926L21.9613 11.8603" stroke="#2A241D" stroke-linecap="round" stroke-linejoin="round"/>
<path d="M10.029 15.9108L11.7244 14.9242M11.7258 14.3147L9.76605 14.3102M11.7271 13.7814L10.0364 12.7108" stroke="#2A241D" stroke-linecap="round" stroke-linejoin="round"/>
<path d="M20.5714 20.8H11.4286C10.4187 20.8 9.6 21.3143 9.6 21.9487V26.5436C9.6 27.178 12.2472 28.2667 13.2571 28.2667H18.2857C19.2956 28.2667 22.4 27.178 22.4 26.5436V21.9487C22.4 21.3143 21.5813 20.8 20.5714 20.8Z" fill="#DDCFA8" stroke="#2A241D" stroke-linejoin="round"/>
</svg>
