<svg width="60" height="60" viewBox="0 0 60 60" fill="none" xmlns="http://www.w3.org/2000/svg">
<path d="M51.2485 31.2989C51.6874 39.9133 48.4234 45.1104 42.3604 46.9075L42.4559 41.8891C46.7872 39.5028 46.6194 36.9481 46.6603 34.7974C46.7013 32.6466 44.9888 27.5939 47.276 26.2031C49.5633 24.8123 51.0656 27.7095 51.2485 31.2989Z" fill="#DDCFA8" stroke="#2A241D" stroke-width="2.3" stroke-linecap="round" stroke-linejoin="round"/>
<path d="M30 26C20 26 16 37 17 47C17 49.6667 18.3333 51 21 51H39C41.6667 51 43 49.6667 43 47C44 37 40 26 30 26Z" fill="#DDCFA8" stroke="#2A241D" stroke-width="2.3" stroke-linejoin="round"/>
<path d="M30 45V51" stroke="#2A241D" stroke-width="2.3" stroke-linecap="round" stroke-linejoin="round"/>
<path d="M25 45V51" stroke="#2A241D" stroke-width="2.3" stroke-linecap="round" stroke-linejoin="round"/>
<path d="M35 45V51" stroke="#2A241D" stroke-width="2.3" stroke-linecap="round" stroke-linejoin="round"/>
<path d="M38 15C40.0321 12.1332 40.6315 10.3643 41 7C37.0588 7.76708 35.2439 8.5812 33 11L38 15Z" fill="#DDCFA8" stroke="#2A241D" stroke-width="2.3" stroke-linejoin="round"/>
<path d="M22 15C19.7784 12.1599 19.1701 10.3942 19 7C22.41 7.78001 24.1817 8.6015 27 11L22 15Z" fill="#DDCFA8" stroke="#2A241D" stroke-width="2.3" stroke-linejoin="round"/>
<path d="M30 28C35.5228 28 40 24.1944 40 19.5C40 14.8056 35.5228 11 30 11C24.4772 11 20 14.8056 20 19.5C20 24.1944 24.4772 28 30 28Z" fill="#DDCFA8" stroke="#2A241D" stroke-width="2.3" stroke-linejoin="round"/>
<path d="M26 19.7C26.9389 19.7 27.7 18.9389 27.7 18C27.7 17.0611 26.9389 16.3 26 16.3C25.0611 16.3 24.3 17.0611 24.3 18C24.3 18.9389 25.0611 19.7 26 19.7Z" fill="#2A241D"/>
<path d="M34 19.7C34.9389 19.7 35.7 18.9389 35.7 18C35.7 17.0611 34.9389 16.3 34 16.3C33.0611 16.3 32.3 17.0611 32.3 18C32.3 18.9389 33.0611 19.7 34 19.7Z" fill="#2A241D"/>
<path d="M29 21.5C29.3333 22.1667 29.6667 22.5 30 22.5M31 21.5C30.6667 22.1667 30.3333 22.5 30 22.5M30 22.5V26" stroke="#2A241D" stroke-width="2.3" stroke-linecap="round" stroke-linejoin="round"/>
<path d="M17 20L24 21" stroke="#2A241D" stroke-width="2.3" stroke-linecap="round" stroke-linejoin="round"/>
<path d="M18 25L24 24" stroke="#2A241D" stroke-width="2.3" stroke-linecap="round" stroke-linejoin="round"/>
<path d="M43 20L36 21" stroke="#2A241D" stroke-width="2.3" stroke-linecap="round" stroke-linejoin="round"/>
<path d="M42 25L36 24" stroke="#2A241D" stroke-width="2.3" stroke-linecap="round" stroke-linejoin="round"/>
</svg>
