<svg width="60" height="60" viewBox="0 0 60 60" fill="none" xmlns="http://www.w3.org/2000/svg">
<path d="M42 18H14V34H42V18Z" fill="#C98D5A"/>
<path d="M38 38H18V52H38V38Z" fill="#C98D5A"/>
<path d="M20 10H18V12H20V10Z" fill="#5F3F28"/>
<path d="M38 10H36V12H38V10Z" fill="#5F3F28"/>
<path d="M18 12H16V14H18V12Z" fill="#5F3F28"/>
<path d="M20 12H18V14H20V12Z" fill="#F2A7B4"/>
<path d="M22 12H20V14H22V12Z" fill="#5F3F28"/>
<path d="M36 12H34V14H36V12Z" fill="#5F3F28"/>
<path d="M38 12H36V14H38V12Z" fill="#F2A7B4"/>
<path d="M40 12H38V14H40V12Z" fill="#5F3F28"/>
<path d="M16 14H14V16H16V14Z" fill="#5F3F28"/>
<path d="M14 18H12V34H14V18Z" fill="#5F3F28"/>
<path d="M44 18H42V34H44V18Z" fill="#5F3F28"/>
<path d="M20 14H16V16H20V14Z" fill="#F2A7B4"/>
<path d="M22 14H20V16H22V14Z" fill="#5F3F28"/>
<path d="M36 14H34V16H36V14Z" fill="#5F3F28"/>
<path d="M40 14H36V16H40V14Z" fill="#F2A7B4"/>
<path d="M42 14H40V16H42V14Z" fill="#5F3F28"/>
<path d="M42 16H14V18H42V16Z" fill="#5F3F28"/>
<path d="M24 18H22V20H24V18Z" fill="#A06B3A"/>
<path d="M28 18H26V20H28V18Z" fill="#A06B3A"/>
<path d="M32 18H30V20H32V18Z" fill="#A06B3A"/>
<path d="M24 20H22V22H24V20Z" fill="#A06B3A"/>
<path d="M28 20H26V22H28V20Z" fill="#A06B3A"/>
<path d="M32 20H30V22H32V20Z" fill="#A06B3A"/>
<path d="M22 24H20V26H22V24Z" fill="#FBF2DF"/>
<path d="M24 24H22V26H24V24Z" fill="#5F3F28"/>
<path d="M36 24H34V26H36V24Z" fill="#FBF2DF"/>
<path d="M38 24H36V26H38V24Z" fill="#5F3F28"/>
<path d="M24 26H20V28H24V26Z" fill="#5F3F28"/>
<path d="M38 26H34V28H38V26Z" fill="#5F3F28"/>
<path d="M26 28H24V30H26V28Z" fill="#F7E9CF"/>
<path d="M30 28H26V30H30V28Z" fill="#F2A7B4"/>
<path d="M32 28H30V30H32V28Z" fill="#F7E9CF"/>
<path d="M40 28H38V30H40V28Z" fill="#F2A7B4"/>
<path d="M32 30H24V32H32V30Z" fill="#F7E9CF"/>
<path d="M26 32H24V34H26V32Z" fill="#5F3F28"/>
<path d="M30 32H26V34H30V32Z" fill="#F7E9CF"/>
<path d="M32 32H30V34H32V32Z" fill="#5F3F28"/>
<path d="M42 34H14V36H42V34Z" fill="#5F3F28"/>
<path d="M48 34H44V36H48V34Z" fill="#A06B3A"/>
<path d="M40 36H16V38H40V36Z" fill="#5F3F28"/>
<path d="M18 38H16V40H18V38Z" fill="#5F3F28"/>
<path d="M34 38H22V40H34V38Z" fill="#F7E9CF"/>
<path d="M40 38H38V40H40V38Z" fill="#5F3F28"/>
<path d="M18 40H16V42H18V40Z" fill="#5F3F28"/>
<path d="M20 40H18V42H20V40Z" fill="#A06B3A"/>
<path d="M34 40H22V42H34V40Z" fill="#F7E9CF"/>
<path d="M38 40H36V42H38V40Z" fill="#A06B3A"/>
<path d="M40 40H38V42H40V40Z" fill="#5F3F28"/>
<path d="M18 42H16V44H18V42Z" fill="#5F3F28"/>
<path d="M20 42H18V44H20V42Z" fill="#A06B3A"/>
<path d="M34 42H22V44H34V42Z" fill="#F7E9CF"/>
<path d="M38 42H36V44H38V42Z" fill="#A06B3A"/>
<path d="M40 42H38V44H40V42Z" fill="#5F3F28"/>
<path d="M18 44H16V46H18V44Z" fill="#5F3F28"/>
<path d="M34 44H22V46H34V44Z" fill="#F7E9CF"/>
<path d="M40 44H38V46H40V44Z" fill="#5F3F28"/>
<path d="M18 46H16V48H18V46Z" fill="#5F3F28"/>
<path d="M34 46H22V48H34V46Z" fill="#F7E9CF"/>
<path d="M40 46H38V48H40V46Z" fill="#5F3F28"/>
<path d="M18 48H16V50H18V48Z" fill="#5F3F28"/>
<path d="M34 48H22V50H34V48Z" fill="#F7E9CF"/>
<path d="M40 48H38V50H40V48Z" fill="#5F3F28"/>
<path d="M40 46H44V36H48V46H46V50H40V46Z" fill="#C98D5A"/>
<path d="M18 50H16V52H18V50Z" fill="#5F3F28"/>
<path d="M26 50H24V52H26V50Z" fill="#A06B3A"/>
<path d="M32 50H30V52H32V50Z" fill="#A06B3A"/>
<path d="M40 50H38V52H40V50Z" fill="#5F3F28"/>
<path d="M40 52H16V54H40V52Z" fill="#5F3F28"/>
</svg>
