<svg width="32" height="32" viewBox="0 0 32 32" fill="none" xmlns="http://www.w3.org/2000/svg">
<path d="M8.51282 22.9745H23.3847L23.8975 27.0771H8L8.51282 22.9745Z" fill="#DDCFA8" stroke="#2A241D" stroke-linejoin="round"/>
<path d="M20.3078 7.58978H11.5898V13.2591V18.6438V24.513C14.9935 25.321 16.9032 25.3106 20.3078 24.513V20.4104V16.3078V10.9231V7.58978Z" fill="#DDCFA8" stroke="#2A241D" stroke-linejoin="round"/>
<path d="M20.3078 10.9231C17.0927 13.2655 15.1864 13.7965 11.5898 13.2591M20.3078 16.3077C16.8939 18.9019 14.9884 19.2888 11.5898 18.6437" fill="none" stroke="#2A241D" stroke-linejoin="round"/>
<path d="M22.3591 7.58978V13.2591M22.3591 13.2591L24.154 15.0257M22.3591 13.2591H24.5333M22.3591 13.2591V15.2821" fill="none" stroke="#2A241D" stroke-linecap="round" stroke-linejoin="round"/>
<path d="M8.51282 4H23.3847L23.8975 8.10259H8L8.51282 4Z" fill="#DDCFA8" stroke="#2A241D" stroke-linejoin="round"/>
</svg>
