<svg width="32" height="32" viewBox="0 0 32 32" fill="none" xmlns="http://www.w3.org/2000/svg">
<path d="M27.3325 16.6928C27.5666 21.2871 25.8258 24.0589 22.5922 25.0174L22.6431 22.3409C24.9532 21.0682 24.8637 19.7057 24.8855 18.5586C24.9073 17.4116 23.994 14.7167 25.2139 13.975C26.4338 13.2333 27.235 14.7784 27.3325 16.6928Z" fill="#DDCFA8" stroke="#2A241D" stroke-linecap="round" stroke-linejoin="round"/>
<path d="M16 13.8666C10.6667 13.8666 8.53334 19.7333 9.06667 25.0666C9.06667 26.4889 9.77778 27.2 11.2 27.2H20.8C22.2222 27.2 22.9333 26.4889 22.9333 25.0666C23.4667 19.7333 21.3333 13.8666 16 13.8666Z" fill="#DDCFA8" stroke="#2A241D" stroke-linejoin="round"/>
<path d="M16 24V27.2" stroke="#2A241D" stroke-linecap="round" stroke-linejoin="round"/>
<path d="M13.3333 24V27.2" stroke="#2A241D" stroke-linecap="round" stroke-linejoin="round"/>
<path d="M18.6667 24V27.2" stroke="#2A241D" stroke-linecap="round" stroke-linejoin="round"/>
<path d="M20.2667 8C21.3505 6.47102 21.6701 5.52766 21.8667 3.73334C19.7647 4.14245 18.7968 4.57664 17.6 5.86667L20.2667 8Z" fill="#DDCFA8" stroke="#2A241D" stroke-linejoin="round"/>
<path d="M11.7333 8C10.5485 6.48527 10.2241 5.54356 10.1333 3.73334C11.952 4.14934 12.8969 4.58747 14.4 5.86667L11.7333 8Z" fill="#DDCFA8" stroke="#2A241D" stroke-linejoin="round"/>
<path d="M16 14.9333C18.9455 14.9333 21.3333 12.9037 21.3333 10.4C21.3333 7.89628 18.9455 5.86664 16 5.86664C13.0545 5.86664 10.6667 7.89628 10.6667 10.4C10.6667 12.9037 13.0545 14.9333 16 14.9333Z" fill="#DDCFA8" stroke="#2A241D" stroke-linejoin="round"/>
<path d="M13.71 10.1934C14.1242 10.1934 14.46 9.85757 14.46 9.44336C14.46 9.02915 14.1242 8.69336 13.71 8.69336C13.2958 8.69336 12.96 9.02915 12.96 9.44336C12.96 9.85757 13.2958 10.1934 13.71 10.1934Z" fill="#2A241D"/>
<path d="M17.9767 10.1934C18.3909 10.1934 18.7267 9.85757 18.7267 9.44336C18.7267 9.02915 18.3909 8.69336 17.9767 8.69336C17.5625 8.69336 17.2267 9.02915 17.2267 9.44336C17.2267 9.85757 17.5625 10.1934 17.9767 10.1934Z" fill="#2A241D"/>
<path d="M15.4667 11.4667C15.6444 11.8222 15.8222 12 16 12M16.5333 11.4667C16.3555 11.8222 16.1778 12 16 12M16 12V13.8667" stroke="#2A241D" stroke-linecap="round" stroke-linejoin="round"/>
<path d="M9.06667 10.6667L12.8 11.2" stroke="#2A241D" stroke-linecap="round" stroke-linejoin="round"/>
<path d="M9.60001 13.3333L12.8 12.8" stroke="#2A241D" stroke-linecap="round" stroke-linejoin="round"/>
<path d="M22.9333 10.6667L19.2 11.2" stroke="#2A241D" stroke-linecap="round" stroke-linejoin="round"/>
<path d="M22.4 13.3333L19.2 12.8" stroke="#2A241D" stroke-linecap="round" stroke-linejoin="round"/>
</svg>
