<svg width="32" height="32" viewBox="0 0 32 32" fill="none" xmlns="http://www.w3.org/2000/svg">
<path d="M24 17.0667H7.99999C7.41088 17.0667 6.93332 17.5442 6.93332 18.1333V19.7333C6.93332 20.3224 7.41088 20.8 7.99999 20.8H24C24.5891 20.8 25.0667 20.3224 25.0667 19.7333V18.1333C25.0667 17.5442 24.5891 17.0667 24 17.0667Z" fill="#F4EDE0" stroke="#2A241D" stroke-linejoin="round"/>
<path d="M24 4.79999H7.99999C7.41088 4.79999 6.93332 5.75511 6.93332 6.93332V10.1333C6.93332 11.3115 7.41088 12.2667 7.99999 12.2667H24C24.5891 12.2667 25.0667 11.3115 25.0667 10.1333V6.93332C25.0667 5.75511 24.5891 4.79999 24 4.79999Z" fill="#F4EDE0" stroke="#2A241D" stroke-linejoin="round"/>
<path d="M10.4784 14.9333H21.5216L24.5333 17.0667H7.46667L10.4784 14.9333Z" fill="#F4EDE0" stroke="#2A241D" stroke-linejoin="round"/>
<path d="M11.7333 27.7961L11.7333 4.73727C11.7333 3.88826 11.4604 3.20001 11.1238 3.20001L10.2095 3.20001C9.8729 3.20001 9.6 3.88826 9.6 4.73727L9.6 27.7961C9.6 28.6451 9.8729 29.3333 10.2095 29.3333L11.1238 29.3333C11.4604 29.3333 11.7333 28.6451 11.7333 27.7961Z" fill="#DDCFA8" stroke="#2A241D" stroke-linejoin="round"/>
<path d="M22.4 27.7961L22.4 4.73727C22.4 3.88826 22.1271 3.20001 21.7905 3.20001L20.8762 3.20001C20.5396 3.20001 20.2667 3.88826 20.2667 4.73727L20.2667 27.7961C20.2667 28.6451 20.5396 29.3333 20.8762 29.3333L21.7905 29.3333C22.1271 29.3333 22.4 28.6451 22.4 27.7961Z" fill="#DDCFA8" stroke="#2A241D" stroke-linejoin="round"/>
</svg>
