<svg width="60" height="60" viewBox="0 0 60 60" fill="none" xmlns="http://www.w3.org/2000/svg">
<path d="M46 6H14V8H46V6Z" fill="#5F3F28"/>
<path d="M16 8H14V10H16V8Z" fill="#5F3F28"/>
<path d="M44 8H16V10H44V8Z" fill="#E9BD7F"/>
<path d="M46 8H44V10H46V8Z" fill="#5F3F28"/>
<path d="M16 10H14V12H16V10Z" fill="#5F3F28"/>
<path d="M26 10H16V12H26V10Z" fill="#D9A15E"/>
<path d="M28 10H26V12H28V10Z" fill="#CF5B5B"/>
<path d="M30 10H28V12H30V10Z" fill="#D9A15E"/>
<path d="M32 10H30V12H32V10Z" fill="#CF5B5B"/>
<path d="M44 10H32V12H44V10Z" fill="#D9A15E"/>
<path d="M46 10H44V12H46V10Z" fill="#5F3F28"/>
<path d="M16 12H14V14H16V12Z" fill="#5F3F28"/>
<path d="M24 12H16V14H24V12Z" fill="#D9A15E"/>
<path d="M34 12H24V14H34V12Z" fill="#CF5B5B"/>
<path d="M44 12H34V14H44V12Z" fill="#D9A15E"/>
<path d="M46 12H44V14H46V12Z" fill="#5F3F28"/>
<path d="M16 14H14V16H16V14Z" fill="#5F3F28"/>
<path d="M24 14H16V16H24V14Z" fill="#D9A15E"/>
<path d="M34 14H24V16H34V14Z" fill="#CF5B5B"/>
<path d="M44 14H34V16H44V14Z" fill="#D9A15E"/>
<path d="M46 14H44V16H46V14Z" fill="#5F3F28"/>
<path d="M16 16H14V18H16V16Z" fill="#5F3F28"/>
<path d="M26 16H16V18H26V16Z" fill="#D9A15E"/>
<path d="M32 16H26V18H32V16Z" fill="#CF5B5B"/>
<path d="M44 16H32V18H44V16Z" fill="#D9A15E"/>
<path d="M46 16H44V18H46V16Z" fill="#5F3F28"/>
<path d="M16 18H14V20H16V18Z" fill="#5F3F28"/>
<path d="M28 18H16V20H28V18Z" fill="#D9A15E"/>
<path d="M30 18H28V20H30V18Z" fill="#CF5B5B"/>
<path d="M44 18H30V20H44V18Z" fill="#D9A15E"/>
<path d="M46 18H44V20H46V18Z" fill="#5F3F28"/>
<path d="M46 20H14V22H46V20Z" fill="#5F3F28"/>
<path d="M20 22H14V24H20V22Z" fill="#5F3F28"/>
<path d="M46 22H40V24H46V22Z" fill="#5F3F28"/>
<path d="M16 24H14V26H16V24Z" fill="#5F3F28"/>
<path d="M18 24H16V26H18V24Z" fill="#B97B3F"/>
<path d="M20 24H18V26H20V24Z" fill="#5F3F28"/>
<path d="M42 24H40V26H42V24Z" fill="#5F3F28"/>
<path d="M44 24H42V26H44V24Z" fill="#B97B3F"/>
<path d="M46 24H44V26H46V24Z" fill="#5F3F28"/>
<path d="M16 26H14V28H16V26Z" fill="#5F3F28"/>
<path d="M18 26H16V28H18V26Z" fill="#B97B3F"/>
<path d="M20 26H18V28H20V26Z" fill="#5F3F28"/>
<path d="M42 26H40V28H42V26Z" fill="#5F3F28"/>
<path d="M44 26H42V28H44V26Z" fill="#B97B3F"/>
<path d="M46 26H44V28H46V26Z" fill="#5F3F28"/>
<path d="M16 28H14V30H16V28Z" fill="#5F3F28"/>
<path d="M18 28H16V30H18V28Z" fill="#B97B3F"/>
<path d="M20 28H18V30H20V28Z" fill="#5F3F28"/>
<path d="M42 28H40V30H42V28Z" fill="#5F3F28"/>
<path d="M44 28H42V30H44V28Z" fill="#B97B3F"/>
<path d="M46 28H44V30H46V28Z" fill="#5F3F28"/>
<path d="M16 30H14V32H16V30Z" fill="#5F3F28"/>
<path d="M18 30H16V32H18V30Z" fill="#B97B3F"/>
<path d="M20 30H18V32H20V30Z" fill="#5F3F28"/>
<path d="M42 30H40V32H42V30Z" fill="#5F3F28"/>
<path d="M44 30H42V32H44V30Z" fill="#B97B3F"/>
<path d="M46 30H44V32H46V30Z" fill="#5F3F28"/>
<path d="M48 32H12V34H48V32Z" fill="#5F3F28"/>
<path d="M14 34H12V36H14V34Z" fill="#5F3F28"/>
<path d="M46 34H14V36H46V34Z" fill="#A9BF7E"/>
<path d="M48 34H46V36H48V34Z" fill="#5F3F28"/>
<path d="M14 36H12V38H14V36Z" fill="#5F3F28"/>
<path d="M22 36H14V38H22V36Z" fill="#A9BF7E"/>
<path d="M24 36H22V38H24V36Z" fill="#74904D"/>
<path d="M36 36H24V38H36V36Z" fill="#A9BF7E"/>
<path d="M38 36H36V38H38V36Z" fill="#74904D"/>
<path d="M46 36H38V38H46V36Z" fill="#A9BF7E"/>
<path d="M48 36H46V38H48V36Z" fill="#5F3F28"/>
<path d="M48 38H12V40H48V38Z" fill="#5F3F28"/>
<path d="M20 40H14V42H20V40Z" fill="#5F3F28"/>
<path d="M46 40H40V42H46V40Z" fill="#5F3F28"/>
<path d="M16 42H14V44H16V42Z" fill="#5F3F28"/>
<path d="M18 42H16V44H18V42Z" fill="#B97B3F"/>
<path d="M20 42H18V44H20V42Z" fill="#5F3F28"/>
<path d="M42 42H40V44H42V42Z" fill="#5F3F28"/>
<path d="M44 42H42V44H44V42Z" fill="#B97B3F"/>
<path d="M46 42H44V44H46V42Z" fill="#5F3F28"/>
<path d="M16 44H14V46H16V44Z" fill="#5F3F28"/>
<path d="M18 44H16V46H18V44Z" fill="#B97B3F"/>
<path d="M20 44H18V46H20V44Z" fill="#5F3F28"/>
<path d="M42 44H40V46H42V44Z" fill="#5F3F28"/>
<path d="M44 44H42V46H44V44Z" fill="#B97B3F"/>
<path d="M46 44H44V46H46V44Z" fill="#5F3F28"/>
<path d="M16 46H14V48H16V46Z" fill="#5F3F28"/>
<path d="M18 46H16V48H18V46Z" fill="#B97B3F"/>
<path d="M20 46H18V48H20V46Z" fill="#5F3F28"/>
<path d="M40 46H20V48H40V46Z" fill="#92602E"/>
<path d="M42 46H40V48H42V46Z" fill="#5F3F28"/>
<path d="M44 46H42V48H44V46Z" fill="#B97B3F"/>
<path d="M46 46H44V48H46V46Z" fill="#5F3F28"/>
<path d="M16 48H14V50H16V48Z" fill="#5F3F28"/>
<path d="M18 48H16V50H18V48Z" fill="#B97B3F"/>
<path d="M20 48H18V50H20V48Z" fill="#5F3F28"/>
<path d="M42 48H40V50H42V48Z" fill="#5F3F28"/>
<path d="M44 48H42V50H44V48Z" fill="#B97B3F"/>
<path d="M46 48H44V50H46V48Z" fill="#5F3F28"/>
<path d="M16 50H14V52H16V50Z" fill="#5F3F28"/>
<path d="M18 50H16V52H18V50Z" fill="#B97B3F"/>
<path d="M20 50H18V52H20V50Z" fill="#5F3F28"/>
<path d="M42 50H40V52H42V50Z" fill="#5F3F28"/>
<path d="M44 50H42V52H44V50Z" fill="#B97B3F"/>
<path d="M46 50H44V52H46V50Z" fill="#5F3F28"/>
<path d="M20 52H14V54H20V52Z" fill="#5F3F28"/>
<path d="M46 52H40V54H46V52Z" fill="#5F3F28"/>
</svg>
