<svg width="32" height="32" viewBox="0 0 32 32" fill="none" xmlns="http://www.w3.org/2000/svg">
<path d="M10.6667 11.4667C11.6976 11.4667 12.5333 10.6309 12.5333 9.6C12.5333 8.56907 11.6976 7.73334 10.6667 7.73334C9.63574 7.73334 8.8 8.56907 8.8 9.6C8.8 10.6309 9.63574 11.4667 10.6667 11.4667Z" fill="#DDCFA8" stroke="#2A241D"/>
<path d="M21.3333 11.4667C22.3643 11.4667 23.2 10.6309 23.2 9.6C23.2 8.56907 22.3643 7.73334 21.3333 7.73334C20.3024 7.73334 19.4667 8.56907 19.4667 9.6C19.4667 10.6309 20.3024 11.4667 21.3333 11.4667Z" fill="#DDCFA8" stroke="#2A241D"/>
<path d="M16 25.6C20.4183 25.6 24 22.0183 24 17.6C24 13.1817 20.4183 9.59998 16 9.59998C11.5817 9.59998 8 13.1817 8 17.6C8 22.0183 11.5817 25.6 16 25.6Z" fill="#F4EDE0" stroke="#2A241D"/>
<path d="M16 17.6V12.8" stroke="#2A241D" stroke-linecap="round"/>
<path d="M16 17.6L19.7333 19.2" stroke="#2A241D" stroke-linecap="round"/>
<path d="M11.7333 24.5333L10.1333 27.2" stroke="#2A241D" stroke-linecap="round"/>
<path d="M20.2667 24.5333L21.8667 27.2" stroke="#2A241D" stroke-linecap="round"/>
</svg>
