<svg width="60" height="60" viewBox="0 0 60 60" fill="none" xmlns="http://www.w3.org/2000/svg">
<path d="M16 46H14V44H12V16H14V14H16V12H44V14H46V16H48V44H46V46H44V48H16V46Z" fill="#5F3F28"/>
<path d="M24 6H18V8H24V6Z" fill="#5F3F28"/>
<path d="M42 6H36V8H42V6Z" fill="#5F3F28"/>
<path d="M18 8H16V10H18V8Z" fill="#5F3F28"/>
<path d="M24 8H18V10H24V8Z" fill="#D96B7A"/>
<path d="M26 8H24V10H26V8Z" fill="#5F3F28"/>
<path d="M36 8H34V10H36V8Z" fill="#5F3F28"/>
<path d="M42 8H36V10H42V8Z" fill="#D96B7A"/>
<path d="M44 8H42V10H44V8Z" fill="#5F3F28"/>
<path d="M16 10H14V12H16V10Z" fill="#5F3F28"/>
<path d="M26 10H16V12H26V10Z" fill="#D96B7A"/>
<path d="M28 10H26V12H28V10Z" fill="#5F3F28"/>
<path d="M34 10H32V12H34V10Z" fill="#5F3F28"/>
<path d="M44 10H34V12H44V10Z" fill="#D96B7A"/>
<path d="M46 10H44V12H46V10Z" fill="#5F3F28"/>
<path d="M44 14H16V16H44V14Z" fill="#F2A7B4"/>
<path d="M46 16H14V18H46V16Z" fill="#F2A7B4"/>
<path d="M20 18H14V20H20V18Z" fill="#F2A7B4"/>
<path d="M38 18H22V20H38V18Z" fill="#5F3F28"/>
<path d="M46 18H40V20H46V18Z" fill="#F2A7B4"/>
<path d="M18 20H14V22H18V20Z" fill="#F2A7B4"/>
<path d="M22 20H20V22H22V20Z" fill="#5F3F28"/>
<path d="M28 20H22V22H28V20Z" fill="#FBF2DF"/>
<path d="M32 20H28V22H32V20Z" fill="#E0C9A3"/>
<path d="M38 20H32V22H38V20Z" fill="#FBF2DF"/>
<path d="M40 20H38V22H40V20Z" fill="#5F3F28"/>
<path d="M46 20H42V22H46V20Z" fill="#F2A7B4"/>
<path d="M18 22H14V24H18V22Z" fill="#F2A7B4"/>
<path d="M20 22H18V24H20V22Z" fill="#5F3F28"/>
<path d="M28 22H20V24H28V22Z" fill="#FBF2DF"/>
<path d="M40 22H28V24H40V22Z" fill="#FBF2DF"/>
<path d="M42 22H40V24H42V22Z" fill="#5F3F28"/>
<path d="M46 22H42V24H46V22Z" fill="#F2A7B4"/>
<path d="M18 24H14V26H18V24Z" fill="#F2A7B4"/>
<path d="M20 24H18V26H20V24Z" fill="#5F3F28"/>
<path d="M28 24H20V26H28V24Z" fill="#FBF2DF"/>
<path d="M40 24H30V26H40V24Z" fill="#FBF2DF"/>
<path d="M42 24H40V26H42V24Z" fill="#5F3F28"/>
<path d="M46 24H42V26H46V24Z" fill="#F2A7B4"/>
<path d="M18 26H14V28H18V26Z" fill="#F2A7B4"/>
<path d="M20 26H18V28H20V26Z" fill="#5F3F28"/>
<path d="M28 26H20V28H28V26Z" fill="#FBF2DF"/>
<path d="M40 26H30V28H40V26Z" fill="#FBF2DF"/>
<path d="M42 26H40V28H42V26Z" fill="#5F3F28"/>
<path d="M46 26H42V28H46V26Z" fill="#F2A7B4"/>
<path d="M18 28H14V30H18V28Z" fill="#F2A7B4"/>
<path d="M20 28H18V30H20V28Z" fill="#5F3F28"/>
<path d="M22 28H20V30H22V28Z" fill="#E0C9A3"/>
<path d="M28 28H22V30H28V28Z" fill="#FBF2DF"/>
<path d="M30 30H28V32H30V30Z" fill="#D96B7A"/>
<path d="M38 28H30V30H38V28Z" fill="#FBF2DF"/>
<path d="M40 28H38V30H40V28Z" fill="#E0C9A3"/>
<path d="M42 28H40V30H42V28Z" fill="#5F3F28"/>
<path d="M46 28H42V30H46V28Z" fill="#F2A7B4"/>
<path d="M18 30H14V32H18V30Z" fill="#F2A7B4"/>
<path d="M20 30H18V32H20V30Z" fill="#5F3F28"/>
<path d="M22 30H20V32H22V30Z" fill="#E0C9A3"/>
<path d="M28 30H22V32H28V30Z" fill="#FBF2DF"/>
<path d="M38 30H36V32H38V30Z" fill="#FBF2DF"/>
<path d="M40 30H38V32H40V30Z" fill="#E0C9A3"/>
<path d="M42 30H40V32H42V30Z" fill="#5F3F28"/>
<path d="M46 30H42V32H46V30Z" fill="#F2A7B4"/>
<path d="M18 32H14V34H18V32Z" fill="#F2A7B4"/>
<path d="M20 32H18V34H20V32Z" fill="#5F3F28"/>
<path d="M40 32H20V34H40V32Z" fill="#FBF2DF"/>
<path d="M42 32H40V34H42V32Z" fill="#5F3F28"/>
<path d="M46 32H42V34H46V32Z" fill="#F2A7B4"/>
<path d="M18 34H14V36H18V34Z" fill="#F2A7B4"/>
<path d="M20 34H18V36H20V34Z" fill="#5F3F28"/>
<path d="M40 34H20V36H40V34Z" fill="#FBF2DF"/>
<path d="M42 34H40V36H42V34Z" fill="#5F3F28"/>
<path d="M46 34H42V36H46V34Z" fill="#F2A7B4"/>
<path d="M18 36H14V38H18V36Z" fill="#F2A7B4"/>
<path d="M20 36H18V38H20V36Z" fill="#5F3F28"/>
<path d="M40 36H20V38H40V36Z" fill="#FBF2DF"/>
<path d="M42 36H40V38H42V36Z" fill="#5F3F28"/>
<path d="M46 36H42V38H46V36Z" fill="#F2A7B4"/>
<path d="M18 38H14V40H18V38Z" fill="#F2A7B4"/>
<path d="M22 38H20V40H22V38Z" fill="#5F3F28"/>
<path d="M28 38H22V40H28V38Z" fill="#FBF2DF"/>
<path d="M32 38H28V40H32V38Z" fill="#E0C9A3"/>
<path d="M38 38H32V40H38V38Z" fill="#FBF2DF"/>
<path d="M40 38H38V40H40V38Z" fill="#5F3F28"/>
<path d="M46 38H42V40H46V38Z" fill="#F2A7B4"/>
<path d="M20 40H14V42H20V40Z" fill="#F2A7B4"/>
<path d="M38 40H22V42H38V40Z" fill="#5F3F28"/>
<path d="M46 40H40V42H46V40Z" fill="#F2A7B4"/>
<path d="M22 42H14V44H22V42Z" fill="#F2A7B4"/>
<path d="M24 42H22V44H24V42Z" fill="#CF5B5B"/>
<path d="M36 42H24V44H36V42Z" fill="#F2A7B4"/>
<path d="M38 42H36V44H38V42Z" fill="#CF5B5B"/>
<path d="M46 42H38V44H46V42Z" fill="#F2A7B4"/>
<path d="M44 44H16V46H44V44Z" fill="#F2A7B4"/>
<path d="M24 48H18V50H24V48Z" fill="#B97B3F"/>
<path d="M42 48H36V50H42V48Z" fill="#B97B3F"/>
<path d="M24 50H18V52H24V50Z" fill="#B97B3F"/>
<path d="M42 50H36V52H42V50Z" fill="#B97B3F"/>
<path d="M24 52H18V54H24V52Z" fill="#B97B3F"/>
<path d="M42 52H36V54H42V52Z" fill="#B97B3F"/>
</svg>
