<svg width="60" height="60" viewBox="0 0 60 60" fill="none" xmlns="http://www.w3.org/2000/svg">
<path d="M46.83 5.9324H13.17C12.6808 5.9324 12.2842 6.34986 12.2842 6.86481C12.2842 7.37977 12.6808 7.79722 13.17 7.79722H46.83C47.3192 7.79722 47.7157 7.37977 47.7157 6.86481C47.7157 6.34986 47.3192 5.9324 46.83 5.9324Z" fill="#DDCFA8" stroke="#2A241D" stroke-width="2.3" stroke-linejoin="round"/>
<path d="M12.7504 8.72963C13.5229 8.72963 14.1491 7.89473 14.1491 6.86482C14.1491 5.83491 13.5229 5 12.7504 5C11.978 5 11.3518 5.83491 11.3518 6.86482C11.3518 7.89473 11.978 8.72963 12.7504 8.72963Z" fill="#DDCFA8" stroke="#2A241D" stroke-width="2.3" stroke-linejoin="round"/>
<path d="M47.2496 8.72963C48.022 8.72963 48.6482 7.89473 48.6482 6.86482C48.6482 5.83491 48.022 5 47.2496 5C46.4771 5 45.851 5.83491 45.851 6.86482C45.851 7.89473 46.4771 8.72963 47.2496 8.72963Z" fill="#DDCFA8" stroke="#2A241D" stroke-width="2.3" stroke-linejoin="round"/>
<path d="M26.1813 53.9014C23.8712 56.0293 21.8204 56.1041 19.1803 54.4018C14.8649 36.4757 14.9084 26.3206 15.998 7.94046H22.999C21.8993 32.4024 22.5696 42.5307 26.1813 53.9014Z" fill="#DDCFA8" stroke="#2A241D" stroke-width="2.3" stroke-linejoin="round"/>
<path d="M13.2703 7.94046H17.6649C17.1412 32.4024 17.4604 42.5307 19.1802 53.9014C16.5088 56.4626 15.1172 56.4176 12.8157 53.9014C12.8697 35.577 12.9024 25.3104 13.2703 7.94046Z" fill="#DDCFA8" stroke="#2A241D" stroke-width="2.3" stroke-linejoin="round"/>
<path d="M33.8187 53.9014C36.1288 56.0293 38.1796 56.1041 40.8197 54.4018C45.1351 36.4757 45.0916 26.3206 44.002 7.94046H37.001C38.1007 32.4024 37.4304 42.5307 33.8187 53.9014Z" fill="#DDCFA8" stroke="#2A241D" stroke-width="2.3" stroke-linejoin="round"/>
<path d="M46.7297 7.94046H42.3351C42.8588 32.4024 42.5396 42.5307 40.8198 53.9014C43.4912 56.4626 44.8828 56.4176 47.1843 53.9014C47.1303 35.577 47.0976 25.3104 46.7297 7.94046Z" fill="#DDCFA8" stroke="#2A241D" stroke-width="2.3" stroke-linejoin="round"/>
<path d="M13.2166 7.79721H45.8509V9.04042C42.0854 14.4277 38.3199 14.4277 34.5544 9.04042C31.2073 14.8421 27.8602 14.8421 24.5131 9.04042C20.7476 14.4277 16.9821 14.4277 13.2166 9.04042V7.79721Z" fill="#DDCFA8" stroke="#2A241D" stroke-width="2.3" stroke-linejoin="round"/>
</svg>
