<svg width="60" height="88" viewBox="0 0 60 88" fill="none" xmlns="http://www.w3.org/2000/svg">
<g clip-path="url(#clip0_1_140)">
<path d="M56.6 6.5H3.4C2.6268 6.5 2 7.1268 2 7.9C2 8.6732 2.6268 9.3 3.4 9.3H56.6C57.3732 9.3 58 8.6732 58 7.9C58 7.1268 57.3732 6.5 56.6 6.5Z" fill="#DDCFA8" stroke="#2A241D" stroke-width="2.3" stroke-linejoin="round"/>
<path d="M3.00001 10.2C4.27027 10.2 5.30001 9.17026 5.30001 7.90001C5.30001 6.62975 4.27027 5.60001 3.00001 5.60001C1.72976 5.60001 0.700012 6.62975 0.700012 7.90001C0.700012 9.17026 1.72976 10.2 3.00001 10.2Z" fill="#DDCFA8" stroke="#2A241D" stroke-width="2.3" stroke-linejoin="round"/>
<path d="M57 10.2C58.2703 10.2 59.3 9.17026 59.3 7.90001C59.3 6.62975 58.2703 5.60001 57 5.60001C55.7298 5.60001 54.7 6.62975 54.7 7.90001C54.7 9.17026 55.7298 10.2 57 10.2Z" fill="#DDCFA8" stroke="#2A241D" stroke-width="2.3" stroke-linejoin="round"/>
<path d="M24 82.2139C20.3704 85.5572 17.1481 85.6747 13 83C6.21978 54.8346 6.28802 38.8789 8 10H19C17.2721 48.4345 18.3254 64.3482 24 82.2139Z" fill="#DDCFA8" stroke="#2A241D" stroke-width="2.3" stroke-linejoin="round"/>
<path d="M3.71429 10H10.619C9.79626 48.4345 10.2978 64.3482 13 82.2139C8.80268 86.238 6.61609 86.1673 3 82.2139C3.08496 53.4226 3.1363 37.2916 3.71429 10Z" fill="#DDCFA8" stroke="#2A241D" stroke-width="2.3" stroke-linejoin="round"/>
<path d="M36 82.2139C39.6296 85.5572 42.8519 85.6747 47 83C53.7802 54.8346 53.712 38.8789 52 10H41C42.7279 48.4345 41.6746 64.3482 36 82.2139Z" fill="#DDCFA8" stroke="#2A241D" stroke-width="2.3" stroke-linejoin="round"/>
<path d="M56.2857 10H49.381C50.2037 48.4345 49.7022 64.3482 47 82.2139C51.1973 86.238 53.3839 86.1673 57 82.2139C56.915 53.4226 56.8637 37.2916 56.2857 10Z" fill="#DDCFA8" stroke="#2A241D" stroke-width="2.3" stroke-linejoin="round"/>
<path d="M4 9H56V11C50 19.6667 44 19.6667 38 11C32.6667 20.3333 27.3333 20.3333 22 11C16 19.6667 10 19.6667 4 11V9Z" fill="#DDCFA8" stroke="#2A241D" stroke-width="2.3" stroke-linejoin="round"/>
</g>
<defs>
<clipPath id="clip0_1_140">
<rect width="60" height="88" fill="white"/>
</clipPath>
</defs>
</svg>
