<svg width="32" height="32" viewBox="0 0 32 32" fill="none" xmlns="http://www.w3.org/2000/svg">
<path d="M24.976 3.16394H7.02406C6.76315 3.16394 6.55164 3.38658 6.55164 3.66122C6.55164 3.93587 6.76315 4.15851 7.02406 4.15851H24.976C25.2369 4.15851 25.4484 3.93587 25.4484 3.66122C25.4484 3.38658 25.2369 3.16394 24.976 3.16394Z" fill="#DDCFA8" stroke="#2A241D" stroke-linejoin="round"/>
<path d="M6.80025 4.65582C7.21221 4.65582 7.54617 4.21054 7.54617 3.66126C7.54617 3.11197 7.21221 2.66669 6.80025 2.66669C6.38828 2.66669 6.05432 3.11197 6.05432 3.66126C6.05432 4.21054 6.38828 4.65582 6.80025 4.65582Z" fill="#DDCFA8" stroke="#2A241D" stroke-linejoin="round"/>
<path d="M25.1998 4.65582C25.6117 4.65582 25.9457 4.21054 25.9457 3.66126C25.9457 3.11197 25.6117 2.66669 25.1998 2.66669C24.7878 2.66669 24.4539 3.11197 24.4539 3.66126C24.4539 4.21054 24.7878 4.65582 25.1998 4.65582Z" fill="#DDCFA8" stroke="#2A241D" stroke-linejoin="round"/>
<path d="M13.9634 28.7474C12.7313 29.8823 11.6375 29.9222 10.2295 29.0143C7.92798 19.4537 7.95114 14.0377 8.53226 4.23492H12.2661C11.6796 17.2813 12.0372 22.6831 13.9634 28.7474Z" fill="#DDCFA8" stroke="#2A241D" stroke-linejoin="round"/>
<path d="M7.07748 4.23492H9.42126C9.14197 17.2813 9.31222 22.6831 10.2295 28.7474C8.8047 30.1134 8.06248 30.0894 6.83502 28.7474C6.86386 18.9744 6.88129 13.4989 7.07748 4.23492Z" fill="#DDCFA8" stroke="#2A241D" stroke-linejoin="round"/>
<path d="M18.0367 28.7474C19.2688 29.8823 20.3625 29.9222 21.7706 29.0143C24.0721 19.4537 24.0489 14.0377 23.4678 4.23492H19.7339C20.3204 17.2813 19.9629 22.6831 18.0367 28.7474Z" fill="#DDCFA8" stroke="#2A241D" stroke-linejoin="round"/>
<path d="M24.9226 4.23492H22.5788C22.8581 17.2813 22.6878 22.6831 21.7706 28.7474C23.1954 30.1134 23.9376 30.0894 25.165 28.7474C25.1362 18.9744 25.1188 13.4989 24.9226 4.23492Z" fill="#DDCFA8" stroke="#2A241D" stroke-linejoin="round"/>
<path d="M7.04889 4.15851H24.4538V4.82155C22.4456 7.69475 20.4373 7.69475 18.429 4.82155C16.6439 7.91577 14.8588 7.91577 13.0737 4.82155C11.0654 7.69475 9.05715 7.69475 7.04889 4.82155V4.15851Z" fill="#DDCFA8" stroke="#2A241D" stroke-linejoin="round"/>
</svg>
