<svg width="60" height="60" viewBox="0 0 60 60" fill="none" xmlns="http://www.w3.org/2000/svg">
<path d="M8 6H4V10H8V6Z" fill="#5F3F28"/>
<path d="M50 6H10V8H50V6Z" fill="#5F3F28"/>
<path d="M56 6H52V10H56V6Z" fill="#5F3F28"/>
<path d="M50 8H10V10H50V8Z" fill="#E9BD7F"/>
<path d="M50 10H10V12H50V10Z" fill="#B97B3F"/>
<path d="M16 30V12H7.42857V14H6V30H16Z" fill="#5F3F28"/>
<path d="M12 28H10V14H12V28Z" fill="#D96B7A"/>
<path d="M10 28H8V14H10V28Z" fill="#F2A7B4"/>
<path d="M14 28H12V14H14V28Z" fill="#F2A7B4"/>
<path d="M10 30H8V32H10V30Z" fill="#5F3F28"/>
<path d="M12 30H10V32H12V30Z" fill="#D96B7A"/>
<path d="M14 30H12V32H14V30Z" fill="#FBF2DF"/>
<path d="M16 30H14V32H16V30Z" fill="#5F3F28"/>
<path d="M16 32H6V50H4V56H6H16V32Z" fill="#5F3F28"/>
<path d="M12 54H10V34H12V54Z" fill="#D96B7A"/>
<path d="M8 54H6V52H8V54Z" fill="#D96B7A"/>
<path d="M10 54H8V34H10V54Z" fill="#F2A7B4"/>
<path d="M14 54H12V34H14V54Z" fill="#F2A7B4"/>
<path d="M44 30V12H52.5714V14H54V30H44Z" fill="#5F3F28"/>
<path d="M48 28H50V14H48V28Z" fill="#D96B7A"/>
<path d="M50 28H52V14H50V28Z" fill="#F2A7B4"/>
<path d="M46 28H48V14H46V28Z" fill="#F2A7B4"/>
<path d="M50 30H52V32H50V30Z" fill="#5F3F28"/>
<path d="M48 30H50V32H48V30Z" fill="#D96B7A"/>
<path d="M46 30H48V32H46V30Z" fill="#FBF2DF"/>
<path d="M44 30H46V32H44V30Z" fill="#5F3F28"/>
<path d="M44 32H54V50H56V56H54H44V32Z" fill="#5F3F28"/>
<path d="M48 54H50V34H48V54Z" fill="#D96B7A"/>
<path d="M52 54H54V52H52V54Z" fill="#D96B7A"/>
<path d="M50 54H52V34H50V54Z" fill="#F2A7B4"/>
<path d="M46 54H48V34H46V54Z" fill="#F2A7B4"/>
</svg>
