<svg width="32" height="32" viewBox="0 0 32 32" fill="none" xmlns="http://www.w3.org/2000/svg">
<path d="M27.0035 12.949H5.52982C4.8322 12.949 4.26666 13.1334 4.26666 13.3608V15.0079C4.26666 15.2353 4.8322 15.4196 5.52982 15.4196H27.0035C27.7011 15.4196 28.2667 15.2353 28.2667 15.0079V13.3608C28.2667 13.1334 27.7011 12.949 27.0035 12.949Z" fill="#DDCFA8" stroke="#2A241D" stroke-linejoin="round"/>
<path d="M17 13L17 15" stroke="#2A241D" stroke-linecap="round"/>
<path d="M6.73724 22.4413L6.73724 15.8097C6.73724 15.5943 6.60556 15.4196 6.44313 15.4196L5.26666 15.4196C5.10422 15.4196 4.97254 15.5943 4.97254 15.8097L4.97254 22.4413C4.97254 22.6567 5.10422 22.8314 5.26666 22.8314L6.44313 22.8314C6.60556 22.8314 6.73724 22.6567 6.73724 22.4413Z" fill="#DDCFA8" stroke="#2A241D" stroke-linejoin="round"/>
<path d="M10.0941 18.7633L10.0941 15.6054C10.0941 15.5028 9.96244 15.4196 9.8 15.4196L8.62353 15.4196C8.46109 15.4196 8.32941 15.5028 8.32941 15.6054L8.32941 18.7633C8.32941 18.8659 8.46109 18.949 8.62353 18.949L9.8 18.949C9.96244 18.949 10.0941 18.8659 10.0941 18.7633Z" fill="#DDCFA8" stroke="#2A241D" stroke-linejoin="round"/>
<path d="M24.2039 18.7633L24.2039 15.6054C24.2039 15.5028 24.0722 15.4196 23.9098 15.4196L22.7333 15.4196C22.5709 15.4196 22.4392 15.5028 22.4392 15.6054L22.4392 18.7633C22.4392 18.8659 22.5709 18.949 22.7333 18.949L23.9098 18.949C24.0722 18.949 24.2039 18.8659 24.2039 18.7633Z" fill="#DDCFA8" stroke="#2A241D" stroke-linejoin="round"/>
<path d="M27.5608 22.4413L27.5608 15.8097C27.5608 15.5943 27.4291 15.4196 27.2667 15.4196L26.0902 15.4196C25.9278 15.4196 25.7961 15.5943 25.7961 15.8097L25.7961 22.4413C25.7961 22.6567 25.9278 22.8314 26.0902 22.8314L27.2667 22.8314C27.4291 22.8314 27.5608 22.6567 27.5608 22.4413Z" fill="#DDCFA8" stroke="#2A241D" stroke-linejoin="round"/>
<path d="M25.181 9.06665H7.35238C7.00952 9.06665 6.49523 9.06665 6.25163 9.60276L4.26666 12.7658C4.26666 13.0619 4.8322 13.3019 5.52982 13.3019H27.0035C27.7011 13.3019 28.2667 13.0619 28.2667 12.7658L26.2817 9.60276C25.8667 9.06665 25.5238 9.06665 25.181 9.06665Z" fill="#DDCFA8" stroke="#2A241D" stroke-linejoin="round"/>
</svg>
