<svg width="47" height="32" viewBox="0 0 47 32" fill="none" xmlns="http://www.w3.org/2000/svg">
<path d="M39.7476 12.8H7.25236C6.19668 12.8 5.34088 13.0786 5.34088 13.4222V15.9111C5.34088 16.2547 6.19668 16.5333 7.25236 16.5333H39.7476C40.8033 16.5333 41.6591 16.2547 41.6591 15.9111V13.4222C41.6591 13.0786 40.8033 12.8 39.7476 12.8Z" fill="#DDCFA8" stroke="#2A241D" stroke-linejoin="round"/>
<path d="M24 13.5L24 16.5" stroke="#2A241D" stroke-linecap="round"/>
<path d="M9.07953 27.1439L9.07953 17.1228C9.07953 16.7972 8.88026 16.5333 8.63445 16.5333L6.85415 16.5333C6.60834 16.5333 6.40907 16.7972 6.40907 17.1228L6.40907 27.1439C6.40907 27.4694 6.60834 27.7333 6.85415 27.7333L8.63445 27.7333C8.88026 27.7333 9.07953 27.4694 9.07953 27.1439Z" fill="#DDCFA8" stroke="#2A241D" stroke-linejoin="round"/>
<path d="M13.3523 21.586L13.3523 16.814C13.3523 16.659 13.153 16.5333 12.9072 16.5333L11.1269 16.5333C10.8811 16.5333 10.6818 16.659 10.6818 16.814L10.6818 21.586C10.6818 21.741 10.8811 21.8667 11.1269 21.8667L12.9072 21.8667C13.153 21.8667 13.3523 21.741 13.3523 21.586Z" fill="#DDCFA8" stroke="#2A241D" stroke-linejoin="round"/>
<path d="M36.3182 21.586L36.3182 16.814C36.3182 16.659 36.1189 16.5333 35.8731 16.5333L34.0928 16.5333C33.847 16.5333 33.6477 16.659 33.6477 16.814L33.6477 21.586C33.6477 21.741 33.847 21.8667 34.0928 21.8667L35.8731 21.8667C36.1189 21.8667 36.3182 21.741 36.3182 21.586Z" fill="#DDCFA8" stroke="#2A241D" stroke-linejoin="round"/>
<path d="M40.5909 27.1439L40.5909 17.1228C40.5909 16.7972 40.3916 16.5333 40.1458 16.5333L38.3655 16.5333C38.1197 16.5333 37.9204 16.7972 37.9204 17.1228L37.9204 27.1439C37.9204 27.4694 38.1197 27.7333 38.3655 27.7333L40.1458 27.7333C40.3916 27.7333 40.5909 27.4694 40.5909 27.1439Z" fill="#DDCFA8" stroke="#2A241D" stroke-linejoin="round"/>
<path d="M36.9896 6.93335H10.0104C9.49153 6.93335 8.71328 6.93335 8.34464 7.74348L5.34088 12.5232C5.34088 12.9706 6.19668 13.3333 7.25236 13.3333H39.7476C40.8033 13.3333 41.6591 12.9706 41.6591 12.5232L38.6553 7.74348C38.0272 6.93335 37.5084 6.93335 36.9896 6.93335Z" fill="#DDCFA8" stroke="#2A241D" stroke-linejoin="round"/>
</svg>
