<svg width="60" height="60" viewBox="0 0 60 60" fill="none" xmlns="http://www.w3.org/2000/svg">
<path d="M50.6316 24.2794H10.3684C9.06038 24.2794 8 24.6251 8 25.0515V28.1397C8 28.5661 9.06038 28.9118 10.3684 28.9118H50.6316C51.9396 28.9118 53 28.5661 53 28.1397V25.0515C53 24.6251 51.9396 24.2794 50.6316 24.2794Z" fill="#DDCFA8" stroke="#2A241D" stroke-width="2.3" stroke-linejoin="round"/>
<path d="M29.8383 24.9412L29.8383 28.9118" stroke="#2A241D" stroke-width="2" stroke-linecap="round"/>
<path d="M12.6323 42.0774L12.6323 29.6432C12.6323 29.2392 12.3854 28.9118 12.0809 28.9118L9.87497 28.9118C9.5704 28.9118 9.3235 29.2392 9.3235 29.6432L9.3235 42.0774C9.3235 42.4814 9.5704 42.8088 9.87497 42.8088L12.0809 42.8088C12.3854 42.8088 12.6323 42.4814 12.6323 42.0774Z" fill="#DDCFA8" stroke="#2A241D" stroke-width="2.3" stroke-linejoin="round"/>
<path d="M18.9265 35.1811L18.9265 29.2601C18.9265 29.0677 18.6796 28.9118 18.375 28.9118L16.1691 28.9118C15.8645 28.9118 15.6176 29.0677 15.6176 29.2601L15.6176 35.1811C15.6176 35.3735 15.8645 35.5294 16.1691 35.5294L18.375 35.5294C18.6796 35.5294 18.9265 35.3735 18.9265 35.1811Z" fill="#DDCFA8" stroke="#2A241D" stroke-width="2.3" stroke-linejoin="round"/>
<path d="M45.3823 35.1811L45.3823 29.2601C45.3823 29.0677 45.1354 28.9118 44.8309 28.9118L42.625 28.9118C42.3204 28.9118 42.0735 29.0677 42.0735 29.2601L42.0735 35.1811C42.0735 35.3735 42.3204 35.5294 42.625 35.5294L44.8309 35.5294C45.1354 35.5294 45.3823 35.3735 45.3823 35.1811Z" fill="#DDCFA8" stroke="#2A241D" stroke-width="2.3" stroke-linejoin="round"/>
<path d="M51.6765 42.0774L51.6765 29.6432C51.6765 29.2392 51.4296 28.9118 51.125 28.9118L48.9191 28.9118C48.6145 28.9118 48.3676 29.2392 48.3676 29.6432L48.3676 42.0774C48.3676 42.4814 48.6145 42.8088 48.9191 42.8088L51.125 42.8088C51.4296 42.8088 51.6765 42.4814 51.6765 42.0774Z" fill="#DDCFA8" stroke="#2A241D" stroke-width="2.3" stroke-linejoin="round"/>
<path d="M47.2143 17L13.7857 17C13.1429 17 12.1786 17 11.7218 18.0052L8 23.936C8 24.4911 9.06038 24.9412 10.3684 24.9412H50.6316C51.9396 24.9412 53 24.4911 53 23.936L49.2782 18.0052C48.5 17 47.8571 17 47.2143 17Z" fill="#DDCFA8" stroke="#2A241D" stroke-width="2.3" stroke-linejoin="round"/>
</svg>
