<svg width="88" height="60" viewBox="0 0 88 60" fill="none" xmlns="http://www.w3.org/2000/svg">
<path d="M74.4211 24H13.5789C11.6023 24 10 24.5223 10 25.1667V29.8333C10 30.4777 11.6023 31 13.5789 31H74.4211C76.3977 31 78 30.4777 78 29.8333V25.1667C78 24.5223 76.3977 24 74.4211 24Z" fill="#DDCFA8" stroke="#2A241D" stroke-width="2.3" stroke-linejoin="round"/>
<path d="M43 25L43 31" stroke="#2A241D" stroke-width="2" stroke-linecap="round"/>
<path d="M17 50.8947L17 32.1053C17 31.4948 16.6269 31 16.1667 31L12.8333 31C12.3731 31 12 31.4948 12 32.1053L12 50.8947C12 51.5052 12.3731 52 12.8333 52L16.1667 52C16.6269 52 17 51.5052 17 50.8947Z" fill="#DDCFA8" stroke="#2A241D" stroke-width="2.3" stroke-linejoin="round"/>
<path d="M25 40.4737L25 31.5263C25 31.2356 24.6269 31 24.1667 31L20.8333 31C20.3731 31 20 31.2356 20 31.5263L20 40.4737C20 40.7644 20.3731 41 20.8333 41L24.1667 41C24.6269 41 25 40.7644 25 40.4737Z" fill="#DDCFA8" stroke="#2A241D" stroke-width="2.3" stroke-linejoin="round"/>
<path d="M68 40.4737L68 31.5263C68 31.2356 67.6269 31 67.1667 31L63.8333 31C63.3731 31 63 31.2356 63 31.5263L63 40.4737C63 40.7644 63.3731 41 63.8333 41L67.1667 41C67.6269 41 68 40.7644 68 40.4737Z" fill="#DDCFA8" stroke="#2A241D" stroke-width="2.3" stroke-linejoin="round"/>
<path d="M76 50.8947L76 32.1053C76 31.4948 75.6269 31 75.1667 31L71.8333 31C71.3731 31 71 31.4948 71 32.1053L71 50.8947C71 51.5052 71.3731 52 71.8333 52L75.1667 52C75.6269 52 76 51.5052 76 50.8947Z" fill="#DDCFA8" stroke="#2A241D" stroke-width="2.3" stroke-linejoin="round"/>
<path d="M69.2571 13L18.7429 13C17.7714 13 16.3143 13 15.6241 14.519L10 23.481C10 24.3199 11.6023 25 13.5789 25H74.4211C76.3977 25 78 24.3199 78 23.481L72.3759 14.519C71.2 13 70.2286 13 69.2571 13Z" fill="#DDCFA8" stroke="#2A241D" stroke-width="2.3" stroke-linejoin="round"/>
</svg>
