<svg width="60" height="60" viewBox="0 0 60 60" fill="none" xmlns="http://www.w3.org/2000/svg">
<path d="M56 28H4V30H56V28Z" fill="#5F3F28"/>
<path d="M6 30H4V32H6V30Z" fill="#5F3F28"/>
<path d="M54 30H6V32H54V30Z" fill="#E9BD7F"/>
<path d="M56 30H54V32H56V30Z" fill="#5F3F28"/>
<path d="M6 32H4V34H6V32Z" fill="#5F3F28"/>
<path d="M54 32H6V34H54V32Z" fill="#D9A15E"/>
<path d="M56 32H54V34H56V32Z" fill="#5F3F28"/>
<path d="M6 34H4V36H6V34Z" fill="#5F3F28"/>
<path d="M54 34H6V36H54V34Z" fill="#B97B3F"/>
<path d="M56 34H54V36H56V34Z" fill="#5F3F28"/>
<path d="M56 36H4V38H56V36Z" fill="#5F3F28"/>
<path d="M12 38H10V40H12V38Z" fill="#5F3F28"/>
<path d="M14 38H12V40H14V38Z" fill="#B97B3F"/>
<path d="M16 38H14V40H16V38Z" fill="#5F3F28"/>
<path d="M46 38H44V40H46V38Z" fill="#5F3F28"/>
<path d="M48 38H46V40H48V38Z" fill="#B97B3F"/>
<path d="M50 38H48V40H50V38Z" fill="#5F3F28"/>
<path d="M12 40H10V42H12V40Z" fill="#5F3F28"/>
<path d="M14 40H12V42H14V40Z" fill="#B97B3F"/>
<path d="M16 40H14V42H16V40Z" fill="#5F3F28"/>
<path d="M46 40H44V42H46V40Z" fill="#5F3F28"/>
<path d="M48 40H46V42H48V40Z" fill="#B97B3F"/>
<path d="M50 40H48V42H50V40Z" fill="#5F3F28"/>
<path d="M12 42H10V44H12V42Z" fill="#5F3F28"/>
<path d="M14 42H12V44H14V42Z" fill="#B97B3F"/>
<path d="M16 42H14V44H16V42Z" fill="#5F3F28"/>
<path d="M46 42H44V44H46V42Z" fill="#5F3F28"/>
<path d="M48 42H46V44H48V42Z" fill="#B97B3F"/>
<path d="M50 42H48V44H50V42Z" fill="#5F3F28"/>
<path d="M12 44H10V46H12V44Z" fill="#5F3F28"/>
<path d="M14 44H12V46H14V44Z" fill="#B97B3F"/>
<path d="M16 44H14V46H16V44Z" fill="#5F3F28"/>
<path d="M46 44H44V46H46V44Z" fill="#5F3F28"/>
<path d="M48 44H46V46H48V44Z" fill="#B97B3F"/>
<path d="M50 44H48V46H50V44Z" fill="#5F3F28"/>
<path d="M12 46H10V48H12V46Z" fill="#5F3F28"/>
<path d="M14 46H12V48H14V46Z" fill="#B97B3F"/>
<path d="M16 46H14V48H16V46Z" fill="#5F3F28"/>
<path d="M46 46H44V48H46V46Z" fill="#5F3F28"/>
<path d="M48 46H46V48H48V46Z" fill="#B97B3F"/>
<path d="M50 46H48V48H50V46Z" fill="#5F3F28"/>
<path d="M12 48H10V50H12V48Z" fill="#5F3F28"/>
<path d="M14 48H12V50H14V48Z" fill="#B97B3F"/>
<path d="M16 48H14V50H16V48Z" fill="#5F3F28"/>
<path d="M46 48H44V50H46V48Z" fill="#5F3F28"/>
<path d="M48 48H46V50H48V48Z" fill="#B97B3F"/>
<path d="M50 48H48V50H50V48Z" fill="#5F3F28"/>
<path d="M12 50H10V52H12V50Z" fill="#5F3F28"/>
<path d="M14 50H12V52H14V50Z" fill="#B97B3F"/>
<path d="M16 50H14V52H16V50Z" fill="#5F3F28"/>
<path d="M46 50H44V52H46V50Z" fill="#5F3F28"/>
<path d="M48 50H46V52H48V50Z" fill="#B97B3F"/>
<path d="M50 50H48V52H50V50Z" fill="#5F3F28"/>
<path d="M16 52H10V54H16V52Z" fill="#5F3F28"/>
<path d="M50 52H44V54H50V52Z" fill="#5F3F28"/>
</svg>
