<svg width="60" height="60" viewBox="0 0 60 60" fill="none" xmlns="http://www.w3.org/2000/svg">
<path d="M49.9328 35.0783C50.4894 41.581 47.5669 45.5549 42 47V43.2067C45.9575 41.3413 45.7576 39.4134 45.7576 37.7877C45.7576 36.162 44.0876 32.3688 46.1751 31.285C48.2627 30.2012 49.7008 32.3688 49.9328 35.0783Z" fill="#DDCFA8" stroke="#2A241D" stroke-width="2.3" stroke-linecap="round" stroke-linejoin="round"/>
<path d="M30 27C21 27 17 38 18 47C18 49.6667 19.3333 51 22 51H38C40.6667 51 42 49.6667 42 47C43 38 39 27 30 27Z" fill="#DDCFA8" stroke="#2A241D" stroke-width="2.3" stroke-linejoin="round"/>
<path d="M30 45V51" stroke="#2A241D" stroke-width="2.3" stroke-linecap="round" stroke-linejoin="round"/>
<path d="M25 45V51" stroke="#2A241D" stroke-width="2.3" stroke-linecap="round" stroke-linejoin="round"/>
<path d="M35 45V51" stroke="#2A241D" stroke-width="2.3" stroke-linecap="round" stroke-linejoin="round"/>
<path d="M30 28C34.9706 28 39 23.9706 39 19C39 14.0294 34.9706 10 30 10C25.0294 10 21 14.0294 21 19C21 23.9706 25.0294 28 30 28Z" fill="#DDCFA8" stroke="#2A241D" stroke-width="2.3" stroke-linejoin="round"/>
<path d="M21 14C17 16.6667 16 21 18 27C21.3333 26.3333 23.3333 23.6667 24 19L21 14Z" fill="#DDCFA8" stroke="#2A241D" stroke-width="2.3" stroke-linejoin="round"/>
<path d="M39 14C43 16.6667 44 21 42 27C38.6667 26.3333 36.6667 23.6667 36 19L39 14Z" fill="#DDCFA8" stroke="#2A241D" stroke-width="2.3" stroke-linejoin="round"/>
<path d="M26 19.7C26.9389 19.7 27.7 18.9389 27.7 18C27.7 17.0611 26.9389 16.3 26 16.3C25.0611 16.3 24.3 17.0611 24.3 18C24.3 18.9389 25.0611 19.7 26 19.7Z" fill="#2A241D"/>
<path d="M34 19.7C34.9389 19.7 35.7 18.9389 35.7 18C35.7 17.0611 34.9389 16.3 34 16.3C33.0611 16.3 32.3 17.0611 32.3 18C32.3 18.9389 33.0611 19.7 34 19.7Z" fill="#2A241D"/>
<path d="M30 24C31.4912 24 32.7 23.1046 32.7 22C32.7 20.8954 31.4912 20 30 20C28.5088 20 27.3 20.8954 27.3 22C27.3 23.1046 28.5088 24 30 24Z" fill="#2A241D"/>
<path d="M30 24V27" stroke="#2A241D" stroke-width="2.3" stroke-linecap="round" stroke-linejoin="round"/>
</svg>
