<svg width="60" height="60" viewBox="0 0 60 60" fill="none" xmlns="http://www.w3.org/2000/svg">
<path d="M48 12H36V18H48V12Z" fill="#7C7264"/>
<path d="M38 14H16V16H38V14Z" fill="#5F3F28"/>
<path d="M22 12H24V14H16V6H20V8H22V12Z" fill="#F2A7B4"/>
<path d="M34 16H16V18H34V16Z" fill="#9A8F80"/>
<path d="M38 16H34V18H38V16Z" fill="#7C7264"/>
<path d="M42 16H38V18H42V16Z" fill="#5F3F28"/>
<path d="M46 10H36V12H46V10Z" fill="#5F3F28"/>
<path d="M34 18H16V20H34V18Z" fill="#9A8F80"/>
<path d="M44 18H34V20H44V18Z" fill="#7C7264"/>
<path d="M48 12H46V14H48V12Z" fill="#5F3F28"/>
<path d="M50 14H48V18H50V14Z" fill="#5F3F28"/>
<path d="M36 12H34V14H36V12Z" fill="#5F3F28"/>
<path d="M16 6V14H14V6H16Z" fill="#5F3F28"/>
<path d="M26 14H24V12H26V14Z" fill="#5F3F28"/>
<path d="M24 12H22V8H24V12Z" fill="#5F3F28"/>
<path d="M22 8H20V6H22V8Z" fill="#5F3F28"/>
<path d="M20 4V6H16V4H20Z" fill="#5F3F28"/>
<path d="M34 20H16V22H34V20Z" fill="#9A8F80"/>
<path d="M44 20H34V22H44V20Z" fill="#7C7264"/>
<path d="M48 18H42V20H48V18Z" fill="#5F3F28"/>
<path d="M16 16H14V24H16V16Z" fill="#5F3F28"/>
<path d="M22 22H16V24H22V22Z" fill="#9A8F80"/>
<path d="M24 22H22V24H24V22Z" fill="#FBF2DF"/>
<path d="M26 22H24V24H26V22Z" fill="#5F3F28"/>
<path d="M34 22H26V24H34V22Z" fill="#9A8F80"/>
<path d="M36 22H34V24H36V22Z" fill="#7C7264"/>
<path d="M38 22H36V24H38V22Z" fill="#FBF2DF"/>
<path d="M40 22H38V24H40V22Z" fill="#5F3F28"/>
<path d="M44 22H40V24H44V22Z" fill="#7C7264"/>
<path d="M46 20H44V34H46V20Z" fill="#5F3F28"/>
<path d="M16 24H14V26H16V24Z" fill="#5F3F28"/>
<path d="M22 24H16V26H22V24Z" fill="#9A8F80"/>
<path d="M26 24H22V26H26V24Z" fill="#5F3F28"/>
<path d="M34 24H26V26H34V24Z" fill="#9A8F80"/>
<path d="M36 24H34V26H36V24Z" fill="#7C7264"/>
<path d="M40 24H36V26H40V24Z" fill="#5F3F28"/>
<path d="M44 24H40V26H44V24Z" fill="#7C7264"/>
<path d="M16 26H14V28H16V26Z" fill="#5F3F28"/>
<path d="M24 26H16V28H24V26Z" fill="#9A8F80"/>
<path d="M28 26H24V28H28V26Z" fill="#F7E9CF"/>
<path d="M32 26H28V28H32V26Z" fill="#5F3F28"/>
<path d="M36 26H32V28H36V26Z" fill="#F7E9CF"/>
<path d="M44 26H36V28H44V26Z" fill="#7C7264"/>
<path d="M16 28H14V30H16V28Z" fill="#5F3F28"/>
<path d="M24 28H16V30H24V28Z" fill="#9A8F80"/>
<path d="M28 28H24V30H28V28Z" fill="#F7E9CF"/>
<path d="M32 28H28V30H32V28Z" fill="#5F3F28"/>
<path d="M36 28H32V30H36V28Z" fill="#F7E9CF"/>
<path d="M44 28H36V30H44V28Z" fill="#9A8F80"/>
<path d="M16 30H14V32H16V30Z" fill="#5F3F28"/>
<path d="M24 30H16V32H24V30Z" fill="#9A8F80"/>
<path d="M36 30H24V32H36V30Z" fill="#F7E9CF"/>
<path d="M44 30H36V32H44V30Z" fill="#9A8F80"/>
<path d="M16 32H14V34H16V32Z" fill="#5F3F28"/>
<path d="M24 32H16V34H24V32Z" fill="#9A8F80"/>
<path d="M26 32H24V34H26V32Z" fill="#F7E9CF"/>
<path d="M28 32H26V34H28V32Z" fill="#5F3F28"/>
<path d="M32 32H28V34H32V32Z" fill="#F2A7B4"/>
<path d="M34 32H32V34H34V32Z" fill="#5F3F28"/>
<path d="M36 32H34V34H36V32Z" fill="#F7E9CF"/>
<path d="M44 32H36V34H44V32Z" fill="#9A8F80"/>
<path d="M28 34H16V36H28V34Z" fill="#5F3F28"/>
<path d="M32 34H28V36H32V34Z" fill="#F2A7B4"/>
<path d="M44 34H32V36H44V34Z" fill="#5F3F28"/>
<path d="M20 36H18V38H20V36Z" fill="#5F3F28"/>
<path d="M40 36H20V38H40V36Z" fill="#D96B7A"/>
<path d="M42 36H40V38H42V36Z" fill="#5F3F28"/>
<path d="M48 38H44V40H48V38Z" fill="#9A8F80"/>
<path d="M20 38H18V40H20V38Z" fill="#5F3F28"/>
<path d="M40 38H20V40H40V38Z" fill="#D96B7A"/>
<path d="M42 38H40V40H42V38Z" fill="#5F3F28"/>
<path d="M50 40H46V42H50V40Z" fill="#9A8F80"/>
<path d="M20 40H18V42H20V40Z" fill="#5F3F28"/>
<path d="M28 40H20V42H28V40Z" fill="#9A8F80"/>
<path d="M32 40H28V42H32V40Z" fill="#ECCA7F"/>
<path d="M40 40H32V42H40V40Z" fill="#9A8F80"/>
<path d="M42 40H40V42H42V40Z" fill="#5F3F28"/>
<path d="M50 42H42V44H50V42Z" fill="#9A8F80"/>
<path d="M20 42H18V44H20V42Z" fill="#5F3F28"/>
<path d="M40 42H20V44H40V42Z" fill="#9A8F80"/>
<path d="M42 42H40V44H42V42Z" fill="#5F3F28"/>
<path d="M46 44H42V46H46V44Z" fill="#9A8F80"/>
<path d="M20 44H18V46H20V44Z" fill="#5F3F28"/>
<path d="M24 44H20V46H24V44Z" fill="#9A8F80"/>
<path d="M36 44H24V46H36V44Z" fill="#F7E9CF"/>
<path d="M40 44H36V46H40V44Z" fill="#9A8F80"/>
<path d="M42 44H40V46H42V44Z" fill="#5F3F28"/>
<path d="M20 46H18V48H20V46Z" fill="#5F3F28"/>
<path d="M24 46H20V48H24V46Z" fill="#9A8F80"/>
<path d="M34 46H24V48H34V46Z" fill="#F7E9CF"/>
<path d="M40 46H34V48H40V46Z" fill="#7C7264"/>
<path d="M42 46H40V48H42V46Z" fill="#5F3F28"/>
<path d="M20 48H18V50H20V48Z" fill="#5F3F28"/>
<path d="M24 48H20V50H24V48Z" fill="#9A8F80"/>
<path d="M34 48H24V50H34V48Z" fill="#F7E9CF"/>
<path d="M40 48H34V50H40V48Z" fill="#7C7264"/>
<path d="M42 48H40V50H42V48Z" fill="#5F3F28"/>
<path d="M20 50H18V52H20V50Z" fill="#5F3F28"/>
<path d="M24 50H20V52H24V50Z" fill="#9A8F80"/>
<path d="M34 50H24V52H34V50Z" fill="#F7E9CF"/>
<path d="M40 50H34V52H40V50Z" fill="#7C7264"/>
<path d="M42 50H40V52H42V50Z" fill="#5F3F28"/>
<path d="M20 52H18V54H20V52Z" fill="#5F3F28"/>
<path d="M24 52H20V54H24V52Z" fill="#9A8F80"/>
<path d="M26 52H24V54H26V52Z" fill="#F7E9CF"/>
<path d="M28 52H26V54H28V52Z" fill="#7C7264"/>
<path d="M32 52H28V54H32V52Z" fill="#F7E9CF"/>
<path d="M34 52H32V54H34V52Z" fill="#7C7264"/>
<path d="M36 52H34V54H36V52Z" fill="#F7E9CF"/>
<path d="M40 52H36V54H40V52Z" fill="#9A8F80"/>
<path d="M42 52H40V54H42V52Z" fill="#5F3F28"/>
<path d="M42 54H18V56H42V54Z" fill="#5F3F28"/>
</svg>
