<svg width="32" height="32" viewBox="0 0 32 32" fill="none" xmlns="http://www.w3.org/2000/svg">
<path d="M26.6308 18.7084C26.9277 22.1765 25.369 24.296 22.4 25.0667V23.0436C24.5106 22.0487 24.4041 21.0205 24.4041 20.1535C24.4041 19.2864 23.5134 17.2633 24.6267 16.6853C25.7401 16.1073 26.5071 17.2633 26.6308 18.7084Z" fill="#DDCFA8" stroke="#2A241D" stroke-linecap="round" stroke-linejoin="round"/>
<path d="M16 14.4C11.2 14.4 9.06667 20.2667 9.6 25.0667C9.6 26.4889 10.3111 27.2 11.7333 27.2H20.2667C21.6889 27.2 22.4 26.4889 22.4 25.0667C22.9333 20.2667 20.8 14.4 16 14.4Z" fill="#DDCFA8" stroke="#2A241D" stroke-linejoin="round"/>
<path d="M16 24V27.2" stroke="#2A241D" stroke-linecap="round" stroke-linejoin="round"/>
<path d="M13.3333 24V27.2" stroke="#2A241D" stroke-linecap="round" stroke-linejoin="round"/>
<path d="M18.6667 24V27.2" stroke="#2A241D" stroke-linecap="round" stroke-linejoin="round"/>
<path d="M16 14.9333C18.651 14.9333 20.8 12.7843 20.8 10.1333C20.8 7.48235 18.651 5.33331 16 5.33331C13.349 5.33331 11.2 7.48235 11.2 10.1333C11.2 12.7843 13.349 14.9333 16 14.9333Z" fill="#DDCFA8" stroke="#2A241D" stroke-linejoin="round"/>
<path d="M11.2 7.46667C9.06667 8.8889 8.53333 11.2 9.6 14.4C11.3778 14.0445 12.4444 12.6222 12.8 10.1333L11.2 7.46667Z" fill="#DDCFA8" stroke="#2A241D" stroke-linejoin="round"/>
<path d="M20.8 7.46667C22.9333 8.8889 23.4667 11.2 22.4 14.4C20.6222 14.0445 19.5556 12.6222 19.2 10.1333L20.8 7.46667Z" fill="#DDCFA8" stroke="#2A241D" stroke-linejoin="round"/>
<path d="M13.8667 10.5067C14.3674 10.5067 14.7733 10.1008 14.7733 9.60003C14.7733 9.09929 14.3674 8.69336 13.8667 8.69336C13.3659 8.69336 12.96 9.09929 12.96 9.60003C12.96 10.1008 13.3659 10.5067 13.8667 10.5067Z" fill="#2A241D"/>
<path d="M18.1333 10.5067C18.6341 10.5067 19.04 10.1008 19.04 9.60003C19.04 9.09929 18.6341 8.69336 18.1333 8.69336C17.6326 8.69336 17.2267 9.09929 17.2267 9.60003C17.2267 10.1008 17.6326 10.5067 18.1333 10.5067Z" fill="#2A241D"/>
<path d="M16 12.8C16.7953 12.8 17.44 12.3225 17.44 11.7334C17.44 11.1442 16.7953 10.6667 16 10.6667C15.2047 10.6667 14.56 11.1442 14.56 11.7334C14.56 12.3225 15.2047 12.8 16 12.8Z" fill="#2A241D"/>
<path d="M16 12.8V14.4" stroke="#2A241D" stroke-linecap="round" stroke-linejoin="round"/>
</svg>
