<svg width="60" height="60" viewBox="0 0 60 60" fill="none" xmlns="http://www.w3.org/2000/svg">
<path d="M32 6H28V8H32V6Z" fill="#74904D"/>
<path d="M28 8H26V10H28V8Z" fill="#A9BF7E"/>
<path d="M32 8H28V10H32V8Z" fill="#74904D"/>
<path d="M34 8H32V10H34V8Z" fill="#A9BF7E"/>
<path d="M28 10H24V12H28V10Z" fill="#A9BF7E"/>
<path d="M32 10H28V12H32V10Z" fill="#74904D"/>
<path d="M36 10H32V12H36V10Z" fill="#A9BF7E"/>
<path d="M28 12H26V14H28V12Z" fill="#A9BF7E"/>
<path d="M32 12H28V14H32V12Z" fill="#74904D"/>
<path d="M34 12H32V14H34V12Z" fill="#A9BF7E"/>
<path d="M16 14H12V16H16V14Z" fill="#74904D"/>
<path d="M26 14H22V16H26V14Z" fill="#A9BF7E"/>
<path d="M28 14H26V16H28V14Z" fill="#5C7440"/>
<path d="M32 14H28V16H32V14Z" fill="#74904D"/>
<path d="M38 14H32V16H38V14Z" fill="#A9BF7E"/>
<path d="M48 14H44V16H48V14Z" fill="#74904D"/>
<path d="M14 16H12V18H14V16Z" fill="#A9BF7E"/>
<path d="M16 16H14V18H16V16Z" fill="#74904D"/>
<path d="M18 16H16V18H18V16Z" fill="#A9BF7E"/>
<path d="M28 16H24V18H28V16Z" fill="#A9BF7E"/>
<path d="M32 16H28V18H32V16Z" fill="#74904D"/>
<path d="M36 16H32V18H36V16Z" fill="#A9BF7E"/>
<path d="M44 16H42V18H44V16Z" fill="#A9BF7E"/>
<path d="M46 16H44V18H46V16Z" fill="#74904D"/>
<path d="M48 16H46V18H48V16Z" fill="#A9BF7E"/>
<path d="M14 18H10V20H14V18Z" fill="#A9BF7E"/>
<path d="M16 18H14V20H16V18Z" fill="#74904D"/>
<path d="M18 18H16V20H18V18Z" fill="#A9BF7E"/>
<path d="M28 18H20V20H28V18Z" fill="#A9BF7E"/>
<path d="M32 18H28V20H32V18Z" fill="#74904D"/>
<path d="M34 18H32V20H34V18Z" fill="#5C7440"/>
<path d="M40 18H34V20H40V18Z" fill="#A9BF7E"/>
<path d="M44 18H42V20H44V18Z" fill="#A9BF7E"/>
<path d="M46 18H44V20H46V18Z" fill="#74904D"/>
<path d="M50 18H46V20H50V18Z" fill="#A9BF7E"/>
<path d="M16 20H10V22H16V20Z" fill="#A9BF7E"/>
<path d="M18 20H16V22H18V20Z" fill="#74904D"/>
<path d="M20 20H18V22H20V20Z" fill="#A9BF7E"/>
<path d="M28 20H24V22H28V20Z" fill="#A9BF7E"/>
<path d="M32 20H28V22H32V20Z" fill="#74904D"/>
<path d="M36 20H32V22H36V20Z" fill="#A9BF7E"/>
<path d="M42 20H40V22H42V20Z" fill="#A9BF7E"/>
<path d="M44 20H42V22H44V20Z" fill="#74904D"/>
<path d="M50 20H44V22H50V20Z" fill="#A9BF7E"/>
<path d="M18 22H12V24H18V22Z" fill="#A9BF7E"/>
<path d="M20 22H18V24H20V22Z" fill="#74904D"/>
<path d="M24 22H20V24H24V22Z" fill="#A9BF7E"/>
<path d="M26 22H24V24H26V22Z" fill="#5C7440"/>
<path d="M28 22H26V24H28V22Z" fill="#A9BF7E"/>
<path d="M32 22H28V24H32V22Z" fill="#74904D"/>
<path d="M40 22H32V24H40V22Z" fill="#A9BF7E"/>
<path d="M42 22H40V24H42V22Z" fill="#74904D"/>
<path d="M48 22H42V24H48V22Z" fill="#A9BF7E"/>
<path d="M20 24H14V26H20V24Z" fill="#A9BF7E"/>
<path d="M22 24H20V26H22V24Z" fill="#74904D"/>
<path d="M28 24H22V26H28V24Z" fill="#A9BF7E"/>
<path d="M32 24H28V26H32V24Z" fill="#74904D"/>
<path d="M34 24H32V26H34V24Z" fill="#A9BF7E"/>
<path d="M36 24H34V26H36V24Z" fill="#5C7440"/>
<path d="M38 24H36V26H38V24Z" fill="#A9BF7E"/>
<path d="M40 24H38V26H40V24Z" fill="#74904D"/>
<path d="M46 24H40V26H46V24Z" fill="#A9BF7E"/>
<path d="M22 26H16V28H22V26Z" fill="#A9BF7E"/>
<path d="M24 26H22V28H24V26Z" fill="#74904D"/>
<path d="M28 26H24V28H28V26Z" fill="#A9BF7E"/>
<path d="M32 26H28V28H32V26Z" fill="#74904D"/>
<path d="M36 26H32V28H36V26Z" fill="#A9BF7E"/>
<path d="M38 26H36V28H38V26Z" fill="#74904D"/>
<path d="M44 26H38V28H44V26Z" fill="#A9BF7E"/>
<path d="M24 28H20V30H24V28Z" fill="#A9BF7E"/>
<path d="M26 28H24V30H26V28Z" fill="#74904D"/>
<path d="M28 28H26V30H28V28Z" fill="#A9BF7E"/>
<path d="M32 28H28V30H32V28Z" fill="#74904D"/>
<path d="M34 28H32V30H34V28Z" fill="#A9BF7E"/>
<path d="M36 28H34V30H36V28Z" fill="#74904D"/>
<path d="M40 28H36V30H40V28Z" fill="#A9BF7E"/>
<path d="M26 30H24V32H26V30Z" fill="#74904D"/>
<path d="M32 30H28V32H32V30Z" fill="#74904D"/>
<path d="M36 30H34V32H36V30Z" fill="#74904D"/>
<path d="M34 32H26V34H34V32Z" fill="#74904D"/>
<path d="M16 34H14V36H16V34Z" fill="#74904D"/>
<path d="M28 36V38H24V36H28Z" fill="#A9BF7E"/>
<path d="M20 34H24V36H16V34H14V36H12V32H20V34Z" fill="#A9BF7E"/>
<path d="M32 34H28V36H32V34Z" fill="#74904D"/>
<path d="M46 34H44V36H46V34Z" fill="#74904D"/>
<path d="M36 38H32V36H36V38Z" fill="#A9BF7E"/>
<path d="M46 34H44V36H36V34H40V32H48V36H46V34Z" fill="#A9BF7E"/>
<path d="M32 36H28V38H32V36Z" fill="#74904D"/>
<path d="M32 38H28V40H32V38Z" fill="#74904D"/>
<path d="M32 40H28V42H32V40Z" fill="#74904D"/>
<path d="M42 42H18V44H42V42Z" fill="#5F3F28"/>
<path d="M20 44H18V46H20V44Z" fill="#5F3F28"/>
<path d="M40 44H20V46H40V44Z" fill="#EEDDC2"/>
<path d="M42 44H40V46H42V44Z" fill="#5F3F28"/>
<path d="M42 46H18V48H42V46Z" fill="#5F3F28"/>
<path d="M22 48H20V50H22V48Z" fill="#5F3F28"/>
<path d="M26 48H22V50H26V48Z" fill="#FBF2DF"/>
<path d="M28 48H26V50H28V48Z" fill="#F2A7B4"/>
<path d="M30 48H28V50H30V48Z" fill="#FBF2DF"/>
<path d="M32 48H30V50H32V48Z" fill="#F2A7B4"/>
<path d="M38 48H32V50H38V48Z" fill="#FBF2DF"/>
<path d="M40 48H38V50H40V48Z" fill="#5F3F28"/>
<path d="M22 50H20V52H22V50Z" fill="#5F3F28"/>
<path d="M26 50H22V52H26V50Z" fill="#FBF2DF"/>
<path d="M32 50H26V52H32V50Z" fill="#F2A7B4"/>
<path d="M38 50H32V52H38V50Z" fill="#FBF2DF"/>
<path d="M40 50H38V52H40V50Z" fill="#5F3F28"/>
<path d="M28 52H20V54H28V52Z" fill="#5F3F28"/>
<path d="M42 54H18V56H42V54Z" fill="#5F3F28"/>
<path d="M30 52H28V54H30V52Z" fill="#F2A7B4"/>
<path d="M40 52H30V54H40V52Z" fill="#5F3F28"/>
</svg>
