<svg width="60" height="60" viewBox="0 0 60 60" fill="none" xmlns="http://www.w3.org/2000/svg">
<path d="M42 12H18V14H42V12Z" fill="#5F3F28"/>
<path d="M20 14H18V16H20V14Z" fill="#5F3F28"/>
<path d="M40 14H20V18H40V14Z" fill="#FBF2DF"/>
<path d="M42 14H40V16H42V14Z" fill="#5F3F28"/>
<path d="M20 16H14V18H20V16Z" fill="#5F3F28"/>
<path d="M46 16H40V18H46V16Z" fill="#5F3F28"/>
<path d="M14 18H12V20H14V18Z" fill="#5F3F28"/>
<path d="M18 18H14V20H18V18Z" fill="#A9C8E6"/>
<path d="M42 18H18V20H42V18Z" fill="#5F3F28"/>
<path d="M44 18H42V20H44V18Z" fill="#FBF2DF"/>
<path d="M46 18H44V20H46V18Z" fill="#A9C8E6"/>
<path d="M48 18H46V20H48V18Z" fill="#5F3F28"/>
<path d="M12 20H10V22H12V20Z" fill="#5F3F28"/>
<path d="M14 20H12V22H14V20Z" fill="#A9C8E6"/>
<path d="M16 20H14V22H16V20Z" fill="#FBF2DF"/>
<path d="M48 20H16V22H48V20Z" fill="#A9C8E6"/>
<path d="M50 20H48V22H50V20Z" fill="#5F3F28"/>
<path d="M12 22H10V24H12V22Z" fill="#5F3F28"/>
<path d="M14 22H12V24H14V22Z" fill="#7BA6CF"/>
<path d="M16 22H14V24H16V22Z" fill="#FBF2DF"/>
<path d="M48 22H16V24H48V22Z" fill="#7BA6CF"/>
<path d="M50 22H48V24H50V22Z" fill="#5F3F28"/>
<path d="M12 24H10V26H12V24Z" fill="#5F3F28"/>
<path d="M14 24H12V26H14V24Z" fill="#A9C8E6"/>
<path d="M16 24H14V26H16V24Z" fill="#FBF2DF"/>
<path d="M40 24H16V26H40V24Z" fill="#A9C8E6"/>
<path d="M42 24H40V26H42V24Z" fill="#FBF2DF"/>
<path d="M48 24H42V26H48V24Z" fill="#A9C8E6"/>
<path d="M50 24H48V26H50V24Z" fill="#5F3F28"/>
<path d="M12 26H10V28H12V26Z" fill="#5F3F28"/>
<path d="M14 26H12V28H14V26Z" fill="#A9C8E6"/>
<path d="M16 26H14V28H16V26Z" fill="#FBF2DF"/>
<path d="M26 26H16V28H26V26Z" fill="#A9C8E6"/>
<path d="M32 26H26V28H32V26Z" fill="#D96B7A"/>
<path d="M48 26H32V28H48V26Z" fill="#A9C8E6"/>
<path d="M50 26H48V28H50V26Z" fill="#5F3F28"/>
<path d="M12 28H10V30H12V28Z" fill="#5F3F28"/>
<path d="M14 28H12V30H14V28Z" fill="#A9C8E6"/>
<path d="M16 28H14V30H16V28Z" fill="#FBF2DF"/>
<path d="M18 28H16V30H18V28Z" fill="#A9C8E6"/>
<path d="M22 28H18V30H22V28Z" fill="#D96B7A"/>
<path d="M38 28H22V30H38V28Z" fill="#5F3F28"/>
<path d="M48 28H38V30H48V28Z" fill="#A9C8E6"/>
<path d="M50 28H48V30H50V28Z" fill="#5F3F28"/>
<path d="M12 30H10V32H12V30Z" fill="#5F3F28"/>
<path d="M14 30H12V32H14V30Z" fill="#A9C8E6"/>
<path d="M16 30H14V32H16V30Z" fill="#FBF2DF"/>
<path d="M18 30H16V32H18V30Z" fill="#A9C8E6"/>
<path d="M22 30H18V32H22V30Z" fill="#D96B7A"/>
<path d="M24 30H22V32H24V30Z" fill="#5F3F28"/>
<path d="M34 30H24V32H34V30Z" fill="#ECCA7F"/>
<path d="M36 30H34V32H36V30Z" fill="#FBF2DF"/>
<path d="M38 30H36V32H38V30Z" fill="#5F3F28"/>
<path d="M48 30H38V32H48V30Z" fill="#A9C8E6"/>
<path d="M50 30H48V32H50V30Z" fill="#5F3F28"/>
<path d="M12 32H10V34H12V32Z" fill="#5F3F28"/>
<path d="M20 32H12V34H20V32Z" fill="#A9C8E6"/>
<path d="M22 32H20V34H22V32Z" fill="#D96B7A"/>
<path d="M24 32H22V34H24V32Z" fill="#5F3F28"/>
<path d="M28 32H24V34H28V32Z" fill="#ECCA7F"/>
<path d="M30 32H28V34H30V32Z" fill="#D9A94F"/>
<path d="M32 32H30V34H32V32Z" fill="#ECCA7F"/>
<path d="M34 32H32V34H34V32Z" fill="#5F3F28"/>
<path d="M36 32H34V34H36V32Z" fill="#ECCA7F"/>
<path d="M38 32H36V34H38V32Z" fill="#5F3F28"/>
<path d="M48 32H38V34H48V32Z" fill="#A9C8E6"/>
<path d="M50 32H48V34H50V32Z" fill="#5F3F28"/>
<path d="M12 34H10V36H12V34Z" fill="#5F3F28"/>
<path d="M20 34H12V36H20V34Z" fill="#A9C8E6"/>
<path d="M22 34H20V36H22V34Z" fill="#D96B7A"/>
<path d="M24 34H22V36H24V34Z" fill="#5F3F28"/>
<path d="M28 34H24V36H28V34Z" fill="#ECCA7F"/>
<path d="M30 34H28V36H30V34Z" fill="#D9A94F"/>
<path d="M36 34H30V36H36V34Z" fill="#ECCA7F"/>
<path d="M38 34H36V36H38V34Z" fill="#5F3F28"/>
<path d="M48 34H38V36H48V34Z" fill="#A9C8E6"/>
<path d="M50 34H48V36H50V34Z" fill="#5F3F28"/>
<path d="M12 36H10V38H12V36Z" fill="#5F3F28"/>
<path d="M18 36H12V38H18V36Z" fill="#A9C8E6"/>
<path d="M22 36H18V38H22V36Z" fill="#D96B7A"/>
<path d="M24 36H22V38H24V36Z" fill="#5F3F28"/>
<path d="M36 36H24V38H36V36Z" fill="#ECCA7F"/>
<path d="M38 36H36V38H38V36Z" fill="#5F3F28"/>
<path d="M40 36H38V38H40V36Z" fill="#A9C8E6"/>
<path d="M42 36H40V38H42V36Z" fill="#74904D"/>
<path d="M48 36H42V38H48V36Z" fill="#A9C8E6"/>
<path d="M50 36H48V38H50V36Z" fill="#5F3F28"/>
<path d="M12 38H10V40H12V38Z" fill="#5F3F28"/>
<path d="M18 38H12V40H18V38Z" fill="#A9C8E6"/>
<path d="M22 38H18V40H22V38Z" fill="#D96B7A"/>
<path d="M38 38H22V40H38V38Z" fill="#5F3F28"/>
<path d="M40 38H38V40H40V38Z" fill="#A9C8E6"/>
<path d="M42 38H40V40H42V38Z" fill="#74904D"/>
<path d="M48 38H42V40H48V38Z" fill="#A9C8E6"/>
<path d="M50 38H48V40H50V38Z" fill="#5F3F28"/>
<path d="M12 40H10V42H12V40Z" fill="#5F3F28"/>
<path d="M18 40H12V42H18V40Z" fill="#A9C8E6"/>
<path d="M20 40H18V42H20V40Z" fill="#74904D"/>
<path d="M38 40H20V42H38V40Z" fill="#A9C8E6"/>
<path d="M42 40H38V42H42V40Z" fill="#74904D"/>
<path d="M48 40H42V42H48V40Z" fill="#A9C8E6"/>
<path d="M50 40H48V42H50V40Z" fill="#5F3F28"/>
<path d="M12 42H10V44H12V42Z" fill="#5F3F28"/>
<path d="M18 42H12V44H18V42Z" fill="#A9C8E6"/>
<path d="M22 42H18V44H22V42Z" fill="#74904D"/>
<path d="M40 42H22V44H40V42Z" fill="#A9C8E6"/>
<path d="M42 42H40V44H42V42Z" fill="#74904D"/>
<path d="M48 42H42V44H48V42Z" fill="#A9C8E6"/>
<path d="M50 42H48V44H50V42Z" fill="#5F3F28"/>
<path d="M12 44H10V46H12V44Z" fill="#5F3F28"/>
<path d="M18 44H12V46H18V44Z" fill="#E3D3B4"/>
<path d="M20 44H18V46H20V44Z" fill="#74904D"/>
<path d="M22 44H20V46H22V44Z" fill="#92602E"/>
<path d="M26 44H22V46H26V44Z" fill="#E3D3B4"/>
<path d="M28 44H26V46H28V44Z" fill="#F2A7B4"/>
<path d="M38 44H28V46H38V44Z" fill="#E3D3B4"/>
<path d="M40 44H38V46H40V44Z" fill="#92602E"/>
<path d="M42 44H40V46H42V44Z" fill="#74904D"/>
<path d="M48 44H42V46H48V44Z" fill="#E3D3B4"/>
<path d="M50 44H48V46H50V44Z" fill="#5F3F28"/>
<path d="M18 46H12V48H18V46Z" fill="#E3D3B4"/>
<path d="M20 46H18V48H20V46Z" fill="#74904D"/>
<path d="M30 46H20V48H30V46Z" fill="#E3D3B4"/>
<path d="M32 46H30V48H32V46Z" fill="#92602E"/>
<path d="M40 46H32V48H40V46Z" fill="#E3D3B4"/>
<path d="M42 46H40V48H42V46Z" fill="#74904D"/>
<path d="M48 46H42V48H48V46Z" fill="#E3D3B4"/>
<path d="M46 48H14V50H46V48Z" fill="#5F3F28"/>
</svg>
