<svg width="32" height="32" viewBox="0 0 32 32" fill="none" xmlns="http://www.w3.org/2000/svg">
<path d="M7.35714 11C5.88089 12.7876 5 15.0443 5 17.4975C5 23.2979 9.92487 28 16 28C22.0751 28 27 23.2979 27 17.4975C27 15.0443 26.1191 12.7876 24.6429 11H7.35714Z" fill="#F4EDE0" stroke="#2A241D"/>
<path d="M8.67441 18.5783C10.5974 15.2472 15.5118 15.407 18.9302 18.5783C16.4981 21.2479 10.5974 21.1256 8.67441 18.5783Z" fill="#DDCFA8" stroke="#2A241D" stroke-linejoin="round"/>
<path d="M18.9302 19.0698C20.0838 17.2935 20.8881 16.4745 23.3256 16.1395C22.2189 18.127 22.4462 19.4721 23.3256 22C21.6047 19.7983 20.6418 19.0722 18.9302 19.0698Z" fill="#DDCFA8" stroke="#2A241D" stroke-linejoin="round"/>
<path d="M12.3372 19.0698C12.7418 19.0698 13.0698 18.7418 13.0698 18.3372C13.0698 17.9327 12.7418 17.6047 12.3372 17.6047C11.9326 17.6047 11.6046 17.9327 11.6046 18.3372C11.6046 18.7418 11.9326 19.0698 12.3372 19.0698Z" fill="#2A241D"/>
<path d="M14.5349 15.7C16.4884 17.6535 16.4884 19.607 14.5349 21.5605" stroke="#2A241D" stroke-linecap="round" stroke-linejoin="round"/>
<ellipse cx="16" cy="11.3" rx="9" ry="1.5" fill="#F4EDE0" stroke="#2A241D"/>
</svg>
