<svg width="60" height="60" viewBox="0 0 60 60" fill="none" xmlns="http://www.w3.org/2000/svg">
<path d="M14 32C18.5 23.5 30.0004 23.9076 38 32C32.3085 38.8121 18.5 38.5 14 32Z" fill="#DDCFA8" stroke="#2A241D" stroke-width="2.3" stroke-linejoin="round"/>
<path d="M38 32C40.0996 28.3629 41.5636 26.6859 46 26C43.9858 30.0696 44.3995 32.8239 46 38C42.8678 33.4919 41.1152 32.0049 38 32Z" fill="#DDCFA8" stroke="#2A241D" stroke-width="2.3" stroke-linejoin="round"/>
<path d="M21 32C21.5523 32 22 31.5523 22 31C22 30.4477 21.5523 30 21 30C20.4477 30 20 30.4477 20 31C20 31.5523 20.4477 32 21 32Z" fill="#2A241D"/>
<path d="M28 25C30 29.6667 30 34.3333 28 39" stroke="#2A241D" fill="none" stroke-width="2.3" stroke-linecap="round" stroke-linejoin="round"/>
<path d="M13.5 17.0082C10.6817 20.5826 9 25.0949 9 30C9 41.598 18.402 51 30 51C41.598 51 51 41.598 51 30C51 25.0949 49.3183 20.5826 46.5 17.0082" stroke="#2A241D" fill="none" stroke-width="2.2"/>
<ellipse cx="30" cy="17.5" rx="17" ry="2.5" stroke="#2A241D" fill="none" stroke-width="2.3"/>
</svg>
