<svg width="32" height="32" viewBox="0 0 32 32" fill="none" xmlns="http://www.w3.org/2000/svg">
<path d="M22.6667 11.7333H9.33333C8.8915 11.7333 8.53333 12.0915 8.53333 12.5333V15.2C8.53333 15.6418 8.8915 16 9.33333 16H22.6667C23.1085 16 23.4667 15.6418 23.4667 15.2V12.5333C23.4667 12.0915 23.1085 11.7333 22.6667 11.7333Z" fill="#DDCFA8" stroke="#2A241D" stroke-linejoin="round"/>
<path d="M21.6 16H10.4C9.95818 16 9.60001 16.3582 9.60001 16.8V24.8C9.60001 25.2418 9.95818 25.6 10.4 25.6H21.6C22.0418 25.6 22.4 25.2418 22.4 24.8V16.8C22.4 16.3582 22.0418 16 21.6 16Z" fill="#DDCFA8" stroke="#2A241D" stroke-linejoin="round"/>
<path d="M16 11.7333V25.6" stroke="#2A241D" stroke-linecap="round" stroke-linejoin="round"/>
<path d="M16 11.7333C13.5111 7.82221 11.5556 7.1111 10.1333 9.59998C9.42223 11.0222 11.3778 11.7333 16 11.7333Z" fill="#DDCFA8" stroke="#2A241D" stroke-linejoin="round"/>
<path d="M16 11.7333C18.4889 7.82221 20.4444 7.1111 21.8667 9.59998C22.5778 11.0222 20.6222 11.7333 16 11.7333Z" fill="#DDCFA8" stroke="#2A241D" stroke-linejoin="round"/>
</svg>
