<svg width="60" height="60" viewBox="0 0 60 60" fill="none" xmlns="http://www.w3.org/2000/svg">
<path d="M28 8H18V10H28V8Z" fill="#5F3F28"/>
<path d="M42 8H32V10H42V8Z" fill="#5F3F28"/>
<path d="M20 10H18V12H20V10Z" fill="#5F3F28"/>
<path d="M26 10H20V12H26V10Z" fill="#D9A94F"/>
<path d="M34 10H26V12H34V10Z" fill="#5F3F28"/>
<path d="M40 10H34V12H40V10Z" fill="#D9A94F"/>
<path d="M42 10H40V12H42V10Z" fill="#5F3F28"/>
<path d="M20 12H18V14H20V12Z" fill="#5F3F28"/>
<path d="M22 12H20V14H22V12Z" fill="#D9A94F"/>
<path d="M28 12H26V14H28V12Z" fill="#5F3F28"/>
<path d="M26 12H22V14H26V12Z" fill="#ECCA7F"/>
<path d="M38 12H34V14H38V12Z" fill="#ECCA7F"/>
<path d="M32 12H28V14H32V12Z" fill="#D9A94F"/>
<path d="M34 12H32V14H34V12Z" fill="#5F3F28"/>
<path d="M40 12H38V14H40V12Z" fill="#D9A94F"/>
<path d="M42 12H40V14H42V12Z" fill="#5F3F28"/>
<path d="M20 14H18V16H20V14Z" fill="#5F3F28"/>
<path d="M26 14H20V16H26V14Z" fill="#D9A94F"/>
<path d="M28 14H26V16H28V14Z" fill="#5F3F28"/>
<path d="M32 14H28V16H32V14Z" fill="#D9A94F"/>
<path d="M34 14H32V16H34V14Z" fill="#5F3F28"/>
<path d="M40 14H34V16H40V14Z" fill="#D9A94F"/>
<path d="M42 14H40V16H42V14Z" fill="#5F3F28"/>
<path d="M26 16H18V18H26V16Z" fill="#5F3F28"/>
<path d="M34 16H26V18H34V16Z" fill="#5F3F28"/>
<path d="M42 16H34V18H42V16Z" fill="#5F3F28"/>
<path d="M26 18H8V20H26V18Z" fill="#5F3F28"/>
<path d="M28 18H26V20H28V18Z" fill="#5F3F28"/>
<path d="M30 18H28V50H30V18Z" fill="#D9A94F"/>
<path d="M32 18H30V50H32V18Z" fill="#ECCA7F"/>
<path d="M34 18H32V20H34V18Z" fill="#5F3F28"/>
<path d="M52 18H34V20H52V18Z" fill="#5F3F28"/>
<path d="M10 20H8V22H10V20Z" fill="#5F3F28"/>
<path d="M26 20H10V22H26V20Z" fill="#F2A7B4"/>
<path d="M28 20H26V22H28V20Z" fill="#5F3F28"/>
<path d="M34 20H32V22H34V20Z" fill="#5F3F28"/>
<path d="M50 20H34V22H50V20Z" fill="#F2A7B4"/>
<path d="M52 20H50V22H52V20Z" fill="#5F3F28"/>
<path d="M10 22H8V24H10V22Z" fill="#5F3F28"/>
<path d="M26 22H10V24H26V22Z" fill="#D96B7A"/>
<path d="M28 22H26V24H28V22Z" fill="#5F3F28"/>
<path d="M34 22H32V24H34V22Z" fill="#5F3F28"/>
<path d="M50 22H34V24H50V22Z" fill="#D96B7A"/>
<path d="M52 22H50V24H52V22Z" fill="#5F3F28"/>
<path d="M10 24H8V26H10V24Z" fill="#5F3F28"/>
<path d="M26 24H10V26H26V24Z" fill="#D96B7A"/>
<path d="M28 24H26V26H28V24Z" fill="#5F3F28"/>
<path d="M34 24H32V26H34V24Z" fill="#5F3F28"/>
<path d="M50 24H34V26H50V24Z" fill="#D96B7A"/>
<path d="M52 24H50V26H52V24Z" fill="#5F3F28"/>
<path d="M26 26H8V28H26V26Z" fill="#5F3F28"/>
<path d="M28 26H26V28H28V26Z" fill="#5F3F28"/>
<path d="M34 26H32V28H34V26Z" fill="#5F3F28"/>
<path d="M52 26H34V28H52V26Z" fill="#5F3F28"/>
<path d="M14 28H12V30H14V28Z" fill="#5F3F28"/>
<path d="M26 28H14V30H26V28Z" fill="#EEDDC2"/>
<path d="M28 28H26V30H28V28Z" fill="#5F3F28"/>
<path d="M34 28H32V30H34V28Z" fill="#5F3F28"/>
<path d="M46 28H34V30H46V28Z" fill="#EEDDC2"/>
<path d="M48 28H46V30H48V28Z" fill="#5F3F28"/>
<path d="M14 30H12V32H14V30Z" fill="#5F3F28"/>
<path d="M26 30H14V32H26V30Z" fill="#F2A7B4"/>
<path d="M28 30H26V32H28V30Z" fill="#5F3F28"/>
<path d="M34 30H32V32H34V30Z" fill="#5F3F28"/>
<path d="M46 30H34V32H46V30Z" fill="#F2A7B4"/>
<path d="M48 30H46V32H48V30Z" fill="#5F3F28"/>
<path d="M14 32H12V34H14V32Z" fill="#5F3F28"/>
<path d="M26 32H14V34H26V32Z" fill="#F2A7B4"/>
<path d="M28 32H26V34H28V32Z" fill="#5F3F28"/>
<path d="M34 32H32V34H34V32Z" fill="#5F3F28"/>
<path d="M46 32H34V34H46V32Z" fill="#F2A7B4"/>
<path d="M48 32H46V34H48V32Z" fill="#5F3F28"/>
<path d="M14 34H12V36H14V34Z" fill="#5F3F28"/>
<path d="M26 34H14V36H26V34Z" fill="#F2A7B4"/>
<path d="M28 34H26V36H28V34Z" fill="#5F3F28"/>
<path d="M34 34H32V36H34V34Z" fill="#5F3F28"/>
<path d="M46 34H34V36H46V34Z" fill="#F2A7B4"/>
<path d="M48 34H46V36H48V34Z" fill="#5F3F28"/>
<path d="M14 36H12V38H14V36Z" fill="#5F3F28"/>
<path d="M26 36H14V38H26V36Z" fill="#F2A7B4"/>
<path d="M28 36H26V38H28V36Z" fill="#5F3F28"/>
<path d="M34 36H32V38H34V36Z" fill="#5F3F28"/>
<path d="M46 36H34V38H46V36Z" fill="#F2A7B4"/>
<path d="M48 36H46V38H48V36Z" fill="#5F3F28"/>
<path d="M14 38H12V40H14V38Z" fill="#5F3F28"/>
<path d="M26 38H14V40H26V38Z" fill="#F2A7B4"/>
<path d="M28 38H26V40H28V38Z" fill="#5F3F28"/>
<path d="M34 38H32V40H34V38Z" fill="#5F3F28"/>
<path d="M46 38H34V40H46V38Z" fill="#F2A7B4"/>
<path d="M48 38H46V40H48V38Z" fill="#5F3F28"/>
<path d="M14 40H12V42H14V40Z" fill="#5F3F28"/>
<path d="M26 40H14V42H26V40Z" fill="#F2A7B4"/>
<path d="M28 40H26V42H28V40Z" fill="#5F3F28"/>
<path d="M34 40H32V42H34V40Z" fill="#5F3F28"/>
<path d="M46 40H34V42H46V40Z" fill="#F2A7B4"/>
<path d="M48 40H46V42H48V40Z" fill="#5F3F28"/>
<path d="M14 42H12V44H14V42Z" fill="#5F3F28"/>
<path d="M26 42H14V44H26V42Z" fill="#F2A7B4"/>
<path d="M28 42H26V44H28V42Z" fill="#5F3F28"/>
<path d="M34 42H32V44H34V42Z" fill="#5F3F28"/>
<path d="M46 42H34V44H46V42Z" fill="#F2A7B4"/>
<path d="M48 42H46V44H48V42Z" fill="#5F3F28"/>
<path d="M14 44H12V46H14V44Z" fill="#5F3F28"/>
<path d="M26 44H14V46H26V44Z" fill="#F2A7B4"/>
<path d="M28 44H26V46H28V44Z" fill="#5F3F28"/>
<path d="M34 44H32V46H34V44Z" fill="#5F3F28"/>
<path d="M46 44H34V46H46V44Z" fill="#F2A7B4"/>
<path d="M48 44H46V46H48V44Z" fill="#5F3F28"/>
<path d="M14 46H12V48H14V46Z" fill="#5F3F28"/>
<path d="M26 46H14V48H26V46Z" fill="#F2A7B4"/>
<path d="M28 46H26V48H28V46Z" fill="#5F3F28"/>
<path d="M34 46H32V48H34V46Z" fill="#5F3F28"/>
<path d="M46 46H34V48H46V46Z" fill="#F2A7B4"/>
<path d="M48 46H46V48H48V46Z" fill="#5F3F28"/>
<path d="M14 48H12V50H14V48Z" fill="#5F3F28"/>
<path d="M26 48H14V50H26V48Z" fill="#F2A7B4"/>
<path d="M28 48H26V50H28V48Z" fill="#5F3F28"/>
<path d="M34 48H32V50H34V48Z" fill="#5F3F28"/>
<path d="M46 48H34V50H46V48Z" fill="#F2A7B4"/>
<path d="M48 48H46V50H48V48Z" fill="#5F3F28"/>
<path d="M26 50H12V52H26V50Z" fill="#5F3F28"/>
<path d="M28 50H26V52H28V50Z" fill="#5F3F28"/>
<path d="M32 50H28V52H32V50Z" fill="#5F3F28"/>
<path d="M34 50H32V52H34V50Z" fill="#5F3F28"/>
<path d="M48 50H34V52H48V50Z" fill="#5F3F28"/>
</svg>
