<svg width="60" height="60" viewBox="0 0 60 60" fill="none" xmlns="http://www.w3.org/2000/svg">
<path d="M22.8834 30.2034C25.1166 28.1547 30 28 30 28C30 28 34.8834 28.1547 37.1166 30.2034C40.1315 32.9692 37.1166 38.5763 37.1166 38.5763C37.1166 38.5763 41.1401 47.3054 38.6416 50.9153C37.1166 53.1186 33.7298 54 30 54C26.2702 54 23.3917 53.5593 21.3583 50.9153C18.6647 47.4125 22.8834 38.5763 22.8834 38.5763C22.8834 38.5763 19.8685 32.9692 22.8834 30.2034Z" fill="#DDCFA8" stroke="#2A241D" stroke-width="2.3" stroke-linejoin="round"/>
<circle cx="30" cy="38" r="3" fill="#F4EDE0" stroke="#2A241D" stroke-width="2.3"/>
<path d="M28.5 13H31.5L32 32H28L28.5 13Z" fill="#F4EDE0" stroke="#2A241D" stroke-width="2.3" stroke-linejoin="round"/>
<path d="M32.25 16L27.75 16L27 9L33 9L32.25 16Z" fill="#F4EDE0" stroke="#2A241D" stroke-width="2.3" stroke-linejoin="round"/>
<path d="M27 49L33 49" stroke="#2A241D" stroke-width="2.3" stroke-linecap="round" stroke-linejoin="round"/>
</svg>
