<svg width="60" height="60" viewBox="0 0 60 60" fill="none" xmlns="http://www.w3.org/2000/svg">
<path d="M38 4H24V6H38V4Z" fill="#5F3F28"/>
<path d="M26 6H24V8H26V6Z" fill="#5F3F28"/>
<path d="M28 6H26V8H28V6Z" fill="#ECCA7F"/>
<path d="M34 6H28V8H34V6Z" fill="#7A4E22"/>
<path d="M36 6H34V8H36V6Z" fill="#ECCA7F"/>
<path d="M38 6H36V8H38V6Z" fill="#5F3F28"/>
<path d="M38 8H24V10H38V8Z" fill="#5F3F28"/>
<path d="M28 10H26V12H28V10Z" fill="#5F3F28"/>
<path d="M36 10H34V12H36V10Z" fill="#5F3F28"/>
<path d="M30 10H28V12H30V10Z" fill="#EEDDC2"/>
<path d="M32 10H30V12H32V10Z" fill="#5F3F28"/>
<path d="M34 10H32V12H34V10Z" fill="#EEDDC2"/>
<path d="M28 12H26V14H28V12Z" fill="#5F3F28"/>
<path d="M36 12H34V14H36V12Z" fill="#5F3F28"/>
<path d="M30 12H28V14H30V12Z" fill="#EEDDC2"/>
<path d="M32 12H30V14H32V12Z" fill="#B97B3F"/>
<path d="M34 12H32V14H34V12Z" fill="#EEDDC2"/>
<path d="M28 14H26V16H28V14Z" fill="#5F3F28"/>
<path d="M36 14H34V16H36V14Z" fill="#5F3F28"/>
<path d="M30 14H28V16H30V14Z" fill="#EEDDC2"/>
<path d="M32 14H30V16H32V14Z" fill="#B97B3F"/>
<path d="M34 14H32V16H34V14Z" fill="#EEDDC2"/>
<path d="M28 16H26V18H28V16Z" fill="#ECCA7F"/>
<path d="M36 16H34V18H36V16Z" fill="#ECCA7F"/>
<path d="M30 16H28V18H30V16Z" fill="#EEDDC2"/>
<path d="M32 16H30V18H32V16Z" fill="#ECCA7F"/>
<path d="M34 16H32V18H34V16Z" fill="#EEDDC2"/>
<path d="M28 18H26V20H28V18Z" fill="#5F3F28"/>
<path d="M36 18H34V20H36V18Z" fill="#5F3F28"/>
<path d="M30 18H28V20H30V18Z" fill="#EEDDC2"/>
<path d="M32 18H30V20H32V18Z" fill="#B97B3F"/>
<path d="M34 18H32V20H34V18Z" fill="#EEDDC2"/>
<path d="M28 20H26V22H28V20Z" fill="#5F3F28"/>
<path d="M36 20H34V22H36V20Z" fill="#5F3F28"/>
<path d="M30 20H28V22H30V20Z" fill="#EEDDC2"/>
<path d="M32 20H30V22H32V20Z" fill="#B97B3F"/>
<path d="M34 20H32V22H34V20Z" fill="#EEDDC2"/>
<path d="M28 22H26V24H28V22Z" fill="#ECCA7F"/>
<path d="M36 22H34V24H36V22Z" fill="#ECCA7F"/>
<path d="M30 22H28V24H30V22Z" fill="#EEDDC2"/>
<path d="M32 22H30V24H32V22Z" fill="#ECCA7F"/>
<path d="M34 22H32V24H34V22Z" fill="#EEDDC2"/>
<path d="M28 24H26V26H28V24Z" fill="#5F3F28"/>
<path d="M36 24H34V26H36V24Z" fill="#5F3F28"/>
<path d="M30 24H28V26H30V24Z" fill="#EEDDC2"/>
<path d="M32 24H30V26H32V24Z" fill="#B97B3F"/>
<path d="M34 24H32V26H34V24Z" fill="#EEDDC2"/>
<path d="M28 26H26V28H28V26Z" fill="#5F3F28"/>
<path d="M36 26H34V28H36V26Z" fill="#5F3F28"/>
<path d="M30 26H28V28H30V26Z" fill="#EEDDC2"/>
<path d="M32 26H30V28H32V26Z" fill="#B97B3F"/>
<path d="M34 26H32V28H34V26Z" fill="#EEDDC2"/>
<path d="M28 28H26V30H28V28Z" fill="#5F3F28"/>
<path d="M36 28H34V30H36V28Z" fill="#5F3F28"/>
<path d="M30 28H28V30H30V28Z" fill="#EEDDC2"/>
<path d="M32 28H30V30H32V28Z" fill="#B97B3F"/>
<path d="M34 28H32V30H34V28Z" fill="#EEDDC2"/>
<path d="M28 30H22V32H28V30Z" fill="#5F3F28"/>
<path d="M30 30H28V32H30V30Z" fill="#EEDDC2"/>
<path d="M32 30H30V32H32V30Z" fill="#5F3F28"/>
<path d="M34 30H32V32H34V30Z" fill="#EEDDC2"/>
<path d="M40 30H34V32H40V30Z" fill="#5F3F28"/>
<path d="M22 32H20V34H22V32Z" fill="#5F3F28"/>
<path d="M28 32H22V34H28V32Z" fill="#D9A15E"/>
<path d="M30 32H28V34H30V32Z" fill="#EEDDC2"/>
<path d="M32 32H30V34H32V32Z" fill="#D9A15E"/>
<path d="M34 32H32V34H34V32Z" fill="#EEDDC2"/>
<path d="M40 32H34V34H40V32Z" fill="#D9A15E"/>
<path d="M42 32H40V34H42V32Z" fill="#5F3F28"/>
<path d="M28 34H20V36H28V34Z" fill="#E9BD7F"/>
<path d="M30 34H28V36H30V34Z" fill="#EEDDC2"/>
<path d="M32 34H30V36H32V34Z" fill="#E9BD7F"/>
<path d="M34 34H32V36H34V34Z" fill="#EEDDC2"/>
<path d="M38 34H34V36H38V34Z" fill="#E9BD7F"/>
<path d="M40 34H38V36H40V34Z" fill="#D9A15E"/>
<path d="M42 34H40V36H42V34Z" fill="#5F3F28"/>
<path d="M22 36H20V38H22V36Z" fill="#5F3F28"/>
<path d="M28 36H22V38H28V36Z" fill="#D9A15E"/>
<path d="M30 36H28V38H30V36Z" fill="#EEDDC2"/>
<path d="M32 36H30V38H32V36Z" fill="#D9A15E"/>
<path d="M34 36H32V38H34V36Z" fill="#EEDDC2"/>
<path d="M40 36H34V38H40V36Z" fill="#D9A15E"/>
<path d="M42 36H40V38H42V36Z" fill="#5F3F28"/>
<path d="M28 38H20V40H28V38Z" fill="#5F3F28"/>
<path d="M30 38H28V40H30V38Z" fill="#EEDDC2"/>
<path d="M32 38H30V40H32V38Z" fill="#5F3F28"/>
<path d="M34 38H32V40H34V38Z" fill="#EEDDC2"/>
<path d="M42 38H34V40H42V38Z" fill="#5F3F28"/>
<path d="M20 40H18V42H20V40Z" fill="#5F3F28"/>
<path d="M28 40H20V42H28V40Z" fill="#D9A15E"/>
<path d="M30 40H28V42H30V40Z" fill="#EEDDC2"/>
<path d="M32 40H30V42H32V40Z" fill="#D9A15E"/>
<path d="M34 40H32V42H34V40Z" fill="#EEDDC2"/>
<path d="M42 40H34V42H42V40Z" fill="#D9A15E"/>
<path d="M44 40H42V42H44V40Z" fill="#5F3F28"/>
<path d="M20 42H18V44H20V42Z" fill="#5F3F28"/>
<path d="M26 42H20V44H26V42Z" fill="#D9A15E"/>
<path d="M28 42H26V44H28V42Z" fill="#5F3F28"/>
<path d="M30 42H28V44H30V42Z" fill="#EEDDC2"/>
<path d="M32 42H30V44H32V42Z" fill="#5F3F28"/>
<path d="M34 42H32V44H34V42Z" fill="#EEDDC2"/>
<path d="M36 42H34V44H36V42Z" fill="#5F3F28"/>
<path d="M42 42H36V44H42V42Z" fill="#D9A15E"/>
<path d="M44 42H42V44H44V42Z" fill="#5F3F28"/>
<path d="M20 44H18V46H20V44Z" fill="#5F3F28"/>
<path d="M26 44H20V46H26V44Z" fill="#D9A15E"/>
<path d="M28 44H26V46H28V44Z" fill="#5F3F28"/>
<path d="M30 44H28V46H30V44Z" fill="#EEDDC2"/>
<path d="M32 44H30V46H32V44Z" fill="#7A4E22"/>
<path d="M34 44H32V46H34V44Z" fill="#EEDDC2"/>
<path d="M36 44H34V46H36V44Z" fill="#5F3F28"/>
<path d="M42 44H36V46H42V44Z" fill="#D9A15E"/>
<path d="M44 44H42V46H44V44Z" fill="#5F3F28"/>
<path d="M20 46H18V48H20V46Z" fill="#5F3F28"/>
<path d="M26 46H20V48H26V46Z" fill="#D9A15E"/>
<path d="M28 46H26V48H28V46Z" fill="#5F3F28"/>
<path d="M30 46H28V48H30V46Z" fill="#EEDDC2"/>
<path d="M32 46H30V48H32V46Z" fill="#7A4E22"/>
<path d="M34 46H32V48H34V46Z" fill="#EEDDC2"/>
<path d="M36 46H34V48H36V46Z" fill="#5F3F28"/>
<path d="M42 46H36V48H42V46Z" fill="#D9A15E"/>
<path d="M44 46H42V48H44V46Z" fill="#5F3F28"/>
<path d="M20 48H18V50H20V48Z" fill="#5F3F28"/>
<path d="M26 48H20V50H26V48Z" fill="#D9A15E"/>
<path d="M28 48H26V50H28V48Z" fill="#5F3F28"/>
<path d="M30 48H28V50H30V48Z" fill="#EEDDC2"/>
<path d="M32 48H30V50H32V48Z" fill="#7A4E22"/>
<path d="M34 48H32V50H34V48Z" fill="#EEDDC2"/>
<path d="M36 48H34V50H36V48Z" fill="#5F3F28"/>
<path d="M42 48H36V50H42V48Z" fill="#D9A15E"/>
<path d="M44 48H42V50H44V48Z" fill="#5F3F28"/>
<path d="M20 50H18V52H20V50Z" fill="#5F3F28"/>
<path d="M26 50H20V52H26V50Z" fill="#D9A15E"/>
<path d="M36 50H26V52H36V50Z" fill="#5F3F28"/>
<path d="M42 50H36V52H42V50Z" fill="#D9A15E"/>
<path d="M44 50H42V52H44V50Z" fill="#5F3F28"/>
<path d="M20 52H18V54H20V52Z" fill="#5F3F28"/>
<path d="M24 52H20V54H24V52Z" fill="#D9A15E"/>
<path d="M38 52H24V54H38V52Z" fill="#7A4E22"/>
<path d="M42 52H38V54H42V52Z" fill="#D9A15E"/>
<path d="M44 52H42V54H44V52Z" fill="#5F3F28"/>
<path d="M42 54H20V56H42V54Z" fill="#5F3F28"/>
</svg>
