<svg width="60" height="60" viewBox="0 0 60 60" fill="none" xmlns="http://www.w3.org/2000/svg">
<path d="M9 20.8754C14.7544 20.3128 20.3066 22.1306 25 22.2558C27.2141 22.3149 29.5 19.8754 29.5 17.8754" stroke="#2A241D" fill="none" stroke-width="2.2" stroke-linecap="round"/>
<path d="M10.0974 31.1889C17.5185 32.2736 20.3423 33.697 23.0938 35.6151C25.8454 37.5332 26.3286 41.141 23.2879 41.2019" stroke="#2A241D" fill="none" stroke-width="2.2" stroke-linecap="round"/>
<path d="M16.1189 27.6917C21.6793 26.3751 24.5416 31.7864 28.6091 30.8254" stroke="#2A241D" fill="none" stroke-width="2.2" stroke-linecap="round"/>
<path d="M52.6786 19.0955C52.3573 32.1449 41.8002 36.1029 31.9078 27.5883C38.6969 21.8293 48.8454 16.7657 52.6786 19.0955Z" fill="#6E9C4F" stroke="#2A241D" stroke-width="1.716" stroke-linejoin="round"/>
<path d="M28.8163 26.0721C41.5265 32.8951 50.3006 25.4698 52.3394 19.4244" stroke="#2A241D" fill="none" stroke-width="1.72" stroke-linecap="round"/>
<path d="M44.9983 44.3743C38.0114 49.8318 31.3827 45.9978 31.5863 37.1352C37.5356 38.2154 44.5684 41.3582 44.9983 44.3743Z" fill="#C2CDAA" stroke="#2A241D" stroke-width="1.716" stroke-linejoin="round"/>
<path d="M32.3181 38.0873C35.9892 42.3298 38.788 44.2288 44 44" stroke="#2A241D" fill="none" stroke-width="1.72" stroke-linecap="round"/>
<path d="M10.85 27.7C11.3194 27.7 11.7 27.3194 11.7 26.85C11.7 26.3806 11.3194 26 10.85 26C10.3806 26 10 26.3806 10 26.85C10 27.3194 10.3806 27.7 10.85 27.7Z" fill="#2A241D"/>
<path d="M28.85 46.7C29.3194 46.7 29.7 46.3194 29.7 45.85C29.7 45.3806 29.3194 45 28.85 45C28.3806 45 28 45.3806 28 45.85C28 46.3194 28.3806 46.7 28.85 46.7Z" fill="#2A241D"/>
</svg>

