<svg width="32" height="32" viewBox="0 0 32 32" fill="none" xmlns="http://www.w3.org/2000/svg">
<g clip-path="url(#clip0_29_36)">
<path d="M3.73333 11.1335C6.80235 10.8335 9.76351 11.803 12.2667 11.8697C13.4475 11.9012 14.6667 10.6002 14.6667 9.53351" stroke="#2A241D" stroke-linecap="round"/>
<path d="M4.31859 16.6341C8.27653 17.2126 9.78257 17.9717 11.2501 18.9947C12.7175 20.0177 12.9753 21.9419 11.3535 21.9743" stroke="#2A241D" stroke-linecap="round"/>
<path d="M7.53006 14.7689C10.4956 14.0667 12.0222 16.9528 14.1915 16.4402" stroke="#2A241D" stroke-linecap="round"/>
<path d="M29.4864 9.85037C29.2964 17.5708 23.0504 19.9125 17.1977 14.875C21.2144 11.4678 27.2186 8.472 29.4864 9.85037Z" fill="#6E9C4F" stroke="#2A241D" stroke-linejoin="round"/>
<path d="M23.9991 23.6664C20.2727 26.577 16.7375 24.5322 16.846 19.8055C20.019 20.3816 23.7698 22.0578 23.9991 23.6664Z" fill="#C2CDAA" stroke="#2A241D" stroke-linejoin="round"/>
<path d="M4.72 14.7734C4.97037 14.7734 5.17333 14.5704 5.17333 14.32C5.17333 14.0697 4.97037 13.8667 4.72 13.8667C4.46963 13.8667 4.26667 14.0697 4.26667 14.32C4.26667 14.5704 4.46963 14.7734 4.72 14.7734Z" fill="#2A241D"/>
<path d="M15.3867 24.9067C15.637 24.9067 15.84 24.7037 15.84 24.4533C15.84 24.203 15.637 24 15.3867 24C15.1363 24 14.9333 24.203 14.9333 24.4533C14.9333 24.7037 15.1363 24.9067 15.3867 24.9067Z" fill="#2A241D"/>
</g>
<defs>
<clipPath id="clip0_29_36">
<rect width="32" height="32" fill="white"/>
</clipPath>
</defs>
</svg>
