<svg width="60" height="60" viewBox="0 0 60 60" fill="none" xmlns="http://www.w3.org/2000/svg">
<path d="M51 11V9.99998H52V8.99998L49 8.99998V9.99998L43 9.99998V11L42 11V12L40 12V13H38V14H36V15H35V16L31 16V17V19L37 19V18H38V17H42V16L44 16V15H46V14H48V13H49V12H50V11H51Z" fill="#C2CDAA"/>
<path d="M31 17H30L29 17V20H31H37V19L31 19V17Z" fill="#C2CDAA"/>
<path d="M29 20V23L31 23V20H29Z" fill="#C2CDAA"/>
<path d="M51 9.99998V11V12H50V13H49V14H48V15H46V16H44V17L42 17V18L38 18V19H37V20H31V23V24H48V23H49V21L50 21V20L52 20V19V18H53V9.99998L52 9.99998H51Z" fill="#C2CDAA"/>
<path d="M48 26H31V24H48V26Z" fill="#5B5426"/>
<path d="M31 24V25H29V24V23H31V24Z" fill="#5B5426"/>
<path d="M50 25H48V24V23H49H50V25Z" fill="#5B5426"/>
<path d="M29 24H27V22V21H24V20H25V19H27V17H29V20V21V24Z" fill="#5B5426"/>
<path d="M51 23H49V21H50H51V23Z" fill="#5B5426"/>
<path d="M52 22H50V21V20H52V22Z" fill="#5B5426"/>
<path d="M53 21H52V20V18H53H54V21H53Z" fill="#5B5426"/>
<path d="M54 18H53V10H54H55V18H54Z" fill="#5B5426"/>
<path d="M31 17H29V15H31V14V16V17Z" fill="#5B5426"/>
<path d="M35 16H31V14H34V13L35 15V16Z" fill="#5B5426"/>
<path d="M36 15H35L34 13H36V14V15Z" fill="#5B5426"/>
<path d="M38 14H36V13V12H38V13V14Z" fill="#5B5426"/>
<path d="M40 13H38V12V11H40V12V13Z" fill="#5B5426"/>
<path d="M42 12H40V11V10H42V11V12Z" fill="#5B5426"/>
<path d="M43 11H42V10V8L43 9.14286V10V11Z" fill="#5B5426"/>
<path d="M49 10H43L42 8H43H49V7V10Z" fill="#5B5426"/>
<path d="M53 10H52V9V8H54V10H53Z" fill="#5B5426"/>
<path d="M52 9H49V7H52V9Z" fill="#5B5426"/>
<path d="M31 20H29V21H31V20Z" fill="#5B5426"/>
<path d="M50 11V12H51V11H50Z" fill="#5B5426"/>
<path d="M49 12V13H50V12H49Z" fill="#5B5426"/>
<path d="M48 13V14H49V13H48Z" fill="#5B5426"/>
<path d="M46 14V15H48V14H46Z" fill="#5B5426"/>
<path d="M44 15V16H46V15H44Z" fill="#5B5426"/>
<path d="M42 16V17H44V16H42Z" fill="#5B5426"/>
<path d="M38 17V18H42V17H38Z" fill="#5B5426"/>
<path d="M37 18V19H38V18H37Z" fill="#5B5426"/>
<path d="M31 19V20H37V19H31Z" fill="#5B5426"/>
<path d="M51 10V11H52V10H51Z" fill="#5B5426"/>
<rect x="36" y="37.0001" width="1" height="1" fill="#C2CDAA"/>
<path d="M32 35H34V36H35V37H36V38H38V39H40V40H42V41H43V45H33V44L32 44V43H31V42L30 42V41H29V34L32 34V35Z" fill="#C2CDAA"/>
<path d="M45 47V48H43V47L32 47V46L33 45H43V41H45V47Z" fill="#5B5426"/>
<path d="M33 45L32 46H31V45L32 44H33V45Z" fill="#5B5426"/>
<path d="M32 44L31 45L30 45V44L31 43H32V44Z" fill="#5B5426"/>
<path d="M31 43L30 44H29V43L30 42H31V43Z" fill="#5B5426"/>
<path d="M30 42L29 43L28 43V41L29 41H30V42Z" fill="#5B5426"/>
<path d="M32 34H29V41H27V35L26 35V34V33V32L32 32V33V34Z" fill="#5B5426"/>
<path d="M43 41H42V40V39L44 39V41H43Z" fill="#5B5426"/>
<path d="M42 40H40V39V38H42V39V40Z" fill="#5B5426"/>
<path d="M40 39H38V38V36V37H40V38V39Z" fill="#5B5426"/>
<path d="M38 38H37V36H38V38Z" fill="#5B5426"/>
<path d="M37 36V37H35V36V34V35H37V36Z" fill="#5B5426"/>
<path d="M35 36H34V34L35 34V36Z" fill="#5B5426"/>
<path d="M34 34V35L32 35V34V33H34V34Z" fill="#5B5426"/>
<path d="M26 33H24V31H26V33Z" fill="#5B5426"/>
<path d="M40 41H39V40H40V41Z" fill="#8E864E"/>
<path d="M39 40H38V39H39V40Z" fill="#8E864E"/>
<path d="M38 39H37V38H38V39Z" fill="#8E864E"/>
<path d="M37 38H36V37H37V38Z" fill="#8E864E"/>
<path d="M40 42H41V41H40V42Z" fill="#8E864E"/>
<path d="M42 43V44V45H43V43L42 43V42H41V43H42Z" fill="#8E864E"/>
<rect x="22" y="14" width="2" height="2" fill="#5B5426"/>
<rect x="19" y="32" width="2" height="2" fill="#5B5426"/>
<rect x="39" y="48" width="2" height="2" fill="#5B5426"/>
<path d="M16 20H4V18H16V20Z" fill="#5B5426"/>
<path d="M18 18H16V14H18V18Z" fill="#5B5426"/>
<path d="M14 15H13V14H14V15Z" fill="#5B5426"/>
<path d="M16 14H14V12H16V14Z" fill="#5B5426"/>
<path d="M14 31H2V33H14V31Z" fill="#5B5426"/>
<path d="M16 33H14V37H16V33Z" fill="#5B5426"/>
<path d="M12 36H11V37H12V36Z" fill="#5B5426"/>
<path d="M14 37H12V39H14V37Z" fill="#5B5426"/>
<path d="M19 23H7V25H19V23Z" fill="#5B5426"/>
<path d="M21 25H19V28H21V25Z" fill="#5B5426"/>
<path d="M17 27H16V28H17V27Z" fill="#5B5426"/>
<path d="M19 28H17V30H19V28Z" fill="#5B5426"/>
</svg>
