<svg width="60" height="60" viewBox="0 0 60 60" fill="none" xmlns="http://www.w3.org/2000/svg">
<g clip-path="url(#clip0_1_130)">
<path d="M7 20.8754C12.7544 20.3128 18.3066 22.1306 23 22.2558C25.2141 22.3149 27.5 19.8754 27.5 17.8754" fill="none" stroke="#2A241D" stroke-width="2.2" stroke-linecap="round"/>
<path d="M8.09735 31.1889C15.5185 32.2736 18.3423 33.697 21.0938 35.6151C23.8454 37.5332 24.3286 41.141 21.2879 41.2019" fill="none" stroke="#2A241D" stroke-width="2.2" stroke-linecap="round"/>
<path d="M14.1189 27.6917C19.6793 26.3751 22.5416 31.7864 26.6091 30.8254" fill="none" stroke="#2A241D" stroke-width="2.2" stroke-linecap="round"/>
<path d="M55.287 18.4695C54.9307 32.9454 43.2196 37.336 32.2457 27.8906C39.777 21.5022 51.0349 15.8851 55.287 18.4695Z" fill="#6E9C4F" stroke="#2A241D" stroke-width="1.716" stroke-linejoin="round"/>
<path d="M44.9983 44.3743C38.0114 49.8318 31.3827 45.9978 31.5863 37.1352C37.5356 38.2154 44.5684 41.3583 44.9983 44.3743Z" fill="#C2CDAA" stroke="#2A241D" stroke-width="1.716" stroke-linejoin="round"/>
<path d="M8.85 27.7C9.31944 27.7 9.7 27.3194 9.7 26.85C9.7 26.3806 9.31944 26 8.85 26C8.38056 26 8 26.3806 8 26.85C8 27.3194 8.38056 27.7 8.85 27.7Z" fill="#2A241D"/>
<path d="M28.85 46.7C29.3194 46.7 29.7 46.3194 29.7 45.85C29.7 45.3806 29.3194 45 28.85 45C28.3806 45 28 45.3806 28 45.85C28 46.3194 28.3806 46.7 28.85 46.7Z" fill="#2A241D"/>
</g>
<defs>
<clipPath id="clip0_1_130">
<rect width="60" height="60" fill="white"/>
</clipPath>
</defs>
</svg>
