<svg width="60" height="60" viewBox="0 0 60 60" fill="none" xmlns="http://www.w3.org/2000/svg">
<path d="M34 0H26V2H34V0Z" fill="#5F3F28"/>
<path d="M32 2H28V4H32V2Z" fill="#B97B3F"/>
<path d="M32 4H28V6H32V4Z" fill="#B97B3F"/>
<path d="M26 6H24V8H26V6Z" fill="#5F3F28"/>
<path d="M36 6H34V8H36V6Z" fill="#5F3F28"/>
<path d="M28 8H18V10H28V8Z" fill="#5F3F28"/>
<path d="M30 8H28V10H30V8Z" fill="#74904D"/>
<path d="M42 8H30V10H42V8Z" fill="#5F3F28"/>
<path d="M20 10H18V12H20V10Z" fill="#5F3F28"/>
<path d="M22 10H20V12H22V10Z" fill="#A9BF7E"/>
<path d="M24 10H22V12H24V10Z" fill="#74904D"/>
<path d="M40 10H24V12H40V10Z" fill="#A9BF7E"/>
<path d="M42 10H40V12H42V10Z" fill="#5F3F28"/>
<path d="M20 12H18V14H20V12Z" fill="#5F3F28"/>
<path d="M32 12H20V14H32V12Z" fill="#A9BF7E"/>
<path d="M34 12H32V14H34V12Z" fill="#74904D"/>
<path d="M40 12H34V14H40V12Z" fill="#A9BF7E"/>
<path d="M42 12H40V14H42V12Z" fill="#5F3F28"/>
<path d="M44 14H16V16H44V14Z" fill="#5F3F28"/>
<path d="M18 16H16V18H18V16Z" fill="#5F3F28"/>
<path d="M42 16H18V18H42V16Z" fill="#EEDDC2"/>
<path d="M44 16H42V18H44V16Z" fill="#5F3F28"/>
<path d="M44 18H16V20H44V18Z" fill="#5F3F28"/>
<path d="M20 20H18V22H20V20Z" fill="#5F3F28"/>
<path d="M40 20H20V22H40V20Z" fill="#FBF2DF"/>
<path d="M42 20H40V22H42V20Z" fill="#5F3F28"/>
<path d="M20 22H18V24H20V22Z" fill="#5F3F28"/>
<path d="M26 22H20V24H26V22Z" fill="#FBF2DF"/>
<path d="M28 22H26V24H28V22Z" fill="#F2A7B4"/>
<path d="M30 22H28V24H30V22Z" fill="#FBF2DF"/>
<path d="M32 22H30V24H32V22Z" fill="#F2A7B4"/>
<path d="M40 22H32V24H40V22Z" fill="#FBF2DF"/>
<path d="M42 22H40V24H42V22Z" fill="#5F3F28"/>
<path d="M20 24H18V26H20V24Z" fill="#5F3F28"/>
<path d="M26 24H20V26H26V24Z" fill="#FBF2DF"/>
<path d="M32 24H26V26H32V24Z" fill="#F2A7B4"/>
<path d="M40 24H32V26H40V24Z" fill="#FBF2DF"/>
<path d="M42 24H40V26H42V24Z" fill="#5F3F28"/>
<path d="M20 26H18V28H20V26Z" fill="#5F3F28"/>
<path d="M28 26H20V28H28V26Z" fill="#FBF2DF"/>
<path d="M30 26H28V28H30V26Z" fill="#F2A7B4"/>
<path d="M40 26H30V28H40V26Z" fill="#FBF2DF"/>
<path d="M42 26H40V28H42V26Z" fill="#5F3F28"/>
<path d="M42 28H18V30H42V28Z" fill="#5F3F28"/>
<path d="M22 30H20V32H22V30Z" fill="#74904D"/>
<path d="M30 30H28V32H30V30Z" fill="#74904D"/>
<path d="M40 30H38V32H40V30Z" fill="#74904D"/>
<path d="M20 32H18V34H20V32Z" fill="#A9BF7E"/>
<path d="M22 32H20V34H22V32Z" fill="#74904D"/>
<path d="M28 32H26V34H28V32Z" fill="#A9BF7E"/>
<path d="M30 32H28V34H30V32Z" fill="#74904D"/>
<path d="M38 32H36V34H38V32Z" fill="#A9BF7E"/>
<path d="M40 32H38V34H40V32Z" fill="#74904D"/>
<path d="M22 34H20V36H22V34Z" fill="#74904D"/>
<path d="M24 34H22V36H24V34Z" fill="#A9BF7E"/>
<path d="M30 34H28V36H30V34Z" fill="#74904D"/>
<path d="M32 34H30V36H32V34Z" fill="#A9BF7E"/>
<path d="M40 34H38V36H40V34Z" fill="#74904D"/>
<path d="M42 34H40V36H42V34Z" fill="#A9BF7E"/>
<path d="M20 36H18V38H20V36Z" fill="#A9BF7E"/>
<path d="M22 36H20V38H22V36Z" fill="#74904D"/>
<path d="M28 36H26V38H28V36Z" fill="#A9BF7E"/>
<path d="M30 36H28V38H30V36Z" fill="#74904D"/>
<path d="M38 36H36V38H38V36Z" fill="#A9BF7E"/>
<path d="M40 36H38V38H40V36Z" fill="#74904D"/>
<path d="M22 38H18V40H22V38Z" fill="#A9BF7E"/>
<path d="M30 38H28V40H30V38Z" fill="#74904D"/>
<path d="M32 38H30V40H32V38Z" fill="#A9BF7E"/>
<path d="M40 38H38V40H40V38Z" fill="#74904D"/>
<path d="M42 38H40V40H42V38Z" fill="#A9BF7E"/>
<path d="M22 40H18V42H22V40Z" fill="#A9BF7E"/>
<path d="M28 40H26V42H28V40Z" fill="#A9BF7E"/>
<path d="M30 40H28V42H30V40Z" fill="#74904D"/>
<path d="M40 40H38V42H40V40Z" fill="#74904D"/>
<path d="M30 42H28V44H30V42Z" fill="#74904D"/>
<path d="M40 42H36V44H40V42Z" fill="#A9BF7E"/>
<path d="M30 44H28V46H30V44Z" fill="#74904D"/>
<path d="M40 44H36V46H40V44Z" fill="#A9BF7E"/>
<path d="M32 46H26V48H32V46Z" fill="#A9BF7E"/>
<path d="M32 48H26V50H32V48Z" fill="#A9BF7E"/>
</svg>
