<svg width="60" height="60" viewBox="0 0 60 60" fill="none" xmlns="http://www.w3.org/2000/svg">
<path d="M36 4H24V6H36V4Z" fill="#5F3F28"/>
<path d="M26 6H24V8H26V6Z" fill="#5F3F28"/>
<path d="M34 6H26V8H34V6Z" fill="#D96B7A"/>
<path d="M36 6H34V8H36V6Z" fill="#5F3F28"/>
<path d="M36 8H24V10H36V8Z" fill="#5F3F28"/>
<path d="M34 10H26V12H34V10Z" fill="#EEDDC2"/>
<path d="M34 12H26V14H34V12Z" fill="#EEDDC2"/>
<path d="M38 14H22V16H38V14Z" fill="#5F3F28"/>
<path d="M22 16H20V18H22V16Z" fill="#5F3F28"/>
<path d="M38 16H22V18H38V16Z" fill="#FBF2DF"/>
<path d="M40 16H38V18H40V16Z" fill="#5F3F28"/>
<path d="M20 18H18V20H20V18Z" fill="#5F3F28"/>
<path d="M40 18H20V20H40V18Z" fill="#FBF2DF"/>
<path d="M42 18H40V20H42V18Z" fill="#5F3F28"/>
<path d="M20 20H18V22H20V20Z" fill="#5F3F28"/>
<path d="M40 20H20V22H40V20Z" fill="#FBF2DF"/>
<path d="M42 20H40V22H42V20Z" fill="#5F3F28"/>
<path d="M20 22H18V24H20V22Z" fill="#5F3F28"/>
<path d="M40 22H20V24H40V22Z" fill="#FBF2DF"/>
<path d="M42 22H40V24H42V22Z" fill="#5F3F28"/>
<path d="M20 24H18V26H20V24Z" fill="#5F3F28"/>
<path d="M22 24H20V26H22V24Z" fill="#FBF2DF"/>
<path d="M38 24H22V26H38V24Z" fill="#CF7433"/>
<path d="M40 24H38V26H40V24Z" fill="#FBF2DF"/>
<path d="M42 24H40V26H42V24Z" fill="#5F3F28"/>
<path d="M20 26H18V28H20V26Z" fill="#5F3F28"/>
<path d="M22 26H20V28H22V26Z" fill="#FBF2DF"/>
<path d="M38 26H22V28H38V26Z" fill="#E8944F"/>
<path d="M40 26H38V28H40V26Z" fill="#FBF2DF"/>
<path d="M42 26H40V28H42V26Z" fill="#5F3F28"/>
<path d="M42 28H18V30H42V28Z" fill="#5F3F28"/>
<path d="M22 30H18V32H22V30Z" fill="#5F3F28"/>
<path d="M28 30H22V32H28V30Z" fill="#FBF2DF"/>
<path d="M30 30H28V32H30V30Z" fill="#74904D"/>
<path d="M38 30H30V32H38V30Z" fill="#FBF2DF"/>
<path d="M42 30H38V32H42V30Z" fill="#5F3F28"/>
<path d="M22 32H18V34H22V32Z" fill="#5F3F28"/>
<path d="M26 32H22V34H26V32Z" fill="#FBF2DF"/>
<path d="M28 32H26V34H28V32Z" fill="#E8944F"/>
<path d="M30 32H28V34H30V32Z" fill="#FBF2DF"/>
<path d="M32 32H30V34H32V32Z" fill="#E8944F"/>
<path d="M38 32H32V34H38V32Z" fill="#FBF2DF"/>
<path d="M42 32H38V34H42V32Z" fill="#5F3F28"/>
<path d="M22 34H18V36H22V34Z" fill="#5F3F28"/>
<path d="M26 34H22V36H26V34Z" fill="#FBF2DF"/>
<path d="M32 34H26V36H32V34Z" fill="#CF7433"/>
<path d="M38 34H32V36H38V34Z" fill="#FBF2DF"/>
<path d="M42 34H38V36H42V34Z" fill="#5F3F28"/>
<path d="M22 36H18V38H22V36Z" fill="#5F3F28"/>
<path d="M38 36H22V38H38V36Z" fill="#FBF2DF"/>
<path d="M42 36H38V38H42V36Z" fill="#5F3F28"/>
<path d="M42 38H18V40H42V38Z" fill="#5F3F28"/>
<path d="M20 40H18V42H20V40Z" fill="#5F3F28"/>
<path d="M22 40H20V42H22V40Z" fill="#FBF2DF"/>
<path d="M40 40H38V42H40V40Z" fill="#FBF2DF"/>
<path d="M42 40H40V42H42V40Z" fill="#5F3F28"/>
<path d="M20 42H18V44H20V42Z" fill="#5F3F28"/>
<path d="M22 42H20V44H22V42Z" fill="#FBF2DF"/>
<path d="M40 42H38V44H40V42Z" fill="#FBF2DF"/>
<path d="M42 42H40V44H42V42Z" fill="#5F3F28"/>
<path d="M20 44H18V46H20V44Z" fill="#5F3F28"/>
<path d="M22 44H20V46H22V44Z" fill="#FBF2DF"/>
<path d="M38 40H22V46H38V40Z" fill="#E8944F"/>
<path d="M40 44H38V46H40V44Z" fill="#FBF2DF"/>
<path d="M42 44H40V46H42V44Z" fill="#5F3F28"/>
<path d="M20 46H18V48H20V46Z" fill="#5F3F28"/>
<path d="M22 46H20V48H22V46Z" fill="#FBF2DF"/>
<path d="M38 46H22V48H38V46Z" fill="#CF7433"/>
<path d="M40 46H38V48H40V46Z" fill="#FBF2DF"/>
<path d="M42 46H40V48H42V46Z" fill="#5F3F28"/>
<path d="M22 48H20V50H22V48Z" fill="#5F3F28"/>
<path d="M38 48H22V50H38V48Z" fill="#FBF2DF"/>
<path d="M40 48H38V50H40V48Z" fill="#5F3F28"/>
<path d="M38 50H22V52H38V50Z" fill="#5F3F28"/>
</svg>
