<svg width="32" height="32" viewBox="0 0 32 32" fill="none" xmlns="http://www.w3.org/2000/svg">
<path d="M10.6667 14.4729C10.6667 13.5047 11.3603 12.6679 12.3191 12.5336C14.9604 12.1635 16.9554 12.1904 19.6478 12.5493C20.6208 12.679 21.3333 13.5215 21.3333 14.5031V22.4C21.3333 25.3455 18.9455 27.7334 16 27.7334C13.0545 27.7334 10.6667 25.3455 10.6667 22.4V14.4729Z" stroke="#2A241D"/>
<path d="M10.6667 19.6C10.6667 18.4954 11.5621 17.6 12.6667 17.6H19.3333C20.4379 17.6 21.3333 18.4954 21.3333 19.6V22.4C21.3333 25.3455 18.9455 27.7333 16 27.7333V27.7333C13.0545 27.7333 10.6667 25.3455 10.6667 22.4V19.6Z" fill="#DDCFA8" stroke="#2A241D"/>
<path d="M21.3333 17.0666C19.3474 15.7478 17.8667 16.2667 10.6667 17.0666C13.0667 19.7333 18.0622 19.5215 21.3333 18.6667V17.0666Z" fill="#F4EDE0"/>
<path d="M10.6667 17.0666L10.6114 16.5697C10.4251 16.5904 10.266 16.7136 10.1994 16.8888C10.1327 17.064 10.1696 17.2618 10.295 17.4011L10.6667 17.0666ZM21.3333 17.0666H21.8333V16.7985L21.6099 16.6501L21.3333 17.0666ZM21.3333 18.6667L21.4598 19.1504L21.8333 19.0528V18.6667H21.3333ZM10.6667 17.0666L10.7219 17.5636C14.3551 17.1599 16.4803 16.8355 17.9766 16.7716C18.7123 16.7402 19.2583 16.7747 19.7273 16.8846C20.1899 16.993 20.6004 17.1801 21.0567 17.4832L21.3333 17.0666L21.6099 16.6501C21.0733 16.2938 20.554 16.0512 19.9554 15.9109C19.3632 15.7722 18.7166 15.7391 17.9339 15.7725C16.3934 15.8383 14.1782 16.1734 10.6114 16.5697L10.6667 17.0666ZM21.3333 17.0666H20.8333V18.6667H21.3333H21.8333V17.0666H21.3333ZM21.3333 18.6667L21.2069 18.1829C19.6146 18.599 17.6065 18.8566 15.7175 18.6892C13.8196 18.521 12.118 17.9318 11.0383 16.7322L10.6667 17.0666L10.295 17.4011C11.6154 18.8682 13.6115 19.5064 15.6292 19.6853C17.6557 19.8649 19.7809 19.5891 21.4598 19.1504L21.3333 18.6667Z" fill="#2A241D"/>
<path d="M22.1865 7.46667H18.0722C17.8828 7.46667 17.7293 7.62586 17.7293 7.82223L15.3238 16.8C15.3238 17.6 16.5856 18.4 17.515 17.0667L19.5157 9.60001H22.1865C22.3758 9.60001 22.5293 9.44082 22.5293 9.24445V7.82223C22.5293 7.62586 22.3758 7.46667 22.1865 7.46667Z" fill="#F4EDE0" stroke="#2A241D" stroke-linejoin="round"/>
<path d="M10.6667 14.5133C10.6667 13.7477 11.4945 13.2661 12.1872 13.5922C15.2167 15.0184 17.2363 14.9319 19.7784 13.6688C20.4772 13.3215 21.3333 13.8001 21.3333 14.5804V22.4C21.3333 25.3455 18.9455 27.7333 16 27.7333C13.0545 27.7333 10.6667 25.3455 10.6667 22.4V14.5133Z" stroke="#2A241D"/>
</svg>
