<svg width="60" height="60" viewBox="0 0 60 60" fill="none" xmlns="http://www.w3.org/2000/svg">
<path d="M36 8H24V10H36V8Z" fill="#5F3F28"/>
<path d="M52 8H50V10H52V8Z" fill="#ECCA7F"/>
<path d="M12 10H10V12H12V10Z" fill="#ECCA7F"/>
<path d="M24 10H22V12H24V10Z" fill="#5F3F28"/>
<path d="M36 10H24V12H36V10Z" fill="#F2A7B4"/>
<path d="M38 10H36V12H38V10Z" fill="#5F3F28"/>
<path d="M22 12H20V14H22V12Z" fill="#5F3F28"/>
<path d="M26 12H22V14H26V12Z" fill="#F2A7B4"/>
<path d="M28 12H26V14H28V12Z" fill="#FBF2DF"/>
<path d="M30 12H28V14H30V12Z" fill="#F2A7B4"/>
<path d="M32 12H30V14H32V12Z" fill="#FBF2DF"/>
<path d="M38 12H32V14H38V12Z" fill="#F2A7B4"/>
<path d="M40 12H38V14H40V12Z" fill="#5F3F28"/>
<path d="M22 14H20V16H22V14Z" fill="#5F3F28"/>
<path d="M26 14H22V16H26V14Z" fill="#F2A7B4"/>
<path d="M32 14H26V16H32V14Z" fill="#FBF2DF"/>
<path d="M38 14H32V16H38V14Z" fill="#F2A7B4"/>
<path d="M40 14H38V16H40V14Z" fill="#5F3F28"/>
<path d="M20 16H18V18H20V16Z" fill="#5F3F28"/>
<path d="M28 16H20V18H28V16Z" fill="#F2A7B4"/>
<path d="M30 16H28V18H30V16Z" fill="#FBF2DF"/>
<path d="M40 16H30V18H40V16Z" fill="#F2A7B4"/>
<path d="M42 16H40V18H42V16Z" fill="#5F3F28"/>
<path d="M20 18H18V20H20V18Z" fill="#5F3F28"/>
<path d="M40 18H20V20H40V18Z" fill="#F2A7B4"/>
<path d="M42 18H40V20H42V18Z" fill="#5F3F28"/>
<path d="M50 18H48V20H50V18Z" fill="#ECCA7F"/>
<path d="M18 20H16V22H18V20Z" fill="#5F3F28"/>
<path d="M42 20H18V22H42V20Z" fill="#D96B7A"/>
<path d="M44 20H42V22H44V20Z" fill="#5F3F28"/>
<path d="M44 22H16V24H44V22Z" fill="#5F3F28"/>
<path d="M36 24H18V26H36V24Z" fill="#ECCA7F"/>
<path d="M38 24H36V26H38V24Z" fill="#5F3F28"/>
<path d="M42 24H38V26H42V24Z" fill="#ECCA7F"/>
<path d="M16 26H14V28H16V26Z" fill="#ECCA7F"/>
<path d="M28 26H26V28H28V26Z" fill="#5F3F28"/>
<path d="M30 26H28V28H30V26Z" fill="#D9A15E"/>
<path d="M32 26H30V28H32V26Z" fill="#5F3F28"/>
<path d="M38 26H36V28H38V26Z" fill="#5F3F28"/>
<path d="M46 26H44V28H46V26Z" fill="#ECCA7F"/>
<path d="M28 28H26V30H28V28Z" fill="#5F3F28"/>
<path d="M30 28H28V30H30V28Z" fill="#D9A15E"/>
<path d="M32 28H30V30H32V28Z" fill="#5F3F28"/>
<path d="M38 28H36V30H38V28Z" fill="#5F3F28"/>
<path d="M28 30H26V32H28V30Z" fill="#5F3F28"/>
<path d="M30 30H28V32H30V30Z" fill="#D9A15E"/>
<path d="M32 30H30V32H32V30Z" fill="#5F3F28"/>
<path d="M38 30H36V32H38V30Z" fill="#ECCA7F"/>
<path d="M28 32H26V34H28V32Z" fill="#5F3F28"/>
<path d="M30 32H28V34H30V32Z" fill="#D9A15E"/>
<path d="M32 32H30V34H32V32Z" fill="#5F3F28"/>
<path d="M28 34H26V36H28V34Z" fill="#5F3F28"/>
<path d="M30 34H28V36H30V34Z" fill="#D9A15E"/>
<path d="M32 34H30V36H32V34Z" fill="#5F3F28"/>
<path d="M28 36H26V38H28V36Z" fill="#5F3F28"/>
<path d="M30 36H28V38H30V36Z" fill="#D9A15E"/>
<path d="M32 36H30V38H32V36Z" fill="#5F3F28"/>
<path d="M28 38H26V40H28V38Z" fill="#5F3F28"/>
<path d="M30 38H28V40H30V38Z" fill="#D9A15E"/>
<path d="M32 38H30V40H32V38Z" fill="#5F3F28"/>
<path d="M28 40H26V42H28V40Z" fill="#5F3F28"/>
<path d="M30 40H28V42H30V40Z" fill="#D9A15E"/>
<path d="M32 40H30V42H32V40Z" fill="#5F3F28"/>
<path d="M28 42H26V44H28V42Z" fill="#5F3F28"/>
<path d="M30 42H28V44H30V42Z" fill="#D9A15E"/>
<path d="M32 42H30V44H32V42Z" fill="#5F3F28"/>
<path d="M28 44H26V46H28V44Z" fill="#5F3F28"/>
<path d="M30 44H28V46H30V44Z" fill="#D9A15E"/>
<path d="M32 44H30V46H32V44Z" fill="#5F3F28"/>
<path d="M32 46H26V48H32V46Z" fill="#5F3F28"/>
<path d="M44 48H16V50H44V48Z" fill="#5F3F28"/>
<path d="M18 50H16V52H18V50Z" fill="#5F3F28"/>
<path d="M42 50H18V52H42V50Z" fill="#D9A15E"/>
<path d="M44 50H42V52H44V50Z" fill="#5F3F28"/>
<path d="M44 52H16V54H44V52Z" fill="#5F3F28"/>
<path d="M44 54H16V56H44V54Z" fill="#E3D3B4"/>
</svg>
