<svg width="30" height="30" viewBox="0 0 30 30" fill="none" xmlns="http://www.w3.org/2000/svg">
<path d="M11 3H10V4H11V3Z" fill="#5F3F28"/>
<path d="M15 2H11V3H15V2Z" fill="#5F3F28"/>
<path d="M10 4H9V5H10V4Z" fill="#5F3F28"/>
<path d="M13 6H12V8H13V6Z" fill="#A9BF7E"/>
<path d="M14 7H13V8H14V7Z" fill="#A9BF7E"/>
<path d="M13 4H11V5H13V4Z" fill="#A9BF7E"/>
<path d="M15 3H14V5H15V3Z" fill="#A9BF7E"/>
<path d="M12 3H11V4H12V3Z" fill="#A9BF7E"/>
<path d="M14 3H13V4H14V3Z" fill="#A9BF7E"/>
<path d="M11 5H10V6H11V5Z" fill="#A9BF7E"/>
<path d="M10 7H9V8H10V7Z" fill="#A9BF7E"/>
<path d="M15 6H13V7H15V6Z" fill="#74904D"/>
<path d="M15 5H13V6H15V5Z" fill="#74904D"/>
<path d="M14 4H13V5H14V4Z" fill="#74904D"/>
<path d="M13 3H12V4H13V3Z" fill="#74904D"/>
<path d="M17 5H15V7H17V5Z" fill="#A9BF7E"/>
<path d="M18 4H17V5H18V4Z" fill="#5F3F28"/>
<path d="M12 8H9V9H12V8Z" fill="#A9BF7E"/>
<path d="M14 8H12V9H14V8Z" fill="#5C7440"/>
<path d="M13 5H11V6H13V5Z" fill="#5C7440"/>
<path d="M15 7H14V8H15V7Z" fill="#74904D"/>
<path d="M17 7H15V8H17V7Z" fill="#5C7440"/>
<path d="M17 4H15V5H17V4Z" fill="#5C7440"/>
<path d="M20 7H17V8H20V7Z" fill="#A9BF7E"/>
<path d="M18 5H17V6H18V5Z" fill="#A9BF7E"/>
<path d="M12 6H10V7H12V6Z" fill="#A9BF7E"/>
<path d="M19 5H18V6H19V5Z" fill="#5F3F28"/>
<path d="M8 8H7V9H8V8Z" fill="#5F3F28"/>
<path d="M9 7H8V8H9V7Z" fill="#5F3F28"/>
<path d="M10 5H9V7H10V5Z" fill="#5F3F28"/>
<path d="M17 3H15V4H17V3Z" fill="#5F3F28"/>
<path d="M14 9H10V10H14V9Z" fill="#A9BF7E"/>
<path d="M16 8H14V9H16V8Z" fill="#74904D"/>
<path d="M20 8H16V9H20V8Z" fill="#A9BF7E"/>
<path d="M22 8H21V9H22V8Z" fill="#5F3F28"/>
<path d="M21 7H20V8H21V7Z" fill="#5F3F28"/>
<path d="M20 6H19V7H20V6Z" fill="#5F3F28"/>
<path d="M8 9H7V10H8V9Z" fill="#5F3F28"/>
<path d="M14 10H12V11H14V10Z" fill="#A9BF7E"/>
<path d="M16 9H14V10H16V9Z" fill="#74904D"/>
<path d="M18 9H16V10H18V9Z" fill="#A9BF7E"/>
<path d="M21 9H20V10H21V9Z" fill="#74904D"/>
<path d="M12 11H11V12H12V11Z" fill="#74904D"/>
<path d="M22 9H21V10H22V9Z" fill="#5F3F28"/>
<path d="M8 10H7V11H8V10Z" fill="#5F3F28"/>
<path d="M14 11H12V12H14V11Z" fill="#5C7440"/>
<path d="M12 10H10V11H12V10Z" fill="#5C7440"/>
<path d="M12 13H10V14H12V13Z" fill="#5C7440"/>
<path d="M10 12H9V13H10V12Z" fill="#5C7440"/>
<path d="M9 11H8V12H9V11Z" fill="#5C7440"/>
<path d="M21 11H20V12H21V11Z" fill="#5C7440"/>
<path d="M12 16H10V17H12V16Z" fill="#5C7440"/>
<path d="M10 15H8V16H10V15Z" fill="#5C7440"/>
<path d="M12 7H10V8H12V7Z" fill="#5C7440"/>
<path d="M10 9H9V10H10V9Z" fill="#5C7440"/>
<path d="M21 8H20V9H21V8Z" fill="#5C7440"/>
<path d="M11 4H10V5H11V4Z" fill="#5C7440"/>
<path d="M9 8H8V9H9V8Z" fill="#5C7440"/>
<path d="M16 10H14V11H16V10Z" fill="#74904D"/>
<path d="M18 10H16V11H18V10Z" fill="#5C7440"/>
<path d="M20 9H18V10H20V9Z" fill="#5C7440"/>
<path d="M20 12H18V13H20V12Z" fill="#5C7440"/>
<path d="M19 16H18V17H19V16Z" fill="#5C7440"/>
<path d="M19 6H17V7H19V6Z" fill="#5C7440"/>
<path d="M22 10H21V11H22V10Z" fill="#5F3F28"/>
<path d="M8 11H7V12H8V11Z" fill="#5F3F28"/>
<path d="M14 12H10V13H14V12Z" fill="#A9BF7E"/>
<path d="M11 11H9V12H11V11Z" fill="#A9BF7E"/>
<path d="M21 10H18V11H21V10Z" fill="#A9BF7E"/>
<path d="M16 11H14V12H16V11Z" fill="#74904D"/>
<path d="M20 11H16V12H20V11Z" fill="#A9BF7E"/>
<path d="M22 11H21V12H22V11Z" fill="#5F3F28"/>
<path d="M8 12H7V15H8V12Z" fill="#5F3F28"/>
<path d="M14 13H12V14H14V13Z" fill="#A9BF7E"/>
<path d="M16 12H14V13H16V12Z" fill="#74904D"/>
<path d="M18 12H16V13H18V12Z" fill="#A9BF7E"/>
<path d="M22 12H21V15H22V12Z" fill="#5F3F28"/>
<path d="M8 15H7V16H8V15Z" fill="#5F3F28"/>
<path d="M14 14H12V15H14V14Z" fill="#5C7440"/>
<path d="M16 13H14V14H16V13Z" fill="#74904D"/>
<path d="M18 13H16V14H18V13Z" fill="#5C7440"/>
<path d="M22 15H21V16H22V15Z" fill="#5F3F28"/>
<path d="M8 16H7V17H8V16Z" fill="#5F3F28"/>
<path d="M14 15H10V16H14V15Z" fill="#A9BF7E"/>
<path d="M12 14H8V15H12V14Z" fill="#A9BF7E"/>
<path d="M10 13H8V14H10V13Z" fill="#A9BF7E"/>
<path d="M9 12H8V13H9V12Z" fill="#A9BF7E"/>
<path d="M10 10H8V11H10V10Z" fill="#A9BF7E"/>
<path d="M9 9H8V10H9V9Z" fill="#A9BF7E"/>
<path d="M21 13H18V14H21V13Z" fill="#A9BF7E"/>
<path d="M21 12H20V13H21V12Z" fill="#A9BF7E"/>
<path d="M16 14H14V15H16V14Z" fill="#74904D"/>
<path d="M20 14H16V15H20V14Z" fill="#A9BF7E"/>
<path d="M21 14H20V15H21V14Z" fill="#5C7440"/>
<path d="M20 15H19V16H20V15Z" fill="#74904D"/>
<path d="M18 17H17V18H18V17Z" fill="#74904D"/>
<path d="M17 16H16V17H17V16Z" fill="#A9BF7E"/>
<path d="M21 16H19V17H21V16Z" fill="#A9BF7E"/>
<path d="M21 15H20V16H21V15Z" fill="#A9BF7E"/>
<path d="M22 16H21V18H22V16Z" fill="#5F3F28"/>
<path d="M9 17H8V18H9V17Z" fill="#5F3F28"/>
<path d="M14 16H12V17H14V16Z" fill="#A9BF7E"/>
<path d="M16 15H14V16H16V15Z" fill="#74904D"/>
<path d="M19 15H16V16H19V15Z" fill="#A9BF7E"/>
<path d="M10 18H9V19H10V18Z" fill="#5F3F28"/>
<path d="M14 17H12V18H14V17Z" fill="#5C7440"/>
<path d="M14 18H13V19H14V18Z" fill="#5C7440"/>
<path d="M14 21H13V22H14V21Z" fill="#A9BF7E"/>
<path d="M16 16H14V17H16V16Z" fill="#74904D"/>
<path d="M18 16H17V17H18V16Z" fill="#5C7440"/>
<path d="M17 17H16V19H17V17Z" fill="#5C7440"/>
<path d="M21 18H20V19H21V18Z" fill="#5F3F28"/>
<path d="M11 19H10V20H11V19Z" fill="#5F3F28"/>
<path d="M10 16H8V17H10V16Z" fill="#A9BF7E"/>
<path d="M16 17H14V18H16V17Z" fill="#74904D"/>
<path d="M21 17H18V18H21V17Z" fill="#A9BF7E"/>
<path d="M20 19H19V20H20V19Z" fill="#5F3F28"/>
<path d="M12 19H11V20H12V19Z" fill="#5F3F28"/>
<path d="M13 18H10V19H13V18Z" fill="#A9BF7E"/>
<path d="M12 17H9V18H12V17Z" fill="#A9BF7E"/>
<path d="M14 19H12V20H14V19Z" fill="#A9BF7E"/>
<path d="M14 20H13V21H14V20Z" fill="#A9BF7E"/>
<path d="M16 18H14V19H16V18Z" fill="#74904D"/>
<path d="M20 18H17V19H20V18Z" fill="#A9BF7E"/>
<path d="M19 19H16V20H19V19Z" fill="#A9BF7E"/>
<path d="M18 20H16V21H18V20Z" fill="#A9BF7E"/>
<path d="M19 20H18V21H19V20Z" fill="#5F3F28"/>
<path d="M16 22H14V23H16V22Z" fill="#74904D"/>
<path d="M16 23H14V24H16V23Z" fill="#74904D"/>
<path d="M13 20H12V22H13V20Z" fill="#5F3F28"/>
<path d="M14 22H13V23H14V22Z" fill="#5F3F28"/>
<path d="M18 21H16V22H18V21Z" fill="#5F3F28"/>
<path d="M16 20H14V21H16V20Z" fill="#74904D"/>
<path d="M16 21H14V22H16V21Z" fill="#74904D"/>
<path d="M16 19H14V20H16V19Z" fill="#74904D"/>
<path d="M16 23H15V24H16V23Z" fill="#74904D"/>
<path d="M16 24H15V25H16V24Z" fill="#74904D"/>
<path d="M16 25H15V26H16V25Z" fill="#74904D"/>
<path d="M15 26H14V28H15V26Z" fill="#5F3F28"/>
<path d="M15 23H14V26H15V23Z" fill="#5F3F28"/>
<path d="M16 26H15V28H16V26Z" fill="#5C7440"/>
<path d="M16 28H13V29H16V28Z" fill="#5F3F28"/>
</svg>
