<svg width="60" height="60" viewBox="0 0 60 60" fill="none" xmlns="http://www.w3.org/2000/svg">
<path d="M22 6H20V8H22V6Z" fill="#5F3F28"/>
<path d="M28 18H20V20H28V18Z" fill="#5F3F28"/>
<path d="M30 4H22V6H30V4Z" fill="#5F3F28"/>
<path d="M20 8H18V10H20V8Z" fill="#5F3F28"/>
<path d="M26 12H24V16H26V12Z" fill="#A9BF7E"/>
<path d="M24 16H20V18H24V16Z" fill="#A9BF7E"/>
<path d="M28 14H26V16H28V14Z" fill="#A9BF7E"/>
<path d="M26 8H22V10H26V8Z" fill="#A9BF7E"/>
<path d="M30 6H28V10H30V6Z" fill="#A9BF7E"/>
<path d="M24 6H22V8H24V6Z" fill="#A9BF7E"/>
<path d="M28 6H26V8H28V6Z" fill="#A9BF7E"/>
<path d="M22 10H20V12H22V10Z" fill="#A9BF7E"/>
<path d="M30 12H26V14H30V12Z" fill="#74904D"/>
<path d="M30 10H26V12H30V10Z" fill="#74904D"/>
<path d="M28 8H26V10H28V8Z" fill="#74904D"/>
<path d="M26 6H24V8H26V6Z" fill="#74904D"/>
<path d="M34 10H30V14H34V10Z" fill="#A9BF7E"/>
<path d="M36 8H34V16H36V8Z" fill="#5F3F28"/>
<path d="M28 16H24V18H28V16Z" fill="#5C7440"/>
<path d="M26 10H22V12H26V10Z" fill="#5C7440"/>
<path d="M30 14H28V16H30V14Z" fill="#74904D"/>
<path d="M34 14H30V16H34V14Z" fill="#5C7440"/>
<path d="M34 8H30V10H34V8Z" fill="#5C7440"/>
<path d="M24 12H20V14H24V12Z" fill="#A9BF7E"/>
<path d="M20 10H18V18H20V10Z" fill="#5F3F28"/>
<path d="M34 6H30V8H34V6Z" fill="#5F3F28"/>
<path d="M32 16H28V18H32V16Z" fill="#74904D"/>
<path d="M34 16H32V18H34V16Z" fill="#5F3F28"/>
<path d="M32 18H28V20H32V18Z" fill="#74904D"/>
<path d="M28 26H20V28H28V26Z" fill="#5C7440"/>
<path d="M26 39H20V41H26V39Z" fill="#5C7440"/>
<path d="M28 41H26V43H28V41Z" fill="#5C7440"/>
<path d="M20 24H18V26H20V24Z" fill="#5C7440"/>
<path d="M20 37H18V39H20V37Z" fill="#5C7440"/>
<path d="M18 22H16V24H18V22Z" fill="#5C7440"/>
<path d="M18 35H16V37H18V35Z" fill="#5C7440"/>
<path d="M42 22H40V24H42V22Z" fill="#5C7440"/>
<path d="M40 39H38V41H40V39Z" fill="#5C7440"/>
<path d="M44 20H42V22H44V20Z" fill="#5C7440"/>
<path d="M42 37H40V39H42V37Z" fill="#5C7440"/>
<path d="M44 35H42V37H44V35Z" fill="#5C7440"/>
<path d="M24 14H20V16H24V14Z" fill="#5C7440"/>
<path d="M22 8H20V10H22V8Z" fill="#5C7440"/>
<path d="M32 20H28V22H32V20Z" fill="#74904D"/>
<path d="M40 24H36V26H40V24Z" fill="#5C7440"/>
<path d="M38 41H32V43H38V41Z" fill="#5C7440"/>
<path d="M26 24H20V26H26V24Z" fill="#A9BF7E"/>
<path d="M24 37H20V39H24V37Z" fill="#A9BF7E"/>
<path d="M32 22H28V24H32V22Z" fill="#74904D"/>
<path d="M40 22H34V24H40V22Z" fill="#A9BF7E"/>
<path d="M38 39H34V41H38V39Z" fill="#A9BF7E"/>
<path d="M42 20H38V22H42V20Z" fill="#A9BF7E"/>
<path d="M40 37H38V39H40V37Z" fill="#A9BF7E"/>
<path d="M42 39H40V41H42V39Z" fill="#A9BF7E"/>
<path d="M44 37H42V39H44V37Z" fill="#A9BF7E"/>
<path d="M44 18H40V20H44V18Z" fill="#A9BF7E"/>
<path d="M42 35H40V37H42V35Z" fill="#A9BF7E"/>
<path d="M46 18H44V22H46V18Z" fill="#5F3F28"/>
<path d="M46 35H44V39H46V35Z" fill="#5F3F28"/>
<path d="M32 24H28V26H32V24Z" fill="#74904D"/>
<path d="M36 24H34V26H36V24Z" fill="#A9BF7E"/>
<path d="M44 22H42V28H44V22Z" fill="#5F3F28"/>
<path d="M44 39H42V43H44V39Z" fill="#5F3F28"/>
<path d="M44 16H40V18H44V16Z" fill="#5F3F28"/>
<path d="M44 33H40V35H44V33Z" fill="#5F3F28"/>
<path d="M40 18H38V20H40V18Z" fill="#5F3F28"/>
<path d="M40 35H38V37H40V35Z" fill="#5F3F28"/>
<path d="M34 22H32V26H34V22Z" fill="#5F3F28"/>
<path d="M34 39H32V41H34V39Z" fill="#5F3F28"/>
<path d="M42 43H40V45H42V43Z" fill="#5F3F28"/>
<path d="M28 24H26V26H28V24Z" fill="#5F3F28"/>
<path d="M28 28H26V30H28V28Z" fill="#5F3F28"/>
<path d="M34 28H32V30H34V28Z" fill="#5F3F28"/>
<path d="M34 43H32V45H34V43Z" fill="#5F3F28"/>
<path d="M28 39H26V41H28V39Z" fill="#5F3F28"/>
<path d="M26 37H24V39H26V37Z" fill="#5F3F28"/>
<path d="M28 43H26V45H28V43Z" fill="#5F3F28"/>
<path d="M42 28H40V30H42V28Z" fill="#5F3F28"/>
<path d="M40 45H34V47H40V45Z" fill="#5F3F28"/>
<path d="M40 30H34V32H40V30Z" fill="#5F3F28"/>
<path d="M38 20H34V22H38V20Z" fill="#5F3F28"/>
<path d="M38 37H34V39H38V37Z" fill="#5F3F28"/>
<path d="M26 22H18V24H26V22Z" fill="#5F3F28"/>
<path d="M24 35H18V37H24V35Z" fill="#5F3F28"/>
<path d="M18 20H14V22H18V20Z" fill="#5F3F28"/>
<path d="M18 33H14V35H18V33Z" fill="#5F3F28"/>
<path d="M32 26H28V28H32V26Z" fill="#74904D"/>
<path d="M36 26H32V28H36V26Z" fill="#5C7440"/>
<path d="M14 22H12V26H14V22Z" fill="#5F3F28"/>
<path d="M14 35H12V39H14V35Z" fill="#5F3F28"/>
<path d="M26 28H20V30H26V28Z" fill="#A9BF7E"/>
<path d="M26 41H16V43H26V41Z" fill="#A9BF7E"/>
<path d="M26 43H20V45H26V43Z" fill="#A9BF7E"/>
<path d="M20 26H16V28H20V26Z" fill="#A9BF7E"/>
<path d="M20 39H16V41H20V39Z" fill="#A9BF7E"/>
<path d="M18 24H14V26H18V24Z" fill="#A9BF7E"/>
<path d="M18 37H14V39H18V37Z" fill="#A9BF7E"/>
<path d="M16 22H14V24H16V22Z" fill="#A9BF7E"/>
<path d="M16 35H14V37H16V35Z" fill="#A9BF7E"/>
<path d="M42 26H36V28H42V26Z" fill="#A9BF7E"/>
<path d="M40 43H34V45H40V43Z" fill="#A9BF7E"/>
<path d="M42 24H40V26H42V24Z" fill="#A9BF7E"/>
<path d="M42 41H38V43H42V41Z" fill="#A9BF7E"/>
<path d="M32 28H28V30H32V28Z" fill="#74904D"/>
<path d="M40 28H34V30H40V28Z" fill="#A9BF7E"/>
<path d="M20 28H16V30H20V28Z" fill="#5F3F28"/>
<path d="M20 43H16V45H20V43Z" fill="#5F3F28"/>
<path d="M16 26H14V28H16V26Z" fill="#5F3F28"/>
<path d="M16 39H14V43H16V39Z" fill="#5F3F28"/>
<path d="M26 30H20V32H26V30Z" fill="#5F3F28"/>
<path d="M26 45H20V47H26V45Z" fill="#5F3F28"/>
<path d="M32 30H28V32H32V30Z" fill="#74904D"/>
<path d="M32 32H28V34H32V32Z" fill="#74904D"/>
<path d="M32 34H28V36H32V34Z" fill="#74904D"/>
<path d="M32 36H28V38H32V36Z" fill="#74904D"/>
<path d="M32 44H28V52H32V44Z" fill="#74904D"/>
<path d="M32 40H28V42H32V40Z" fill="#74904D"/>
<path d="M32 42H28V44H32V42Z" fill="#74904D"/>
<path d="M32 38H28V40H32V38Z" fill="#74904D"/>
<path d="M32 52H28V56H32V52Z" fill="#5C7440"/>
<path d="M32 56H24V58H32V56Z" fill="#5F3F28"/>
</svg>
