<svg width="60" height="60" viewBox="0 0 60 60" fill="none" xmlns="http://www.w3.org/2000/svg">
<path d="M20 25.6729C20 24.7047 20.6951 23.8721 21.6511 23.7185C27.8458 22.7232 31.9851 22.798 38.3151 23.7383C39.286 23.8825 40 24.7215 40 25.7031V44C40 48.4183 36.4183 52 32 52H28C23.5817 52 20 48.4183 20 44V25.6729Z" fill="none" stroke="#2A241D" stroke-width="2.3"/>
<path d="M20 35C20 33.8954 20.8954 33 22 33H38C39.1046 33 40 33.8954 40 35V44C40 48.4183 36.4183 52 32 52H28C23.5817 52 20 48.4183 20 44V35Z" fill="#DDCFA8" stroke="#2A241D" stroke-width="2.3"/>
<path d="M40 32C36.2763 29.5271 33.5 30.5 20 32C24.5 37 33.8666 36.6028 40 35V32Z" fill="#F4EDE0"/>
<path d="M20 32L19.873 30.857C19.4445 30.9046 19.0786 31.188 18.9252 31.5909C18.7718 31.9939 18.8568 32.4488 19.1452 32.7693L20 32ZM40 32H41.15V31.3832L40.6362 31.042L40 32ZM40 35L40.2908 36.1126L41.15 35.8881V35H40ZM20 32L20.127 33.143C26.9534 32.3845 30.9189 31.7786 33.7152 31.6591C35.0847 31.6006 36.0871 31.6656 36.9402 31.8655C37.7786 32.0619 38.5252 32.4011 39.3638 32.958L40 32L40.6362 31.042C39.613 30.3625 38.6162 29.8959 37.4649 29.6261C36.3282 29.3598 35.0946 29.2981 33.617 29.3612C30.7192 29.485 26.5466 30.1155 19.873 30.857L20 32ZM40 32H38.85V35H40H41.15V32H40ZM40 35L39.7092 33.8874C36.7421 34.6628 33.0018 35.1419 29.489 34.8306C25.956 34.5174 22.828 33.4231 20.8548 31.2307L20 32L19.1452 32.7693C21.672 35.5769 25.4773 36.784 29.2859 37.1216C33.1148 37.4609 37.1246 36.9401 40.2908 36.1126L40 35Z" fill="#2A241D"/>
<path d="M41.5997 14H33.8854C33.5303 14 33.2425 14.2985 33.2425 14.6667L28.732 31.5C28.732 33 31.0981 34.5 32.8406 32L36.5919 18H41.5997C41.9547 18 42.2425 17.7015 42.2425 17.3333V14.6667C42.2425 14.2985 41.9547 14 41.5997 14Z" fill="#F4EDE0" stroke="#2A241D" stroke-width="2.3" stroke-linejoin="round"/>
<path d="M20 27.4266C20 25.8954 21.653 24.9315 23.0425 25.5748C28.5386 28.1193 32.266 27.9752 36.8863 25.7264C38.2897 25.0434 40 26.0002 40 27.5609V44C40 48.4183 36.4183 52 32 52H28C23.5817 52 20 48.4183 20 44V27.4266Z" fill="none" stroke="#2A241D" stroke-width="2.3"/>
</svg>
