<svg width="60" height="60" viewBox="0 0 60 60" fill="none" xmlns="http://www.w3.org/2000/svg">
<path d="M38 6H34V8H38V6Z" fill="#F2A7B4"/>
<path d="M20 8H16V10H20V8Z" fill="#5F3F28"/>
<path d="M38 8H34V10H38V8Z" fill="#D96B7A"/>
<path d="M16 10H14V12H16V10Z" fill="#5F3F28"/>
<path d="M22 10H20V12H22V10Z" fill="#5F3F28"/>
<path d="M38 10H34V12H38V10Z" fill="#D96B7A"/>
<path d="M16 12H14V14H16V12Z" fill="#D9A94F"/>
<path d="M18 12H16V14H18V12Z" fill="#D9A94F"/>
<path d="M20 10H16V12H20V10Z" fill="#D9A94F"/>
<path d="M20 12H18V14H20V12Z" fill="#FBF2DF"/>
<path d="M18 12H16V14H18V12Z" fill="#FBF2DF"/>
<path d="M18 14H16V16H18V14Z" fill="#FBF2DF"/>
<path d="M22 12H20V14H22V12Z" fill="#D9A94F"/>
<path d="M24 12H22V14H24V12Z" fill="#5F3F28"/>
<path d="M38 12H34V14H38V12Z" fill="#D96B7A"/>
<path d="M14 12H12V16H14V12Z" fill="#5F3F28"/>
<path d="M16 14H14V16H16V14Z" fill="#ECCA7F"/>
<path d="M20 16H16V18H20V16Z" fill="#ECCA7F"/>
<path d="M20 14H18V16H20V14Z" fill="#FBF2DF"/>
<path d="M22 14H20V16H22V14Z" fill="#ECCA7F"/>
<path d="M34 14H22V16H34V14Z" fill="#5F3F28"/>
<path d="M38 14H34V16H38V14Z" fill="#D96B7A"/>
<path d="M16 16H14V18H16V16Z" fill="#5F3F28"/>
<path d="M22 16H20V18H22V16Z" fill="#5F3F28"/>
<path d="M34 16H24V18H34V16Z" fill="#FBF2DF"/>
<path d="M38 16H34V18H38V16Z" fill="#D96B7A"/>
<path d="M40 16H38V18H40V16Z" fill="#5F3F28"/>
<path d="M34 18H24V20H34V18Z" fill="#FBF2DF"/>
<path d="M38 18H34V20H38V18Z" fill="#D96B7A"/>
<path d="M40 18H38V20H40V18Z" fill="#FBF2DF"/>
<path d="M42 18H40V48H42V18Z" fill="#5F3F28"/>
<path d="M34 20H20V22H34V20Z" fill="#FBF2DF"/>
<path d="M38 20H34V22H38V20Z" fill="#D96B7A"/>
<path d="M40 20H38V22H40V20Z" fill="#FBF2DF"/>
<path d="M22 22H20V24H22V22Z" fill="#FBF2DF"/>
<path d="M34 22H22V24H34V22Z" fill="#D9A94F"/>
<path d="M38 22H34V24H38V22Z" fill="#D96B7A"/>
<path d="M40 22H38V24H40V22Z" fill="#FBF2DF"/>
<path d="M22 24H20V26H22V24Z" fill="#FBF2DF"/>
<path d="M38 24H22V26H38V24Z" fill="#ECCA7F"/>
<path d="M40 24H38V26H40V24Z" fill="#FBF2DF"/>
<path d="M22 26H20V28H22V26Z" fill="#FBF2DF"/>
<path d="M24 26H22V28H24V26Z" fill="#ECCA7F"/>
<path d="M30 26H24V28H30V26Z" fill="#5F3F28"/>
<path d="M38 26H30V28H38V26Z" fill="#ECCA7F"/>
<path d="M40 26H38V28H40V26Z" fill="#FBF2DF"/>
<path d="M22 28H20V30H22V28Z" fill="#FBF2DF"/>
<path d="M24 28H22V30H24V28Z" fill="#ECCA7F"/>
<path d="M26 28H24V30H26V28Z" fill="#5F3F28"/>
<path d="M28 28H26V30H28V28Z" fill="#FBF2DF"/>
<path d="M30 28H28V30H30V28Z" fill="#5F3F28"/>
<path d="M38 28H30V30H38V28Z" fill="#ECCA7F"/>
<path d="M40 28H38V30H40V28Z" fill="#FBF2DF"/>
<path d="M22 30H20V32H22V30Z" fill="#FBF2DF"/>
<path d="M24 30H22V32H24V30Z" fill="#ECCA7F"/>
<path d="M30 30H24V32H30V30Z" fill="#5F3F28"/>
<path d="M38 30H30V32H38V30Z" fill="#ECCA7F"/>
<path d="M40 30H38V32H40V30Z" fill="#FBF2DF"/>
<path d="M22 32H20V34H22V32Z" fill="#FBF2DF"/>
<path d="M38 32H22V34H38V32Z" fill="#ECCA7F"/>
<path d="M40 32H38V34H40V32Z" fill="#FBF2DF"/>
<path d="M22 34H20V36H22V34Z" fill="#FBF2DF"/>
<path d="M30 34H22V36H30V34Z" fill="#ECCA7F"/>
<path d="M36 34H30V36H36V34Z" fill="#5F3F28"/>
<path d="M38 34H36V36H38V34Z" fill="#ECCA7F"/>
<path d="M40 34H38V36H40V34Z" fill="#FBF2DF"/>
<path d="M22 36H20V38H22V36Z" fill="#FBF2DF"/>
<path d="M30 36H22V38H30V36Z" fill="#ECCA7F"/>
<path d="M32 36H30V38H32V36Z" fill="#5F3F28"/>
<path d="M34 36H32V38H34V36Z" fill="#FBF2DF"/>
<path d="M36 36H34V38H36V36Z" fill="#5F3F28"/>
<path d="M38 36H36V38H38V36Z" fill="#ECCA7F"/>
<path d="M40 36H38V38H40V36Z" fill="#FBF2DF"/>
<path d="M22 38H20V40H22V38Z" fill="#FBF2DF"/>
<path d="M30 38H22V40H30V38Z" fill="#ECCA7F"/>
<path d="M36 38H30V40H36V38Z" fill="#5F3F28"/>
<path d="M38 38H36V40H38V38Z" fill="#ECCA7F"/>
<path d="M40 38H38V40H40V38Z" fill="#FBF2DF"/>
<path d="M22 40H20V42H22V40Z" fill="#FBF2DF"/>
<path d="M38 40H22V42H38V40Z" fill="#ECCA7F"/>
<path d="M40 40H38V42H40V40Z" fill="#FBF2DF"/>
<path d="M22 42H20V44H22V42Z" fill="#FBF2DF"/>
<path d="M38 42H22V44H38V42Z" fill="#ECCA7F"/>
<path d="M40 42H38V44H40V42Z" fill="#FBF2DF"/>
<path d="M22 44H20V46H22V44Z" fill="#FBF2DF"/>
<path d="M38 44H22V46H38V44Z" fill="#ECCA7F"/>
<path d="M40 44H38V46H40V44Z" fill="#FBF2DF"/>
<path d="M18 20H16V18H20V48H18V20Z" fill="#5F3F28"/>
<path d="M24 46H20V48H24V46Z" fill="#FBF2DF"/>
<path d="M36 46H24V48H36V46Z" fill="#ECCA7F"/>
<path d="M40 46H36V48H40V46Z" fill="#FBF2DF"/>
<path d="M22 48H20V50H22V48Z" fill="#5F3F28"/>
<path d="M38 48H22V50H38V48Z" fill="#FBF2DF"/>
<path d="M40 48H38V50H40V48Z" fill="#5F3F28"/>
<path d="M38 50H22V52H38V50Z" fill="#5F3F28"/>
</svg>
