<svg width="32" height="32" viewBox="0 0 32 32" fill="none" xmlns="http://www.w3.org/2000/svg">
<path d="M10.6667 12.2667H21.3333L20.2667 23.4667C20.2667 23.891 20.0981 24.298 19.798 24.598C19.498 24.8981 19.091 25.0667 18.6667 25.0667H13.3333C12.909 25.0667 12.502 24.8981 12.202 24.598C11.9019 24.298 11.7333 23.891 11.7333 23.4667L10.6667 12.2667Z" fill="#DDCFA8" stroke="#2A241D" stroke-linejoin="round"/>
<path d="M21.3333 14.4H22.9333C23.4991 14.4 24.0417 14.6248 24.4418 15.0249C24.8419 15.4249 25.0667 15.9676 25.0667 16.5334C25.0667 17.0992 24.8419 17.6418 24.4418 18.0419C24.0417 18.4419 23.4991 18.6667 22.9333 18.6667H21.3333" stroke="#2A241D" stroke-linecap="round" stroke-linejoin="round"/>
<path d="M18.6667 9.59998L16.5333 22.4" stroke="#2A241D" stroke-linecap="round" stroke-linejoin="round"/>
<path d="M15.4667 20C16.7921 20 17.8667 18.9255 17.8667 17.6C17.8667 16.2745 16.7921 15.2 15.4667 15.2C14.1412 15.2 13.0667 16.2745 13.0667 17.6C13.0667 18.9255 14.1412 20 15.4667 20Z" fill="#F4EDE0" stroke="#2A241D" stroke-linecap="round" stroke-linejoin="round"/>
<path d="M15.4667 15.2V20M13.0667 17.6H17.8667" stroke="#2A241D"/>
</svg>
