<svg width="60" height="60" viewBox="0 0 60 60" fill="none" xmlns="http://www.w3.org/2000/svg">
<path d="M28 0H26V2H28V0Z" fill="#CF5B5B"/>
<path d="M32 0H30V2H32V0Z" fill="#CF5B5B"/>
<path d="M32 2H26V4H32V2Z" fill="#CF5B5B"/>
<path d="M40 4H20V6H40V4Z" fill="#5F3F28"/>
<path d="M20 6H18V8H20V6Z" fill="#5F3F28"/>
<path d="M40 6H20V8H40V6Z" fill="#D9A15E"/>
<path d="M42 6H40V8H42V6Z" fill="#5F3F28"/>
<path d="M18 8H16V10H18V8Z" fill="#5F3F28"/>
<path d="M24 8H18V10H24V8Z" fill="#D9A15E"/>
<path d="M36 8H24V10H36V8Z" fill="#5F3F28"/>
<path d="M42 8H36V10H42V8Z" fill="#D9A15E"/>
<path d="M44 8H42V10H44V8Z" fill="#5F3F28"/>
<path d="M18 10H16V12H18V10Z" fill="#5F3F28"/>
<path d="M22 10H18V12H22V10Z" fill="#D9A15E"/>
<path d="M24 10H22V12H24V10Z" fill="#5F3F28"/>
<path d="M36 10H24V12H36V10Z" fill="#A9C8E6"/>
<path d="M38 10H36V12H38V10Z" fill="#5F3F28"/>
<path d="M42 10H38V12H42V10Z" fill="#D9A15E"/>
<path d="M44 10H42V12H44V10Z" fill="#5F3F28"/>
<path d="M18 12H16V14H18V12Z" fill="#5F3F28"/>
<path d="M20 12H18V14H20V12Z" fill="#D9A15E"/>
<path d="M22 12H20V14H22V12Z" fill="#5F3F28"/>
<path d="M36 12H22V14H36V12Z" fill="#A9C8E6"/>
<path d="M38 12H36V14H38V12Z" fill="#7BA6CF"/>
<path d="M40 12H38V14H40V12Z" fill="#5F3F28"/>
<path d="M42 12H40V14H42V12Z" fill="#D9A15E"/>
<path d="M44 12H42V14H44V12Z" fill="#5F3F28"/>
<path d="M18 14H16V16H18V14Z" fill="#5F3F28"/>
<path d="M20 14H18V16H20V14Z" fill="#D9A15E"/>
<path d="M22 14H20V16H22V14Z" fill="#5F3F28"/>
<path d="M24 14H22V16H24V14Z" fill="#A9C8E6"/>
<path d="M26 14H24V16H26V14Z" fill="#FBF2DF"/>
<path d="M32 14H26V16H32V14Z" fill="#A9C8E6"/>
<path d="M34 14H32V16H34V14Z" fill="#FBF2DF"/>
<path d="M36 14H34V16H36V14Z" fill="#A9C8E6"/>
<path d="M38 14H36V16H38V14Z" fill="#7BA6CF"/>
<path d="M40 14H38V16H40V14Z" fill="#5F3F28"/>
<path d="M42 14H40V16H42V14Z" fill="#D9A15E"/>
<path d="M44 14H42V16H44V14Z" fill="#5F3F28"/>
<path d="M18 16H16V18H18V16Z" fill="#5F3F28"/>
<path d="M20 16H18V18H20V16Z" fill="#D9A15E"/>
<path d="M22 16H20V18H22V16Z" fill="#5F3F28"/>
<path d="M26 16H22V18H26V16Z" fill="#A9C8E6"/>
<path d="M28 16H26V18H28V16Z" fill="#FBF2DF"/>
<path d="M34 16H28V18H34V16Z" fill="#A9C8E6"/>
<path d="M36 16H34V18H36V16Z" fill="#FBF2DF"/>
<path d="M38 16H36V18H38V16Z" fill="#7BA6CF"/>
<path d="M40 16H38V18H40V16Z" fill="#5F3F28"/>
<path d="M42 16H40V18H42V16Z" fill="#D9A15E"/>
<path d="M44 16H42V18H44V16Z" fill="#5F3F28"/>
<path d="M18 18H16V20H18V18Z" fill="#5F3F28"/>
<path d="M20 18H18V20H20V18Z" fill="#D9A15E"/>
<path d="M22 18H20V20H22V18Z" fill="#5F3F28"/>
<path d="M28 18H22V20H28V18Z" fill="#A9C8E6"/>
<path d="M30 18H28V20H30V18Z" fill="#FBF2DF"/>
<path d="M36 18H30V20H36V18Z" fill="#A9C8E6"/>
<path d="M38 18H36V20H38V18Z" fill="#7BA6CF"/>
<path d="M40 18H38V20H40V18Z" fill="#5F3F28"/>
<path d="M42 18H40V20H42V18Z" fill="#D9A15E"/>
<path d="M44 18H42V20H44V18Z" fill="#5F3F28"/>
<path d="M18 20H16V22H18V20Z" fill="#5F3F28"/>
<path d="M20 20H18V22H20V20Z" fill="#D9A15E"/>
<path d="M22 20H20V22H22V20Z" fill="#5F3F28"/>
<path d="M36 20H22V22H36V20Z" fill="#A9C8E6"/>
<path d="M38 20H36V22H38V20Z" fill="#7BA6CF"/>
<path d="M40 20H38V22H40V20Z" fill="#5F3F28"/>
<path d="M42 20H40V22H42V20Z" fill="#D9A15E"/>
<path d="M44 20H42V22H44V20Z" fill="#5F3F28"/>
<path d="M18 22H16V24H18V22Z" fill="#5F3F28"/>
<path d="M20 22H18V24H20V22Z" fill="#D9A15E"/>
<path d="M22 22H20V24H22V22Z" fill="#5F3F28"/>
<path d="M36 22H22V24H36V22Z" fill="#A9C8E6"/>
<path d="M38 22H36V24H38V22Z" fill="#7BA6CF"/>
<path d="M40 22H38V24H40V22Z" fill="#5F3F28"/>
<path d="M42 22H40V24H42V22Z" fill="#D9A15E"/>
<path d="M44 22H42V24H44V22Z" fill="#5F3F28"/>
<path d="M18 24H16V26H18V24Z" fill="#5F3F28"/>
<path d="M20 24H18V26H20V24Z" fill="#D9A15E"/>
<path d="M22 24H20V26H22V24Z" fill="#5F3F28"/>
<path d="M36 24H22V26H36V24Z" fill="#A9C8E6"/>
<path d="M38 24H36V26H38V24Z" fill="#7BA6CF"/>
<path d="M40 24H38V26H40V24Z" fill="#5F3F28"/>
<path d="M42 24H40V26H42V24Z" fill="#D9A15E"/>
<path d="M44 24H42V26H44V24Z" fill="#5F3F28"/>
<path d="M18 26H16V28H18V26Z" fill="#5F3F28"/>
<path d="M20 26H18V28H20V26Z" fill="#D9A15E"/>
<path d="M22 26H20V28H22V26Z" fill="#5F3F28"/>
<path d="M36 26H22V28H36V26Z" fill="#A9C8E6"/>
<path d="M38 26H36V28H38V26Z" fill="#7BA6CF"/>
<path d="M40 26H38V28H40V26Z" fill="#5F3F28"/>
<path d="M42 26H40V28H42V26Z" fill="#D9A15E"/>
<path d="M44 26H42V28H44V26Z" fill="#5F3F28"/>
<path d="M18 28H16V30H18V28Z" fill="#5F3F28"/>
<path d="M20 28H18V30H20V28Z" fill="#D9A15E"/>
<path d="M22 28H20V30H22V28Z" fill="#5F3F28"/>
<path d="M36 28H22V30H36V28Z" fill="#A9C8E6"/>
<path d="M38 28H36V30H38V28Z" fill="#7BA6CF"/>
<path d="M40 28H38V30H40V28Z" fill="#5F3F28"/>
<path d="M42 28H40V30H42V28Z" fill="#D9A15E"/>
<path d="M44 28H42V30H44V28Z" fill="#5F3F28"/>
<path d="M18 30H16V32H18V30Z" fill="#5F3F28"/>
<path d="M20 30H18V32H20V30Z" fill="#D9A15E"/>
<path d="M22 30H20V32H22V30Z" fill="#5F3F28"/>
<path d="M36 30H22V32H36V30Z" fill="#A9C8E6"/>
<path d="M38 30H36V32H38V30Z" fill="#7BA6CF"/>
<path d="M40 30H38V32H40V30Z" fill="#5F3F28"/>
<path d="M42 30H40V32H42V30Z" fill="#D9A15E"/>
<path d="M44 30H42V32H44V30Z" fill="#5F3F28"/>
<path d="M18 32H16V34H18V32Z" fill="#5F3F28"/>
<path d="M20 32H18V34H20V32Z" fill="#D9A15E"/>
<path d="M22 32H20V34H22V32Z" fill="#5F3F28"/>
<path d="M36 32H22V34H36V32Z" fill="#A9C8E6"/>
<path d="M38 32H36V34H38V32Z" fill="#7BA6CF"/>
<path d="M40 32H38V34H40V32Z" fill="#5F3F28"/>
<path d="M42 32H40V34H42V32Z" fill="#D9A15E"/>
<path d="M44 32H42V34H44V32Z" fill="#5F3F28"/>
<path d="M18 34H16V36H18V34Z" fill="#5F3F28"/>
<path d="M20 34H18V36H20V34Z" fill="#D9A15E"/>
<path d="M22 34H20V36H22V34Z" fill="#5F3F28"/>
<path d="M36 34H22V36H36V34Z" fill="#A9C8E6"/>
<path d="M38 34H36V36H38V34Z" fill="#7BA6CF"/>
<path d="M40 34H38V36H40V34Z" fill="#5F3F28"/>
<path d="M42 34H40V36H42V34Z" fill="#D9A15E"/>
<path d="M44 34H42V36H44V34Z" fill="#5F3F28"/>
<path d="M18 36H16V38H18V36Z" fill="#5F3F28"/>
<path d="M20 36H18V38H20V36Z" fill="#D9A15E"/>
<path d="M22 36H20V38H22V36Z" fill="#5F3F28"/>
<path d="M36 36H22V38H36V36Z" fill="#A9C8E6"/>
<path d="M38 36H36V38H38V36Z" fill="#7BA6CF"/>
<path d="M40 36H38V38H40V36Z" fill="#5F3F28"/>
<path d="M42 36H40V38H42V36Z" fill="#D9A15E"/>
<path d="M44 36H42V38H44V36Z" fill="#5F3F28"/>
<path d="M18 38H16V40H18V38Z" fill="#5F3F28"/>
<path d="M20 38H18V40H20V38Z" fill="#D9A15E"/>
<path d="M22 38H20V40H22V38Z" fill="#5F3F28"/>
<path d="M36 38H22V40H36V38Z" fill="#A9C8E6"/>
<path d="M38 38H36V40H38V38Z" fill="#7BA6CF"/>
<path d="M40 38H38V40H40V38Z" fill="#5F3F28"/>
<path d="M42 38H40V40H42V38Z" fill="#D9A15E"/>
<path d="M44 38H42V40H44V38Z" fill="#5F3F28"/>
<path d="M18 40H16V42H18V40Z" fill="#5F3F28"/>
<path d="M22 40H18V42H22V40Z" fill="#D9A15E"/>
<path d="M24 40H22V42H24V40Z" fill="#5F3F28"/>
<path d="M36 40H24V42H36V40Z" fill="#A9C8E6"/>
<path d="M38 40H36V42H38V40Z" fill="#5F3F28"/>
<path d="M42 40H38V42H42V40Z" fill="#D9A15E"/>
<path d="M44 40H42V42H44V40Z" fill="#5F3F28"/>
<path d="M18 42H16V44H18V42Z" fill="#5F3F28"/>
<path d="M24 42H18V44H24V42Z" fill="#D9A15E"/>
<path d="M36 42H24V44H36V42Z" fill="#5F3F28"/>
<path d="M42 42H36V44H42V42Z" fill="#D9A15E"/>
<path d="M44 42H42V44H44V42Z" fill="#5F3F28"/>
<path d="M20 44H18V46H20V44Z" fill="#5F3F28"/>
<path d="M40 44H20V46H40V44Z" fill="#D9A15E"/>
<path d="M42 44H40V46H42V44Z" fill="#5F3F28"/>
<path d="M40 46H20V48H40V46Z" fill="#5F3F28"/>
<path d="M22 48H18V50H22V48Z" fill="#B97B3F"/>
<path d="M42 48H38V50H42V48Z" fill="#B97B3F"/>
<path d="M22 50H18V52H22V50Z" fill="#B97B3F"/>
<path d="M42 50H38V52H42V50Z" fill="#B97B3F"/>
<path d="M22 52H18V54H22V52Z" fill="#B97B3F"/>
<path d="M42 52H38V54H42V52Z" fill="#B97B3F"/>
<path d="M46 54H14V56H46V54Z" fill="#E3D3B4"/>
</svg>
