<svg width="60" height="60" viewBox="0 0 60 60" fill="none" xmlns="http://www.w3.org/2000/svg">
<path d="M40 23H45C46.5913 23 48.1174 23.6321 49.2426 24.7574C50.3679 25.8826 51 27.4087 51 29C51 30.5913 50.3679 32.1174 49.2426 33.2426C48.1174 34.3679 46.5913 35 45 35H40" fill="none" stroke="#2A241D" stroke-width="2.3" stroke-linecap="round" stroke-linejoin="round"/>
<path d="M39.1627 39.2095C39.7155 37.8749 40 36.4445 40 35V19C40 21 18 21 18 19V35C18 36.4445 18.2845 37.8749 18.8373 39.2095C19.3901 40.5441 20.2004 41.7567 21.2218 42.7782C22.2433 43.7996 23.4559 44.6099 24.7905 45.1627C26.1251 45.7155 27.5555 46 29 46C30.4445 46 31.8749 45.7155 33.2095 45.1627C34.5441 44.6099 35.7567 43.7996 36.7782 42.7782C37.7996 41.7567 38.6099 40.5441 39.1627 39.2095Z" fill="#F4EDE0" stroke="#2A241D" stroke-width="2.3" stroke-linejoin="round"/>
<path d="M39.1627 39.2095C39.7155 37.8749 40 36.4445 40 35V26C40 28 18 28 18 26V35C18 36.4445 18.2845 37.8749 18.8373 39.2095C19.3901 40.5441 20.2004 41.7567 21.2218 42.7782C22.2433 43.7996 23.4559 44.6099 24.7905 45.1627C26.1251 45.7155 27.5555 46 29 46C30.4445 46 31.8749 45.7155 33.2095 45.1627C34.5441 44.6099 35.7567 43.7996 36.7782 42.7782C37.7996 41.7567 38.6099 40.5441 39.1627 39.2095Z" fill="#DDCFA8" stroke="#2A241D" stroke-width="2.3" stroke-linejoin="round"/>
<path d="M18 19C18 21 40 21 40 19C40 16 18 16 18 19Z" fill="#F4EDE0" stroke="#2A241D" stroke-width="2.3" stroke-linejoin="round"/>
</svg>
