<svg width="60" height="60" viewBox="0 0 60 60" fill="none" xmlns="http://www.w3.org/2000/svg">
<path d="M32 4H30V6H32V4Z" fill="#EEDDC2"/>
<path d="M30 6H28V8H30V6Z" fill="#EEDDC2"/>
<path d="M22 8H20V10H22V8Z" fill="#EEDDC2"/>
<path d="M30 8H28V10H30V8Z" fill="#EEDDC2"/>
<path d="M10 10H8V12H10V10Z" fill="#ECCA7F"/>
<path d="M20 10H18V12H20V10Z" fill="#EEDDC2"/>
<path d="M32 10H30V12H32V10Z" fill="#EEDDC2"/>
<path d="M20 12H18V14H20V12Z" fill="#EEDDC2"/>
<path d="M22 14H20V16H22V14Z" fill="#EEDDC2"/>
<path d="M48 14H46V16H48V14Z" fill="#ECCA7F"/>
<path d="M40 22H12V24H40V22Z" fill="#5F3F28"/>
<path d="M14 24H12V26H14V24Z" fill="#5F3F28"/>
<path d="M20 24H14V26H20V24Z" fill="#92602E"/>
<path d="M22 24H20V26H22V24Z" fill="#D9A15E"/>
<path d="M38 24H22V26H38V24Z" fill="#92602E"/>
<path d="M40 24H38V26H40V24Z" fill="#5F3F28"/>
<path d="M14 26H12V28H14V26Z" fill="#5F3F28"/>
<path d="M28 26H14V28H28V26Z" fill="#92602E"/>
<path d="M30 26H28V28H30V26Z" fill="#D9A15E"/>
<path d="M38 26H30V28H38V26Z" fill="#92602E"/>
<path d="M46 26H38V28H46V26Z" fill="#5F3F28"/>
<path d="M14 28H12V30H14V28Z" fill="#5F3F28"/>
<path d="M36 28H14V30H36V28Z" fill="#FBF2DF"/>
<path d="M38 28H36V30H38V28Z" fill="#E0C9A3"/>
<path d="M40 28H38V30H40V28Z" fill="#5F3F28"/>
<path d="M44 28H40V30H44V28Z" fill="#FBF2DF"/>
<path d="M46 28H44V30H46V28Z" fill="#5F3F28"/>
<path d="M14 30H12V32H14V30Z" fill="#5F3F28"/>
<path d="M22 30H14V32H22V30Z" fill="#FBF2DF"/>
<path d="M24 30H22V32H24V30Z" fill="#F2A7B4"/>
<path d="M26 30H24V32H26V30Z" fill="#FBF2DF"/>
<path d="M28 30H26V32H28V30Z" fill="#F2A7B4"/>
<path d="M36 30H28V32H36V30Z" fill="#FBF2DF"/>
<path d="M38 30H36V32H38V30Z" fill="#E0C9A3"/>
<path d="M40 30H38V32H40V30Z" fill="#5F3F28"/>
<path d="M44 30H40V32H44V30Z" fill="#FBF2DF"/>
<path d="M46 30H44V32H46V30Z" fill="#5F3F28"/>
<path d="M14 32H12V34H14V32Z" fill="#5F3F28"/>
<path d="M20 32H14V34H20V32Z" fill="#FBF2DF"/>
<path d="M30 32H20V34H30V32Z" fill="#F2A7B4"/>
<path d="M36 32H30V34H36V32Z" fill="#FBF2DF"/>
<path d="M38 32H36V34H38V32Z" fill="#E0C9A3"/>
<path d="M40 32H38V34H40V32Z" fill="#5F3F28"/>
<path d="M44 32H40V34H44V32Z" fill="#FBF2DF"/>
<path d="M46 32H44V34H46V32Z" fill="#5F3F28"/>
<path d="M14 34H12V36H14V34Z" fill="#5F3F28"/>
<path d="M20 34H14V36H20V34Z" fill="#FBF2DF"/>
<path d="M30 34H20V36H30V34Z" fill="#F2A7B4"/>
<path d="M36 34H30V36H36V34Z" fill="#FBF2DF"/>
<path d="M38 34H36V36H38V34Z" fill="#E0C9A3"/>
<path d="M40 34H38V36H40V34Z" fill="#5F3F28"/>
<path d="M44 34H40V36H44V34Z" fill="#FBF2DF"/>
<path d="M46 34H44V36H46V34Z" fill="#5F3F28"/>
<path d="M14 36H12V38H14V36Z" fill="#5F3F28"/>
<path d="M22 36H14V38H22V36Z" fill="#FBF2DF"/>
<path d="M28 36H22V38H28V36Z" fill="#F2A7B4"/>
<path d="M36 36H28V38H36V36Z" fill="#FBF2DF"/>
<path d="M38 36H36V38H38V36Z" fill="#E0C9A3"/>
<path d="M40 36H38V38H40V36Z" fill="#5F3F28"/>
<path d="M44 36H40V38H44V36Z" fill="#FBF2DF"/>
<path d="M46 36H44V38H46V36Z" fill="#5F3F28"/>
<path d="M14 38H12V40H14V38Z" fill="#5F3F28"/>
<path d="M24 38H14V40H24V38Z" fill="#FBF2DF"/>
<path d="M26 38H24V40H26V38Z" fill="#F2A7B4"/>
<path d="M36 38H26V40H36V38Z" fill="#FBF2DF"/>
<path d="M38 38H36V40H38V38Z" fill="#E0C9A3"/>
<path d="M46 38H38V40H46V38Z" fill="#5F3F28"/>
<path d="M14 40H12V42H14V40Z" fill="#5F3F28"/>
<path d="M36 40H14V42H36V40Z" fill="#FBF2DF"/>
<path d="M38 40H36V42H38V40Z" fill="#E0C9A3"/>
<path d="M40 40H38V42H40V40Z" fill="#5F3F28"/>
<path d="M14 42H12V44H14V42Z" fill="#5F3F28"/>
<path d="M38 42H14V44H38V42Z" fill="#E0C9A3"/>
<path d="M40 42H38V44H40V42Z" fill="#5F3F28"/>
<path d="M14 44H12V46H14V44Z" fill="#5F3F28"/>
<path d="M38 44H14V46H38V44Z" fill="#FBF2DF"/>
<path d="M40 44H38V46H40V44Z" fill="#5F3F28"/>
<path d="M46 46H10V48H46V46Z" fill="#5F3F28"/>
<path d="M12 48H10V50H12V48Z" fill="#5F3F28"/>
<path d="M44 48H12V50H44V48Z" fill="#FBF2DF"/>
<path d="M46 48H44V50H46V48Z" fill="#5F3F28"/>
<path d="M46 50H10V52H46V50Z" fill="#5F3F28"/>
</svg>
