<svg width="32" height="32" viewBox="0 0 32 32" fill="none" xmlns="http://www.w3.org/2000/svg">
<path d="M21.3333 12.2667H24C24.8487 12.2667 25.6626 12.6038 26.2627 13.2039C26.8629 13.804 27.2 14.618 27.2 15.4667C27.2 16.3154 26.8629 17.1293 26.2627 17.7294C25.6626 18.3295 24.8487 18.6667 24 18.6667H21.3333" stroke="#2A241D" stroke-linecap="round" stroke-linejoin="round"/>
<path d="M20.8868 20.9118C21.1816 20.2 21.3333 19.4371 21.3333 18.6667V10.1334C21.3333 11.2 9.6 11.2 9.6 10.1334V18.6667C9.6 19.4371 9.75174 20.2 10.0466 20.9118C10.3414 21.6235 10.7735 22.2703 11.3183 22.8151C11.8631 23.3598 12.5098 23.792 13.2216 24.0868C13.9334 24.3816 14.6962 24.5334 15.4667 24.5334C16.2371 24.5334 17 24.3816 17.7117 24.0868C18.4235 23.792 19.0703 23.3598 19.615 22.8151C20.1598 22.2703 20.5919 21.6235 20.8868 20.9118Z" fill="#F4EDE0" stroke="#2A241D" stroke-linejoin="round"/>
<path d="M20.8868 20.9117C21.1816 20.1999 21.3333 19.4371 21.3333 18.6666V13.8666C21.3333 14.9333 9.6 14.9333 9.6 13.8666V18.6666C9.6 19.4371 9.75174 20.1999 10.0466 20.9117C10.3414 21.6235 10.7735 22.2702 11.3183 22.815C11.8631 23.3598 12.5098 23.7919 13.2216 24.0867C13.9334 24.3816 14.6962 24.5333 15.4667 24.5333C16.2371 24.5333 17 24.3816 17.7117 24.0867C18.4235 23.7919 19.0703 23.3598 19.615 22.815C20.1598 22.2702 20.5919 21.6235 20.8868 20.9117Z" fill="#DDCFA8" stroke="#2A241D" stroke-linejoin="round"/>
<path d="M9.6 10.1334C9.6 11.2 21.3333 11.2 21.3333 10.1334C21.3333 8.53335 9.6 8.53335 9.6 10.1334Z" fill="#F4EDE0" stroke="#2A241D" stroke-linejoin="round"/>
</svg>
