<svg width="60" height="60" viewBox="0 0 60 60" fill="none" xmlns="http://www.w3.org/2000/svg">
<path d="M54 12H6V14H54V12Z" fill="#5F3F28"/>
<path d="M8 14H6V16H8V14Z" fill="#5F3F28"/>
<path d="M52 14H8V16H52V14Z" fill="#E9BD7F"/>
<path d="M54 14H52V16H54V14Z" fill="#5F3F28"/>
<path d="M54 16H6V18H54V16Z" fill="#5F3F28"/>
<path d="M10 18H8V20H10V18Z" fill="#5F3F28"/>
<path d="M50 18H10V20H50V18Z" fill="#D9A15E"/>
<path d="M52 18H50V20H52V18Z" fill="#5F3F28"/>
<path d="M10 20H8V22H10V20Z" fill="#5F3F28"/>
<path d="M12 20H10V22H12V20Z" fill="#D9A15E"/>
<path d="M48 20H12V22H48V20Z" fill="#5F3F28"/>
<path d="M50 20H48V22H50V20Z" fill="#D9A15E"/>
<path d="M52 20H50V22H52V20Z" fill="#5F3F28"/>
<path d="M10 22H8V24H10V22Z" fill="#5F3F28"/>
<path d="M12 22H10V24H12V22Z" fill="#D9A15E"/>
<path d="M14 22H12V24H14V22Z" fill="#5F3F28"/>
<path d="M46 22H14V24H46V22Z" fill="#B97B3F"/>
<path d="M48 22H46V24H48V22Z" fill="#5F3F28"/>
<path d="M50 22H48V24H50V22Z" fill="#D9A15E"/>
<path d="M52 22H50V24H52V22Z" fill="#5F3F28"/>
<path d="M10 24H8V26H10V24Z" fill="#5F3F28"/>
<path d="M12 24H10V26H12V24Z" fill="#D9A15E"/>
<path d="M14 24H12V26H14V24Z" fill="#5F3F28"/>
<path d="M26 24H14V26H26V24Z" fill="#B97B3F"/>
<path d="M28 24H26V26H28V24Z" fill="#CF5B5B"/>
<path d="M30 24H28V26H30V24Z" fill="#B97B3F"/>
<path d="M32 24H30V26H32V24Z" fill="#CF5B5B"/>
<path d="M46 24H32V26H46V24Z" fill="#B97B3F"/>
<path d="M48 24H46V26H48V24Z" fill="#5F3F28"/>
<path d="M50 24H48V26H50V24Z" fill="#D9A15E"/>
<path d="M52 24H50V26H52V24Z" fill="#5F3F28"/>
<path d="M10 26H8V28H10V26Z" fill="#5F3F28"/>
<path d="M12 26H10V28H12V26Z" fill="#D9A15E"/>
<path d="M14 26H12V28H14V26Z" fill="#5F3F28"/>
<path d="M26 26H14V28H26V26Z" fill="#B97B3F"/>
<path d="M32 26H26V28H32V26Z" fill="#CF5B5B"/>
<path d="M46 26H32V28H46V26Z" fill="#B97B3F"/>
<path d="M48 26H46V28H48V26Z" fill="#5F3F28"/>
<path d="M50 26H48V28H50V26Z" fill="#D9A15E"/>
<path d="M52 26H50V28H52V26Z" fill="#5F3F28"/>
<path d="M10 28H8V30H10V28Z" fill="#5F3F28"/>
<path d="M12 28H10V30H12V28Z" fill="#D9A15E"/>
<path d="M14 28H12V30H14V28Z" fill="#5F3F28"/>
<path d="M28 28H14V30H28V28Z" fill="#B97B3F"/>
<path d="M30 28H28V30H30V28Z" fill="#CF5B5B"/>
<path d="M46 28H30V30H46V28Z" fill="#B97B3F"/>
<path d="M48 28H46V30H48V28Z" fill="#5F3F28"/>
<path d="M50 28H48V30H50V28Z" fill="#D9A15E"/>
<path d="M52 28H50V30H52V28Z" fill="#5F3F28"/>
<path d="M10 30H8V32H10V30Z" fill="#5F3F28"/>
<path d="M12 30H10V32H12V30Z" fill="#D9A15E"/>
<path d="M48 30H12V32H48V30Z" fill="#5F3F28"/>
<path d="M50 30H48V32H50V30Z" fill="#D9A15E"/>
<path d="M52 30H50V32H52V30Z" fill="#5F3F28"/>
<path d="M10 32H8V34H10V32Z" fill="#5F3F28"/>
<path d="M12 32H10V34H12V32Z" fill="#D9A15E"/>
<path d="M48 32H12V34H48V32Z" fill="#5F3F28"/>
<path d="M50 32H48V34H50V32Z" fill="#D9A15E"/>
<path d="M52 32H50V34H52V32Z" fill="#5F3F28"/>
<path d="M10 34H8V36H10V34Z" fill="#5F3F28"/>
<path d="M12 34H10V36H12V34Z" fill="#D9A15E"/>
<path d="M14 34H12V36H14V34Z" fill="#5F3F28"/>
<path d="M46 34H14V36H46V34Z" fill="#B97B3F"/>
<path d="M48 34H46V36H48V34Z" fill="#5F3F28"/>
<path d="M50 34H48V36H50V34Z" fill="#D9A15E"/>
<path d="M52 34H50V36H52V34Z" fill="#5F3F28"/>
<path d="M10 36H8V38H10V36Z" fill="#5F3F28"/>
<path d="M12 36H10V38H12V36Z" fill="#D9A15E"/>
<path d="M14 36H12V38H14V36Z" fill="#5F3F28"/>
<path d="M28 36H14V38H28V36Z" fill="#B97B3F"/>
<path d="M32 36H28V38H32V36Z" fill="#5F3F28"/>
<path d="M46 36H32V38H46V36Z" fill="#B97B3F"/>
<path d="M48 36H46V38H48V36Z" fill="#5F3F28"/>
<path d="M50 36H48V38H50V36Z" fill="#D9A15E"/>
<path d="M52 36H50V38H52V36Z" fill="#5F3F28"/>
<path d="M10 38H8V40H10V38Z" fill="#5F3F28"/>
<path d="M12 38H10V40H12V38Z" fill="#D9A15E"/>
<path d="M14 38H12V40H14V38Z" fill="#5F3F28"/>
<path d="M46 38H14V40H46V38Z" fill="#B97B3F"/>
<path d="M48 38H46V40H48V38Z" fill="#5F3F28"/>
<path d="M50 38H48V40H50V38Z" fill="#D9A15E"/>
<path d="M52 38H50V40H52V38Z" fill="#5F3F28"/>
<path d="M10 40H8V42H10V40Z" fill="#5F3F28"/>
<path d="M12 40H10V42H12V40Z" fill="#D9A15E"/>
<path d="M14 40H12V42H14V40Z" fill="#5F3F28"/>
<path d="M46 40H14V42H46V40Z" fill="#B97B3F"/>
<path d="M48 40H46V42H48V40Z" fill="#5F3F28"/>
<path d="M50 40H48V42H50V40Z" fill="#D9A15E"/>
<path d="M52 40H50V42H52V40Z" fill="#5F3F28"/>
<path d="M10 42H8V44H10V42Z" fill="#5F3F28"/>
<path d="M12 42H10V44H12V42Z" fill="#D9A15E"/>
<path d="M48 42H12V44H48V42Z" fill="#5F3F28"/>
<path d="M50 42H48V44H50V42Z" fill="#D9A15E"/>
<path d="M52 42H50V44H52V42Z" fill="#5F3F28"/>
<path d="M10 44H8V46H10V44Z" fill="#5F3F28"/>
<path d="M50 44H10V46H50V44Z" fill="#D9A15E"/>
<path d="M52 44H50V46H52V44Z" fill="#5F3F28"/>
<path d="M52 46H8V48H52V46Z" fill="#5F3F28"/>
<path d="M16 48H12V50H16V48Z" fill="#B97B3F"/>
<path d="M48 48H44V50H48V48Z" fill="#B97B3F"/>
<path d="M16 50H12V52H16V50Z" fill="#B97B3F"/>
<path d="M48 50H44V52H48V50Z" fill="#B97B3F"/>
<path d="M16 52H12V54H16V52Z" fill="#B97B3F"/>
<path d="M48 52H44V54H48V52Z" fill="#B97B3F"/>
</svg>
