<svg width="32" height="32" viewBox="0 0 32 32" fill="none" xmlns="http://www.w3.org/2000/svg">
<path d="M16 10.6667C5.72839 10.6667 1.16324 15.8 2.30452 20C2.30452 21.2445 3.82624 21.8667 6.86968 21.8667H25.1303C28.1738 21.8667 29.6955 21.2445 29.6955 20C30.8368 15.8 26.2716 10.6667 16 10.6667Z" fill="#DDCFA8" stroke="#2A241D" stroke-linejoin="round"/>
<path d="M16 12.2667C7.70369 12.2667 4.01645 16.6667 4.93826 20.2667C4.93826 21.3333 6.16734 21.8667 8.6255 21.8667H23.3745C25.8326 21.8667 27.0617 21.3333 27.0617 20.2667C27.9835 16.6667 24.2963 12.2667 16 12.2667Z" fill="#DDCFA8" stroke="#2A241D" stroke-linejoin="round"/>
<path d="M16 14.4C7.70369 14.4 4.01645 17.0889 4.93826 19.2889C4.93826 19.9408 6.16734 20.2667 8.6255 20.2667H23.3745C25.8326 20.2667 27.0617 19.9408 27.0617 19.2889C27.9835 17.0889 24.2963 14.4 16 14.4Z" fill="#F4EDE0" stroke="#2A241D" stroke-linejoin="round"/>
</svg>
