<svg width="60" height="60" viewBox="0 0 60 60" fill="none" xmlns="http://www.w3.org/2000/svg">
<path d="M30 20C10.7407 20 2.18107 29.625 4.32099 37.5C4.32099 39.8333 7.17421 41 12.8807 41H47.1193C52.8258 41 55.679 39.8333 55.679 37.5C57.8189 29.625 49.2593 20 30 20Z" fill="#DDCFA8" stroke="#2A241D" stroke-width="2.3" stroke-linejoin="round"/>
<path d="M30 23C14.4444 23 7.53086 31.25 9.25926 38C9.25926 40 11.5638 41 16.1728 41H43.8272C48.4362 41 50.7407 40 50.7407 38C52.4691 31.25 45.5556 23 30 23Z" fill="#DDCFA8" stroke="#2A241D" stroke-width="2.3" stroke-linejoin="round"/>
<path d="M30 27C14.4444 27 7.53086 32.0417 9.25926 36.1667C9.25926 37.3889 11.5638 38 16.1728 38H43.8272C48.4362 38 50.7407 37.3889 50.7407 36.1667C52.4691 32.0417 45.5556 27 30 27Z" fill="#F4EDE0" stroke="#2A241D" stroke-width="2.3" stroke-linejoin="round"/>
</svg>
