<svg width="60" height="60" viewBox="0 0 60 60" fill="none" xmlns="http://www.w3.org/2000/svg">
<path d="M28 4H26V6H28V4Z" fill="#5F3F28"/>
<path d="M34 4H32V6H34V4Z" fill="#5F3F28"/>
<path d="M32 2H28V4H32V2Z" fill="#5F3F28"/>
<path d="M26 6H24V8H26V6Z" fill="#5F3F28"/>
<path d="M32 4H28V8H32V4Z" fill="#74904D"/>
<path d="M36 6H34V8H36V6Z" fill="#5F3F28"/>
<path d="M26 8H24V10H26V8Z" fill="#5F3F28"/>
<path d="M32 8H28V10H32V8Z" fill="#74904D"/>
<path d="M36 8H34V10H36V8Z" fill="#5F3F28"/>
<path d="M26 10H24V12H26V10Z" fill="#5F3F28"/>
<path d="M32 10H28V12H32V10Z" fill="#74904D"/>
<path d="M36 10H34V12H36V10Z" fill="#5F3F28"/>
<path d="M26 12H24V14H26V12Z" fill="#5F3F28"/>
<path d="M26 14H24V16H26V14Z" fill="#5F3F28"/>
<path d="M28 6H26V16H28V6Z" fill="#A9BF7E"/>
<path d="M32 12H28V14H32V12Z" fill="#74904D"/>
<path d="M32 14H28V16H32V14Z" fill="#74904D"/>
<path d="M34 6H32V16H34V6Z" fill="#A9BF7E"/>
<path d="M36 12H34V14H36V12Z" fill="#5F3F28"/>
<path d="M36 14H34V16H36V14Z" fill="#5F3F28"/>
<path d="M34 16H26V18H34V16Z" fill="#5F3F28"/>
<path d="M20 14H12V16H20V14Z" fill="#5F3F28"/>
<path d="M32 18H28V20H32V18Z" fill="#74904D"/>
<path d="M48 14H40V16H48V14Z" fill="#5F3F28"/>
<path d="M12 14H10V16H12V14Z" fill="#5F3F28"/>
<path d="M16 16H14V18H16V16Z" fill="#A9BF7E"/>
<path d="M18 16H16V18H18V16Z" fill="#A9BF7E"/>
<path d="M14 18H12V20H14V18Z" fill="#A9BF7E"/>
<path d="M20 16H18V18H20V16Z" fill="#A9BF7E"/>
<path d="M22 16H20V18H22V16Z" fill="#5F3F28"/>
<path d="M32 20H28V24H32V20Z" fill="#74904D"/>
<path d="M40 16H38V18H40V16Z" fill="#5F3F28"/>
<path d="M46 16H40V18H46V16Z" fill="#A9BF7E"/>
<path d="M50 14H48V16H50V14Z" fill="#5F3F28"/>
<path d="M48 20H46V22H48V20Z" fill="#5F3F28"/>
<path d="M10 14H8V16H10V14Z" fill="#5F3F28"/>
<path d="M10 16H8V18H10V16Z" fill="#5F3F28"/>
<path d="M16 18H14V20H16V18Z" fill="#74904D"/>
<path d="M14 16H10V18H14V16Z" fill="#74904D"/>
<path d="M18 20H16V22H18V20Z" fill="#74904D"/>
<path d="M20 20H18V22H20V20Z" fill="#74904D"/>
<path d="M22 18H20V20H22V18Z" fill="#5F3F28"/>
<path d="M24 22H20V24H24V22Z" fill="#74904D"/>
<path d="M28 24H24V26H28V24Z" fill="#74904D"/>
<path d="M34 24H32V26H34V24Z" fill="#74904D"/>
<path d="M36 22H34V24H36V22Z" fill="#74904D"/>
<path d="M38 20H36V22H38V20Z" fill="#74904D"/>
<path d="M40 18H38V20H40V18Z" fill="#5F3F28"/>
<path d="M46 18H42V20H46V18Z" fill="#74904D"/>
<path d="M48 16H46V18H48V16Z" fill="#74904D"/>
<path d="M42 20H40V22H42V20Z" fill="#74904D"/>
<path d="M50 16H48V18H50V16Z" fill="#5F3F28"/>
<path d="M12 18H10V22H12V18Z" fill="#5F3F28"/>
<path d="M16 20H12V22H16V20Z" fill="#A9BF7E"/>
<path d="M18 18H16V20H18V18Z" fill="#A9BF7E"/>
<path d="M20 18H18V20H20V18Z" fill="#A9BF7E"/>
<path d="M22 20H20V22H22V20Z" fill="#5F3F28"/>
<path d="M32 24H28V26H32V24Z" fill="#74904D"/>
<path d="M40 20H38V22H40V20Z" fill="#5F3F28"/>
<path d="M46 20H42V22H46V20Z" fill="#A9BF7E"/>
<path d="M48 18H46V20H48V18Z" fill="#A9BF7E"/>
<path d="M42 18H40V20H42V18Z" fill="#A9BF7E"/>
<path d="M50 18H48V20H50V18Z" fill="#5F3F28"/>
<path d="M20 22H12V24H20V22Z" fill="#5F3F28"/>
<path d="M32 26H28V28H32V26Z" fill="#74904D"/>
<path d="M46 22H40V24H46V22Z" fill="#5F3F28"/>
<path d="M32 28H28V30H32V28Z" fill="#74904D"/>
<path d="M22 30H18V32H22V30Z" fill="#5F3F28"/>
<path d="M12 30H10V32H12V30Z" fill="#5F3F28"/>
<path d="M10 30H8V32H10V30Z" fill="#5F3F28"/>
<path d="M32 30H28V32H32V30Z" fill="#74904D"/>
<path d="M48 28H40V30H48V28Z" fill="#5F3F28"/>
<path d="M18 28H12V30H18V28Z" fill="#5F3F28"/>
<path d="M22 32H16V34H22V32Z" fill="#A9BF7E"/>
<path d="M24 32H22V34H24V32Z" fill="#5F3F28"/>
<path d="M32 32H28V36H32V32Z" fill="#74904D"/>
<path d="M38 32H36V34H38V32Z" fill="#5F3F28"/>
<path d="M44 32H38V34H44V32Z" fill="#A9BF7E"/>
<path d="M50 30H48V32H50V30Z" fill="#5F3F28"/>
<path d="M12 32H10V36H12V32Z" fill="#5F3F28"/>
<path d="M22 34H16V36H22V34Z" fill="#74904D"/>
<path d="M14 30H12V32H14V30Z" fill="#74904D"/>
<path d="M16 32H14V34H16V32Z" fill="#74904D"/>
<path d="M24 34H22V36H24V34Z" fill="#5F3F28"/>
<path d="M36 34H34V36H36V34Z" fill="#74904D"/>
<path d="M26 36H24V38H26V36Z" fill="#74904D"/>
<path d="M26 38H24V40H26V38Z" fill="#74904D"/>
<path d="M28 40H26V42H28V40Z" fill="#74904D"/>
<path d="M38 34H36V36H38V34Z" fill="#5F3F28"/>
<path d="M48 30H46V32H48V30Z" fill="#74904D"/>
<path d="M46 32H44V34H46V32Z" fill="#74904D"/>
<path d="M44 34H38V36H44V34Z" fill="#74904D"/>
<path d="M40 30H38V32H40V30Z" fill="#5F3F28"/>
<path d="M14 36H12V38H14V36Z" fill="#5F3F28"/>
<path d="M22 36H14V38H22V36Z" fill="#A9BF7E"/>
<path d="M16 34H12V36H16V34Z" fill="#A9BF7E"/>
<path d="M18 30H14V32H18V30Z" fill="#A9BF7E"/>
<path d="M14 32H12V34H14V32Z" fill="#A9BF7E"/>
<path d="M24 36H22V38H24V36Z" fill="#5F3F28"/>
<path d="M34 36H28V38H34V36Z" fill="#74904D"/>
<path d="M38 36H36V38H38V36Z" fill="#5F3F28"/>
<path d="M46 36H38V38H46V36Z" fill="#A9BF7E"/>
<path d="M46 34H44V36H46V34Z" fill="#A9BF7E"/>
<path d="M46 30H40V32H46V30Z" fill="#A9BF7E"/>
<path d="M48 32H46V38H48V32Z" fill="#5F3F28"/>
<path d="M22 38H14V40H22V38Z" fill="#5F3F28"/>
<path d="M32 38H28V40H32V38Z" fill="#74904D"/>
<path d="M46 38H38V40H46V38Z" fill="#5F3F28"/>
<path d="M32 40H28V42H32V40Z" fill="#74904D"/>
<path d="M32 42H28V44H32V42Z" fill="#74904D"/>
<path d="M28 44H18V46H28V44Z" fill="#5F3F28"/>
<path d="M32 44H28V46H32V44Z" fill="#74904D"/>
<path d="M42 44H32V46H42V44Z" fill="#5F3F28"/>
<path d="M42 46H18V48H42V46Z" fill="#5F3F28"/>
<path d="M40 48H20V50H40V48Z" fill="#5F3F28"/>
<path d="M22 50H20V52H22V50Z" fill="#5F3F28"/>
<path d="M38 50H22V52H38V50Z" fill="#FBF2DF"/>
<path d="M40 50H38V52H40V50Z" fill="#5F3F28"/>
<path d="M22 52H20V54H22V52Z" fill="#5F3F28"/>
<path d="M26 52H22V54H26V52Z" fill="#FBF2DF"/>
<path d="M28 52H26V54H28V52Z" fill="#F2A7B4"/>
<path d="M30 52H28V54H30V52Z" fill="#FBF2DF"/>
<path d="M32 52H30V54H32V52Z" fill="#F2A7B4"/>
<path d="M38 52H32V54H38V52Z" fill="#FBF2DF"/>
<path d="M40 52H38V54H40V52Z" fill="#5F3F28"/>
<path d="M22 54H20V58H22V54Z" fill="#5F3F28"/>
<path d="M26 54H22V56H26V54Z" fill="#FBF2DF"/>
<path d="M28 56H22V58H28V56Z" fill="#FBF2DF"/>
<path d="M32 54H26V56H32V54Z" fill="#F2A7B4"/>
<path d="M38 54H32V56H38V54Z" fill="#FBF2DF"/>
<path d="M38 56H30V58H38V56Z" fill="#FBF2DF"/>
<path d="M40 54H38V58H40V54Z" fill="#5F3F28"/>
<path d="M28 58H20V60H28V58Z" fill="#5F3F28"/>
<path d="M30 56H28V58H30V56Z" fill="#F2A7B4"/>
<path d="M40 58H28V60H40V58Z" fill="#5F3F28"/>
</svg>
