<svg width="60" height="60" viewBox="0 0 60 60" fill="none" xmlns="http://www.w3.org/2000/svg">
<path d="M23.5535 41.3913H36.7709L35.1187 48H25.2057L23.5535 41.3913Z" fill="#DDCFA8" stroke="#2A241D" stroke-width="2.3" stroke-linejoin="round"/>
<path d="M30.1622 41.3913V26.5217" fill="none" stroke="#2A241D" stroke-width="2.3" stroke-linecap="round" stroke-linejoin="round"/>
<path d="M30.1622 26.5217C32.8996 26.5217 35.1187 23.0081 35.1187 18.6739C35.1187 14.3397 32.8996 10.8261 30.1622 10.8261C27.4248 10.8261 25.2057 14.3397 25.2057 18.6739C25.2057 23.0081 27.4248 26.5217 30.1622 26.5217Z" fill="#F4EDE0" stroke="#2A241D" stroke-width="2.3" stroke-linejoin="round"/>
<path d="M30.7899 26.6576C32.5053 27.2804 35.158 24.3087 36.7149 20.0202C38.2718 15.7317 38.1433 11.7503 36.4279 11.1276C34.7125 10.5048 32.0598 13.4765 30.5029 17.765C28.946 22.0535 29.0745 26.0349 30.7899 26.6576Z" fill="#F4EDE0" stroke="#2A241D" stroke-width="2.3" stroke-linejoin="round"/>
<path d="M30.0423 26.9854C31.6572 26.1354 31.2437 22.1735 29.1188 18.1362C26.9938 14.0989 23.962 11.5151 22.3471 12.3651C20.7322 13.2151 21.1457 17.177 23.2707 21.2143C25.3956 25.2516 28.4274 27.8354 30.0423 26.9854Z" fill="#F4EDE0" stroke="#2A241D" stroke-width="2.3" stroke-linejoin="round"/>
<path d="M30.1622 35.6087C25.2057 34.5073 22.1767 32.029 21.0753 28.1739" fill="none" stroke="#2A241D" stroke-width="2.3" stroke-linecap="round" stroke-linejoin="round"/>
<path d="M30.1622 38.0864C35.1187 36.9849 38.1477 34.5067 39.2492 30.6516" fill="none" stroke="#2A241D" stroke-width="2.3" stroke-linecap="round" stroke-linejoin="round"/>
<path d="M45.0753 26.9144C45.6033 32.5903 40.7488 37.3781 35.3663 36.49C34.5528 31.0958 39.4073 26.308 45.0753 26.9144Z" fill="#6E9C4F" stroke="#2A241D" stroke-width="2.3" stroke-linejoin="round"/>
<path d="M16.4974 25.2482C21.4206 24.7559 25.6054 28.9407 24.8669 33.6177C20.1898 34.3562 16.0051 30.1715 16.4974 25.2482Z" fill="#6E9C4F" stroke="#2A241D" stroke-width="2.3" stroke-linejoin="round"/>
</svg>
