<svg width="32" height="32" viewBox="0 0 32 32" fill="none" xmlns="http://www.w3.org/2000/svg">
<path d="M12.5619 22.0754H19.6111L18.73 25.6H13.443L12.5619 22.0754Z" fill="#DDCFA8" stroke="#2A241D" stroke-linejoin="round"/>
<path d="M16.0865 22.0753V14.1449" stroke="#2A241D" stroke-linecap="round" stroke-linejoin="round"/>
<path d="M16.0865 14.1449C17.5465 14.1449 18.73 12.271 18.73 9.95943C18.73 7.64784 17.5465 5.77393 16.0865 5.77393C14.6265 5.77393 13.443 7.64784 13.443 9.95943C13.443 12.271 14.6265 14.1449 16.0865 14.1449Z" fill="#F4EDE0" stroke="#2A241D" stroke-linejoin="round"/>
<path d="M16.4213 14.2174C17.3362 14.5495 18.751 12.9646 19.5813 10.6774C20.4116 8.39021 20.3431 6.26682 19.4282 5.93469C18.5133 5.60256 17.0986 7.18745 16.2682 9.47465C15.4379 11.7619 15.5064 13.8852 16.4213 14.2174Z" fill="#F4EDE0" stroke="#2A241D" stroke-linejoin="round"/>
<path d="M16.0226 14.3922C16.8839 13.9389 16.6633 11.8258 15.53 9.67263C14.3967 7.51941 12.7798 6.14138 11.9185 6.59471C11.0572 7.04803 11.2777 9.16105 12.411 11.3143C13.5443 13.4675 15.1613 14.8455 16.0226 14.3922Z" fill="#F4EDE0" stroke="#2A241D" stroke-linejoin="round"/>
<path d="M16.0865 18.9913C13.443 18.4038 11.8276 17.0821 11.2401 15.0261" stroke="#2A241D" stroke-linecap="round" stroke-linejoin="round"/>
<path d="M16.0865 20.3128C18.73 19.7253 20.3455 18.4036 20.9329 16.3475" stroke="#2A241D" stroke-linecap="round" stroke-linejoin="round"/>
<path d="M24.0402 14.3544C24.3217 17.3815 21.7327 19.935 18.862 19.4613C18.4282 16.5844 21.0172 14.0309 24.0402 14.3544Z" fill="#6E9C4F" stroke="#2A241D" stroke-linejoin="round"/>
<path d="M8.79861 13.4657C11.4243 13.2031 13.6562 15.435 13.2623 17.9295C10.7679 18.3233 8.53604 16.0914 8.79861 13.4657Z" fill="#6E9C4F" stroke="#2A241D" stroke-linejoin="round"/>
</svg>
