<svg width="32" height="32" viewBox="0 0 32 32" fill="none" xmlns="http://www.w3.org/2000/svg">
<path d="M22.8444 6.93335H9.15555C8.8119 6.93335 8.53333 7.20294 8.53333 7.5355V24.9979C8.53333 25.3304 8.8119 25.6 9.15555 25.6H22.8444C23.1881 25.6 23.4667 25.3304 23.4667 24.9979V7.5355C23.4667 7.20294 23.1881 6.93335 22.8444 6.93335Z" fill="#DDCFA8" stroke="#2A241D" stroke-linejoin="round"/>
<path d="M20.8889 9.06665H11.1111C10.8657 9.06665 10.6667 9.27462 10.6667 9.53117V23.0021C10.6667 23.2587 10.8657 23.4667 11.1111 23.4667H20.8889C21.1344 23.4667 21.3333 23.2587 21.3333 23.0021V9.53117C21.3333 9.27462 21.1344 9.06665 20.8889 9.06665Z" fill="#F4EDE0" stroke="#2A241D" stroke-linejoin="round"/>
<path d="M20.8889 23.4666C21.1344 23.4666 21.3333 23.262 21.3333 23.0095V20.0381L18.6667 17.7524L16.2222 20.0381L12.8889 13.8666L10.6667 16.3809V23.0095C10.6667 23.262 10.8657 23.4666 11.1111 23.4666H20.8889Z" fill="#6E9C4F" stroke="#2A241D" stroke-linejoin="round"/>
<path d="M17.8667 13.8667C18.6031 13.8667 19.2 13.2697 19.2 12.5333C19.2 11.797 18.6031 11.2 17.8667 11.2C17.1303 11.2 16.5333 11.797 16.5333 12.5333C16.5333 13.2697 17.1303 13.8667 17.8667 13.8667Z" fill="#DDCFA8" stroke="#2A241D" stroke-linecap="round" stroke-linejoin="round"/>
</svg>
