<svg width="60" height="60" viewBox="0 0 60 60" fill="none" xmlns="http://www.w3.org/2000/svg">
<path d="M50 6H10V8H50V6Z" fill="#5F3F28"/>
<path d="M44 12H16V46H44V12Z" fill="#FBF2DF"/>
<path d="M12 8H10V10H12V8Z" fill="#5F3F28"/>
<path d="M48 8H12V10H48V8Z" fill="#E9BD7F"/>
<path d="M50 8H48V10H50V8Z" fill="#5F3F28"/>
<path d="M12 10H10V12H12V10Z" fill="#5F3F28"/>
<path d="M14 10H12V12H14V10Z" fill="#D9A15E"/>
<path d="M46 10H14V12H46V10Z" fill="#5F3F28"/>
<path d="M48 10H46V12H48V10Z" fill="#D9A15E"/>
<path d="M50 10H48V12H50V10Z" fill="#5F3F28"/>
<path d="M12 12H10V14H12V12Z" fill="#5F3F28"/>
<path d="M14 12H12V14H14V12Z" fill="#D9A15E"/>
<path d="M16 12H14V14H16V12Z" fill="#5F3F28"/>
<path d="M46 12H44V14H46V12Z" fill="#5F3F28"/>
<path d="M48 12H46V14H48V12Z" fill="#D9A15E"/>
<path d="M50 12H48V14H50V12Z" fill="#5F3F28"/>
<path d="M12 14H10V16H12V14Z" fill="#5F3F28"/>
<path d="M14 14H12V16H14V14Z" fill="#D9A15E"/>
<path d="M16 14H14V16H16V14Z" fill="#5F3F28"/>
<path d="M46 14H44V16H46V14Z" fill="#5F3F28"/>
<path d="M48 14H46V16H48V14Z" fill="#D9A15E"/>
<path d="M50 14H48V16H50V14Z" fill="#5F3F28"/>
<path d="M12 16H10V18H12V16Z" fill="#5F3F28"/>
<path d="M14 16H12V18H14V16Z" fill="#D9A15E"/>
<path d="M16 16H14V18H16V16Z" fill="#5F3F28"/>
<path d="M46 16H44V18H46V16Z" fill="#5F3F28"/>
<path d="M48 16H46V18H48V16Z" fill="#D9A15E"/>
<path d="M50 16H48V18H50V16Z" fill="#5F3F28"/>
<path d="M12 18H10V20H12V18Z" fill="#5F3F28"/>
<path d="M14 18H12V20H14V18Z" fill="#D9A15E"/>
<path d="M16 18H14V20H16V18Z" fill="#5F3F28"/>
<path d="M46 18H44V20H46V18Z" fill="#5F3F28"/>
<path d="M48 18H46V20H48V18Z" fill="#D9A15E"/>
<path d="M50 18H48V20H50V18Z" fill="#5F3F28"/>
<path d="M12 20H10V22H12V20Z" fill="#5F3F28"/>
<path d="M14 20H12V22H14V20Z" fill="#D9A15E"/>
<path d="M16 20H14V22H16V20Z" fill="#5F3F28"/>
<path d="M30 16H28V18H30V16Z" fill="#F2A7B4"/>
<path d="M28 18H26V20H28V18Z" fill="#CF5B5B"/>
<path d="M28 16H26V18H28V16Z" fill="#CF5B5B"/>
<path d="M32 16H30V22H32V16Z" fill="#CF5B5B"/>
<path d="M30 22H28V24H30V22Z" fill="#CF5B5B"/>
<path d="M46 20H44V22H46V20Z" fill="#5F3F28"/>
<path d="M48 20H46V22H48V20Z" fill="#D9A15E"/>
<path d="M50 20H48V22H50V20Z" fill="#5F3F28"/>
<path d="M12 22H10V24H12V22Z" fill="#5F3F28"/>
<path d="M14 22H12V24H14V22Z" fill="#D9A15E"/>
<path d="M16 22H14V24H16V22Z" fill="#5F3F28"/>
<path d="M30 18H28V20H30V18Z" fill="#F2A7B4"/>
<path d="M28 20H26V22H28V20Z" fill="#CF5B5B"/>
<path d="M28 22H26V24H28V22Z" fill="#F2A7B4"/>
<path d="M32 22H30V24H32V22Z" fill="#F2A7B4"/>
<path d="M26 18H24V20H26V18Z" fill="#F2A7B4"/>
<path d="M26 20H24V22H26V20Z" fill="#F2A7B4"/>
<path d="M26 16H24V18H26V16Z" fill="#F2A7B4"/>
<path d="M28 14H26V16H28V14Z" fill="#F2A7B4"/>
<path d="M32 14H30V16H32V14Z" fill="#F2A7B4"/>
<path d="M46 22H44V24H46V22Z" fill="#5F3F28"/>
<path d="M48 22H46V24H48V22Z" fill="#D9A15E"/>
<path d="M50 22H48V24H50V22Z" fill="#5F3F28"/>
<path d="M12 24H10V26H12V24Z" fill="#5F3F28"/>
<path d="M14 24H12V26H14V24Z" fill="#D9A15E"/>
<path d="M16 24H14V26H16V24Z" fill="#5F3F28"/>
<path d="M30 20H28V22H30V20Z" fill="#F2A7B4"/>
<path d="M34 16H32V22H34V16Z" fill="#F2A7B4"/>
<path d="M30 24H28V26H30V24Z" fill="#74904D"/>
<path d="M46 24H44V26H46V24Z" fill="#5F3F28"/>
<path d="M48 24H46V26H48V24Z" fill="#D9A15E"/>
<path d="M50 24H48V26H50V24Z" fill="#5F3F28"/>
<path d="M12 26H10V28H12V26Z" fill="#5F3F28"/>
<path d="M14 26H12V28H14V26Z" fill="#D9A15E"/>
<path d="M16 26H14V28H16V26Z" fill="#5F3F28"/>
<path d="M24 26H22V28H24V26Z" fill="#74904D"/>
<path d="M30 26H28V28H30V26Z" fill="#74904D"/>
<path d="M46 26H44V28H46V26Z" fill="#5F3F28"/>
<path d="M48 26H46V28H48V26Z" fill="#D9A15E"/>
<path d="M50 26H48V28H50V26Z" fill="#5F3F28"/>
<path d="M12 28H10V30H12V28Z" fill="#5F3F28"/>
<path d="M14 28H12V30H14V28Z" fill="#D9A15E"/>
<path d="M16 28H14V30H16V28Z" fill="#5F3F28"/>
<path d="M24 28H22V30H24V28Z" fill="#74904D"/>
<path d="M26 28H24V30H26V28Z" fill="#A9BF7E"/>
<path d="M30 28H28V30H30V28Z" fill="#74904D"/>
<path d="M36 28H34V30H36V28Z" fill="#A9BF7E"/>
<path d="M38 28H36V30H38V28Z" fill="#74904D"/>
<path d="M46 28H44V30H46V28Z" fill="#5F3F28"/>
<path d="M48 28H46V30H48V28Z" fill="#D9A15E"/>
<path d="M50 28H48V30H50V28Z" fill="#5F3F28"/>
<path d="M12 30H10V32H12V30Z" fill="#5F3F28"/>
<path d="M14 30H12V32H14V30Z" fill="#D9A15E"/>
<path d="M16 30H14V32H16V30Z" fill="#5F3F28"/>
<path d="M24 30H22V32H24V30Z" fill="#74904D"/>
<path d="M28 30H24V32H28V30Z" fill="#7BA6CF"/>
<path d="M30 30H28V32H30V30Z" fill="#74904D"/>
<path d="M36 30H30V32H36V30Z" fill="#7BA6CF"/>
<path d="M38 30H36V32H38V30Z" fill="#74904D"/>
<path d="M46 30H44V32H46V30Z" fill="#5F3F28"/>
<path d="M48 30H46V32H48V30Z" fill="#D9A15E"/>
<path d="M50 30H48V32H50V30Z" fill="#5F3F28"/>
<path d="M12 32H10V34H12V32Z" fill="#5F3F28"/>
<path d="M14 32H12V34H14V32Z" fill="#D9A15E"/>
<path d="M16 32H14V34H16V32Z" fill="#5F3F28"/>
<path d="M36 32H24V34H36V32Z" fill="#5F3F28"/>
<path d="M46 32H44V34H46V32Z" fill="#5F3F28"/>
<path d="M48 32H46V34H48V32Z" fill="#D9A15E"/>
<path d="M50 32H48V34H50V32Z" fill="#5F3F28"/>
<path d="M12 34H10V36H12V34Z" fill="#5F3F28"/>
<path d="M14 34H12V36H14V34Z" fill="#D9A15E"/>
<path d="M16 34H14V36H16V34Z" fill="#5F3F28"/>
<path d="M26 34H24V36H26V34Z" fill="#5F3F28"/>
<path d="M34 34H26V36H34V34Z" fill="#7BA6CF"/>
<path d="M36 34H34V36H36V34Z" fill="#5F3F28"/>
<path d="M46 34H44V36H46V34Z" fill="#5F3F28"/>
<path d="M48 34H46V36H48V34Z" fill="#D9A15E"/>
<path d="M50 34H48V36H50V34Z" fill="#5F3F28"/>
<path d="M12 36H10V38H12V36Z" fill="#5F3F28"/>
<path d="M14 36H12V38H14V36Z" fill="#D9A15E"/>
<path d="M16 36H14V38H16V36Z" fill="#5F3F28"/>
<path d="M26 36H24V38H26V36Z" fill="#5F3F28"/>
<path d="M34 36H26V38H34V36Z" fill="#A9C8E6"/>
<path d="M36 36H34V38H36V36Z" fill="#5F3F28"/>
<path d="M46 36H44V38H46V36Z" fill="#5F3F28"/>
<path d="M48 36H46V38H48V36Z" fill="#D9A15E"/>
<path d="M50 36H48V38H50V36Z" fill="#5F3F28"/>
<path d="M12 38H10V40H12V38Z" fill="#5F3F28"/>
<path d="M14 38H12V40H14V38Z" fill="#D9A15E"/>
<path d="M16 38H14V40H16V38Z" fill="#5F3F28"/>
<path d="M26 38H24V40H26V38Z" fill="#5F3F28"/>
<path d="M34 38H26V40H34V38Z" fill="#A9C8E6"/>
<path d="M36 38H34V40H36V38Z" fill="#5F3F28"/>
<path d="M46 38H44V40H46V38Z" fill="#5F3F28"/>
<path d="M48 38H46V40H48V38Z" fill="#D9A15E"/>
<path d="M50 38H48V40H50V38Z" fill="#5F3F28"/>
<path d="M12 40H10V42H12V40Z" fill="#5F3F28"/>
<path d="M14 40H12V42H14V40Z" fill="#D9A15E"/>
<path d="M16 40H14V42H16V40Z" fill="#5F3F28"/>
<path d="M26 40H24V42H26V40Z" fill="#5F3F28"/>
<path d="M34 40H26V42H34V40Z" fill="#A9C8E6"/>
<path d="M36 40H34V42H36V40Z" fill="#5F3F28"/>
<path d="M46 40H44V42H46V40Z" fill="#5F3F28"/>
<path d="M48 40H46V42H48V40Z" fill="#D9A15E"/>
<path d="M50 40H48V42H50V40Z" fill="#5F3F28"/>
<path d="M12 42H10V44H12V42Z" fill="#5F3F28"/>
<path d="M14 42H12V44H14V42Z" fill="#D9A15E"/>
<path d="M16 42H14V44H16V42Z" fill="#5F3F28"/>
<path d="M36 42H24V44H36V42Z" fill="#5F3F28"/>
<path d="M46 42H44V44H46V42Z" fill="#5F3F28"/>
<path d="M48 42H46V44H48V42Z" fill="#D9A15E"/>
<path d="M50 42H48V44H50V42Z" fill="#5F3F28"/>
<path d="M12 44H10V46H12V44Z" fill="#5F3F28"/>
<path d="M14 44H12V46H14V44Z" fill="#D9A15E"/>
<path d="M16 44H14V46H16V44Z" fill="#5F3F28"/>
<path d="M46 44H44V46H46V44Z" fill="#5F3F28"/>
<path d="M48 44H46V46H48V44Z" fill="#D9A15E"/>
<path d="M50 44H48V46H50V44Z" fill="#5F3F28"/>
<path d="M12 46H10V48H12V46Z" fill="#5F3F28"/>
<path d="M14 46H12V48H14V46Z" fill="#D9A15E"/>
<path d="M46 46H14V48H46V46Z" fill="#5F3F28"/>
<path d="M48 46H46V48H48V46Z" fill="#D9A15E"/>
<path d="M50 46H48V48H50V46Z" fill="#5F3F28"/>
<path d="M12 48H10V50H12V48Z" fill="#5F3F28"/>
<path d="M48 48H12V50H48V48Z" fill="#D9A15E"/>
<path d="M50 48H48V50H50V48Z" fill="#5F3F28"/>
<path d="M50 50H10V52H50V50Z" fill="#5F3F28"/>
<path d="M16 4H12V6H16V4Z" fill="#E3D3B4"/>
<path d="M48 4H44V6H48V4Z" fill="#E3D3B4"/>
</svg>
