<svg width="60" height="60" viewBox="0 0 60 60" fill="none" xmlns="http://www.w3.org/2000/svg">
<path d="M44.6667 11H15.3333C14.597 11 14 11.5633 14 12.2581V48.7419C14 49.4367 14.597 50 15.3333 50H44.6667C45.403 50 46 49.4367 46 48.7419V12.2581C46 11.5633 45.403 11 44.6667 11Z" fill="#DDCFA8" stroke="#2A241D" stroke-width="2.3" stroke-linejoin="round"/>
<path d="M41 15H19C18.4477 15 18 15.4477 18 16V45C18 45.5523 18.4477 46 19 46H41C41.5523 46 42 45.5523 42 45V16C42 15.4477 41.5523 15 41 15Z" fill="#F4EDE0" stroke="#2A241D" stroke-width="2.3" stroke-linejoin="round"/>
<path d="M18.5 45.5V33.5L22.4 31L29.4 39.4L35 32.4L40.5 45.5H18.5Z" fill="#DDCFA8" stroke="#2A241D" stroke-width="2.3" stroke-linecap="round" stroke-linejoin="round"/>
<path d="M34 26C35.6569 26 37 24.6569 37 23C37 21.3431 35.6569 20 34 20C32.3431 20 31 21.3431 31 23C31 24.6569 32.3431 26 34 26Z" fill="#DDCFA8" stroke="#2A241D" stroke-width="2.3" stroke-linecap="round" stroke-linejoin="round"/>
</svg>
