<svg width="60" height="60" viewBox="0 0 60 60" fill="none" xmlns="http://www.w3.org/2000/svg">
<path d="M30 8H20V10H30V8Z" fill="#5F3F28"/>
<path d="M20 10H18V12H20V10Z" fill="#5F3F28"/>
<path d="M30 10H20V12H30V10Z" fill="#FBF2DF"/>
<path d="M32 10H30V12H32V10Z" fill="#5F3F28"/>
<path d="M18 12H16V14H18V12Z" fill="#5F3F28"/>
<path d="M32 12H18V14H32V12Z" fill="#FBF2DF"/>
<path d="M42 12H36V14H42V12Z" fill="#5F3F28"/>
<path d="M18 14H16V16H18V14Z" fill="#5F3F28"/>
<path d="M32 14H18V16H32V14Z" fill="#FBF2DF"/>
<path d="M36 14H34V16H36V14Z" fill="#5F3F28"/>
<path d="M42 14H36V16H42V14Z" fill="#FBF2DF"/>
<path d="M44 14H42V16H44V14Z" fill="#5F3F28"/>
<path d="M18 16H16V18H18V16Z" fill="#5F3F28"/>
<path d="M32 16H18V18H32V16Z" fill="#FBF2DF"/>
<path d="M34 12H32V18H34V12Z" fill="#5F3F28"/>
<path d="M44 16H34V18H44V16Z" fill="#FBF2DF"/>
<path d="M46 16H44V18H46V16Z" fill="#5F3F28"/>
<path d="M18 18H12V20H18V18Z" fill="#5F3F28"/>
<path d="M44 18H18V20H44V18Z" fill="#FBF2DF"/>
<path d="M48 18H44V20H48V18Z" fill="#5F3F28"/>
<path d="M12 20H10V22H12V20Z" fill="#5F3F28"/>
<path d="M16 20H12V22H16V20Z" fill="#FBF2DF"/>
<path d="M18 20H16V22H18V20Z" fill="#5F3F28"/>
<path d="M44 20H18V22H44V20Z" fill="#FBF2DF"/>
<path d="M46 20H44V22H46V20Z" fill="#5F3F28"/>
<path d="M48 20H46V22H48V20Z" fill="#FBF2DF"/>
<path d="M50 20H48V22H50V20Z" fill="#5F3F28"/>
<path d="M10 22H8V24H10V22Z" fill="#5F3F28"/>
<path d="M50 22H10V24H50V22Z" fill="#FBF2DF"/>
<path d="M52 22H50V24H52V22Z" fill="#5F3F28"/>
<path d="M10 24H8V26H10V24Z" fill="#5F3F28"/>
<path d="M22 24H10V26H22V24Z" fill="#FBF2DF"/>
<path d="M26 24H22V26H26V24Z" fill="#5F3F28"/>
<path d="M34 24H26V26H34V24Z" fill="#FBF2DF"/>
<path d="M38 24H34V26H38V24Z" fill="#5F3F28"/>
<path d="M50 24H38V26H50V24Z" fill="#FBF2DF"/>
<path d="M52 24H50V26H52V24Z" fill="#5F3F28"/>
<path d="M10 26H8V28H10V26Z" fill="#5F3F28"/>
<path d="M50 26H10V28H50V26Z" fill="#FBF2DF"/>
<path d="M52 26H50V28H52V26Z" fill="#5F3F28"/>
<path d="M10 28H8V30H10V28Z" fill="#5F3F28"/>
<path d="M20 28H10V30H20V28Z" fill="#FBF2DF"/>
<path d="M22 28H20V30H22V28Z" fill="#F2A7B4"/>
<path d="M28 28H22V30H28V28Z" fill="#FBF2DF"/>
<path d="M32 28H28V30H32V28Z" fill="#5F3F28"/>
<path d="M38 28H32V30H38V28Z" fill="#FBF2DF"/>
<path d="M40 28H38V30H40V28Z" fill="#F2A7B4"/>
<path d="M50 28H40V30H50V28Z" fill="#FBF2DF"/>
<path d="M52 28H50V30H52V28Z" fill="#5F3F28"/>
<path d="M10 30H8V32H10V30Z" fill="#5F3F28"/>
<path d="M50 30H10V32H50V30Z" fill="#FBF2DF"/>
<path d="M52 30H50V32H52V30Z" fill="#5F3F28"/>
<path d="M10 32H8V34H10V32Z" fill="#5F3F28"/>
<path d="M50 32H10V34H50V32Z" fill="#FBF2DF"/>
<path d="M52 32H50V34H52V32Z" fill="#5F3F28"/>
<path d="M12 34H10V36H12V34Z" fill="#5F3F28"/>
<path d="M48 34H12V36H48V34Z" fill="#EEDDC2"/>
<path d="M50 34H48V36H50V34Z" fill="#5F3F28"/>
<path d="M48 36H12V38H48V36Z" fill="#5F3F28"/>
<path d="M18 40H16V42H18V40Z" fill="#A9C8E6"/>
<path d="M38 40H36V42H38V40Z" fill="#A9C8E6"/>
<path d="M18 42H16V44H18V42Z" fill="#A9C8E6"/>
<path d="M38 42H36V44H38V42Z" fill="#A9C8E6"/>
<path d="M18 44H16V46H18V44Z" fill="#A9C8E6"/>
<path d="M28 44H26V46H28V44Z" fill="#7BA6CF"/>
<path d="M38 44H36V46H38V44Z" fill="#A9C8E6"/>
<path d="M48 44H46V46H48V44Z" fill="#7BA6CF"/>
<path d="M28 46H26V48H28V46Z" fill="#7BA6CF"/>
<path d="M48 46H46V48H48V46Z" fill="#7BA6CF"/>
<path d="M28 48H26V50H28V48Z" fill="#7BA6CF"/>
<path d="M48 48H46V50H48V48Z" fill="#7BA6CF"/>
</svg>
