<svg width="32" height="32" viewBox="0 0 32 32" fill="none" xmlns="http://www.w3.org/2000/svg">
<path d="M10.1333 17.0667C9.45153 16.6629 8.91588 16.0526 8.60391 15.3242C8.29194 14.5958 8.21983 13.787 8.39801 13.0149C8.57619 12.2428 8.99542 11.5474 9.59503 11.0294C10.1946 10.5113 10.9435 10.1975 11.7333 10.1333C12.087 9.33262 12.6785 8.66007 13.4274 8.20691C14.1764 7.75375 15.0466 7.54192 15.92 7.60015C16.7934 7.65838 17.6278 7.98385 18.31 8.53241C18.9921 9.08098 19.489 9.82609 19.7333 10.6667C20.582 10.5252 21.4522 10.7267 22.1523 11.2268C22.8524 11.7269 23.3252 12.4846 23.4667 13.3333C23.6081 14.182 23.4066 15.0522 22.9065 15.7523C22.4064 16.4524 21.6487 16.9252 20.8 17.0667H10.1333Z" fill="#DDCFA8" stroke="#2A241D" stroke-linejoin="round"/>
<path d="M12.2667 20.2667L11.2 24" stroke="#2A241D" stroke-linecap="round" stroke-linejoin="round"/>
<path d="M16 20.2667L14.9333 24" stroke="#2A241D" stroke-linecap="round" stroke-linejoin="round"/>
<path d="M19.7333 20.2667L18.6667 24" stroke="#2A241D" stroke-linecap="round" stroke-linejoin="round"/>
</svg>
