<svg width="60" height="60" viewBox="0 0 60 60" fill="none" xmlns="http://www.w3.org/2000/svg">
<path d="M10 12H8V14H10V12Z" fill="#EEDDC2"/>
<path d="M14 12H12V14H14V12Z" fill="#EEDDC2"/>
<path d="M18 12H16V14H18V12Z" fill="#EEDDC2"/>
<path d="M22 12H20V14H22V12Z" fill="#EEDDC2"/>
<path d="M26 12H24V14H26V12Z" fill="#EEDDC2"/>
<path d="M30 12H28V14H30V12Z" fill="#EEDDC2"/>
<path d="M34 12H32V14H34V12Z" fill="#EEDDC2"/>
<path d="M38 12H36V14H38V12Z" fill="#EEDDC2"/>
<path d="M42 12H40V14H42V12Z" fill="#EEDDC2"/>
<path d="M46 12H44V14H46V12Z" fill="#EEDDC2"/>
<path d="M50 12H48V14H50V12Z" fill="#EEDDC2"/>
<path d="M50 14H10V16H50V14Z" fill="#5F3F28"/>
<path d="M10 16H8V18H10V16Z" fill="#5F3F28"/>
<path d="M50 16H10V18H50V16Z" fill="#FBF2DF"/>
<path d="M52 16H50V18H52V16Z" fill="#5F3F28"/>
<path d="M8 18H6V20H8V18Z" fill="#5F3F28"/>
<path d="M52 18H8V20H52V18Z" fill="#FBF2DF"/>
<path d="M54 18H52V20H54V18Z" fill="#5F3F28"/>
<path d="M8 20H6V22H8V20Z" fill="#5F3F28"/>
<path d="M12 20H8V22H12V20Z" fill="#FBF2DF"/>
<path d="M48 20H12V22H48V20Z" fill="#EEDDC2"/>
<path d="M52 20H48V22H52V20Z" fill="#FBF2DF"/>
<path d="M54 20H52V22H54V20Z" fill="#5F3F28"/>
<path d="M8 22H6V24H8V22Z" fill="#5F3F28"/>
<path d="M12 22H8V24H12V22Z" fill="#FBF2DF"/>
<path d="M14 22H12V24H14V22Z" fill="#EEDDC2"/>
<path d="M46 22H14V24H46V22Z" fill="#FBF2DF"/>
<path d="M48 22H46V24H48V22Z" fill="#EEDDC2"/>
<path d="M52 22H48V24H52V22Z" fill="#FBF2DF"/>
<path d="M54 22H52V24H54V22Z" fill="#5F3F28"/>
<path d="M8 24H6V26H8V24Z" fill="#5F3F28"/>
<path d="M12 24H8V26H12V24Z" fill="#FBF2DF"/>
<path d="M14 24H12V26H14V24Z" fill="#EEDDC2"/>
<path d="M16 24H14V26H16V24Z" fill="#FBF2DF"/>
<path d="M18 24H16V26H18V24Z" fill="#F2A7B4"/>
<path d="M26 24H18V26H26V24Z" fill="#FBF2DF"/>
<path d="M28 24H26V26H28V24Z" fill="#F2A7B4"/>
<path d="M30 24H28V26H30V24Z" fill="#FBF2DF"/>
<path d="M32 24H30V26H32V24Z" fill="#F2A7B4"/>
<path d="M42 24H32V26H42V24Z" fill="#FBF2DF"/>
<path d="M44 24H42V26H44V24Z" fill="#F2A7B4"/>
<path d="M46 24H44V26H46V24Z" fill="#FBF2DF"/>
<path d="M48 24H46V26H48V24Z" fill="#EEDDC2"/>
<path d="M52 24H48V26H52V24Z" fill="#FBF2DF"/>
<path d="M54 24H52V26H54V24Z" fill="#5F3F28"/>
<path d="M8 26H6V28H8V26Z" fill="#5F3F28"/>
<path d="M12 26H8V28H12V26Z" fill="#FBF2DF"/>
<path d="M14 26H12V28H14V26Z" fill="#EEDDC2"/>
<path d="M16 26H14V28H16V26Z" fill="#F2A7B4"/>
<path d="M18 26H16V28H18V26Z" fill="#D96B7A"/>
<path d="M20 26H18V28H20V26Z" fill="#F2A7B4"/>
<path d="M24 26H20V28H24V26Z" fill="#FBF2DF"/>
<path d="M34 26H24V28H34V26Z" fill="#F2A7B4"/>
<path d="M40 26H34V28H40V26Z" fill="#FBF2DF"/>
<path d="M42 26H40V28H42V26Z" fill="#F2A7B4"/>
<path d="M44 26H42V28H44V26Z" fill="#D96B7A"/>
<path d="M46 26H44V28H46V26Z" fill="#F2A7B4"/>
<path d="M48 26H46V28H48V26Z" fill="#EEDDC2"/>
<path d="M52 26H48V28H52V26Z" fill="#FBF2DF"/>
<path d="M54 26H52V28H54V26Z" fill="#5F3F28"/>
<path d="M8 28H6V30H8V28Z" fill="#5F3F28"/>
<path d="M12 28H8V30H12V28Z" fill="#FBF2DF"/>
<path d="M14 28H12V30H14V28Z" fill="#EEDDC2"/>
<path d="M16 28H14V30H16V28Z" fill="#FBF2DF"/>
<path d="M18 28H16V30H18V28Z" fill="#F2A7B4"/>
<path d="M24 28H18V30H24V28Z" fill="#FBF2DF"/>
<path d="M34 28H24V30H34V28Z" fill="#F2A7B4"/>
<path d="M42 28H34V30H42V28Z" fill="#FBF2DF"/>
<path d="M44 28H42V30H44V28Z" fill="#F2A7B4"/>
<path d="M46 28H44V30H46V28Z" fill="#FBF2DF"/>
<path d="M48 28H46V30H48V28Z" fill="#EEDDC2"/>
<path d="M52 28H48V30H52V28Z" fill="#FBF2DF"/>
<path d="M54 28H52V30H54V28Z" fill="#5F3F28"/>
<path d="M8 30H6V32H8V30Z" fill="#5F3F28"/>
<path d="M12 30H8V32H12V30Z" fill="#FBF2DF"/>
<path d="M14 30H12V32H14V30Z" fill="#EEDDC2"/>
<path d="M26 30H14V32H26V30Z" fill="#FBF2DF"/>
<path d="M32 30H26V32H32V30Z" fill="#F2A7B4"/>
<path d="M46 30H32V32H46V30Z" fill="#FBF2DF"/>
<path d="M48 30H46V32H48V30Z" fill="#EEDDC2"/>
<path d="M52 30H48V32H52V30Z" fill="#FBF2DF"/>
<path d="M54 30H52V32H54V30Z" fill="#5F3F28"/>
<path d="M8 32H6V34H8V32Z" fill="#5F3F28"/>
<path d="M12 32H8V34H12V32Z" fill="#FBF2DF"/>
<path d="M14 32H12V34H14V32Z" fill="#EEDDC2"/>
<path d="M28 32H14V34H28V32Z" fill="#FBF2DF"/>
<path d="M30 32H28V34H30V32Z" fill="#F2A7B4"/>
<path d="M46 32H30V34H46V32Z" fill="#FBF2DF"/>
<path d="M48 32H46V34H48V32Z" fill="#EEDDC2"/>
<path d="M52 32H48V34H52V32Z" fill="#FBF2DF"/>
<path d="M54 32H52V34H54V32Z" fill="#5F3F28"/>
<path d="M8 34H6V36H8V34Z" fill="#5F3F28"/>
<path d="M12 34H8V36H12V34Z" fill="#FBF2DF"/>
<path d="M14 34H12V36H14V34Z" fill="#EEDDC2"/>
<path d="M22 34H14V36H22V34Z" fill="#FBF2DF"/>
<path d="M24 34H22V36H24V34Z" fill="#A9BF7E"/>
<path d="M36 34H24V36H36V34Z" fill="#FBF2DF"/>
<path d="M38 34H36V36H38V34Z" fill="#A9BF7E"/>
<path d="M46 34H38V36H46V34Z" fill="#FBF2DF"/>
<path d="M48 34H46V36H48V34Z" fill="#EEDDC2"/>
<path d="M52 34H48V36H52V34Z" fill="#FBF2DF"/>
<path d="M54 34H52V36H54V34Z" fill="#5F3F28"/>
<path d="M8 36H6V38H8V36Z" fill="#5F3F28"/>
<path d="M12 36H8V38H12V36Z" fill="#FBF2DF"/>
<path d="M14 36H12V38H14V36Z" fill="#EEDDC2"/>
<path d="M46 36H14V38H46V36Z" fill="#FBF2DF"/>
<path d="M48 36H46V38H48V36Z" fill="#EEDDC2"/>
<path d="M52 36H48V38H52V36Z" fill="#FBF2DF"/>
<path d="M54 36H52V38H54V36Z" fill="#5F3F28"/>
<path d="M8 38H6V40H8V38Z" fill="#5F3F28"/>
<path d="M12 38H8V40H12V38Z" fill="#FBF2DF"/>
<path d="M48 38H12V40H48V38Z" fill="#EEDDC2"/>
<path d="M52 38H48V40H52V38Z" fill="#FBF2DF"/>
<path d="M54 38H52V40H54V38Z" fill="#5F3F28"/>
<path d="M8 40H6V42H8V40Z" fill="#5F3F28"/>
<path d="M52 40H8V42H52V40Z" fill="#FBF2DF"/>
<path d="M54 40H52V42H54V40Z" fill="#5F3F28"/>
<path d="M10 42H8V44H10V42Z" fill="#5F3F28"/>
<path d="M50 42H10V44H50V42Z" fill="#FBF2DF"/>
<path d="M52 42H50V44H52V42Z" fill="#5F3F28"/>
<path d="M50 44H10V46H50V44Z" fill="#5F3F28"/>
<path d="M10 46H8V48H10V46Z" fill="#EEDDC2"/>
<path d="M14 46H12V48H14V46Z" fill="#EEDDC2"/>
<path d="M18 46H16V48H18V46Z" fill="#EEDDC2"/>
<path d="M22 46H20V48H22V46Z" fill="#EEDDC2"/>
<path d="M26 46H24V48H26V46Z" fill="#EEDDC2"/>
<path d="M30 46H28V48H30V46Z" fill="#EEDDC2"/>
<path d="M34 46H32V48H34V46Z" fill="#EEDDC2"/>
<path d="M38 46H36V48H38V46Z" fill="#EEDDC2"/>
<path d="M42 46H40V48H42V46Z" fill="#EEDDC2"/>
<path d="M46 46H44V48H46V46Z" fill="#EEDDC2"/>
<path d="M50 46H48V48H50V46Z" fill="#EEDDC2"/>
</svg>
