<svg width="32" height="32" viewBox="0 0 32 32" fill="none" xmlns="http://www.w3.org/2000/svg">
<path d="M5 12L27 21M27 12L5 21" stroke="#2A241D" stroke-linecap="round"/>
<path d="M2.48837 16.4418C2.48837 19.6882 8.09368 22.3278 15.0635 22.3952H16.7037C23.6735 22.3278 29.2788 19.6882 29.2788 16.4418C29.2788 13.1954 23.6735 10.5558 16.7037 10.4883H15.0635C8.09368 10.5558 2.48837 13.1954 2.48837 16.4418Z" fill="#DDCFA8" stroke="#2A241D"/>
<path d="M6.95344 16.4417C6.95344 18.0649 10.6903 19.3847 15.3369 19.4184H16.4303C21.0769 19.3847 24.8138 18.0649 24.8138 16.4417C24.8138 14.8185 21.0769 13.4987 16.4303 13.465H15.3369C10.6903 13.4987 6.95344 14.8185 6.95344 16.4417Z" fill="#DDCFA8" stroke="#2A241D"/>
<path d="M30.289 15.8465H29.2788M2.26786 15.8465H1.25786M15.8836 10.4884V9.13055M15.8836 22.3953V23.8178" stroke="#2A241D" stroke-linecap="round"/>
</svg>
