<svg width="60" height="60" viewBox="0 0 60 60" fill="none" xmlns="http://www.w3.org/2000/svg">
<path d="M26 8H24V12H26V8Z" fill="#5F3F28"/>
<path d="M34 8H32V12H34V8Z" fill="#5F3F28"/>
<path d="M24 6H22V8H24V6Z" fill="#5F3F28"/>
<path d="M24 8H22V12H24V8Z" fill="#9A8F80"/>
<path d="M26 12H24V18H26V12Z" fill="#9A8F80"/>
<path d="M28 16H26V35H28V16Z" fill="#9A8F80"/>
<path d="M32 24H30V33H32V24Z" fill="#7C7264"/>
<path d="M30 24H28V29H30V24Z" fill="#9A8F80"/>
<path d="M30 20H28V24H30V20Z" fill="#7C7264"/>
<path d="M30 31H28V35H30V31Z" fill="#9A8F80"/>
<path d="M26 33H24V37H26V33Z" fill="#9A8F80"/>
<path d="M24 35H22V39H24V35Z" fill="#9A8F80"/>
<path d="M22 37H20V41H22V37Z" fill="#9A8F80"/>
<path d="M18 43H16V49H18V43Z" fill="#9A8F80"/>
<path d="M22 41H18V43H22V41Z" fill="#9A8F80"/>
<path d="M22 49H18V51H22V49Z" fill="#9A8F80"/>
<path d="M24 41H22V49H24V41Z" fill="#9A8F80"/>
<path d="M32 33H34V37H32V33Z" fill="#9A8F80"/>
<path d="M34 35H36V39H34V35Z" fill="#9A8F80"/>
<path d="M36 37H38V41H36V37Z" fill="#9A8F80"/>
<path d="M40 43H42V49H40V43Z" fill="#9A8F80"/>
<path d="M36 41H40V43H36V41Z" fill="#9A8F80"/>
<path d="M36 49H42V51H36V49Z" fill="#9A8F80"/>
<path d="M34 41H36V49H34V41Z" fill="#9A8F80"/>
<path d="M32 16H30V20H32V16Z" fill="#9A8F80"/>
<path d="M34 12H32V24H34V12Z" fill="#9A8F80"/>
<path d="M36 8H34V12H36V8Z" fill="#9A8F80"/>
<path d="M36 6H34V8H36V6Z" fill="#5F3F28"/>
<path d="M22 8H20V12H22V8Z" fill="#5F3F28"/>
<path d="M38 8H36V12H38V8Z" fill="#5F3F28"/>
<path d="M24 12H22V18H24V12Z" fill="#5F3F28"/>
<path d="M36 12H34V18H36V12Z" fill="#5F3F28"/>
<path d="M30 16H28V20H30V16Z" fill="#5F3F28"/>
<path d="M32 20H30V24H32V20Z" fill="#5F3F28"/>
<path d="M36 33H34V35H36V33Z" fill="#5F3F28"/>
<path d="M38 35H36V37H38V35Z" fill="#5F3F28"/>
<path d="M40 37H38V41H40V37Z" fill="#5F3F28"/>
<path d="M20 37H18V41H20V37Z" fill="#5F3F28"/>
<path d="M18 41H16V43H18V41Z" fill="#5F3F28"/>
<path d="M42 41H40V43H42V41Z" fill="#5F3F28"/>
<path d="M26 41H24V49H26V41Z" fill="#5F3F28"/>
<path d="M22 43H18V49H22V43Z" fill="#5F3F28"/>
<path d="M40 43H36V49H40V43Z" fill="#5F3F28"/>
<path d="M34 41H32V49H34V41Z" fill="#5F3F28"/>
<path d="M16 43H14V49H16V43Z" fill="#5F3F28"/>
<path d="M44 43H42V51H44V43Z" fill="#5F3F28"/>
<path d="M28 35H26V37H28V35Z" fill="#5F3F28"/>
<path d="M24 33H22V35H24V33Z" fill="#5F3F28"/>
<path d="M22 35H20V37H22V35Z" fill="#5F3F28"/>
<path d="M30 35H28V37H30V35Z" fill="#5F3F28"/>
<path d="M30 29H28V31H30V29Z" fill="#5F3F28"/>
<path d="M26 37H24V39H26V37Z" fill="#5F3F28"/>
<path d="M34 37H32V39H34V37Z" fill="#5F3F28"/>
<path d="M36 39H34V41H36V39Z" fill="#5F3F28"/>
<path d="M36 49H34V51H36V49Z" fill="#5F3F28"/>
<path d="M44 53H42V55H44V53Z" fill="#5F3F28"/>
<path d="M24 49H22V51H24V49Z" fill="#5F3F28"/>
<path d="M18 49H16V51H18V49Z" fill="#5F3F28"/>
<path d="M46 51H36V53H46V51Z" fill="#5F3F28"/>
<path d="M22 51H18V53H22V51Z" fill="#5F3F28"/>
<path d="M24 39H22V41H24V39Z" fill="#5F3F28"/>
<path d="M32 33H30V37H32V33Z" fill="#5F3F28"/>
<path d="M34 24H32V33H34V24Z" fill="#5F3F28"/>
<path d="M26 18H24V33H26V18Z" fill="#5F3F28"/>
<path d="M36 18H34V24H36V18Z" fill="#5F3F28"/>
<path d="M28 12H26V16H28V12Z" fill="#5F3F28"/>
<path d="M32 12H30V16H32V12Z" fill="#5F3F28"/>
</svg>
