<svg width="60" height="88" viewBox="0 0 60 88" fill="none" xmlns="http://www.w3.org/2000/svg">
<path d="M52.2857 8H7.71429C5.66294 8 4 10.5141 4 13.6154V75.3846C4 78.4859 5.66294 81 7.71429 81H52.2857C54.3371 81 56 78.4859 56 75.3846V13.6154C56 10.5141 54.3371 8 52.2857 8Z" fill="#DDCFA8" stroke="#2A241D" stroke-linejoin="round"/>
<path d="M14.2143 8H4.78571C4.35178 8 4 10.5141 4 13.6154V75.3846C4 78.4859 4.35178 81 4.78571 81H14.2143C14.6482 81 15 78.4859 15 75.3846V13.6154C15 10.5141 14.6482 8 14.2143 8Z" fill="#F4EDE0" stroke="#2A241D" stroke-linejoin="round"/>
<path d="M55.2143 8H45.7857C45.3518 8 45 10.5141 45 13.6154V75.3846C45 78.4859 45.3518 81 45.7857 81H55.2143C55.6482 81 56 78.4859 56 75.3846V13.6154C56 10.5141 55.6482 8 55.2143 8Z" fill="#F4EDE0" stroke="#2A241D" stroke-linejoin="round"/>
<path d="M4 58H56" stroke="#2A241D" stroke-linecap="round" stroke-linejoin="round"/>
<path d="M4 27H15" stroke="#2A241D" stroke-linecap="round" stroke-linejoin="round"/>
<path d="M4 42H15" stroke="#2A241D" stroke-linecap="round" stroke-linejoin="round"/>
<path d="M26 52H34" stroke="#2A241D" stroke-linecap="round" stroke-linejoin="round"/>
<path d="M26 64H34" stroke="#2A241D" stroke-linecap="round" stroke-linejoin="round"/>
<path d="M45 27H56" stroke="#2A241D" stroke-linecap="round" stroke-linejoin="round"/>
<path d="M45 42H56" stroke="#2A241D" stroke-linecap="round" stroke-linejoin="round"/>
<path d="M15 9V81" stroke="#2A241D" stroke-linecap="round" stroke-linejoin="round"/>
<path d="M30 9V81" stroke="#2A241D" stroke-linecap="round" stroke-linejoin="round"/>
<path d="M45 9V81" stroke="#2A241D" stroke-linecap="round" stroke-linejoin="round"/>
</svg>
