<svg width="60" height="60" viewBox="0 0 60 60" fill="none" xmlns="http://www.w3.org/2000/svg">
<path d="M41.6105 12H19.0195C17.9798 12 17.137 13.2743 17.137 14.8462V46.1538C17.137 47.7257 17.9798 49 19.0195 49H41.6105C42.6503 49 43.4931 47.7257 43.4931 46.1538V14.8462C43.4931 13.2743 42.6503 12 41.6105 12Z" fill="#DDCFA8" stroke="#2A241D" stroke-width="2.3" stroke-linejoin="round"/>
<path d="M17.137 37.3425H43.4931" stroke="#2A241D" stroke-width="2.3" stroke-linecap="round" stroke-linejoin="round"/>
<path d="M17.137 21.6301H22.7123" stroke="#2A241D" stroke-width="2.3" stroke-linecap="round" stroke-linejoin="round"/>
<path d="M17.137 29.2329H22.7123" stroke="#2A241D" stroke-width="2.3" stroke-linecap="round" stroke-linejoin="round"/>
<path d="M28.2876 33.3014H32.3424" stroke="#2A241D" stroke-width="2.3" stroke-linecap="round" stroke-linejoin="round"/>
<path d="M28.2876 41.3836H32.3424" stroke="#2A241D" stroke-width="2.3" stroke-linecap="round" stroke-linejoin="round"/>
<path d="M37.9177 21.6301H43.4931" stroke="#2A241D" stroke-width="2.3" stroke-linecap="round" stroke-linejoin="round"/>
<path d="M37.9177 29.2329H43.4931" stroke="#2A241D" stroke-width="2.3" stroke-linecap="round" stroke-linejoin="round"/>
<path d="M22.7124 12.5069V49" stroke="#2A241D" stroke-width="2.3" stroke-linecap="round" stroke-linejoin="round"/>
<path d="M30.3151 12.5069V49" stroke="#2A241D" stroke-width="2.3" stroke-linecap="round" stroke-linejoin="round"/>
<path d="M37.9177 12.5069V49" stroke="#2A241D" stroke-width="2.3" stroke-linecap="round" stroke-linejoin="round"/>
</svg>
