<svg width="60" height="60" viewBox="0 0 60 60" fill="none" xmlns="http://www.w3.org/2000/svg">
<path d="M50 12H10V14H50V12Z" fill="#5F3F28"/>
<path d="M12 14H10V16H12V14Z" fill="#5F3F28"/>
<path d="M28 14H12V16H28V14Z" fill="#FBF2DF"/>
<path d="M30 14H28V16H30V14Z" fill="#E0C9A3"/>
<path d="M48 14H30V16H48V14Z" fill="#FBF2DF"/>
<path d="M50 14H48V16H50V14Z" fill="#5F3F28"/>
<path d="M12 16H10V18H12V16Z" fill="#5F3F28"/>
<path d="M28 16H12V18H28V16Z" fill="#FBF2DF"/>
<path d="M30 16H28V18H30V16Z" fill="#E0C9A3"/>
<path d="M48 16H30V18H48V16Z" fill="#FBF2DF"/>
<path d="M50 16H48V18H50V16Z" fill="#5F3F28"/>
<path d="M12 18H10V20H12V18Z" fill="#5F3F28"/>
<path d="M28 18H12V20H28V18Z" fill="#FBF2DF"/>
<path d="M30 18H28V20H30V18Z" fill="#E0C9A3"/>
<path d="M48 18H30V20H48V18Z" fill="#FBF2DF"/>
<path d="M50 18H48V20H50V18Z" fill="#5F3F28"/>
<path d="M28 20H6V22H28V20Z" fill="#5F3F28"/>
<path d="M30 20H28V22H30V20Z" fill="#E0C9A3"/>
<path d="M32 20H30V22H32V20Z" fill="#FBF2DF"/>
<path d="M54 20H32V22H54V20Z" fill="#5F3F28"/>
<path d="M8 22H6V24H8V22Z" fill="#5F3F28"/>
<path d="M10 22H8V24H10V22Z" fill="#FBF2DF"/>
<path d="M12 22H10V24H12V22Z" fill="#E0C9A3"/>
<path d="M16 22H12V24H16V22Z" fill="#5F3F28"/>
<path d="M18 22H16V24H18V22Z" fill="#F2A7B4"/>
<path d="M20 22H18V24H20V22Z" fill="#FBF2DF"/>
<path d="M22 22H20V24H22V22Z" fill="#F2A7B4"/>
<path d="M24 22H22V24H24V22Z" fill="#FBF2DF"/>
<path d="M26 22H24V24H26V22Z" fill="#F2A7B4"/>
<path d="M28 22H26V24H28V22Z" fill="#5F3F28"/>
<path d="M30 22H28V24H30V22Z" fill="#E0C9A3"/>
<path d="M32 22H30V24H32V22Z" fill="#FBF2DF"/>
<path d="M34 22H32V24H34V22Z" fill="#5F3F28"/>
<path d="M38 22H34V24H38V22Z" fill="#A9BF7E"/>
<path d="M40 22H38V24H40V22Z" fill="#74904D"/>
<path d="M44 22H40V24H44V22Z" fill="#A9BF7E"/>
<path d="M48 22H44V24H48V22Z" fill="#5F3F28"/>
<path d="M50 22H48V24H50V22Z" fill="#E0C9A3"/>
<path d="M52 22H50V24H52V22Z" fill="#FBF2DF"/>
<path d="M54 22H52V24H54V22Z" fill="#5F3F28"/>
<path d="M8 24H6V26H8V24Z" fill="#5F3F28"/>
<path d="M10 24H8V26H10V24Z" fill="#FBF2DF"/>
<path d="M12 24H10V26H12V24Z" fill="#E0C9A3"/>
<path d="M16 24H12V26H16V24Z" fill="#5F3F28"/>
<path d="M26 24H16V26H26V24Z" fill="#FBF2DF"/>
<path d="M28 24H26V26H28V24Z" fill="#5F3F28"/>
<path d="M30 24H28V26H30V24Z" fill="#E0C9A3"/>
<path d="M32 24H30V26H32V24Z" fill="#FBF2DF"/>
<path d="M34 24H32V26H34V24Z" fill="#5F3F28"/>
<path d="M38 24H34V26H38V24Z" fill="#A9BF7E"/>
<path d="M40 24H38V26H40V24Z" fill="#74904D"/>
<path d="M44 24H40V26H44V24Z" fill="#A9BF7E"/>
<path d="M48 24H44V26H48V24Z" fill="#5F3F28"/>
<path d="M50 24H48V26H50V24Z" fill="#E0C9A3"/>
<path d="M52 24H50V26H52V24Z" fill="#FBF2DF"/>
<path d="M54 24H52V26H54V24Z" fill="#5F3F28"/>
<path d="M8 26H6V28H8V26Z" fill="#5F3F28"/>
<path d="M10 26H8V28H10V26Z" fill="#FBF2DF"/>
<path d="M12 26H10V28H12V26Z" fill="#E0C9A3"/>
<path d="M16 26H12V28H16V26Z" fill="#5F3F28"/>
<path d="M26 26H16V28H26V26Z" fill="#FBF2DF"/>
<path d="M34 26H26V28H34V26Z" fill="#5F3F28"/>
<path d="M36 26H34V28H36V26Z" fill="#A9BF7E"/>
<path d="M42 26H36V28H42V26Z" fill="#74904D"/>
<path d="M44 26H42V28H44V26Z" fill="#A9BF7E"/>
<path d="M48 26H44V28H48V26Z" fill="#5F3F28"/>
<path d="M50 26H48V28H50V26Z" fill="#E0C9A3"/>
<path d="M52 26H50V28H52V26Z" fill="#FBF2DF"/>
<path d="M54 26H52V28H54V26Z" fill="#5F3F28"/>
<path d="M8 28H6V30H8V28Z" fill="#5F3F28"/>
<path d="M10 28H8V30H10V28Z" fill="#FBF2DF"/>
<path d="M12 28H10V30H12V28Z" fill="#E0C9A3"/>
<path d="M16 28H12V30H16V28Z" fill="#5F3F28"/>
<path d="M18 28H16V30H18V28Z" fill="#F2A7B4"/>
<path d="M24 28H18V30H24V28Z" fill="#FBF2DF"/>
<path d="M26 28H24V30H26V28Z" fill="#F2A7B4"/>
<path d="M28 28H26V30H28V28Z" fill="#5F3F28"/>
<path d="M30 28H28V30H30V28Z" fill="#E0C9A3"/>
<path d="M32 28H30V30H32V28Z" fill="#FBF2DF"/>
<path d="M34 28H32V30H34V28Z" fill="#5F3F28"/>
<path d="M38 28H34V30H38V28Z" fill="#A9BF7E"/>
<path d="M40 28H38V30H40V28Z" fill="#74904D"/>
<path d="M44 28H40V30H44V28Z" fill="#A9BF7E"/>
<path d="M48 28H44V30H48V28Z" fill="#5F3F28"/>
<path d="M50 28H48V30H50V28Z" fill="#E0C9A3"/>
<path d="M52 28H50V30H52V28Z" fill="#FBF2DF"/>
<path d="M54 28H52V30H54V28Z" fill="#5F3F28"/>
<path d="M8 30H6V32H8V30Z" fill="#5F3F28"/>
<path d="M10 30H8V32H10V30Z" fill="#FBF2DF"/>
<path d="M12 30H10V32H12V30Z" fill="#E0C9A3"/>
<path d="M16 30H12V32H16V30Z" fill="#5F3F28"/>
<path d="M26 30H16V32H26V30Z" fill="#D96B7A"/>
<path d="M28 30H26V32H28V30Z" fill="#5F3F28"/>
<path d="M30 30H28V32H30V30Z" fill="#E0C9A3"/>
<path d="M32 30H30V32H32V30Z" fill="#FBF2DF"/>
<path d="M34 30H32V32H34V30Z" fill="#5F3F28"/>
<path d="M44 30H34V32H44V30Z" fill="#A9BF7E"/>
<path d="M48 30H44V32H48V30Z" fill="#5F3F28"/>
<path d="M50 30H48V32H50V30Z" fill="#E0C9A3"/>
<path d="M52 30H50V32H52V30Z" fill="#FBF2DF"/>
<path d="M54 30H52V32H54V30Z" fill="#5F3F28"/>
<path d="M8 32H6V34H8V32Z" fill="#5F3F28"/>
<path d="M10 32H8V34H10V32Z" fill="#FBF2DF"/>
<path d="M12 32H10V34H12V32Z" fill="#E0C9A3"/>
<path d="M28 32H12V34H28V32Z" fill="#5F3F28"/>
<path d="M30 32H28V34H30V32Z" fill="#E0C9A3"/>
<path d="M32 32H30V34H32V32Z" fill="#FBF2DF"/>
<path d="M48 32H32V34H48V32Z" fill="#5F3F28"/>
<path d="M50 32H48V34H50V32Z" fill="#E0C9A3"/>
<path d="M52 32H50V34H52V32Z" fill="#FBF2DF"/>
<path d="M54 32H52V34H54V32Z" fill="#5F3F28"/>
<path d="M8 34H6V36H8V34Z" fill="#5F3F28"/>
<path d="M10 34H8V36H10V34Z" fill="#FBF2DF"/>
<path d="M12 34H10V36H12V34Z" fill="#E0C9A3"/>
<path d="M14 34H12V36H14V34Z" fill="#5F3F28"/>
<path d="M28 34H14V36H28V34Z" fill="#FBF2DF"/>
<path d="M30 34H28V36H30V34Z" fill="#E0C9A3"/>
<path d="M46 34H30V36H46V34Z" fill="#FBF2DF"/>
<path d="M48 34H46V36H48V34Z" fill="#5F3F28"/>
<path d="M50 34H48V36H50V34Z" fill="#E0C9A3"/>
<path d="M52 34H50V36H52V34Z" fill="#FBF2DF"/>
<path d="M54 34H52V36H54V34Z" fill="#5F3F28"/>
<path d="M8 36H6V38H8V36Z" fill="#5F3F28"/>
<path d="M10 36H8V38H10V36Z" fill="#FBF2DF"/>
<path d="M12 36H10V38H12V36Z" fill="#E0C9A3"/>
<path d="M14 36H12V38H14V36Z" fill="#5F3F28"/>
<path d="M46 36H14V38H46V36Z" fill="#FBF2DF"/>
<path d="M48 36H46V38H48V36Z" fill="#5F3F28"/>
<path d="M50 36H48V38H50V36Z" fill="#E0C9A3"/>
<path d="M52 36H50V38H52V36Z" fill="#FBF2DF"/>
<path d="M54 36H52V38H54V36Z" fill="#5F3F28"/>
<path d="M8 38H6V40H8V38Z" fill="#5F3F28"/>
<path d="M10 38H8V40H10V38Z" fill="#FBF2DF"/>
<path d="M12 38H10V40H12V38Z" fill="#E0C9A3"/>
<path d="M14 38H12V40H14V38Z" fill="#5F3F28"/>
<path d="M46 38H14V40H46V38Z" fill="#E0C9A3"/>
<path d="M48 38H46V40H48V38Z" fill="#5F3F28"/>
<path d="M50 38H48V40H50V38Z" fill="#E0C9A3"/>
<path d="M52 38H50V40H52V38Z" fill="#FBF2DF"/>
<path d="M54 38H52V40H54V38Z" fill="#5F3F28"/>
<path d="M8 40H6V42H8V40Z" fill="#5F3F28"/>
<path d="M10 40H8V42H10V40Z" fill="#FBF2DF"/>
<path d="M12 40H10V42H12V40Z" fill="#E0C9A3"/>
<path d="M14 40H12V42H14V40Z" fill="#5F3F28"/>
<path d="M46 40H14V42H46V40Z" fill="#E0C9A3"/>
<path d="M48 40H46V42H48V40Z" fill="#5F3F28"/>
<path d="M50 40H48V42H50V40Z" fill="#E0C9A3"/>
<path d="M52 40H50V42H52V40Z" fill="#FBF2DF"/>
<path d="M54 40H52V42H54V40Z" fill="#5F3F28"/>
<path d="M54 42H6V44H54V42Z" fill="#5F3F28"/>
<path d="M18 44H12V46H18V44Z" fill="#92602E"/>
<path d="M48 44H42V46H48V44Z" fill="#92602E"/>
<path d="M18 46H12V48H18V46Z" fill="#92602E"/>
<path d="M48 46H42V48H48V46Z" fill="#92602E"/>
<path d="M18 48H12V50H18V48Z" fill="#92602E"/>
<path d="M48 48H42V50H48V48Z" fill="#92602E"/>
<path d="M18 50H12V52H18V50Z" fill="#92602E"/>
<path d="M48 50H42V52H48V50Z" fill="#92602E"/>
</svg>
