<svg width="32" height="32" viewBox="0 0 32 32" fill="none" xmlns="http://www.w3.org/2000/svg">
<path d="M24 11.7333H8C7.4109 11.7333 6.93333 12.2109 6.93333 12.8V14.4C6.93333 14.9891 7.4109 15.4667 8 15.4667H24C24.5891 15.4667 25.0667 14.9891 25.0667 14.4V12.8C25.0667 12.2109 24.5891 11.7333 24 11.7333Z" fill="#DDCFA8" stroke="#2A241D" stroke-linejoin="round"/>
<path d="M11.7333 23.498L11.7333 15.9686C11.7333 15.6914 11.4604 15.4667 11.1238 15.4667L10.2095 15.4667C9.8729 15.4667 9.6 15.6914 9.6 15.9686L9.6 23.498C9.6 23.7753 9.8729 24 10.2095 24L11.1238 24C11.4604 24 11.7333 23.7753 11.7333 23.498Z" fill="#DDCFA8" stroke="#2A241D" stroke-linejoin="round"/>
<path d="M22.4 23.498L22.4 15.9686C22.4 15.6914 22.1271 15.4667 21.7905 15.4667L20.8762 15.4667C20.5396 15.4667 20.2667 15.6914 20.2667 15.9686L20.2667 23.498C20.2667 23.7753 20.5396 24 20.8762 24L21.7905 24C22.1271 24 22.4 23.7753 22.4 23.498Z" fill="#DDCFA8" stroke="#2A241D" stroke-linejoin="round"/>
<path d="M10.4784 9.59998H21.5216L24.5333 11.7333H7.46667L10.4784 9.59998Z" fill="#DDCFA8" stroke="#2A241D" stroke-linejoin="round"/>
</svg>
