<svg width="60" height="60" viewBox="0 0 60 60" fill="none" xmlns="http://www.w3.org/2000/svg">
<path d="M45 22H15C13.8954 22 13 22.8954 13 24V27C13 28.1046 13.8954 29 15 29H45C46.1046 29 47 28.1046 47 27V24C47 22.8954 46.1046 22 45 22Z" fill="#DDCFA8" stroke="#2A241D" stroke-width="2.3" stroke-linejoin="round"/>
<path d="M22 44.0588L22 29.9412C22 29.4214 21.4883 29 20.8571 29L19.1429 29C18.5117 29 18 29.4214 18 29.9412L18 44.0588C18 44.5786 18.5117 45 19.1429 45L20.8571 45C21.4883 45 22 44.5786 22 44.0588Z" fill="#DDCFA8" stroke="#2A241D" stroke-width="2.3" stroke-linejoin="round"/>
<path d="M42 44.0588L42 29.9412C42 29.4214 41.4883 29 40.8571 29L39.1429 29C38.5117 29 38 29.4214 38 29.9412L38 44.0588C38 44.5786 38.5117 45 39.1429 45L40.8571 45C41.4883 45 42 44.5786 42 44.0588Z" fill="#DDCFA8" stroke="#2A241D" stroke-width="2.3" stroke-linejoin="round"/>
<path d="M19.6471 18H40.3529L46 22H14L19.6471 18Z" fill="#DDCFA8" stroke="#2A241D" stroke-width="2.2" stroke-linejoin="round"/>
</svg>
