<svg width="32" height="32" viewBox="0 0 32 32" fill="none" xmlns="http://www.w3.org/2000/svg">
<path d="M12.2667 12C13.2976 12 14.1333 11.1643 14.1333 10.1333C14.1333 9.1024 13.2976 8.26666 12.2667 8.26666C11.2357 8.26666 10.4 9.1024 10.4 10.1333C10.4 11.1643 11.2357 12 12.2667 12Z" fill="#DDCFA8" stroke="#2A241D" stroke-linejoin="round"/>
<path d="M19.7333 12C20.7643 12 21.6 11.1643 21.6 10.1333C21.6 9.1024 20.7643 8.26666 19.7333 8.26666C18.7024 8.26666 17.8667 9.1024 17.8667 10.1333C17.8667 11.1643 18.7024 12 19.7333 12Z" fill="#DDCFA8" stroke="#2A241D" stroke-linejoin="round"/>
<path d="M16 26.1333C18.9455 26.1333 21.3333 23.9843 21.3333 21.3333C21.3333 18.6824 18.9455 16.5333 16 16.5333C13.0545 16.5333 10.6667 18.6824 10.6667 21.3333C10.6667 23.9843 13.0545 26.1333 16 26.1333Z" fill="#DDCFA8" stroke="#2A241D" stroke-linejoin="round"/>
<path d="M16 17.6C18.3564 17.6 20.2667 15.8091 20.2667 13.6C20.2667 11.3908 18.3564 9.59998 16 9.59998C13.6436 9.59998 11.7333 11.3908 11.7333 13.6C11.7333 15.8091 13.6436 17.6 16 17.6Z" fill="#DDCFA8" stroke="#2A241D" stroke-linejoin="round"/>
<path d="M12.5333 27.7333C13.5643 27.7333 14.4 26.8976 14.4 25.8667C14.4 24.8357 13.5643 24 12.5333 24C11.5024 24 10.6667 24.8357 10.6667 25.8667C10.6667 26.8976 11.5024 27.7333 12.5333 27.7333Z" fill="#DDCFA8" stroke="#2A241D" stroke-linejoin="round"/>
<path d="M20 27.7333C21.0309 27.7333 21.8667 26.8976 21.8667 25.8667C21.8667 24.8357 21.0309 24 20 24C18.9691 24 18.1333 24.8357 18.1333 25.8667C18.1333 26.8976 18.9691 27.7333 20 27.7333Z" fill="#DDCFA8" stroke="#2A241D" stroke-linejoin="round"/>
<path d="M22.0965 23.1137C22.8281 22.7179 23.177 21.9457 22.4063 20.5207C21.6355 19.0958 19.6564 16.8541 18.9247 17.2499C18.1931 17.6456 18.9861 20.5289 19.7568 21.9538C20.5276 23.3788 21.3649 23.5094 22.0965 23.1137Z" fill="#DDCFA8" stroke="#2A241D" stroke-linejoin="round"/>
<path d="M9.85805 23.1137C9.12643 22.7179 8.77754 21.9457 9.5483 20.5207C10.3191 19.0958 12.2982 16.8541 13.0298 17.2499C13.7615 17.6456 12.9685 20.5289 12.1977 21.9538C11.427 23.3788 10.5897 23.5094 9.85805 23.1137Z" fill="#DDCFA8" stroke="#2A241D" stroke-linejoin="round"/>
<path d="M14.4 14.1333C14.8418 14.1333 15.2 13.7752 15.2 13.3333C15.2 12.8915 14.8418 12.5333 14.4 12.5333C13.9582 12.5333 13.6 12.8915 13.6 13.3333C13.6 13.7752 13.9582 14.1333 14.4 14.1333Z" fill="#2A241D"/>
<path d="M17.6 14.1333C18.0418 14.1333 18.4 13.7752 18.4 13.3333C18.4 12.8915 18.0418 12.5333 17.6 12.5333C17.1582 12.5333 16.8 12.8915 16.8 13.3333C16.8 13.7752 17.1582 14.1333 17.6 14.1333Z" fill="#2A241D"/>
<path d="M15.4667 14.9333C15.6444 15.2889 15.8222 15.4667 16 15.4667M16.5333 14.9333C16.3555 15.2889 16.1778 15.4667 16 15.4667M16 15.4667V17.3333" stroke="#2A241D" stroke-linecap="round" stroke-linejoin="round"/>
</svg>
