<svg width="60" height="60" viewBox="0 0 60 60" fill="none" xmlns="http://www.w3.org/2000/svg">
<path d="M23 22.5C24.933 22.5 26.5 20.933 26.5 19C26.5 17.067 24.933 15.5 23 15.5C21.067 15.5 19.5 17.067 19.5 19C19.5 20.933 21.067 22.5 23 22.5Z" fill="#DDCFA8" stroke="#2A241D" stroke-width="2.3" stroke-linejoin="round"/>
<path d="M37 22.5C38.933 22.5 40.5 20.933 40.5 19C40.5 17.067 38.933 15.5 37 15.5C35.067 15.5 33.5 17.067 33.5 19C33.5 20.933 35.067 22.5 37 22.5Z" fill="#DDCFA8" stroke="#2A241D" stroke-width="2.3" stroke-linejoin="round"/>
<path d="M30 49C35.5228 49 40 44.9706 40 40C40 35.0294 35.5228 31 30 31C24.4772 31 20 35.0294 20 40C20 44.9706 24.4772 49 30 49Z" fill="#DDCFA8" stroke="#2A241D" stroke-width="2.3" stroke-linejoin="round"/>
<path d="M30 33C34.4183 33 38 29.6421 38 25.5C38 21.3579 34.4183 18 30 18C25.5817 18 22 21.3579 22 25.5C22 29.6421 25.5817 33 30 33Z" fill="#DDCFA8" stroke="#2A241D" stroke-width="2.3" stroke-linejoin="round"/>
<path d="M23.5 52C25.433 52 27 50.433 27 48.5C27 46.567 25.433 45 23.5 45C21.567 45 20 46.567 20 48.5C20 50.433 21.567 52 23.5 52Z" fill="#DDCFA8" stroke="#2A241D" stroke-width="2.3" stroke-linejoin="round"/>
<path d="M37.5 52C39.433 52 41 50.433 41 48.5C41 46.567 39.433 45 37.5 45C35.567 45 34 46.567 34 48.5C34 50.433 35.567 52 37.5 52Z" fill="#DDCFA8" stroke="#2A241D" stroke-width="2.3" stroke-linejoin="round"/>
<path d="M41.4309 43.3382C42.8027 42.5962 43.4569 41.1481 42.0117 38.4764C40.5665 35.8046 36.8556 31.6015 35.4839 32.3435C34.1121 33.0856 35.5988 38.4917 37.044 41.1634C38.4892 43.8352 40.0591 44.0802 41.4309 43.3382Z" fill="#DDCFA8" stroke="#2A241D" stroke-width="2.3" stroke-linejoin="round"/>
<path d="M18.4839 43.3382C17.1121 42.5962 16.4579 41.1481 17.9031 38.4764C19.3482 35.8046 23.0591 31.6015 24.4309 32.3435C25.8027 33.0856 24.3159 38.4917 22.8708 41.1634C21.4256 43.8352 19.8557 44.0802 18.4839 43.3382Z" fill="#DDCFA8" stroke="#2A241D" stroke-width="2.3" stroke-linejoin="round"/>
<path d="M27 26.5C27.8284 26.5 28.5 25.8284 28.5 25C28.5 24.1716 27.8284 23.5 27 23.5C26.1716 23.5 25.5 24.1716 25.5 25C25.5 25.8284 26.1716 26.5 27 26.5Z" fill="#2A241D"/>
<path d="M33 26.5C33.8284 26.5 34.5 25.8284 34.5 25C34.5 24.1716 33.8284 23.5 33 23.5C32.1716 23.5 31.5 24.1716 31.5 25C31.5 25.8284 32.1716 26.5 33 26.5Z" fill="#2A241D"/>
<path d="M29 28C29.3333 28.6667 29.6667 29 30 29M31 28C30.6667 28.6667 30.3333 29 30 29M30 29V32.5" stroke="#2A241D" stroke-width="2.3" stroke-linecap="round" stroke-linejoin="round"/>
</svg>
