<svg width="60" height="60" viewBox="0 0 60 60" fill="none" xmlns="http://www.w3.org/2000/svg">
<path d="M31.5 17H28.5C27.6716 17 27 18.2685 27 19.8333V48.1667C27 49.7315 27.6716 51 28.5 51H31.5C32.3284 51 33 49.7315 33 48.1667V19.8333C33 18.2685 32.3284 17 31.5 17Z" fill="#9A7448" stroke="#2A241D" stroke-width="2.3" stroke-linejoin="round"/>
<path d="M22.2424 22.9932C17.725 22.3214 15.5586 23.816 16.2187 27.5477C13.2599 27.8344 14.3427 31.9923 17.9883 31.9895C19.626 34.0498 23.0339 34.0116 24.2493 32.3755C28.4761 33.3675 30.1937 28.3542 26.9708 27.1482C27.3409 24.6598 24.1444 23.276 22.2424 22.9932Z" fill="#6E9C4F" stroke="#2A241D" stroke-width="2.3" stroke-linejoin="round"/>
<path d="M28.9227 5C19.5052 5 15.5399 9.22538 18.0182 17.6761C12.0703 19.3663 15.5399 28.6621 22.9748 27.3945C26.9401 31.6199 33.8793 30.3523 35.8619 26.1269C44.7838 26.972 46.7665 14.7184 39.8272 13.0282C39.8272 7.11269 32.888 5 28.9227 5Z" fill="#6E9C4F" stroke="#2A241D" stroke-width="2.3" stroke-linejoin="round"/>
<path d="M37.8327 31.2245C31.8581 31.3648 29.3825 33.1285 31.0348 36.501C27.2774 37.2715 29.5666 40.9702 34.2713 40.3481C36.827 41.9937 41.2173 41.379 42.4351 39.6448C48.1032 39.8528 49.2449 34.8796 44.8266 34.3011C44.7706 31.9145 40.3483 31.1655 37.8327 31.2245Z" fill="#6E9C4F" stroke="#2A241D" stroke-width="2.3" stroke-linejoin="round"/>
</svg>
