<svg width="60" height="60" viewBox="0 0 60 60" fill="none" xmlns="http://www.w3.org/2000/svg">
<path d="M38 4H22V6H38V4Z" fill="#5F3F28"/>
<path d="M22 6H20V8H22V6Z" fill="#5F3F28"/>
<path d="M38 6H22V8H38V6Z" fill="#A9BF7E"/>
<path d="M40 6H38V8H40V6Z" fill="#5F3F28"/>
<path d="M20 8H18V10H20V8Z" fill="#5F3F28"/>
<path d="M24 8H20V10H24V8Z" fill="#A9BF7E"/>
<path d="M26 8H24V10H26V8Z" fill="#5C7440"/>
<path d="M40 8H26V10H40V8Z" fill="#A9BF7E"/>
<path d="M42 8H40V10H42V8Z" fill="#5F3F28"/>
<path d="M38 10H18V12H38V10Z" fill="#74904D"/>
<path d="M40 10H38V12H40V10Z" fill="#A9BF7E"/>
<path d="M42 10H40V12H42V10Z" fill="#5F3F28"/>
<path d="M20 12H18V14H20V12Z" fill="#5F3F28"/>
<path d="M40 12H20V14H40V12Z" fill="#A9BF7E"/>
<path d="M40 14H30V16H40V14Z" fill="#A9BF7E"/>
<path d="M42 12H40V16H42V12Z" fill="#5F3F28"/>
<path d="M48 12H42V14H48V12Z" fill="#5F3F28"/>
<path d="M48 28H38V30H48V28Z" fill="#5F3F28"/>
<path d="M30 14H16V16H30V14Z" fill="#5F3F28"/>
<path d="M16 16H14V18H16V16Z" fill="#5F3F28"/>
<path d="M30 16H16V18H30V16Z" fill="#A9BF7E"/>
<path d="M40 16H30V18H40V16Z" fill="#5F3F28"/>
<path d="M50 14H48V16H50V14Z" fill="#5F3F28"/>
<path d="M50 26H48V28H50V26Z" fill="#5F3F28"/>
<path d="M20 18H14V20H20V18Z" fill="#A9BF7E"/>
<path d="M22 18H20V20H22V18Z" fill="#74904D"/>
<path d="M36 18H22V20H36V18Z" fill="#A9BF7E"/>
<path d="M36 14H34V16H36V14Z" fill="#74904D"/>
<path d="M36 20H14V22H36V20Z" fill="#A9BF7E"/>
<path d="M50 20H44V22H50V20Z" fill="#A9BF7E"/>
<path d="M42 20H38V22H42V20Z" fill="#A9BF7E"/>
<path d="M50 16H40V18H50V16Z" fill="#A9BF7E"/>
<path d="M28 22H14V24H28V22Z" fill="#A9BF7E"/>
<path d="M30 22H28V24H30V22Z" fill="#5C7440"/>
<path d="M50 22H38V24H50V22Z" fill="#A9BF7E"/>
<path d="M36 22H30V24H36V22Z" fill="#A9BF7E"/>
<path d="M16 24H14V26H16V24Z" fill="#A9BF7E"/>
<path d="M18 24H16V26H18V24Z" fill="#5C7440"/>
<path d="M36 24H18V26H36V24Z" fill="#A9BF7E"/>
<path d="M44 20H42V22H44V20Z" fill="#5C7440"/>
<path d="M50 24H38V26H50V24Z" fill="#A9BF7E"/>
<path d="M48 26H38V28H48V26Z" fill="#A9BF7E"/>
<path d="M48 14H42V16H48V14Z" fill="#A9BF7E"/>
<path d="M50 18H38V20H50V18Z" fill="#A9BF7E"/>
<path d="M36 26H14V28H36V26Z" fill="#A9BF7E"/>
<path d="M14 18H12V32H14V18Z" fill="#5F3F28"/>
<path d="M36 28H14V32H36V28Z" fill="#A9BF7E"/>
<path d="M36 32H34V34H36V32Z" fill="#5F3F28"/>
<path d="M38 18H36V32H38V18Z" fill="#5F3F28"/>
<path d="M47 24H45V26H47V24Z" fill="#5C7440"/>
<path d="M16 32H14V34H16V32Z" fill="#5F3F28"/>
<path d="M34 32H16V34H34V32Z" fill="#A9BF7E"/>
<path d="M52 16H50V26H52V16Z" fill="#5F3F28"/>
<path d="M26 34H16V36H26V34Z" fill="#5F3F28"/>
<path d="M28 34H26V36H28V34Z" fill="#7A4E22"/>
<path d="M44 33H40V35H44V33Z" fill="#7A4E22"/>
<path d="M46 30H44V33H46V30Z" fill="#7A4E22"/>
<path d="M38 35H36V37H38V35Z" fill="#7A4E22"/>
<path d="M40 30H38V37H40V30Z" fill="#7A4E22"/>
<path d="M38 37H34V39H38V37Z" fill="#7A4E22"/>
<path d="M34 34H28V36H34V34Z" fill="#5F3F28"/>
<path d="M28 36H26V44H28V36Z" fill="#7A4E22"/>
<path d="M32 36H28V44H32V36Z" fill="#B97B3F"/>
<path d="M34 36H32V44H34V36Z" fill="#5F3F28"/>
<path d="M28 44H26V46H28V44Z" fill="#7A4E22"/>
<path d="M32 44H28V46H32V44Z" fill="#B97B3F"/>
<path d="M34 44H32V46H34V44Z" fill="#5F3F28"/>
<path d="M28 46H26V48H28V46Z" fill="#7A4E22"/>
<path d="M32 46H28V48H32V46Z" fill="#B97B3F"/>
<path d="M34 46H32V48H34V46Z" fill="#5F3F28"/>
<path d="M28 48H26V50H28V48Z" fill="#7A4E22"/>
<path d="M32 48H28V50H32V48Z" fill="#B97B3F"/>
<path d="M34 48H32V50H34V48Z" fill="#5F3F28"/>
<path d="M42 50H18V52H42V50Z" fill="#5F3F28"/>
</svg>
