<svg width="32" height="32" viewBox="0 0 32 32" fill="none" xmlns="http://www.w3.org/2000/svg">
<path d="M16.8 9.06665H15.2C14.7582 9.06665 14.4 9.7432 14.4 10.5778V25.6889C14.4 26.5234 14.7582 27.2 15.2 27.2H16.8C17.2418 27.2 17.6 26.5234 17.6 25.6889V10.5778C17.6 9.7432 17.2418 9.06665 16.8 9.06665Z" fill="#9A7448" stroke="#2A241D" stroke-linejoin="round"/>
<path d="M11.8626 12.263C9.45333 11.9047 8.29792 12.7019 8.64998 14.6921C7.07195 14.845 7.64942 17.0626 9.59377 17.0611C10.4672 18.1599 12.2848 18.1395 12.933 17.267C15.1872 17.796 16.1033 15.1223 14.3844 14.4791C14.5818 13.1519 12.877 12.4139 11.8626 12.263Z" fill="#6E9C4F" stroke="#2A241D" stroke-linejoin="round"/>
<path d="M15.4254 2.66669C10.4028 2.66669 8.28794 4.92022 9.6097 9.42729C6.43748 10.3287 8.28794 15.2865 12.2532 14.6104C14.368 16.864 18.069 16.1879 19.1264 13.9344C23.8847 14.3851 24.9421 7.84982 21.2412 6.9484C21.2412 3.79345 17.5403 2.66669 15.4254 2.66669Z" fill="#6E9C4F" stroke="#2A241D" stroke-linejoin="round"/>
<path d="M20.1774 16.6531C16.991 16.7279 15.6707 17.6686 16.5519 19.4672C14.5479 19.8782 15.7688 21.8508 18.278 21.519C19.641 22.3967 21.9825 22.0688 22.632 21.1439C25.655 21.2549 26.264 18.6025 23.9075 18.2939C23.8776 17.0211 21.5191 16.6216 20.1774 16.6531Z" fill="#6E9C4F" stroke="#2A241D" stroke-linejoin="round"/>
</svg>
