<svg width="60" height="60" viewBox="0 0 60 60" fill="none" xmlns="http://www.w3.org/2000/svg">
<path d="M36 10H24V12H36V10Z" fill="#5F3F28"/>
<path d="M24 12H22V14H24V12Z" fill="#5F3F28"/>
<path d="M36 12H24V14H36V12Z" fill="#F2A7B4"/>
<path d="M38 12H36V14H38V12Z" fill="#5F3F28"/>
<path d="M22 14H20V16H22V14Z" fill="#5F3F28"/>
<path d="M28 14H22V16H28V14Z" fill="#F2A7B4"/>
<path d="M32 14H28V16H32V14Z" fill="#FBF2DF"/>
<path d="M38 14H32V16H38V14Z" fill="#F2A7B4"/>
<path d="M40 14H38V16H40V14Z" fill="#5F3F28"/>
<path d="M22 16H20V18H22V16Z" fill="#5F3F28"/>
<path d="M38 16H22V18H38V16Z" fill="#D96B7A"/>
<path d="M40 16H38V18H40V16Z" fill="#5F3F28"/>
<path d="M40 18H20V20H40V18Z" fill="#5F3F28"/>
<path d="M38 20H22V22H38V20Z" fill="#ECCA7F"/>
<path d="M20 22H18V24H20V22Z" fill="#ECCA7F"/>
<path d="M42 22H40V24H42V22Z" fill="#ECCA7F"/>
<path d="M30 24H28V26H30V24Z" fill="#ECCA7F"/>
<path d="M32 26H28V28H32V26Z" fill="#92602E"/>
<path d="M32 28H28V30H32V28Z" fill="#92602E"/>
<path d="M32 30H28V32H32V30Z" fill="#92602E"/>
<path d="M38 32H22V34H38V32Z" fill="#5F3F28"/>
<path d="M26 34H22V36H26V34Z" fill="#5F3F28"/>
<path d="M36 34H26V36H36V34Z" fill="#B97B3F"/>
<path d="M38 34H36V36H38V34Z" fill="#5F3F28"/>
<path d="M24 36H22V38H24V36Z" fill="#5F3F28"/>
<path d="M36 36H24V38H36V36Z" fill="#B97B3F"/>
<path d="M38 36H36V38H38V36Z" fill="#5F3F28"/>
<path d="M24 38H22V40H24V38Z" fill="#5F3F28"/>
<path d="M26 38H24V40H26V38Z" fill="#B97B3F"/>
<path d="M28 38H26V40H28V38Z" fill="#CF5B5B"/>
<path d="M30 38H28V40H30V38Z" fill="#B97B3F"/>
<path d="M32 38H30V40H32V38Z" fill="#CF5B5B"/>
<path d="M36 38H32V40H36V38Z" fill="#B97B3F"/>
<path d="M38 38H36V40H38V38Z" fill="#5F3F28"/>
<path d="M24 40H22V42H24V40Z" fill="#5F3F28"/>
<path d="M26 40H24V42H26V40Z" fill="#B97B3F"/>
<path d="M32 40H26V42H32V40Z" fill="#CF5B5B"/>
<path d="M36 40H32V42H36V40Z" fill="#B97B3F"/>
<path d="M38 40H36V42H38V40Z" fill="#5F3F28"/>
<path d="M24 42H22V44H24V42Z" fill="#5F3F28"/>
<path d="M28 42H24V44H28V42Z" fill="#B97B3F"/>
<path d="M30 42H28V44H30V42Z" fill="#CF5B5B"/>
<path d="M36 42H30V44H36V42Z" fill="#B97B3F"/>
<path d="M38 42H36V44H38V42Z" fill="#5F3F28"/>
<path d="M24 44H22V46H24V44Z" fill="#5F3F28"/>
<path d="M36 44H24V46H36V44Z" fill="#B97B3F"/>
<path d="M38 44H36V46H38V44Z" fill="#5F3F28"/>
<path d="M24 46H22V48H24V46Z" fill="#5F3F28"/>
<path d="M36 46H24V48H36V46Z" fill="#B97B3F"/>
<path d="M38 46H36V48H38V46Z" fill="#5F3F28"/>
<path d="M24 48H22V50H24V48Z" fill="#5F3F28"/>
<path d="M34 48H24V50H34V48Z" fill="#B97B3F"/>
<path d="M38 48H34V50H38V48Z" fill="#5F3F28"/>
<path d="M38 50H22V52H38V50Z" fill="#5F3F28"/>
</svg>
