<svg width="60" height="88" viewBox="0 0 60 88" fill="none" xmlns="http://www.w3.org/2000/svg">
<path d="M16.5 16.5L17 16H42L43 17V70H47V14L46 13L45 12H14L12.5 13L12 15V70.12H16.5V16.5Z" fill="#DDCFA8"/>
<path d="M41 16H18C16 16 16 16 16 18V70H43L43 18C43 16 43 16 41 16Z" fill="none" stroke="#2A241D" stroke-linejoin="round"/>
<path d="M44.5 12H14.5C13.1193 12 12 13.762 12 15.9355V69.0645C12 71.238 13.1193 73 14.5 73H44.5C45.8807 73 47 71.238 47 69.0645V15.9355C47 13.762 45.8807 12 44.5 12Z" fill="none" stroke="#2A241D" stroke-linejoin="round"/>
<path d="M48.8491 69.9623H10.2075C9.54064 69.9623 9 70.5029 9 71.1698V74.7925C9 75.4594 9.54064 76 10.2075 76H48.8491C49.516 76 50.0566 75.4594 50.0566 74.7925V71.1698C50.0566 70.5029 49.516 69.9623 48.8491 69.9623Z" fill="#DDCFA8" stroke="#2A241D" stroke-linejoin="round"/>
</svg>
