<svg width="60" height="88" viewBox="0 0 60 88" fill="none" xmlns="http://www.w3.org/2000/svg">
<path d="M48.8491 69.9623H10.2075C9.54064 69.9623 9 70.5029 9 71.1698V74.7925C9 75.4594 9.54064 76 10.2075 76H48.8491C49.516 76 50.0566 75.4594 50.0566 74.7925V71.1698C50.0566 70.5029 49.516 69.9623 48.8491 69.9623Z" fill="#DDCFA8" stroke="#2A241D" stroke-width="2.3" stroke-linejoin="round"/>
<path d="M44.0188 12H15.0377C13.7039 12 12.6226 13.6742 12.6226 15.7395V66.2228C12.6226 68.288 13.7039 69.9623 15.0377 69.9623H44.0188C45.3527 69.9623 46.4339 68.288 46.4339 66.2228V15.7395C46.4339 13.6742 45.3527 12 44.0188 12Z" fill="#DDCFA8" stroke="#2A241D" stroke-width="2.3" stroke-linejoin="round"/>
<path d="M29.5283 12V69.9623" stroke="#2A241D" stroke-width="2.3" stroke-linecap="round" stroke-linejoin="round"/>
<path d="M12.6226 40.9811H46.4339" stroke="#2A241D" stroke-width="2.3" stroke-linecap="round" stroke-linejoin="round"/>
</svg>
