<svg width="60" height="60" viewBox="0 0 60 60" fill="none" xmlns="http://www.w3.org/2000/svg">
<path d="M41.3652 45.0955H18.6349C18.2426 45.0955 17.9245 45.4135 17.9245 45.8058V47.9367C17.9245 48.329 18.2426 48.6471 18.6349 48.6471H41.3652C41.7575 48.6471 42.0755 48.329 42.0755 47.9367V45.8058C42.0755 45.4135 41.7575 45.0955 41.3652 45.0955Z" fill="#DDCFA8" stroke="#2A241D" stroke-width="2.3" stroke-linejoin="round"/>
<path d="M38.5238 11H21.4761C20.6915 11 20.0555 11.9848 20.0555 13.1997V42.8957C20.0555 44.1106 20.6915 45.0955 21.4761 45.0955H38.5238C39.3085 45.0955 39.9445 44.1106 39.9445 42.8957V13.1997C39.9445 11.9848 39.3085 11 38.5238 11Z" fill="#DDCFA8" stroke="#2A241D" stroke-width="2.3" stroke-linejoin="round"/>
<path d="M30 11V45.0955" stroke="#2A241D" stroke-width="2.3" stroke-linecap="round" stroke-linejoin="round"/>
<path d="M20.0555 28.0477H39.9445" stroke="#2A241D" stroke-width="2.3" stroke-linecap="round" stroke-linejoin="round"/>
</svg>
