<svg width="60" height="60" viewBox="0 0 60 60" fill="none" xmlns="http://www.w3.org/2000/svg">
<path d="M54 6H6V8H54V6Z" fill="#5F3F28"/>
<path d="M8 8H6V10H8V8Z" fill="#5F3F28"/>
<path d="M52 8H8V10H52V8Z" fill="#E9BD7F"/>
<path d="M54 8H52V10H54V8Z" fill="#5F3F28"/>
<path d="M8 10H6V12H8V10Z" fill="#5F3F28"/>
<path d="M10 10H8V12H10V10Z" fill="#D9A15E"/>
<path d="M50 10H10V12H50V10Z" fill="#5F3F28"/>
<path d="M52 10H50V12H52V10Z" fill="#D9A15E"/>
<path d="M54 10H52V12H54V10Z" fill="#5F3F28"/>
<path d="M8 12H6V14H8V12Z" fill="#5F3F28"/>
<path d="M10 12H8V14H10V12Z" fill="#D9A15E"/>
<path d="M12 12H10V14H12V12Z" fill="#5F3F28"/>
<path d="M28 12H12V14H28V12Z" fill="#A9C8E6"/>
<path d="M30 12H28V14H30V12Z" fill="#E9BD7F"/>
<path d="M32 12H30V14H32V12Z" fill="#D9A15E"/>
<path d="M48 12H32V14H48V12Z" fill="#A9C8E6"/>
<path d="M50 12H48V14H50V12Z" fill="#5F3F28"/>
<path d="M52 12H50V14H52V12Z" fill="#D9A15E"/>
<path d="M54 12H52V14H54V12Z" fill="#5F3F28"/>
<path d="M8 14H6V16H8V14Z" fill="#5F3F28"/>
<path d="M10 14H8V16H10V14Z" fill="#D9A15E"/>
<path d="M12 14H10V16H12V14Z" fill="#5F3F28"/>
<path d="M28 14H12V16H28V14Z" fill="#A9C8E6"/>
<path d="M30 14H28V16H30V14Z" fill="#E9BD7F"/>
<path d="M32 14H30V16H32V14Z" fill="#D9A15E"/>
<path d="M42 14H32V16H42V14Z" fill="#A9C8E6"/>
<path d="M44 14H42V16H44V14Z" fill="#EEDDC2"/>
<path d="M48 14H44V16H48V14Z" fill="#A9C8E6"/>
<path d="M50 14H48V16H50V14Z" fill="#5F3F28"/>
<path d="M52 14H50V16H52V14Z" fill="#D9A15E"/>
<path d="M54 14H52V16H54V14Z" fill="#5F3F28"/>
<path d="M8 16H6V18H8V16Z" fill="#5F3F28"/>
<path d="M10 16H8V18H10V16Z" fill="#D9A15E"/>
<path d="M12 16H10V18H12V16Z" fill="#5F3F28"/>
<path d="M28 16H12V18H28V16Z" fill="#A9C8E6"/>
<path d="M30 16H28V18H30V16Z" fill="#E9BD7F"/>
<path d="M32 16H30V18H32V16Z" fill="#D9A15E"/>
<path d="M40 16H32V18H40V16Z" fill="#A9C8E6"/>
<path d="M42 16H40V18H42V16Z" fill="#ECCA7F"/>
<path d="M48 16H42V18H48V16Z" fill="#A9C8E6"/>
<path d="M50 16H48V18H50V16Z" fill="#5F3F28"/>
<path d="M52 16H50V18H52V16Z" fill="#D9A15E"/>
<path d="M54 16H52V18H54V16Z" fill="#5F3F28"/>
<path d="M8 18H6V20H8V18Z" fill="#5F3F28"/>
<path d="M10 18H8V20H10V18Z" fill="#D9A15E"/>
<path d="M12 18H10V20H12V18Z" fill="#5F3F28"/>
<path d="M16 18H12V20H16V18Z" fill="#A9C8E6"/>
<path d="M24 18H16V20H24V18Z" fill="#FBF2DF"/>
<path d="M28 18H24V20H28V18Z" fill="#A9C8E6"/>
<path d="M30 18H28V20H30V18Z" fill="#E9BD7F"/>
<path d="M32 18H30V20H32V18Z" fill="#D9A15E"/>
<path d="M48 18H32V20H48V18Z" fill="#A9C8E6"/>
<path d="M50 18H48V20H50V18Z" fill="#5F3F28"/>
<path d="M52 18H50V20H52V18Z" fill="#D9A15E"/>
<path d="M54 18H52V20H54V18Z" fill="#5F3F28"/>
<path d="M8 20H6V22H8V20Z" fill="#5F3F28"/>
<path d="M10 20H8V22H10V20Z" fill="#D9A15E"/>
<path d="M12 20H10V22H12V20Z" fill="#5F3F28"/>
<path d="M14 20H12V22H14V20Z" fill="#A9C8E6"/>
<path d="M26 20H14V22H26V20Z" fill="#FBF2DF"/>
<path d="M28 20H26V22H28V20Z" fill="#A9C8E6"/>
<path d="M30 20H28V22H30V20Z" fill="#E9BD7F"/>
<path d="M32 20H30V22H32V20Z" fill="#D9A15E"/>
<path d="M48 20H32V22H48V20Z" fill="#A9C8E6"/>
<path d="M50 20H48V22H50V20Z" fill="#5F3F28"/>
<path d="M52 20H50V22H52V20Z" fill="#D9A15E"/>
<path d="M54 20H52V22H54V20Z" fill="#5F3F28"/>
<path d="M8 22H6V24H8V22Z" fill="#5F3F28"/>
<path d="M10 22H8V24H10V22Z" fill="#D9A15E"/>
<path d="M12 22H10V24H12V22Z" fill="#5F3F28"/>
<path d="M28 22H12V24H28V22Z" fill="#A9C8E6"/>
<path d="M30 22H28V24H30V22Z" fill="#E9BD7F"/>
<path d="M32 22H30V24H32V22Z" fill="#D9A15E"/>
<path d="M48 22H32V24H48V22Z" fill="#A9C8E6"/>
<path d="M50 22H48V24H50V22Z" fill="#5F3F28"/>
<path d="M52 22H50V24H52V22Z" fill="#D9A15E"/>
<path d="M54 22H52V24H54V22Z" fill="#5F3F28"/>
<path d="M8 24H6V26H8V24Z" fill="#5F3F28"/>
<path d="M10 24H8V26H10V24Z" fill="#D9A15E"/>
<path d="M12 24H10V26H12V24Z" fill="#5F3F28"/>
<path d="M28 24H12V26H28V24Z" fill="#A9C8E6"/>
<path d="M30 24H28V26H30V24Z" fill="#E9BD7F"/>
<path d="M32 24H30V26H32V24Z" fill="#D9A15E"/>
<path d="M34 24H32V26H34V24Z" fill="#A9C8E6"/>
<path d="M42 24H34V26H42V24Z" fill="#FBF2DF"/>
<path d="M48 24H42V26H48V24Z" fill="#A9C8E6"/>
<path d="M50 24H48V26H50V24Z" fill="#5F3F28"/>
<path d="M52 24H50V26H52V24Z" fill="#D9A15E"/>
<path d="M54 24H52V26H54V24Z" fill="#5F3F28"/>
<path d="M8 26H6V28H8V26Z" fill="#5F3F28"/>
<path d="M10 26H8V28H10V26Z" fill="#D9A15E"/>
<path d="M12 26H10V28H12V26Z" fill="#5F3F28"/>
<path d="M28 26H12V28H28V26Z" fill="#A9C8E6"/>
<path d="M30 26H28V28H30V26Z" fill="#E9BD7F"/>
<path d="M32 26H30V28H32V26Z" fill="#D9A15E"/>
<path d="M44 26H32V28H44V26Z" fill="#FBF2DF"/>
<path d="M48 26H44V28H48V26Z" fill="#A9C8E6"/>
<path d="M50 26H48V28H50V26Z" fill="#5F3F28"/>
<path d="M52 26H50V28H52V26Z" fill="#D9A15E"/>
<path d="M54 26H52V28H54V26Z" fill="#5F3F28"/>
<path d="M8 28H6V30H8V28Z" fill="#5F3F28"/>
<path d="M10 28H8V30H10V28Z" fill="#D9A15E"/>
<path d="M12 28H10V30H12V28Z" fill="#5F3F28"/>
<path d="M48 28H12V30H48V28Z" fill="#E9BD7F"/>
<path d="M50 28H48V30H50V28Z" fill="#5F3F28"/>
<path d="M52 28H50V30H52V28Z" fill="#D9A15E"/>
<path d="M54 28H52V30H54V28Z" fill="#5F3F28"/>
<path d="M8 30H6V32H8V30Z" fill="#5F3F28"/>
<path d="M10 30H8V32H10V30Z" fill="#D9A15E"/>
<path d="M12 30H10V32H12V30Z" fill="#5F3F28"/>
<path d="M48 30H12V32H48V30Z" fill="#D9A15E"/>
<path d="M50 30H48V32H50V30Z" fill="#5F3F28"/>
<path d="M52 30H50V32H52V30Z" fill="#D9A15E"/>
<path d="M54 30H52V32H54V30Z" fill="#5F3F28"/>
<path d="M8 32H6V34H8V32Z" fill="#5F3F28"/>
<path d="M10 32H8V34H10V32Z" fill="#D9A15E"/>
<path d="M12 32H10V34H12V32Z" fill="#5F3F28"/>
<path d="M28 32H12V34H28V32Z" fill="#A9C8E6"/>
<path d="M30 32H28V34H30V32Z" fill="#E9BD7F"/>
<path d="M32 32H30V34H32V32Z" fill="#D9A15E"/>
<path d="M48 32H32V34H48V32Z" fill="#A9C8E6"/>
<path d="M50 32H48V34H50V32Z" fill="#5F3F28"/>
<path d="M52 32H50V34H52V32Z" fill="#D9A15E"/>
<path d="M54 32H52V34H54V32Z" fill="#5F3F28"/>
<path d="M8 34H6V36H8V34Z" fill="#5F3F28"/>
<path d="M10 34H8V36H10V34Z" fill="#D9A15E"/>
<path d="M12 34H10V36H12V34Z" fill="#5F3F28"/>
<path d="M28 34H12V36H28V34Z" fill="#A9BF7E"/>
<path d="M30 34H28V36H30V34Z" fill="#E9BD7F"/>
<path d="M32 34H30V36H32V34Z" fill="#D9A15E"/>
<path d="M48 34H32V36H48V34Z" fill="#A9BF7E"/>
<path d="M50 34H48V36H50V34Z" fill="#5F3F28"/>
<path d="M52 34H50V36H52V34Z" fill="#D9A15E"/>
<path d="M54 34H52V36H54V34Z" fill="#5F3F28"/>
<path d="M8 36H6V38H8V36Z" fill="#5F3F28"/>
<path d="M10 36H8V38H10V36Z" fill="#D9A15E"/>
<path d="M12 36H10V38H12V36Z" fill="#5F3F28"/>
<path d="M28 36H12V38H28V36Z" fill="#74904D"/>
<path d="M30 36H28V38H30V36Z" fill="#E9BD7F"/>
<path d="M32 36H30V38H32V36Z" fill="#D9A15E"/>
<path d="M48 36H32V38H48V36Z" fill="#74904D"/>
<path d="M50 36H48V38H50V36Z" fill="#5F3F28"/>
<path d="M52 36H50V38H52V36Z" fill="#D9A15E"/>
<path d="M54 36H52V38H54V36Z" fill="#5F3F28"/>
<path d="M8 38H6V40H8V38Z" fill="#5F3F28"/>
<path d="M10 38H8V40H10V38Z" fill="#D9A15E"/>
<path d="M12 38H10V40H12V38Z" fill="#5F3F28"/>
<path d="M28 38H12V40H28V38Z" fill="#74904D"/>
<path d="M30 38H28V40H30V38Z" fill="#E9BD7F"/>
<path d="M32 38H30V40H32V38Z" fill="#D9A15E"/>
<path d="M48 38H32V40H48V38Z" fill="#74904D"/>
<path d="M50 38H48V40H50V38Z" fill="#5F3F28"/>
<path d="M52 38H50V40H52V38Z" fill="#D9A15E"/>
<path d="M54 38H52V40H54V38Z" fill="#5F3F28"/>
<path d="M8 40H6V42H8V40Z" fill="#5F3F28"/>
<path d="M10 40H8V42H10V40Z" fill="#D9A15E"/>
<path d="M12 40H10V42H12V40Z" fill="#5F3F28"/>
<path d="M28 40H12V42H28V40Z" fill="#74904D"/>
<path d="M30 40H28V42H30V40Z" fill="#E9BD7F"/>
<path d="M32 40H30V42H32V40Z" fill="#D9A15E"/>
<path d="M48 40H32V42H48V40Z" fill="#74904D"/>
<path d="M50 40H48V42H50V40Z" fill="#5F3F28"/>
<path d="M52 40H50V42H52V40Z" fill="#D9A15E"/>
<path d="M54 40H52V42H54V40Z" fill="#5F3F28"/>
<path d="M8 42H6V44H8V42Z" fill="#5F3F28"/>
<path d="M10 42H8V44H10V42Z" fill="#D9A15E"/>
<path d="M12 42H10V44H12V42Z" fill="#5F3F28"/>
<path d="M28 42H12V44H28V42Z" fill="#5C7440"/>
<path d="M30 42H28V44H30V42Z" fill="#E9BD7F"/>
<path d="M32 42H30V44H32V42Z" fill="#D9A15E"/>
<path d="M48 42H32V44H48V42Z" fill="#5C7440"/>
<path d="M50 42H48V44H50V42Z" fill="#5F3F28"/>
<path d="M52 42H50V44H52V42Z" fill="#D9A15E"/>
<path d="M54 42H52V44H54V42Z" fill="#5F3F28"/>
<path d="M8 44H6V46H8V44Z" fill="#5F3F28"/>
<path d="M10 44H8V46H10V44Z" fill="#D9A15E"/>
<path d="M12 44H10V46H12V44Z" fill="#5F3F28"/>
<path d="M28 44H12V46H28V44Z" fill="#A9C8E6"/>
<path d="M30 44H28V46H30V44Z" fill="#E9BD7F"/>
<path d="M32 44H30V46H32V44Z" fill="#D9A15E"/>
<path d="M48 44H32V46H48V44Z" fill="#A9C8E6"/>
<path d="M50 44H48V46H50V44Z" fill="#5F3F28"/>
<path d="M52 44H50V46H52V44Z" fill="#D9A15E"/>
<path d="M54 44H52V46H54V44Z" fill="#5F3F28"/>
<path d="M8 46H6V48H8V46Z" fill="#5F3F28"/>
<path d="M10 46H8V48H10V46Z" fill="#D9A15E"/>
<path d="M12 46H10V48H12V46Z" fill="#5F3F28"/>
<path d="M28 46H12V48H28V46Z" fill="#A9C8E6"/>
<path d="M30 46H28V48H30V46Z" fill="#E9BD7F"/>
<path d="M32 46H30V48H32V46Z" fill="#D9A15E"/>
<path d="M48 46H32V48H48V46Z" fill="#A9C8E6"/>
<path d="M50 46H48V48H50V46Z" fill="#5F3F28"/>
<path d="M52 46H50V48H52V46Z" fill="#D9A15E"/>
<path d="M54 46H52V48H54V46Z" fill="#5F3F28"/>
<path d="M8 48H6V50H8V48Z" fill="#5F3F28"/>
<path d="M10 48H8V50H10V48Z" fill="#D9A15E"/>
<path d="M50 48H10V50H50V48Z" fill="#5F3F28"/>
<path d="M52 48H50V50H52V48Z" fill="#D9A15E"/>
<path d="M54 48H52V50H54V48Z" fill="#5F3F28"/>
<path d="M8 50H6V52H8V50Z" fill="#5F3F28"/>
<path d="M52 50H8V52H52V50Z" fill="#D9A15E"/>
<path d="M54 50H52V52H54V50Z" fill="#5F3F28"/>
<path d="M54 52H6V54H54V52Z" fill="#5F3F28"/>
</svg>
