<svg width="60" height="60" viewBox="0 0 60 60" fill="none" xmlns="http://www.w3.org/2000/svg">
<path d="M39.3948 9H19.6246C18.7147 9 17.9771 10.1612 17.9771 11.5935V46.6059C17.9771 48.0383 18.7147 49.1994 19.6246 49.1994H39.3948C40.3047 49.1994 41.0423 48.0383 41.0423 46.6059V11.5935C41.0423 10.1612 40.3047 9 39.3948 9Z" fill="#DDCFA8" stroke="#2A241D" stroke-width="2.3" stroke-linejoin="round"/>
<path d="M36.7407 12H22.2593C21 12 21 12 21 13.2963V47H38L38 13.2963C38 12 38 12 36.7407 12Z" fill="#F4EDE0" stroke="#2A241D" stroke-width="2.3" stroke-linejoin="round"/>
<path d="M29.1802 12L29.5283 47" stroke="#2A241D" stroke-width="2.3" stroke-linecap="round" stroke-linejoin="round"/>
<path d="M21.272 28.1112H37.7472" stroke="#2A241D" stroke-width="2.3" stroke-linecap="round" stroke-linejoin="round"/>
<path d="M42.2608 47.1976H16.7958C16.3563 47.1976 16 47.5538 16 47.9933V50.3807C16 50.8202 16.3563 51.1765 16.7958 51.1765H42.2608C42.7003 51.1765 43.0566 50.8202 43.0566 50.3807V47.9933C43.0566 47.5538 42.7003 47.1976 42.2608 47.1976Z" fill="#DDCFA8" stroke="#2A241D" stroke-width="2.3" stroke-linejoin="round"/>
</svg>
