<svg width="32" height="32" viewBox="0 0 32 32" fill="none" xmlns="http://www.w3.org/2000/svg">
<path d="M21.0105 4.79999H10.4664C9.98113 4.79999 9.58774 5.41927 9.58774 6.18319V24.8565C9.58774 25.6204 9.98113 26.2397 10.4664 26.2397H21.0105C21.4958 26.2397 21.8892 25.6204 21.8892 24.8565V6.18319C21.8892 5.41927 21.4958 4.79999 21.0105 4.79999Z" fill="#DDCFA8" stroke="#2A241D" stroke-linejoin="round"/>
<path d="M19.5951 6.40002H11.8716C11.2 6.40002 11.2 6.40002 11.2 7.09138V25.0667H20.2667L20.2667 7.09138C20.2667 6.40002 20.2667 6.40002 19.5951 6.40002Z" fill="#F4EDE0" stroke="#2A241D" stroke-linejoin="round"/>
<path d="M15.5627 6.40002L15.7484 25.0667" stroke="#2A241D" stroke-linecap="round" stroke-linejoin="round"/>
<path d="M22.5391 25.172H8.95774C8.72334 25.172 8.53333 25.362 8.53333 25.5964V26.8697C8.53333 27.1041 8.72334 27.2941 8.95774 27.2941H22.5391C22.7735 27.2941 22.9635 27.1041 22.9635 26.8697V25.5964C22.9635 25.362 22.7735 25.172 22.5391 25.172Z" fill="#DDCFA8" stroke="#2A241D" stroke-linejoin="round"/>
</svg>
