<svg width="294" height="294" viewBox="0 0 294 294" fill="none" xmlns="http://www.w3.org/2000/svg">
<g clip-path="url(#clip0_129_2028)">
<rect width="294" height="294" fill="#E9BD7F"/>
<rect x="51" y="40" width="199" height="2" fill="#D9A15E"/>
<rect y="40" width="49" height="2" fill="#D9A15E"/>
<rect y="82" width="49" height="2" fill="#D9A15E"/>
<rect x="51" y="82" width="98" height="2" fill="#D9A15E"/>
<rect x="82" y="124" width="67" height="2" fill="#D9A15E"/>
<rect y="124" width="80" height="2" fill="#D9A15E"/>
<rect x="51" y="166" width="29" height="2" fill="#D9A15E"/>
<rect y="166" width="49" height="2" fill="#D9A15E"/>
<rect x="252" y="40" width="48" height="2" fill="#D9A15E"/>
<rect x="252" y="29" width="11" height="2" transform="rotate(90 252 29)" fill="#D9A15E"/>
<rect x="252" y="12" width="15" height="2" transform="rotate(90 252 12)" fill="#D9A15E"/>
<rect x="250" y="10" width="2" height="2" transform="rotate(90 250 10)" fill="#D9A15E"/>
<rect x="250" y="27" width="2" height="2" transform="rotate(90 250 27)" fill="#D9A15E"/>
<rect x="149" y="90" width="2" height="2" transform="rotate(90 149 90)" fill="#D9A15E"/>
<rect x="149" y="100" width="2" height="2" transform="rotate(90 149 100)" fill="#D9A15E"/>
<rect x="84" y="130" width="2" height="2" transform="rotate(90 84 130)" fill="#D9A15E"/>
<rect x="84" y="156" width="2" height="2" transform="rotate(90 84 156)" fill="#D9A15E"/>
<rect x="49" y="174" width="2" height="2" transform="rotate(90 49 174)" fill="#D9A15E"/>
<rect x="49" y="186" width="2" height="2" transform="rotate(90 49 186)" fill="#D9A15E"/>
<rect x="49" y="193" width="2" height="2" transform="rotate(90 49 193)" fill="#D9A15E"/>
<rect x="202" y="223" width="2" height="2" transform="rotate(90 202 223)" fill="#D9A15E"/>
<rect x="39" y="266" width="2" height="2" transform="rotate(90 39 266)" fill="#D9A15E"/>
<rect x="53" y="47" width="2" height="2" transform="rotate(90 53 47)" fill="#D9A15E"/>
<rect x="53" y="59" width="2" height="2" transform="rotate(90 53 59)" fill="#D9A15E"/>
<rect x="53" y="66" width="2" height="2" transform="rotate(90 53 66)" fill="#D9A15E"/>
<rect x="53" y="76" width="2" height="2" transform="rotate(90 53 76)" fill="#D9A15E"/>
<rect x="252" width="10" height="2" transform="rotate(90 252 0)" fill="#D9A15E"/>
<rect x="82" y="132" width="24" height="2" transform="rotate(90 82 132)" fill="#D9A15E"/>
<rect x="82" y="158" width="8" height="2" transform="rotate(90 82 158)" fill="#D9A15E"/>
<rect x="82" y="126" width="4" height="2" transform="rotate(90 82 126)" fill="#D9A15E"/>
<rect x="151" y="84" width="6" height="2" transform="rotate(90 151 84)" fill="#D9A15E"/>
<rect x="151" y="92" width="8" height="2" transform="rotate(90 151 92)" fill="#D9A15E"/>
<rect x="151" y="102" width="22" height="2" transform="rotate(90 151 102)" fill="#D9A15E"/>
<rect x="200" y="212" width="11" height="2" transform="rotate(90 200 212)" fill="#D9A15E"/>
<rect x="200" y="225" width="25" height="2" transform="rotate(90 200 225)" fill="#D9A15E"/>
<rect x="300" y="208" width="2.00001" height="100" transform="rotate(90 300 208)" fill="#D9A15E"/>
<rect x="200" y="210" width="2" height="2" transform="rotate(90 200 210)" fill="#D9A15E"/>
<rect x="300" y="250" width="2.00001" height="100" transform="rotate(90 300 250)" fill="#D9A15E"/>
<rect x="51" y="42" width="5" height="2" transform="rotate(90 51 42)" fill="#D9A15E"/>
<rect x="51" y="49" width="10" height="2" transform="rotate(90 51 49)" fill="#D9A15E"/>
<rect x="51" y="61" width="5" height="2" transform="rotate(90 51 61)" fill="#D9A15E"/>
<rect x="51" y="68" width="8" height="2" transform="rotate(90 51 68)" fill="#D9A15E"/>
<rect x="51" y="78" width="4" height="2" transform="rotate(90 51 78)" fill="#D9A15E"/>
<rect x="41" y="252" width="14" height="2" transform="rotate(90 41 252)" fill="#D9A15E"/>
<rect x="41" y="268" width="24" height="2" transform="rotate(90 41 268)" fill="#D9A15E"/>
<rect x="51" y="168" width="6" height="2" transform="rotate(90 51 168)" fill="#D9A15E"/>
<rect x="51" y="176" width="10" height="2" transform="rotate(90 51 176)" fill="#D9A15E"/>
<rect x="51" y="188" width="5" height="2" transform="rotate(90 51 188)" fill="#D9A15E"/>
<rect x="51" y="195" width="13" height="2" transform="rotate(90 51 195)" fill="#D9A15E"/>
<rect x="151" y="82" width="149" height="2" fill="#D9A15E"/>
<rect x="151" y="124" width="149" height="2" fill="#D9A15E"/>
<rect x="82" y="166" width="218" height="2" fill="#D9A15E"/>
<rect x="51" y="208" width="147" height="2" fill="#D9A15E"/>
<rect y="208" width="49" height="2" fill="#D9A15E"/>
<rect x="41" y="250" width="157" height="2" fill="#D9A15E"/>
<rect y="250" width="39" height="2" fill="#D9A15E"/>
<rect y="292" width="39" height="2" fill="#D9A15E"/>
<rect x="41" y="292" width="259" height="2" fill="#D9A15E"/>
</g>
<defs>
<clipPath id="clip0_129_2028">
<rect width="294" height="294" fill="white"/>
</clipPath>
</defs>
</svg>
